<svg width="234" height="94" viewBox="0 0 234 94" fill="none" xmlns="http://www.w3.org/2000/svg">
<g id="banana">
<path id="Vector 59" d="M46.5137 81.3458L46.875 91.3778C54.056 93.1881 57.5369 93.3856 63.8554 91.3778C68.1732 89.6006 69.3244 88.4505 71.0812 86.3618C69.1712 84.9286 68.1112 84.0704 66.3844 81.7041C64.6709 81.5985 63.766 81.5442 60.9651 81.3458C57.2548 80.0474 55.1873 79.6942 53.3781 78.4795L46.5137 81.3458Z" fill="#835C21"/>
<g id="Vector 58">
<path d="M0.791026 53.5708L6.25047 41.9695C7.10123 49.7427 6.4019 54.0193 11.7099 62.1012C14.8033 66.5501 16.9157 68.0629 21.2639 69.2667C25.1754 71.1601 27.149 71.7333 29.1119 69.2667C31.5115 67.3753 32.6247 66.2217 34.5713 64.1485C38.9392 67.2003 40.9697 69.8079 44.4666 74.7262C49.8392 77.7182 51.2221 77.9942 53.6794 78.4795C52.5193 80.5857 51.2658 81.6194 48.22 83.2565C48.5747 86.816 48.3779 88.6854 47.1963 91.7869C42.2375 86.6039 39.0072 84.5456 32.5241 82.2329C27.1118 82.9835 23.8871 82.6287 18.193 82.2329C17.1278 81.8834 17.9071 82.3511 13.0748 80.1856C6.88484 74.9855 3.45793 72.0332 0.44981 64.1485C-0.145508 60.0288 -0.26024 57.7155 0.791026 53.5708Z" fill="#C8A939"/>
<path d="M129.429 5.80066H126.699L113.733 24.9087L101.791 53.5708C101.81 60.129 102.65 63.7979 109.98 70.2904L127.723 74.7262L137.277 67.9019C132.607 66.1008 129.987 65.0787 124.993 60.0539C123.956 57.7776 124.264 56.6246 124.993 54.5945H126.699L130.112 39.581L127.723 40.2634C130.421 34.0144 131.784 29.6795 133.865 20.1317C133.222 14.5148 132.256 11.3768 129.429 5.80066Z" fill="#C8A939"/>
</g>
<g id="Vector 57">
<path d="M77.9059 29.6857C78.3663 22.9954 78.9193 20.6719 80.2944 18.4256C74.1527 16.081 70.9085 16.4465 65.281 18.4256C60.9061 19.5901 58.6382 20.589 55.3857 23.8851C53.3708 30.3791 54.9339 32.79 56.7506 37.5337C63.5267 45.7866 66.6458 46.4053 69.3755 48.1113C74.835 50.4999 76.571 50.7575 81.6593 49.4762C80.7072 51.7972 80.5102 52.6217 75.5171 53.5708C70.524 54.5199 67.0951 52.028 62.21 48.1113C51.9131 39.6511 45.8975 38.487 35.254 35.1452C27.3329 32.6311 23.0814 33.6974 15.4635 35.1452L15.4615 35.1463C11.0962 37.5418 8.64711 38.8858 6.2507 41.9695C2.70681 52.8204 7.86662 56.7518 12.0514 64.8309C16.9777 69.2969 20.1271 70.5018 26.0412 71.6552C29.2586 70.7456 30.1068 70.0809 29.7946 68.5843C26.5017 69.3283 24.7074 69.1409 21.6054 67.5606C15.4603 64.3718 15.4606 62.8206 15.4635 60.0539C16.4899 53.8157 18.8051 53.0754 23.6527 52.8884C44.4105 51.405 53.9664 54.3368 70.7404 60.0539L78.9296 61.76C92.393 62.0446 97.0766 60.2292 101.45 54.2532L113.051 31.0506L126.7 6.14186L118.169 3.07092C107.08 7.48593 103.257 12.3133 96.6727 21.1553C93.8947 29.1179 91.6295 32.664 86.4363 37.5337C80.8019 35.8951 79.484 33.8362 77.9059 29.6857Z" fill="#EECB4F"/>
<path d="M164.575 21.1553C143.275 30.5252 140.929 33.1177 130.112 39.581C127.165 43.0015 126.147 45.1557 125.676 49.4762C124.878 54.1596 125.61 55.4721 130.112 54.2532L146.149 46.4053C154.414 42.5173 156.469 40.6931 159.456 37.5337C174.235 24.8976 172.584 26.41 176.858 22.8614C172.187 21.0463 169.534 20.3373 164.575 21.1553Z" fill="#EECB4F"/>
<path d="M164.575 89.0572C152.291 86.6687 130.765 81.059 110.321 70.6316C121.628 71.6632 128.323 72.4755 132.159 68.5843C134.568 66.5001 137.575 66.4307 142.396 69.6079C152.977 73.3628 158.805 73.4877 176.858 76.091C194.912 78.6943 191.872 78.843 195.625 79.8444C210.045 83.6912 216.405 84.6837 230.77 84.9626C232.484 85.5417 233.102 86.313 233.159 89.0572C232.88 90.4623 231.893 91.2061 228.382 92.4693C229.072 93.4295 201.956 93.6798 191.872 92.4693C181.788 91.2589 176.858 91.4457 164.575 89.0572Z" fill="#EECB4F"/>
</g>
<path id="Vector 60" d="M118.51 3.41215L118.851 2.38851L119.534 1.36486L121.581 2.04729C122.301 2.29708 122.671 2.28032 123.287 2.04729C123.931 0.881922 124.307 0.484573 124.993 0C126.749 0.609164 127.769 0.840742 128.747 3.75337C129.478 4.82152 129.984 5.29237 131.135 5.80066C131.589 7.55022 131.273 7.9966 130.794 8.8716C130.794 8.8716 128.064 8.18917 126.017 6.48309C123.97 4.77701 118.51 3.41215 118.51 3.41215Z" fill="#4D433E"/>
</g>
</svg>
