<svg width="109" height="108" viewBox="0 0 109 108" fill="none" xmlns="http://www.w3.org/2000/svg">
<g id="candy">
<path id="Vector 53" d="M18.2687 58L0 47.2559C3.27019 42.6844 5.8398 41.5061 11.8806 42.1633C16.6896 35.1105 20.3939 34.1805 28 35.5181L26.9254 54.0253L18.2687 58Z" fill="#35AB5B"/>
<path id="Vector 55" d="M83.3613 27.7074L82.7344 6.52278C88.3452 6.85831 90.7102 8.40669 93.3689 13.8706C101.899 14.1884 104.658 16.8295 107.574 23.9808L91.3335 32.9208L83.3613 27.7074Z" fill="#AB3586"/>
<path id="Vector 54" d="M46.7313 87L65 96.8098C61.7298 100.984 59.1602 102.06 53.1194 101.46C48.3104 107.899 44.6061 108.748 37 107.527L38.0746 90.6291L46.7313 87Z" fill="#35AB5B"/>
<path id="Vector 56" d="M73.958 67.2384L75.3758 87.9258C70.1016 87.3787 67.8232 85.7758 65.1162 80.3422C57.1051 79.6981 54.4147 77.0139 51.4005 69.9246L66.2783 61.841L73.958 67.2384Z" fill="#AB3586"/>
<ellipse id="Ellipse 126" cx="32.8912" cy="72.1063" rx="15.5035" ry="20.8364" transform="rotate(-26.7622 32.8912 72.1063)" fill="#76F69F"/>
<ellipse id="Ellipse 128" cx="79.2012" cy="47.5945" rx="15.5035" ry="20.8364" transform="rotate(31.0824 79.2012 47.5945)" fill="#F676C9"/>
<ellipse id="Ellipse 127" cx="32.8799" cy="72.1222" rx="9.43309" ry="12.6779" transform="rotate(-26.7622 32.8799 72.1222)" fill="#FBF89D"/>
<ellipse id="Ellipse 129" cx="79.1817" cy="47.5934" rx="9.43309" ry="12.6779" transform="rotate(31.0824 79.1817 47.5934)" fill="#FFEECF"/>
</g>
</svg>
