<svg width="75" height="109" viewBox="0 0 75 109" fill="none" xmlns="http://www.w3.org/2000/svg">
<g id="coffee">
<g id="coffee_2">
<path id="Rectangle 71" d="M6.25 24.9791H68.75L63.5417 109H12.5L6.25 24.9791Z" fill="#E9B18E"/>
<path id="Rectangle 72" d="M6.25 40.875H68.75L66.6667 72.6667H8.33333L6.25 40.875Z" fill="#B77146"/>
<path id="Rectangle 73" d="M0 15.625C0 14.5204 0.895431 13.625 2 13.625H73C74.1046 13.625 75 14.5204 75 15.625V24.9792H0V15.625Z" fill="#E5E5E5"/>
<path id="Rectangle 74" d="M7.29167 6.8125C20.7141 6.48848 28.2358 6.54721 41.6667 5.67708C46.8955 4.76932 49.931 3.96788 56.25 0H63.75C66.5114 0 68.75 2.23858 68.75 5V13.625H6.25L7.29167 6.8125Z" fill="#C6C2C2"/>
</g>
</g>
</svg>
