<svg width="135" height="95" viewBox="0 0 135 95" fill="none" xmlns="http://www.w3.org/2000/svg">
<g id="denture">
<path id="Vector 48" d="M3.06384 59.5113V48.8475C20.7489 56.2707 33.3971 60.6023 46.7514 61.5753C65.8381 61.8537 77.5654 68.7602 89.7508 66.0473C126.537 56.8703 126.89 47.448 133.094 34.0557V48.8475C132.466 57.3317 131.288 61.4554 128.278 68.1112C111.257 81.2073 100.827 84.3568 82.1829 89.783C46.7239 87.9134 34.8129 80.5631 9.25576 70.8632C4.77061 66.283 3.56353 63.8063 3.06384 59.5113Z" fill="#CB3A3A"/>
<path id="Vector 50" d="M101.791 19.9518C101.103 18.8052 99.658 14.5855 99.3828 6.88L120.367 19.9518L124.494 38.5276C122.141 40.2669 120.311 40.2158 117.235 39.0624C117.56 39.8168 117.491 40.2878 116.239 39.2156C112.976 33.4569 105.218 22.0665 101.791 19.9518Z" fill="#CB3A3A"/>
<path id="Vector 47" d="M3.19803 49.0815L3.06396 49.1914C22.6791 59.6726 34.1515 64.2985 59.4793 68.4551C84.9604 69.8535 98.0966 67.8454 118.303 56.4153C129.365 47.7993 134.871 42.4714 132.75 24.4237C129.576 13.2519 125.445 8.07266 115.551 0C107.822 0.668026 104.503 2.48796 99.3828 6.87991C108.304 13.0062 113.204 16.5776 118.303 27.8637C119.859 34.7495 118.038 38.6588 108.327 45.7514C93.6414 53.0712 83.5382 55.2594 59.4793 52.9753C43.3185 51.0834 34.6577 48.0785 19.5758 40.9355C11.6251 42.1715 8.60064 44.6515 3.19803 49.0815Z" fill="#ED7C7C"/>
<g id="Vector 49">
<path d="M1 70.5192L6.84793 63.6392C11.5062 63.1949 13.8588 63.7386 17.1678 67.4232C17.7772 69.6024 17.7172 70.5381 17.1678 71.8951L22.3277 68.4552C26.4046 69.0907 29.1287 69.0317 32.3036 71.8951L33.8516 76.0231C36.6814 72.8364 38.4874 71.6312 42.6235 71.8951C47.4851 72.8173 50.0363 73.6991 52.2554 80.151L58.1033 73.6151C63.4416 71.1761 65.6337 72.4144 69.1112 76.0231L71.6739 80.151L74.6151 73.6151C77.8038 71.7418 79.4958 71.1774 81.839 73.6151C83.7442 75.914 84.4511 77.4522 85.279 80.495C86.0767 77.6252 86.6089 76.0448 88.7189 73.6151C89.8896 71.4507 91.402 70.8948 94.9108 70.5192C96.6962 72.0589 97.7294 73.0868 100.071 77.4723L103.511 70.5192C105.843 67.1971 107.437 66.583 110.735 67.4232L113.831 70.5192L117.615 63.9832C119.842 62.2007 121.041 61.6695 123.118 61.2313L124.838 63.1232C125.012 60.1827 125.357 58.6932 126.558 56.4153L128.278 54.0074L129.31 55.6022C130.727 55.0311 131.518 54.7057 132.062 52.2874V46.4395C133.244 46.4562 133.806 47.0768 134.126 52.2874L132.75 57.7913L131.395 58.8233L132.062 59.8553L132.75 68.1112C132.695 70.315 132.265 71.5217 130.686 73.6151L127.901 75.4883L128.278 78.4311L123.118 83.247C120.612 84.0947 119.207 84.0274 116.7 83.247L116.927 84.967C114.46 87.3075 112.667 88.4436 108.327 89.9772C105.991 90.3454 104.505 90.0784 101.791 89.4389C99.8473 90.6451 98.5152 91.2758 93.1908 91.8469C89.9025 92.5928 88.0144 92.166 84.591 90.4709L79.431 93.5669L71.6739 90.8149L71.5191 91.8469C69.519 93.2744 67.6856 93.7158 62.5752 93.5669C58.3171 93.2145 56.1903 92.5337 53.1224 89.9772L53.2873 91.8469C49.3799 91.5954 47.0005 91.3442 42.6235 90.8149C38.7422 89.3698 37.2667 88.0055 35.3996 84.967V86.687C31.6936 86.7837 29.2119 86.5628 23.0157 84.967C19.6436 83.3339 17.6594 82.2256 14.0718 80.151V79.119C8.40886 79.1108 5.50754 76.1245 1 70.5192Z" fill="white"/>
<path d="M17.1678 71.8951C17.7172 70.5381 17.7772 69.6024 17.1678 67.4232C13.8588 63.7386 11.5062 63.1949 6.84793 63.6392L1 70.5192C5.50754 76.1245 8.40886 79.1108 14.0718 79.119M17.1678 71.8951V79.119H14.0718M17.1678 71.8951C19.1829 70.5517 20.3127 69.7986 22.3277 68.4552C26.4046 69.0907 29.1287 69.0317 32.3036 71.8951L33.8516 76.0231M14.0718 79.119V80.151C17.6594 82.2256 19.6436 83.3339 23.0157 84.967C29.2119 86.5628 31.6936 86.7837 35.3996 86.687V84.967M33.8516 76.0231L35.3996 80.151V84.967M33.8516 76.0231C36.6814 72.8364 38.4874 71.6312 42.6235 71.8951C47.4851 72.8173 50.0363 73.6991 52.2554 80.151M52.2554 80.151L58.1033 73.6151C63.4416 71.1761 65.6337 72.4144 69.1112 76.0231L71.6739 80.151M52.2554 80.151L53.1224 89.9772M35.3996 84.967C37.2667 88.0055 38.7422 89.3698 42.6235 90.8149C47.0005 91.3442 49.3799 91.5954 53.2873 91.8469L53.1224 89.9772M53.1224 89.9772C56.1903 92.5337 58.3171 93.2145 62.5752 93.5669C67.6856 93.7158 69.519 93.2744 71.5191 91.8469L71.6739 90.8149M71.6739 80.151L72.5511 84.967L71.6739 90.8149M71.6739 80.151L74.6151 73.6151C77.8038 71.7418 79.4958 71.1774 81.839 73.6151C83.7442 75.914 84.4511 77.4522 85.279 80.495M85.279 80.495L85.9669 89.4389L84.591 90.4709M85.279 80.495C86.0767 77.6252 86.6089 76.0448 88.7189 73.6151C89.8896 71.4507 91.402 70.8948 94.9108 70.5192C96.6962 72.0589 97.7294 73.0868 100.071 77.4723M71.6739 90.8149L79.431 93.5669L84.591 90.4709M100.071 77.4723L101.791 89.4389M100.071 77.4723L103.511 70.5192C105.843 67.1971 107.437 66.583 110.735 67.4232L113.831 70.5192M101.791 89.4389C99.8473 90.6451 98.5152 91.2758 93.1909 91.8469C89.9025 92.5928 88.0144 92.166 84.591 90.4709M101.791 89.4389C104.505 90.0784 105.991 90.3454 108.327 89.9772C112.667 88.4436 114.46 87.3075 116.927 84.967L116.7 83.247M113.831 70.5192L115.207 71.8951L116.7 83.247M113.831 70.5192L117.615 63.9832C119.842 62.2007 121.041 61.6695 123.118 61.2313L124.838 63.1232M116.7 83.247C119.207 84.0274 120.612 84.0947 123.118 83.247L128.278 78.4311L127.901 75.4883M124.838 63.1232L126.558 65.0152L127.901 75.4883M124.838 63.1232C125.012 60.1827 125.357 58.6932 126.558 56.4153L128.278 54.0074L129.31 55.6022M127.901 75.4883L130.686 73.6151C132.265 71.5217 132.695 70.315 132.75 68.1112L132.062 59.8553L131.395 58.8233M129.31 55.6022C130.727 55.0311 131.518 54.7057 132.062 52.2874V46.4395C133.244 46.4562 133.806 47.0768 134.126 52.2874L132.75 57.7913L131.395 58.8233M129.31 55.6022L131.395 58.8233" stroke="#E2DCDC"/>
</g>
</g>
</svg>
