<svg width="148" height="165" viewBox="0 0 148 165" fill="none" xmlns="http://www.w3.org/2000/svg">
<g id="head_cap_recycle">
<path id="Ellipse 132" d="M147.369 116.25C151.781 130.274 133.136 155 89.2705 155C45.4052 155 11.8572 118.331 11.8572 78.5864C5.23837 38.7293 15.253 0 59.1184 0C82.3176 0 108.024 17.3452 115.01 36.1667C121.997 54.9881 142.956 102.226 147.369 116.25Z" fill="#C0E0E6"/>
<path id="Vector 64" d="M26.0266 66.6159C25.4471 54.4348 34.4771 37.1298 39.0645 30M43.4105 73.1415C46.5975 61.8304 62.1223 47.6433 69.4863 41.9636M59.7078 86.1927C69.1241 85.7093 90.8539 81.6248 102.443 69.1536M76.0052 110.12C104.109 109.54 118.378 105.044 122 102.869M84.6971 132.959C93.6788 137.6 104.375 137.31 108.6 136.585" stroke="#9ED0D9" stroke-width="3" stroke-linecap="round"/>
<path id="Ellipse 133" d="M69.1409 98.8946C85.057 123.513 89.9625 141.463 76.6884 150.045C63.4144 158.627 42.0331 145.403 26.117 120.785C10.2009 96.1673 3.01326 78.4412 16.2873 69.8592C29.5614 61.2772 53.2247 74.2768 69.1409 98.8946Z" fill="#E7FBFF"/>
<path id="Ellipse 134" d="M64.0853 104.352C78.3387 126.398 82.7318 142.473 70.8444 150.159C58.957 157.844 39.8094 146.002 25.556 123.956C11.3026 101.91 4.86583 86.0356 16.7532 78.3501C28.6406 70.6646 49.8319 82.3062 64.0853 104.352Z" fill="#87A7AC"/>
<g id="Linked Path Group">
<path id="[Copy] recyclable" d="M37.8802 22.6287C37.4872 22.8852 37.1135 22.9763 36.7592 22.9019C36.3991 22.8185 36.0907 22.5803 35.8342 22.1873L31.2163 15.1131C30.9539 14.7112 30.86 14.333 30.9344 13.9787C31.0178 13.6186 31.2559 13.3103 31.649 13.0537L34.9449 10.9022C36.0167 10.2025 37.0149 9.9267 37.9395 10.0747C38.8672 10.2079 39.6343 10.739 40.2407 11.668C40.6313 12.2664 40.8384 12.8764 40.862 13.4979C40.8887 14.1047 40.7306 14.6919 40.3878 15.2596C40.0482 15.8125 39.5166 16.3251 38.7931 16.7974L38.7429 16.4862L39.386 16.0664C39.77 15.8157 40.1707 15.6879 40.5879 15.6831C40.9993 15.6693 41.4256 15.7859 41.867 16.0327L43.3241 16.8013C43.6361 16.967 43.8692 17.1778 44.0236 17.4338C44.172 17.6808 44.205 17.9459 44.1224 18.2291C44.0428 18.4976 43.8289 18.7455 43.4806 18.9729C43.1322 19.2003 42.7997 19.3154 42.4831 19.3182C42.1755 19.3153 41.8377 19.2173 41.4697 19.0244L38.7899 17.5828C38.5545 17.4563 38.3286 17.4127 38.1122 17.452C37.899 17.4766 37.6852 17.5588 37.4708 17.6988L36.7339 18.1798L38.2994 20.578C38.556 20.971 38.6544 21.3463 38.5947 21.7037C38.5292 22.0521 38.291 22.3605 37.8802 22.6287ZM35.5969 16.438L37.2315 15.371C37.7049 15.062 38.0054 14.7321 38.1331 14.3812C38.2607 14.0304 38.1963 13.6585 37.9397 13.2655C37.6948 12.8903 37.3861 12.6906 37.0136 12.6663C36.6352 12.633 36.2093 12.7709 35.7359 13.08L34.1014 14.147L35.5969 16.438Z" fill="#2B91A1"/>
<path id="[Copy] recyclable_2" d="M46.8808 17.2584C46.4009 17.4034 45.9963 17.3918 45.667 17.2239C45.3448 17.0426 45.1128 16.7171 44.971 16.2474L42.5888 8.35923C42.447 7.88951 42.4616 7.49512 42.6326 7.17604C42.8108 6.84367 43.1399 6.60501 43.6198 6.46008L48.8122 4.89204C49.1798 4.78103 49.4833 4.78967 49.7226 4.91796C49.9619 5.04626 50.134 5.284 50.2388 5.63118C50.3467 5.98857 50.3381 6.29203 50.2129 6.54155C50.0846 6.78085 49.8366 6.95601 49.469 7.06703L45.502 8.26503L46.1218 10.3175L49.7519 9.22124C50.1093 9.11331 50.4076 9.12349 50.6469 9.25179C50.8965 9.377 51.0752 9.6183 51.1831 9.9757C51.291 10.3331 51.2757 10.633 51.1372 10.8754C51.0089 11.1147 50.7661 11.2883 50.4087 11.3962L46.7786 12.4925L47.4493 14.7134L51.4164 13.5154C51.784 13.4044 52.089 13.4181 52.3314 13.5566C52.5707 13.6849 52.7428 13.9227 52.8476 14.2699C52.9555 14.6273 52.9453 14.9256 52.817 15.1649C52.6888 15.4042 52.4408 15.5794 52.0732 15.6904L46.8808 17.2584Z" fill="#2B91A1"/>
<path id="[Copy] recyclable_3" d="M61.007 14.6805C59.7638 14.7893 58.6749 14.6436 57.7405 14.2435C56.8061 13.8434 56.0617 13.2286 55.5073 12.3991C54.9635 11.5687 54.6405 10.569 54.5382 9.40016C54.462 8.52882 54.5256 7.72556 54.7289 6.99037C54.9429 6.25426 55.2826 5.60886 55.7481 5.05419C56.2241 4.49858 56.8171 4.05588 57.5271 3.72609C58.2467 3.38474 59.0688 3.17362 59.9933 3.09275C60.4821 3.04999 60.9919 3.06427 61.5228 3.13561C62.0634 3.19539 62.5454 3.31919 62.9687 3.50701C63.2802 3.64037 63.5051 3.82414 63.6433 4.05832C63.7816 4.29249 63.8406 4.53895 63.8204 4.79769C63.8109 5.05551 63.7405 5.29187 63.6094 5.50678C63.4783 5.72169 63.2991 5.87656 63.0719 5.9714C62.8437 6.05561 62.5854 6.04073 62.297 5.92676C61.9652 5.80588 61.6367 5.72219 61.3114 5.6757C60.9958 5.61765 60.668 5.6035 60.328 5.63325C59.6691 5.69088 59.1277 5.86673 58.7038 6.16081C58.2895 6.44332 57.9917 6.83342 57.8104 7.33112C57.629 7.82881 57.5691 8.42832 57.6304 9.12964C57.6918 9.83097 57.8554 10.4163 58.1213 10.8855C58.3863 11.3442 58.7478 11.682 59.2057 11.8989C59.6734 12.1042 60.2367 12.1781 60.8955 12.1205C61.1718 12.0963 61.4665 12.0384 61.7797 11.9467C62.092 11.8445 62.3957 11.7055 62.6908 11.5298C62.9975 11.3637 63.2759 11.3019 63.5259 11.3443C63.7865 11.3857 63.9995 11.4956 64.165 11.6738C64.3411 11.8512 64.4616 12.0655 64.5264 12.3168C64.5903 12.5575 64.5745 12.8051 64.479 13.0597C64.3941 13.3134 64.22 13.5267 63.9568 13.6997C63.6044 13.9554 63.1575 14.1711 62.6161 14.347C62.0853 14.5219 61.549 14.6331 61.007 14.6805Z" fill="#2B91A1"/>
<path id="[Copy] recyclable_4" d="M69.4104 16.4373C68.9582 16.3115 68.6431 16.091 68.4651 15.7757C68.2899 15.4502 68.2681 15.0511 68.3996 14.5784L69.5747 10.3548L69.7273 12.0746L67.6014 5.98604C67.4953 5.6908 67.494 5.39704 67.5975 5.10474C67.7141 4.80502 67.9089 4.58242 68.1819 4.43693C68.468 4.28403 68.8166 4.26475 69.2276 4.37911C69.5154 4.45916 69.7574 4.604 69.9537 4.81363C70.1529 5.01297 70.3095 5.30566 70.4236 5.69169L71.6982 9.46747L71.1433 9.31309L74.189 6.72265C74.4963 6.45385 74.7816 6.2841 75.0448 6.2134C75.3081 6.1427 75.5938 6.15024 75.9021 6.23601C76.2926 6.34465 76.5686 6.52662 76.7301 6.78191C76.8916 7.0372 76.936 7.31528 76.8634 7.61615C76.801 7.91989 76.6242 8.19731 76.3329 8.44842L71.4075 12.542L72.411 11.1438L71.2359 15.3674C70.9643 16.3437 70.3558 16.7003 69.4104 16.4373Z" fill="#2B91A1"/>
<path id="[Copy] recyclable_5" d="M80.0992 20.6829C78.9851 20.1206 78.1362 19.4233 77.5526 18.591C76.9691 17.7588 76.6601 16.8441 76.6257 15.847C76.6008 14.8546 76.8528 13.8348 77.3815 12.7873C77.7756 12.0065 78.2527 11.3571 78.8128 10.8393C79.3824 10.3262 80.0111 9.95655 80.6989 9.73018C81.3962 9.50862 82.1335 9.44463 82.9107 9.53822C83.7022 9.62709 84.5122 9.8806 85.3406 10.2988C85.7787 10.5199 86.2045 10.8005 86.6183 11.1408C87.0463 11.4763 87.3908 11.8354 87.6517 12.218C87.8463 12.4955 87.9406 12.7701 87.9348 13.042C87.929 13.3139 87.8494 13.5545 87.696 13.7638C87.552 13.9779 87.3678 14.1418 87.1431 14.2554C86.9185 14.3691 86.6846 14.4063 86.4415 14.3672C86.2031 14.3186 85.9914 14.17 85.8063 13.9212C85.5879 13.6437 85.3527 13.3995 85.1007 13.1887C84.863 12.9731 84.5918 12.7884 84.2871 12.6346C83.6967 12.3366 83.1438 12.2009 82.6286 12.2276C82.1276 12.2496 81.669 12.4243 81.2527 12.7519C80.8365 13.0795 80.4697 13.5575 80.1525 14.186C79.8353 14.8144 79.6661 15.3982 79.645 15.9371C79.6286 16.4666 79.758 16.9441 80.0331 17.3697C80.3225 17.7906 80.7624 18.15 81.3527 18.448C81.6003 18.573 81.8814 18.679 82.1959 18.7661C82.5152 18.8436 82.8466 18.8854 83.19 18.8915C83.5382 18.9119 83.8073 19.0059 83.9975 19.1736C84.1972 19.3461 84.3205 19.5517 84.3673 19.7904C84.4236 20.0339 84.4131 20.2795 84.3358 20.5273C84.2634 20.7655 84.1195 20.9677 83.9042 21.1338C83.6984 21.3048 83.4381 21.3944 83.1232 21.4028C82.689 21.4345 82.1955 21.3826 81.6427 21.2469C81.0993 21.1161 80.5849 20.9281 80.0992 20.6829Z" fill="#2B91A1"/>
<path id="[Copy] recyclable_6" d="M85.793 23.9814C85.4261 23.6887 85.2182 23.3592 85.1694 22.9928C85.1355 22.6247 85.2649 22.2572 85.5576 21.8902L90.7455 15.3858C91.0448 15.0106 91.3744 14.8027 91.7341 14.7622C92.0939 14.7217 92.4572 14.8478 92.8242 15.1404C93.1994 15.4397 93.4031 15.7659 93.4353 16.119C93.4758 16.4788 93.3464 16.8463 93.0471 17.2216L88.4577 22.9755L91.5098 25.4098C91.8267 25.6626 92.002 25.9389 92.0358 26.2387C92.0845 26.5368 91.9858 26.8401 91.7397 27.1487C91.4937 27.4572 91.2165 27.625 90.9084 27.6521C90.6086 27.6859 90.3002 27.5764 89.9834 27.3236L85.793 23.9814Z" fill="#2B91A1"/>
<path id="[Copy] recyclable_7" d="M91.9554 29.2679C91.7425 29.0149 91.621 28.7547 91.5909 28.4872C91.569 28.2127 91.6429 27.9693 91.8126 27.7567C91.9904 27.5373 92.2579 27.3748 92.6152 27.2692L101.742 24.7934C102.183 24.6724 102.567 24.6561 102.893 24.7446C103.225 24.8413 103.508 25.0283 103.742 25.3057C103.975 25.5832 104.104 25.8857 104.129 26.2134C104.161 26.5492 104.083 26.9286 103.895 27.3515L99.9008 35.9226C99.7496 36.273 99.5507 36.5171 99.3042 36.6549C99.0646 36.8009 98.8155 36.8363 98.557 36.7612C98.3054 36.6941 98.0765 36.5382 97.8704 36.2934C97.5956 35.9671 97.4561 35.6523 97.4518 35.3491C97.4545 35.0541 97.5606 34.6998 97.7702 34.2863L98.7681 32.3166L98.8652 33.699L94.6196 28.6562L95.9755 28.9997L93.8646 29.6475C93.4146 29.7754 93.0508 29.8237 92.7734 29.7923C92.496 29.7609 92.2233 29.5861 91.9554 29.2679ZM101.261 27.3525L96.6751 28.7872L96.974 27.9499L99.9727 31.5116L99.0967 31.6635L101.281 27.377L101.261 27.3525Z" fill="#2B91A1"/>
<path id="[Copy] recyclable_8" d="M100.216 39.6853C99.964 39.2516 99.8821 38.8552 99.9698 38.4961C100.072 38.1408 100.335 37.8401 100.76 37.594L107.888 33.4603C108.312 33.2141 108.7 33.1376 109.049 33.2306C109.414 33.3275 109.722 33.5928 109.973 34.0265L111.932 37.4037C112.339 38.1049 112.578 38.7616 112.649 39.3738C112.735 39.9898 112.664 40.5366 112.435 41.0144C112.207 41.4922 111.839 41.8782 111.331 42.1725C110.759 42.5043 110.174 42.6218 109.575 42.5251C108.982 42.4376 108.448 42.1552 107.974 41.6779L108.196 41.5495C108.461 42.2834 108.49 42.9507 108.284 43.5514C108.083 44.1613 107.659 44.6535 107.013 45.0281C106.155 45.5258 105.298 45.6099 104.441 45.2807C103.598 44.9553 102.87 44.262 102.254 43.2009L100.216 39.6853ZM102.726 39.7089L103.922 41.7713C104.195 42.2418 104.481 42.5324 104.779 42.643C105.092 42.7574 105.429 42.7103 105.788 42.5016C106.148 42.2929 106.352 42.027 106.399 41.7039C106.451 41.39 106.34 40.9977 106.068 40.5271L104.872 38.4648L102.726 39.7089ZM106.74 37.3812L107.792 39.1944C108.059 39.6557 108.338 39.9444 108.627 40.0603C108.921 40.1854 109.239 40.149 109.581 39.951C109.922 39.753 110.107 39.4978 110.135 39.1854C110.178 38.8768 110.066 38.4919 109.799 38.0305L108.747 36.2173L106.74 37.3812Z" fill="#2B91A1"/>
<path id="[Copy] recyclable_9" d="M105.544 49.6178C105.357 49.1874 105.328 48.7988 105.457 48.4522C105.599 48.1112 105.886 47.8471 106.316 47.66L113.946 44.3437C114.387 44.1524 114.775 44.1231 115.112 44.2558C115.449 44.3886 115.711 44.6701 115.898 45.1006C116.089 45.5408 116.116 45.9244 115.979 46.2515C115.847 46.5883 115.56 46.8524 115.12 47.0437L108.37 49.9774L109.926 53.5578C110.088 53.9296 110.113 54.2558 110.002 54.5365C109.906 54.8227 109.677 55.0445 109.315 55.2018C108.953 55.3591 108.629 55.3775 108.344 55.2571C108.064 55.1465 107.842 54.9053 107.681 54.5336L105.544 49.6178Z" fill="#2B91A1"/>
<path id="[Copy] recyclable_10" d="M109.051 58.1701C108.891 57.695 108.89 57.2903 109.047 56.9558C109.218 56.6281 109.536 56.3859 110.001 56.2292L117.81 53.5981C118.275 53.4414 118.67 53.4435 118.994 53.6043C119.332 53.7719 119.581 54.0932 119.741 54.5683L121.473 59.7084C121.595 60.0723 121.596 60.3758 121.476 60.6191C121.355 60.8623 121.123 61.0419 120.779 61.1577C120.425 61.2769 120.122 61.2779 119.869 61.1606C119.625 61.04 119.442 60.7977 119.32 60.4338L117.996 56.5068L115.965 57.1914L117.176 60.7849C117.295 61.1386 117.294 61.4372 117.173 61.6804C117.056 61.9338 116.821 62.1201 116.467 62.2393C116.113 62.3585 115.813 62.3527 115.566 62.222C115.323 62.1013 115.142 61.8641 115.022 61.5103L113.812 57.9168L111.613 58.6576L112.936 62.5847C113.059 62.9486 113.055 63.2539 112.924 63.5006C112.804 63.7438 112.571 63.9233 112.228 64.0391C111.874 64.1584 111.575 64.1576 111.332 64.037C111.089 63.9164 110.906 63.6741 110.783 63.3102L109.051 58.1701Z" fill="#2B91A1"/>
</g>
</g>
</svg>
