<svg width="148" height="165" viewBox="0 0 148 165" fill="none" xmlns="http://www.w3.org/2000/svg">
<g id="head_cap_no_recycle">
<g id="head_cap_recycle">
<path id="Ellipse 132" d="M147.369 116.25C151.781 130.274 133.136 155 89.2705 155C45.4052 155 11.8572 118.331 11.8572 78.5864C5.23837 38.7293 15.253 0 59.1184 0C82.3176 0 108.024 17.3452 115.01 36.1667C121.997 54.9881 142.956 102.226 147.369 116.25Z" fill="#9ED4FF"/>
<path id="Vector 64" d="M26.0266 66.6159C25.4471 54.4348 34.4771 37.1298 39.0645 30M43.4105 73.1415C46.5975 61.8304 62.1223 47.6433 69.4863 41.9636M59.7078 86.1927C69.1241 85.7093 90.8539 81.6248 102.443 69.1536M76.0052 110.12C104.109 109.54 118.378 105.044 122 102.869M84.6971 132.959C93.6788 137.6 104.375 137.31 108.6 136.585" stroke="#498ABE" stroke-width="3" stroke-linecap="round"/>
<path id="Ellipse 133" d="M69.1409 98.8946C85.057 123.513 89.9625 141.463 76.6884 150.045C63.4144 158.627 42.0331 145.403 26.117 120.785C10.2009 96.1673 3.01326 78.4412 16.2873 69.8592C29.5614 61.2772 53.2247 74.2768 69.1409 98.8946Z" fill="#D1EBFF"/>
<path id="Ellipse 134" d="M64.0853 104.352C78.3387 126.398 82.7318 142.473 70.8444 150.159C58.957 157.844 39.8094 146.002 25.556 123.956C11.3026 101.91 4.86583 86.0356 16.7532 78.3501C28.6406 70.6646 49.8319 82.3062 64.0853 104.352Z" fill="#4F8CBD"/>
</g>
<g id="Linked Path Group">
<path id="[Copy] disposable" d="M33.0659 23.1917C32.6917 23.5253 32.3199 23.6854 31.9505 23.6718C31.582 23.6431 31.2344 23.4457 30.9079 23.0795L25.4239 16.9293C25.0974 16.5631 24.9445 16.1993 24.9652 15.8378C24.9867 15.4613 25.1846 15.1062 25.5588 14.7726L27.8994 12.6855C29.3643 11.3793 30.8213 10.7375 32.2706 10.76C33.7278 10.7755 35.0527 11.4519 36.2453 12.7894C36.8416 13.4582 37.2705 14.1476 37.5321 14.8576C37.7865 15.5597 37.882 16.2677 37.8184 16.9818C37.7478 17.6879 37.511 18.3921 37.1082 19.0942C36.7062 19.7814 36.139 20.4515 35.4065 21.1046L33.0659 23.1917ZM32.5302 20.4753L33.6766 19.453C34.0986 19.0768 34.4147 18.702 34.6249 18.3288C34.8431 17.9484 34.963 17.57 34.9846 17.1935C35.0141 16.8099 34.9417 16.4242 34.7675 16.0365C34.6012 15.6417 34.3335 15.2373 33.9644 14.8233C33.2261 13.9953 32.48 13.5673 31.7261 13.5392C30.9652 13.5032 30.1707 13.8543 29.3427 14.5926L28.1963 15.6149L32.5302 20.4753Z" fill="#245B88"/>
<path id="[Copy] disposable_2" d="M43.2099 15.6021C42.8017 15.8338 42.4231 15.9015 42.0741 15.8052C41.7199 15.6997 41.4242 15.4382 41.1873 15.0208L36.9616 7.57654C36.7193 7.14982 36.6464 6.76196 36.7426 6.41296C36.8389 6.06395 37.0911 5.7736 37.4992 5.54191C37.9167 5.30495 38.2953 5.23723 38.635 5.33875C38.984 5.43501 39.2796 5.69649 39.5218 6.1232L43.7475 13.5675C43.9845 13.9849 44.0621 14.3701 43.9804 14.7231C43.8934 15.0669 43.6366 15.3599 43.2099 15.6021Z" fill="#245B88"/>
<path id="[Copy] disposable_3" d="M49.4326 13.0441C49.0227 13.1626 48.5834 13.2562 48.1148 13.3251C47.6594 13.4012 47.2155 13.4406 46.7833 13.4434C46.3511 13.4462 45.9539 13.4166 45.5918 13.3547C45.2767 13.3015 45.0316 13.1836 44.8567 13.0009C44.6788 12.8081 44.5697 12.5842 44.5294 12.3294C44.489 12.0746 44.5139 11.8342 44.6041 11.6083C44.6913 11.3722 44.8438 11.1893 45.0618 11.0597C45.2767 10.9198 45.552 10.8736 45.8877 10.9209C46.3304 10.9928 46.8125 11.0089 47.334 10.9692C47.8555 10.9296 48.3314 10.8475 48.7618 10.7231C49.4381 10.5277 49.8843 10.3043 50.1004 10.0531C50.3238 9.78871 50.397 9.52329 50.3199 9.25686C50.2518 9.02117 50.0997 8.85973 49.8635 8.77254C49.6376 8.68239 49.269 8.65567 48.7578 8.69239L46.8483 8.82788C45.8054 8.90725 44.969 8.76035 44.3393 8.38718C43.7096 8.01402 43.2778 7.42267 43.0438 6.61313C42.8898 6.08027 42.8582 5.56755 42.949 5.07497C43.0471 4.56919 43.2516 4.10483 43.5624 3.68191C43.8834 3.25603 44.2969 2.88114 44.8029 2.55726C45.3161 2.22017 45.916 1.95241 46.6026 1.75398C47.1355 1.59998 47.6912 1.50598 48.2699 1.47198C48.8558 1.42477 49.3826 1.46126 49.8504 1.58144C50.1216 1.63629 50.3396 1.75651 50.5042 1.94209C50.6689 2.12766 50.7751 2.34125 50.8227 2.58287C50.8673 2.81423 50.8431 3.03774 50.75 3.25341C50.6671 3.46611 50.5167 3.63727 50.2988 3.76687C50.0882 3.88326 49.8048 3.92075 49.4486 3.87935C49.1129 3.83202 48.7467 3.8324 48.3497 3.8805C47.9601 3.91539 47.5911 3.98318 47.2427 4.08387C46.8635 4.19345 46.5541 4.33286 46.3143 4.50208C46.0716 4.66106 45.9021 4.84326 45.8061 5.04868C45.7202 5.25114 45.7084 5.45996 45.7706 5.67516C45.8328 5.89035 45.9732 6.04963 46.1918 6.15299C46.4178 6.24314 46.7863 6.26986 47.2976 6.23313L49.1917 6.10209C50.2478 6.03 51.0929 6.16882 51.727 6.51853C52.361 6.86824 52.792 7.43762 53.0201 8.22666C53.1741 8.75952 53.2057 9.27224 53.1149 9.76481C53.0241 10.2574 52.8233 10.7151 52.5125 11.1381C52.1987 11.5507 51.7837 11.9205 51.2675 12.2473C50.7513 12.5742 50.1397 12.8398 49.4326 13.0441Z" fill="#245B88"/>
<path id="[Copy] disposable_4" d="M56.6465 11.7774C56.1777 11.7555 55.8214 11.6108 55.5776 11.3431C55.3343 11.0648 55.2236 10.6912 55.2455 10.2224L55.6394 1.78359C55.6618 1.30411 55.8068 0.942482 56.0745 0.698697C56.3528 0.45541 56.7263 0.344709 57.1952 0.366593L61.1269 0.550123C62.4055 0.609807 63.3757 0.986121 64.0374 1.67906C64.7103 2.36185 65.0199 3.27862 64.9662 4.42936C64.9125 5.58011 64.5186 6.46938 63.7845 7.09716C63.0616 7.71479 62.0608 7.99377 60.7822 7.93408L58.3049 7.81844L58.1863 10.3597C58.1644 10.8285 58.0247 11.1904 57.7672 11.4453C57.5102 11.6896 57.1366 11.8003 56.6465 11.7774ZM58.4101 5.5649L60.3759 5.65666C60.93 5.68253 61.3617 5.58522 61.671 5.36473C61.9807 5.13359 62.1468 4.77828 62.1692 4.2988C62.1921 3.80867 62.0598 3.43943 61.7724 3.1911C61.485 2.94276 61.0643 2.80566 60.5102 2.7798L58.5444 2.68803L58.4101 5.5649Z" fill="#245B88"/>
<path id="[Copy] disposable_5" d="M70.8041 14.4701C69.7326 14.077 68.874 13.5063 68.2282 12.7581C67.5861 11.9998 67.1904 11.1274 67.0411 10.141C66.9018 9.15816 67.0323 8.121 67.4328 7.02949C67.7341 6.20835 68.133 5.50825 68.6296 4.92918C69.1361 4.35378 69.7129 3.91209 70.3599 3.60412C71.0169 3.29982 71.7218 3.14374 72.4746 3.1359C73.231 3.11804 74.0098 3.25608 74.8109 3.55002C75.8824 3.94317 76.736 4.51203 77.3718 5.25659C78.0176 6.00483 78.4151 6.87219 78.5645 7.85867C78.7175 8.83514 78.5919 9.87413 78.1877 10.9757C77.8864 11.7968 77.4825 12.4951 76.976 13.0705C76.4795 13.6495 75.9009 14.0962 75.2401 14.4105C74.5931 14.7185 73.8914 14.8814 73.135 14.8993C72.3822 14.9071 71.6052 14.7641 70.8041 14.4701ZM71.6529 12.1569C72.1836 12.3517 72.6802 12.3918 73.1425 12.2774C73.6049 12.163 74.0226 11.9073 74.3956 11.5101C74.7685 11.1129 75.0763 10.5839 75.3188 9.92298C75.6825 8.93161 75.7451 8.0797 75.5066 7.36727C75.2681 6.65484 74.7533 6.15349 73.9622 5.86323C73.4414 5.67216 72.9449 5.632 72.4725 5.74272C72.0138 5.8471 71.598 6.09788 71.225 6.49505C70.8557 6.8822 70.548 7.41124 70.3018 8.08217C69.9381 9.07354 69.8736 9.93045 70.1085 10.6529C70.347 11.3653 70.8618 11.8667 71.6529 12.1569Z" fill="#245B88"/>
<path id="[Copy] disposable_6" d="M81.1976 18.9595C80.8199 18.7611 80.4381 18.5245 80.0524 18.2496C79.6711 17.9891 79.3236 17.7102 79.0099 17.4128C78.6961 17.1155 78.4301 16.8192 78.2118 16.5238C78.0213 16.2671 77.9262 16.0123 77.9265 15.7594C77.9317 15.4971 78.008 15.2601 78.1554 15.0483C78.3027 14.8366 78.4872 14.6804 78.7087 14.5799C78.9351 14.4699 79.1718 14.4436 79.4188 14.501C79.6707 14.549 79.9013 14.7063 80.1107 14.9729C80.3803 15.3313 80.7169 15.6768 81.1206 16.0093C81.5243 16.3419 81.9244 16.6123 82.321 16.8206C82.9443 17.1479 83.4208 17.2958 83.7507 17.2643C84.0949 17.2282 84.3315 17.0874 84.4605 16.8419C84.5746 16.6247 84.5766 16.4029 84.4666 16.1764C84.3661 15.9549 84.1187 15.6804 83.7245 15.3529L82.2532 14.1283C81.4458 13.4632 80.9442 12.7781 80.7484 12.0728C80.5525 11.3675 80.6505 10.6419 81.0424 9.89583C81.3003 9.40478 81.6326 9.01302 82.0392 8.72056C82.4602 8.42362 82.9293 8.23021 83.4464 8.14035C83.9729 8.05545 84.5308 8.07137 85.1201 8.18812C85.7238 8.30038 86.342 8.52267 86.9747 8.85498C87.4658 9.1129 87.9318 9.42996 88.3728 9.80616C88.8281 10.1779 89.1829 10.569 89.4372 10.9797C89.5948 11.2071 89.6688 11.4447 89.6591 11.6926C89.6494 11.9406 89.578 12.1681 89.445 12.3754C89.317 12.5733 89.1448 12.7177 88.9282 12.8088C88.7212 12.9049 88.4941 12.9242 88.2472 12.8668C88.0146 12.8049 87.7842 12.6357 87.556 12.3591C87.3466 12.0925 87.0821 11.8391 86.7624 11.599C86.4572 11.3543 86.144 11.1477 85.823 10.979C85.4736 10.7955 85.1538 10.6818 84.8636 10.6378C84.5784 10.5844 84.33 10.5985 84.1184 10.6802C83.9163 10.7668 83.7632 10.9092 83.659 11.1075C83.5549 11.3058 83.5459 11.518 83.632 11.744C83.7325 11.9654 83.9799 12.24 84.3742 12.5675L85.8313 13.7847C86.6431 14.4641 87.1567 15.1495 87.3719 15.8408C87.5871 16.5322 87.5037 17.2415 87.1218 17.9686C86.8639 18.4596 86.5316 18.8514 86.125 19.1439C85.7183 19.4363 85.2565 19.6275 84.7394 19.7173C84.2273 19.7978 83.6718 19.7771 83.0731 19.6554C82.4743 19.5337 81.8492 19.3017 81.1976 18.9595Z" fill="#245B88"/>
<path id="[Copy] disposable_7" d="M86.78 22.0345C86.5303 21.8177 86.3698 21.5795 86.2986 21.3199C86.2344 21.0522 86.2695 20.8002 86.4041 20.5639C86.5457 20.3195 86.7847 20.1174 87.1213 19.9576L95.7522 16.0941C96.1699 15.9059 96.5464 15.8302 96.8817 15.867C97.2251 15.9109 97.5337 16.0517 97.8075 16.2895C98.0813 16.5272 98.256 16.806 98.3315 17.1258C98.415 17.4526 98.3969 17.8395 98.2772 18.2865L95.6627 27.3741C95.5678 27.7438 95.4093 28.0158 95.1872 28.1902C94.9731 28.3717 94.7326 28.4453 94.4655 28.4112C94.2066 28.3841 93.9562 28.2657 93.7146 28.0559C93.3925 27.7761 93.2057 27.4868 93.1544 27.188C93.1111 26.8962 93.1609 26.5297 93.3037 26.0887L93.9836 23.9879L94.2943 25.3383L89.3168 21.0164L90.7096 21.1451L88.7249 22.1129C88.3002 22.3092 87.9484 22.4134 87.6695 22.4255C87.3906 22.4376 87.0941 22.3073 86.78 22.0345ZM95.6748 18.6968L91.3676 20.8265L91.5329 19.9528L95.0485 23.0055L94.2067 23.2917L95.699 18.7178L95.6748 18.6968Z" fill="#245B88"/>
<path id="[Copy] disposable_8" d="M96.2237 30.8842C95.9171 30.4876 95.7834 30.1056 95.8228 29.738C95.8772 29.3724 96.0985 29.0395 96.4867 28.7394L103.005 23.6991C103.394 23.399 103.767 23.2719 104.126 23.3179C104.5 23.3657 104.841 23.5879 105.147 23.9845L107.535 27.073C108.031 27.7144 108.355 28.3337 108.507 28.931C108.673 29.5302 108.675 30.0817 108.512 30.5855C108.349 31.0893 108.035 31.5206 107.571 31.8794C107.048 32.284 106.483 32.4779 105.877 32.4612C105.277 32.4529 104.711 32.2436 104.178 31.8332L104.38 31.6766C104.74 32.369 104.858 33.0266 104.732 33.6493C104.614 34.2804 104.259 34.8243 103.668 35.2811C102.883 35.8878 102.045 36.0847 101.152 35.8717C100.274 35.6605 99.4599 35.0697 98.7096 34.0993L96.2237 30.8842ZM98.7154 30.5756L100.174 32.4616C100.506 32.892 100.828 33.1422 101.138 33.2124C101.464 33.2844 101.791 33.1932 102.12 32.9387C102.449 32.6843 102.616 32.3938 102.619 32.0673C102.63 31.7493 102.468 31.3751 102.136 30.9447L100.677 29.0587L98.7154 30.5756ZM102.386 27.7375L103.668 29.3956C103.994 29.8176 104.309 30.0668 104.611 30.1435C104.919 30.2286 105.229 30.1504 105.542 29.909C105.854 29.6676 106.003 29.3902 105.99 29.0767C105.992 28.7652 105.83 28.3985 105.504 27.9765L104.222 26.3184L102.386 27.7375Z" fill="#245B88"/>
<path id="[Copy] disposable_9" d="M102.758 39.6525C102.563 39.2255 102.527 38.8376 102.649 38.4887C102.786 38.1451 103.067 37.876 103.495 37.6812L111.064 34.2283C111.501 34.0291 111.889 33.9929 112.228 34.1195C112.567 34.2462 112.834 34.5231 113.029 34.9501C113.228 35.3868 113.262 35.7699 113.131 36.0993C113.004 36.4385 112.723 36.7076 112.286 36.9068L105.59 39.9613L107.21 43.5132C107.378 43.882 107.409 44.2077 107.304 44.4903C107.212 44.7782 106.987 45.0041 106.628 45.1679C106.269 45.3317 105.946 45.3559 105.659 45.2407C105.376 45.1351 105.151 44.8979 104.983 44.5291L102.758 39.6525Z" fill="#245B88"/>
<path id="[Copy] disposable_10" d="M106.841 48.6018C106.632 48.1457 106.59 47.7432 106.712 47.3944C106.848 47.0508 107.14 46.7772 107.586 46.5736L115.083 43.1539C115.529 42.9503 115.922 42.9118 116.261 43.0385C116.615 43.1704 116.895 43.4645 117.103 43.9206L119.354 48.8554C119.514 49.2048 119.546 49.5067 119.451 49.761C119.356 50.0154 119.143 50.2179 118.813 50.3684C118.474 50.5233 118.172 50.5555 117.908 50.4649C117.653 50.3699 117.447 50.1477 117.287 49.7983L115.567 46.028L113.617 46.9178L115.19 50.3679C115.345 50.7075 115.375 51.0045 115.28 51.2589C115.19 51.523 114.975 51.7325 114.635 51.8874C114.295 52.0423 113.996 52.0675 113.737 51.9627C113.483 51.8677 113.278 51.6504 113.123 51.3107L111.55 47.8607L109.439 48.8235L111.159 52.5938C111.318 52.9432 111.345 53.2473 111.241 53.5061C111.146 53.7604 110.933 53.9629 110.603 54.1134C110.264 54.2683 109.966 54.2983 109.712 54.2033C109.458 54.1083 109.251 53.8861 109.092 53.5367L106.841 48.6018Z" fill="#245B88"/>
</g>
</g>
</svg>
