<svg width="234" height="363" viewBox="0 0 234 363" fill="none" xmlns="http://www.w3.org/2000/svg">
<g id="surgical_gown_no_recycle">
<g id="surgical gown 2">
<path id="Rectangle 31" d="M1.82115 160.968C-0.554721 176.891 -0.658824 186.042 1.82115 202.853V209.834C12.682 215.549 19.4315 216.983 32.3292 217.225L35.2151 208.191C42.8645 205.17 53.216 98.6247 55.6566 85.4118C51.9973 114.744 41.7705 233.091 40.5747 266.912L38.5133 351.502C68.7771 359.379 86.1207 361.935 117.257 363C149.766 361.784 166.964 359.188 196.001 351.502L193.527 266.912L180.987 85.4118C182.674 99.0202 192.434 207.024 198.887 208.191L202.597 217.225C215.545 216.487 222.192 214.973 232.693 209.834V199.568C234.647 184.494 234.211 176.042 232.693 160.968C223.161 101.776 215.034 68.6916 196.001 9.85521C178.959 3.75859 169.39 1.83968 152.3 0.410645L132.511 2.87445H116.433H99.5295L80.565 0.410645C62.1429 0.784881 53.1381 3.18659 38.5133 9.85521C20.2693 68.095 11.28 100.993 1.82115 160.968Z" fill="#9ED4FF"/>
<path id="Rectangle 32" d="M1.64905 202.442C4.72701 204.095 6.38927 205.115 9.89448 206.138C13.1827 207.377 14.7892 207.864 17.7276 208.191L26.3853 209.013C30.798 209.385 32.5006 208.98 35.4553 208.191L34.6308 209.834C33.8258 212.72 33.3744 214.339 32.5694 217.225H26.3853L23.0872 216.815C20.3495 216.641 18.7487 216.418 15.6663 215.583C12.9169 214.718 11.5423 214.14 9.06993 213.119C6.08191 212.167 4.49817 211.296 1.64905 209.834V202.442Z" fill="#4F8CBD"/>
<path id="Rectangle 33" d="M232.521 202.442C229.443 204.095 227.781 205.115 224.276 206.138C220.987 207.377 219.381 207.864 216.443 208.191L207.785 209.013C203.372 209.385 201.67 208.98 198.715 208.191L199.539 209.834C200.344 212.72 200.796 214.339 201.601 217.225H207.785L211.083 216.815C213.821 216.641 215.421 216.418 218.504 215.583C221.253 214.718 222.628 214.14 225.1 213.119C228.088 212.167 229.672 211.296 232.521 209.834V202.442Z" fill="#4F8CBD"/>
<path id="Rectangle 35" d="M82.4207 2.46386C89.4294 3.69576 93.3218 4.50855 100.561 4.92766C107.806 4.80017 111.868 4.76794 119.113 4.92766C126.024 4.98968 129.932 4.48985 136.841 4.10639C144.323 3.1271 148.135 2.74898 154.98 2.05322C155.833 3.49649 155.789 4.71629 154.98 6.15956C149.007 10.5959 145.95 12.1803 137.253 14.7829C129.832 15.6041 125.793 17.0617 118.701 16.836C111.609 16.6103 107.628 16.3378 100.561 15.6041C92.3429 13.3249 88.775 11.0491 82.4207 6.98082C81.154 4.86508 81.6018 4.00041 82.4207 2.46386Z" fill="#4785B6"/>
<path id="Rectangle 34" d="M82.4543 0.410634C89.463 1.64253 93.3554 2.45533 100.594 2.87443C107.839 2.74695 111.901 2.71472 119.146 2.87443C126.058 2.93645 129.965 2.43663 136.874 2.05317C144.356 1.07387 148.168 0.695756 155.014 0C155.867 1.44326 155.823 2.66307 155.014 4.10634C149.041 8.54265 145.983 10.1271 137.286 12.7296C129.866 13.5509 125.826 15.0085 118.734 14.7828C111.642 14.5571 107.661 14.2846 100.594 13.5509C92.3765 11.2717 88.8086 8.99586 82.4543 4.9276C81.1875 2.81185 81.6353 1.94718 82.4543 0.410634Z" fill="#78C4FF"/>
</g>
<g id="Linked Path Group">
<path id="[Copy] disposable" d="M65.4617 350.932C64.967 350.85 64.6089 350.662 64.3873 350.366C64.178 350.061 64.1132 349.666 64.1929 349.182L65.5309 341.052C65.6105 340.568 65.7975 340.22 66.0916 340.009C66.3981 339.789 66.7986 339.72 67.2933 339.801L70.3877 340.311C72.3243 340.629 73.7392 341.359 74.6324 342.501C75.536 343.644 75.8424 345.1 75.5514 346.868C75.4059 347.752 75.1392 348.519 74.7512 349.169C74.365 349.808 73.8742 350.327 73.2788 350.726C72.6851 351.115 71.9886 351.373 71.1892 351.501C70.4021 351.62 69.5244 351.6 68.556 351.441L65.4617 350.932ZM67.2381 348.808L68.7537 349.057C69.3115 349.149 69.8017 349.159 70.2242 349.088C70.6572 349.019 71.0269 348.875 71.3333 348.655C71.6502 348.437 71.9048 348.138 72.0969 347.759C72.2995 347.381 72.4459 346.919 72.536 346.372C72.7161 345.277 72.5802 344.428 72.1283 343.824C71.6781 343.209 70.9057 342.812 69.8111 342.632L68.2955 342.382L67.2381 348.808Z" fill="#245B88"/>
<path id="[Copy] disposable_2" d="M79.6733 353.202C79.2076 353.144 78.8637 352.972 78.6416 352.686C78.4209 352.389 78.3404 352.003 78.4002 351.527L79.4673 343.033C79.5285 342.547 79.702 342.192 79.988 341.97C80.2739 341.748 80.6497 341.666 81.1153 341.725C81.5916 341.784 81.9355 341.957 82.147 342.241C82.3691 342.527 82.4495 342.914 82.3884 343.4L81.3213 351.894C81.2614 352.37 81.0932 352.725 80.8165 352.959C80.5412 353.182 80.1601 353.264 79.6733 353.202Z" fill="#245B88"/>
<path id="[Copy] disposable_3" d="M87.5581 354.097C87.1334 354.056 86.6904 353.982 86.2292 353.874C85.7776 353.778 85.3503 353.651 84.9472 353.495C84.5442 353.339 84.1856 353.166 83.8715 352.975C83.5979 352.81 83.4133 352.61 83.3176 352.376C83.223 352.132 83.2037 351.883 83.2597 351.631C83.3158 351.38 83.4272 351.165 83.594 350.988C83.7618 350.801 83.9709 350.686 84.2211 350.646C84.4724 350.595 84.7455 350.653 85.0404 350.82C85.4257 351.049 85.8683 351.241 86.3679 351.396C86.8675 351.551 87.3403 351.649 87.7863 351.691C88.4872 351.758 88.9842 351.714 89.2774 351.56C89.5823 351.396 89.7478 351.176 89.774 350.9C89.7972 350.655 89.7149 350.449 89.5273 350.282C89.3503 350.115 89.0172 349.955 88.5282 349.801L86.7024 349.226C85.7031 348.917 84.9791 348.473 84.5304 347.895C84.0817 347.317 83.8971 346.608 83.9767 345.769C84.0291 345.217 84.188 344.728 84.4533 344.303C84.7302 343.869 85.0909 343.512 85.5353 343.233C85.9903 342.955 86.5125 342.758 87.1021 342.642C87.7032 342.517 88.3596 342.488 89.071 342.556C89.6232 342.608 90.1747 342.725 90.7254 342.906C91.2877 343.077 91.7644 343.304 92.1553 343.588C92.3875 343.738 92.5461 343.93 92.6311 344.163C92.7161 344.396 92.7364 344.634 92.692 344.876C92.6486 345.108 92.544 345.307 92.3782 345.473C92.2231 345.641 92.0203 345.745 91.7701 345.785C91.5314 345.816 91.254 345.747 90.9379 345.578C90.6431 345.41 90.3022 345.276 89.9154 345.175C89.5401 345.065 89.172 344.992 88.811 344.958C88.4181 344.921 88.079 344.937 87.7939 345.006C87.5097 345.065 87.2852 345.172 87.1205 345.328C86.9663 345.485 86.8786 345.675 86.8575 345.898C86.8363 346.121 86.9084 346.32 87.0738 346.497C87.2509 346.664 87.5839 346.824 88.0729 346.977L89.8828 347.551C90.8917 347.872 91.6268 348.311 92.0882 348.869C92.5495 349.427 92.7414 350.115 92.6638 350.933C92.6114 351.485 92.4526 351.973 92.1872 352.398C91.9219 352.823 91.5671 353.175 91.1227 353.454C90.6794 353.723 90.1576 353.915 89.5574 354.029C88.9573 354.144 88.2908 354.166 87.5581 354.097Z" fill="#245B88"/>
<path id="[Copy] disposable_4" d="M96.5841 354.796C96.1155 354.77 95.7606 354.622 95.5193 354.352C95.2786 354.072 95.1713 353.697 95.1976 353.228L95.6696 344.794C95.6964 344.314 95.8448 343.954 96.1147 343.713C96.3952 343.472 96.7698 343.365 97.2384 343.391L101.168 343.611C102.446 343.682 103.413 344.068 104.068 344.767C104.735 345.456 105.036 346.375 104.971 347.526C104.907 348.676 104.505 349.561 103.765 350.182C103.037 350.793 102.033 351.063 100.755 350.991L98.2791 350.853L98.137 353.393C98.1107 353.861 97.9677 354.222 97.7079 354.475C97.4486 354.716 97.074 354.824 96.5841 354.796ZM98.4052 348.6L100.37 348.71C100.924 348.741 101.356 348.648 101.668 348.43C101.98 348.202 102.149 347.848 102.176 347.369C102.203 346.879 102.074 346.509 101.789 346.258C101.504 346.007 101.085 345.866 100.531 345.835L98.5661 345.725L98.4052 348.6Z" fill="#245B88"/>
<path id="[Copy] disposable_5" d="M113.044 355.444C111.902 355.428 110.903 355.175 110.046 354.684C109.188 354.181 108.525 353.49 108.057 352.609C107.6 351.728 107.379 350.706 107.394 349.544C107.406 348.669 107.55 347.876 107.826 347.165C108.113 346.454 108.511 345.846 109.019 345.341C109.538 344.836 110.151 344.455 110.858 344.197C111.566 343.93 112.346 343.801 113.2 343.813C114.341 343.828 115.335 344.081 116.182 344.573C117.039 345.064 117.702 345.751 118.17 346.632C118.639 347.502 118.865 348.524 118.849 349.697C118.838 350.572 118.688 351.364 118.401 352.075C118.125 352.786 117.728 353.4 117.209 353.915C116.7 354.421 116.093 354.807 115.385 355.075C114.677 355.332 113.897 355.455 113.044 355.444ZM113.077 352.98C113.642 352.988 114.124 352.861 114.522 352.599C114.92 352.338 115.229 351.958 115.449 351.46C115.669 350.961 115.784 350.36 115.793 349.656C115.808 348.6 115.584 347.776 115.123 347.183C114.661 346.59 114.009 346.288 113.167 346.277C112.612 346.269 112.13 346.396 111.721 346.657C111.323 346.908 111.014 347.282 110.794 347.781C110.574 348.269 110.46 348.87 110.45 349.584C110.436 350.64 110.659 351.47 111.121 352.074C111.582 352.667 112.234 352.969 113.077 352.98Z" fill="#245B88"/>
<path id="[Copy] disposable_6" d="M124.863 355.369C124.437 355.38 123.988 355.359 123.517 355.307C123.057 355.265 122.618 355.191 122.199 355.084C121.78 354.978 121.403 354.848 121.069 354.697C120.777 354.566 120.57 354.389 120.447 354.169C120.324 353.937 120.275 353.693 120.301 353.436C120.326 353.179 120.411 352.953 120.555 352.757C120.699 352.551 120.893 352.413 121.137 352.342C121.38 352.262 121.658 352.286 121.971 352.417C122.381 352.599 122.844 352.737 123.358 352.83C123.873 352.924 124.354 352.965 124.802 352.953C125.505 352.936 125.994 352.832 126.266 352.644C126.549 352.445 126.687 352.207 126.68 351.929C126.674 351.684 126.568 351.489 126.361 351.345C126.166 351.201 125.816 351.082 125.312 350.988L123.43 350.636C122.401 350.448 121.629 350.094 121.115 349.574C120.6 349.054 120.332 348.372 120.31 347.53C120.296 346.975 120.396 346.471 120.608 346.018C120.831 345.553 121.146 345.156 121.554 344.825C121.973 344.495 122.467 344.237 123.039 344.051C123.621 343.855 124.269 343.748 124.983 343.73C125.538 343.716 126.099 343.766 126.668 343.879C127.247 343.982 127.747 344.15 128.169 344.385C128.418 344.507 128.598 344.678 128.71 344.9C128.823 345.121 128.871 345.354 128.856 345.6C128.841 345.835 128.761 346.045 128.616 346.23C128.482 346.415 128.293 346.543 128.05 346.613C127.816 346.672 127.533 346.637 127.199 346.506C126.886 346.376 126.531 346.283 126.135 346.229C125.75 346.165 125.375 346.137 125.013 346.146C124.618 346.156 124.284 346.212 124.009 346.315C123.734 346.408 123.524 346.541 123.379 346.716C123.244 346.89 123.18 347.089 123.186 347.313C123.192 347.537 123.287 347.726 123.472 347.882C123.668 348.026 124.018 348.145 124.522 348.239L126.387 348.592C127.427 348.789 128.21 349.138 128.735 349.636C129.26 350.135 129.532 350.795 129.553 351.616C129.567 352.171 129.468 352.675 129.256 353.128C129.043 353.582 128.733 353.974 128.325 354.304C127.917 354.624 127.422 354.877 126.84 355.062C126.258 355.248 125.599 355.35 124.863 355.369Z" fill="#245B88"/>
<path id="[Copy] disposable_7" d="M132.525 355.093C132.195 355.114 131.914 355.057 131.681 354.922C131.447 354.777 131.295 354.572 131.225 354.31C131.154 354.036 131.182 353.725 131.31 353.374L134.742 344.563C134.907 344.136 135.122 343.817 135.387 343.608C135.662 343.398 135.981 343.282 136.342 343.259C136.704 343.236 137.025 343.312 137.303 343.486C137.592 343.661 137.851 343.949 138.079 344.351L142.599 352.657C142.791 352.987 142.869 353.292 142.833 353.572C142.808 353.852 142.689 354.073 142.475 354.236C142.271 354.399 142.01 354.49 141.691 354.51C141.265 354.538 140.929 354.463 140.682 354.286C140.447 354.109 140.225 353.813 140.017 353.398L139.026 351.425L140.195 352.169L133.616 352.587L134.698 351.7L133.965 353.783C133.8 354.221 133.623 354.542 133.433 354.747C133.243 354.951 132.94 355.066 132.525 355.093ZM136.514 346.47L134.943 351.011L134.447 350.273L139.094 349.978L138.696 350.773L136.546 346.468L136.514 346.47Z" fill="#245B88"/>
<path id="[Copy] disposable_8" d="M146.89 353.905C146.391 353.958 145.996 353.87 145.704 353.644C145.422 353.405 145.255 353.042 145.204 352.554L144.343 344.359C144.292 343.871 144.38 343.486 144.608 343.205C144.845 342.912 145.213 342.739 145.712 342.687L149.594 342.279C150.401 342.194 151.098 342.244 151.685 342.429C152.283 342.603 152.753 342.891 153.096 343.295C153.438 343.699 153.64 344.192 153.702 344.776C153.771 345.433 153.639 346.016 153.306 346.523C152.984 347.028 152.508 347.4 151.879 347.638L151.852 347.383C152.63 347.441 153.251 347.687 153.715 348.121C154.19 348.553 154.466 349.141 154.544 349.884C154.647 350.87 154.374 351.687 153.723 352.335C153.082 352.971 152.152 353.352 150.932 353.481L146.89 353.905ZM147.937 351.623L150.308 351.374C150.849 351.317 151.231 351.175 151.454 350.948C151.686 350.709 151.781 350.383 151.737 349.969C151.694 349.556 151.534 349.261 151.259 349.086C150.993 348.911 150.59 348.851 150.049 348.908L147.678 349.157L147.937 351.623ZM147.453 347.009L149.537 346.79C150.068 346.734 150.445 346.598 150.669 346.381C150.903 346.164 151 345.858 150.959 345.466C150.917 345.073 150.76 344.8 150.487 344.647C150.222 344.481 149.825 344.427 149.295 344.482L147.21 344.701L147.453 347.009Z" fill="#245B88"/>
<path id="[Copy] disposable_9" d="M158.653 352.554C158.188 352.621 157.806 352.546 157.506 352.331C157.215 352.103 157.036 351.757 156.969 351.292L155.79 343.056C155.722 342.581 155.797 342.199 156.014 341.909C156.231 341.619 156.572 341.441 157.036 341.375C157.511 341.307 157.889 341.382 158.168 341.601C158.457 341.818 158.636 342.164 158.704 342.639L159.747 349.925L163.612 349.371C164.013 349.314 164.335 349.376 164.576 349.557C164.826 349.726 164.98 350.005 165.036 350.396C165.091 350.787 165.024 351.103 164.832 351.346C164.651 351.588 164.36 351.737 163.959 351.795L158.653 352.554Z" fill="#245B88"/>
<path id="[Copy] disposable_10" d="M168.988 350.974C168.495 351.065 168.094 351.008 167.785 350.805C167.485 350.589 167.291 350.24 167.202 349.757L165.711 341.653C165.622 341.171 165.68 340.78 165.886 340.482C166.1 340.172 166.453 339.971 166.946 339.88L172.281 338.899C172.659 338.829 172.959 338.872 173.183 339.026C173.406 339.18 173.551 339.435 173.617 339.792C173.684 340.159 173.642 340.46 173.49 340.694C173.336 340.917 173.07 341.064 172.692 341.133L168.616 341.883L169.004 343.992L172.734 343.306C173.101 343.238 173.396 343.281 173.62 343.435C173.854 343.587 174.005 343.847 174.072 344.214C174.14 344.581 174.091 344.878 173.927 345.103C173.773 345.327 173.512 345.472 173.145 345.54L169.416 346.226L169.836 348.508L173.911 347.758C174.289 347.689 174.59 347.736 174.816 347.901C175.039 348.055 175.184 348.31 175.25 348.667C175.317 349.034 175.274 349.329 175.12 349.553C174.966 349.776 174.7 349.923 174.322 349.992L168.988 350.974Z" fill="#245B88"/>
</g>
</g>
</svg>
