<svg width="234" height="363" viewBox="0 0 234 363" fill="none" xmlns="http://www.w3.org/2000/svg">
<g id="surgical_gown_no_recycle">
<g id="surgical gown 2">
<path id="Rectangle 31" d="M1.82115 160.968C-0.554721 176.891 -0.658824 186.042 1.82115 202.853V209.834C12.682 215.549 19.4315 216.983 32.3292 217.225L35.2151 208.191C42.8645 205.17 53.216 98.6247 55.6566 85.4118C51.9973 114.744 41.7705 233.091 40.5747 266.912L38.5133 351.502C68.7771 359.379 86.1207 361.935 117.257 363C149.766 361.784 166.964 359.188 196.001 351.502L193.527 266.912L180.987 85.4118C182.674 99.0202 192.434 207.024 198.887 208.191L202.597 217.225C215.545 216.487 222.192 214.973 232.693 209.834V199.568C234.647 184.494 234.211 176.042 232.693 160.968C223.161 101.776 215.034 68.6916 196.001 9.85521C178.959 3.75859 169.39 1.83968 152.3 0.410645L132.511 2.87445H116.433H99.5295L80.565 0.410645C62.1429 0.784881 53.1381 3.18659 38.5133 9.85521C20.2693 68.095 11.28 100.993 1.82115 160.968Z" fill="#9ED4FF"/>
<path id="Rectangle 32" d="M1.64905 202.442C4.72701 204.095 6.38927 205.115 9.89448 206.138C13.1827 207.377 14.7892 207.864 17.7276 208.191L26.3853 209.013C30.798 209.385 32.5006 208.98 35.4553 208.191L34.6308 209.834C33.8258 212.72 33.3744 214.339 32.5694 217.225H26.3853L23.0872 216.815C20.3495 216.641 18.7487 216.418 15.6663 215.583C12.9169 214.718 11.5423 214.14 9.06993 213.119C6.08191 212.167 4.49817 211.296 1.64905 209.834V202.442Z" fill="#4F8CBD"/>
<path id="Rectangle 33" d="M232.521 202.442C229.443 204.095 227.781 205.115 224.276 206.138C220.987 207.377 219.381 207.864 216.443 208.191L207.785 209.013C203.372 209.385 201.67 208.98 198.715 208.191L199.539 209.834C200.344 212.72 200.796 214.339 201.601 217.225H207.785L211.083 216.815C213.821 216.641 215.421 216.418 218.504 215.583C221.253 214.718 222.628 214.14 225.1 213.119C228.088 212.167 229.672 211.296 232.521 209.834V202.442Z" fill="#4F8CBD"/>
<path id="Rectangle 35" d="M82.4207 2.46386C89.4294 3.69576 93.3218 4.50855 100.561 4.92766C107.806 4.80017 111.868 4.76794 119.113 4.92766C126.024 4.98968 129.932 4.48985 136.841 4.10639C144.323 3.1271 148.135 2.74898 154.98 2.05322C155.833 3.49649 155.789 4.71629 154.98 6.15956C149.007 10.5959 145.95 12.1803 137.253 14.7829C129.832 15.6041 125.793 17.0617 118.701 16.836C111.609 16.6103 107.628 16.3378 100.561 15.6041C92.3429 13.3249 88.775 11.0491 82.4207 6.98082C81.154 4.86508 81.6018 4.00041 82.4207 2.46386Z" fill="#4785B6"/>
<path id="Rectangle 34" d="M82.4543 0.410634C89.463 1.64253 93.3554 2.45533 100.594 2.87443C107.839 2.74695 111.901 2.71472 119.146 2.87443C126.058 2.93645 129.965 2.43663 136.874 2.05317C144.356 1.07387 148.168 0.695756 155.014 0C155.867 1.44326 155.823 2.66307 155.014 4.10634C149.041 8.54265 145.983 10.1271 137.286 12.7296C129.866 13.5509 125.826 15.0085 118.734 14.7828C111.642 14.5571 107.661 14.2846 100.594 13.5509C92.3765 11.2717 88.8086 8.99586 82.4543 4.9276C81.1875 2.81185 81.6353 1.94718 82.4543 0.410634Z" fill="#78C4FF"/>
</g>
<g id="Linked Path Group">
<path id="[Copy] DISPOSABLE" d="M45.7842 57.5246L49.6183 42.496L55.843 44.0841C57.5768 44.5264 58.9786 45.2019 60.0485 46.1106C61.1221 47.0051 61.8354 48.0952 62.1885 49.3811C62.5594 50.6564 62.5418 52.0898 62.1357 53.6815C61.7297 55.2732 61.0565 56.547 60.1164 57.5029C59.1904 58.4625 58.0402 59.0848 56.6658 59.3699C55.2949 59.6407 53.7426 59.555 52.0088 59.1127L45.7842 57.5246ZM50.5169 55.3491L52.5634 55.8712C54.0556 56.2518 55.2476 56.1775 56.1394 55.6483C57.0491 55.1084 57.6907 54.1066 58.0641 52.6428C58.4412 51.1648 58.3562 49.9851 57.8091 49.1039C57.2656 48.2084 56.2548 47.5721 54.7768 47.1951L52.7304 46.673L50.5169 55.3491Z" fill="#245B88"/>
<path id="[Copy] DISPOSABLE_2" d="M63.323 61.8888L66.7246 46.7564L70.6741 47.6442L67.2724 62.7766L63.323 61.8888Z" fill="#245B88"/>
<path id="[Copy] DISPOSABLE_3" d="M75.9109 64.8037C75.1185 64.6528 74.3528 64.4397 73.6139 64.1646C72.875 63.8895 72.2047 63.5677 71.603 63.1993C71.0013 62.8309 70.4943 62.4357 70.082 62.0137L71.7729 59.1333C72.1646 59.5065 72.6136 59.8533 73.12 60.1737C73.6263 60.4941 74.1697 60.7768 74.7501 61.0217C75.3332 61.2522 75.9274 61.4251 76.5325 61.5404C77.4834 61.7215 78.1695 61.7253 78.5907 61.5517C79.0291 61.3665 79.284 61.0866 79.3554 60.712C79.3993 60.4814 79.3787 60.276 79.2936 60.0955C79.2086 59.9151 79.0401 59.7412 78.7883 59.5738C78.5537 59.3947 78.2213 59.2194 77.7911 59.0479L75.3655 58.0259C74.0373 57.4743 73.1032 56.7738 72.5632 55.9245C72.0233 55.0751 71.8617 54.0813 72.0785 52.9431C72.2707 51.9346 72.7032 51.1137 73.3763 50.4804C74.0665 49.8355 74.9326 49.4033 75.9748 49.1838C77.0341 48.9526 78.1977 48.9577 79.4656 49.1992C80.1715 49.3337 80.8363 49.5275 81.46 49.7807C82.098 50.0366 82.6733 50.3478 83.1858 50.7141C83.7011 51.0661 84.1216 51.4448 84.4475 51.8503L82.7937 54.5363C82.323 54.0286 81.7409 53.5967 81.0473 53.2406C80.3708 52.8729 79.622 52.6108 78.8007 52.4543C78.2677 52.3528 77.8015 52.3312 77.4022 52.3895C77.0056 52.4334 76.6845 52.5514 76.4389 52.7435C76.2077 52.9383 76.0633 53.187 76.0056 53.4896C75.948 53.7922 76.0211 54.0748 76.2248 54.3376C76.4458 54.5887 76.8811 54.8508 77.5308 55.1239L79.9348 56.1417C81.2747 56.7104 82.2246 57.4065 82.7844 58.2298C83.3442 59.0531 83.5185 60.0194 83.3072 61.1288C83.1206 62.1085 82.6894 62.9222 82.0136 63.5698C81.3405 64.2031 80.4829 64.6295 79.4408 64.849C78.3986 65.0686 77.222 65.0535 75.9109 64.8037Z" fill="#245B88"/>
<path id="[Copy] DISPOSABLE_4" d="M85.6476 66.3404L87.6533 50.9606L95.0487 51.9251C96.2122 52.0768 97.1746 52.4094 97.9359 52.9228C98.6992 53.4217 99.2423 54.0768 99.5655 54.888C99.9051 55.6867 100.006 56.6168 99.8672 57.6785C99.7325 58.7111 99.3967 59.5843 98.8599 60.2982C98.3395 60.9995 97.6456 61.5006 96.778 61.8016C95.9124 62.0881 94.8978 62.1554 93.7343 62.0037L90.353 61.5627L89.6616 66.8638L85.6476 66.3404ZM90.7541 58.4868L93.4374 58.8367C94.1936 58.9353 94.7963 58.8512 95.2452 58.5844C95.696 58.303 95.9641 57.8351 96.0495 57.1806C96.1367 56.5116 95.9976 55.9906 95.6321 55.6175C95.2666 55.2444 94.7057 55.0086 93.9495 54.91L91.2662 54.56L90.7541 58.4868Z" fill="#245B88"/>
<path id="[Copy] DISPOSABLE_5" d="M108.599 68.9217C107.427 68.864 106.367 68.6209 105.419 68.1924C104.47 67.764 103.662 67.1808 102.994 66.4431C102.34 65.6914 101.848 64.8154 101.515 63.8152C101.197 62.8157 101.067 61.7226 101.126 60.5361C101.185 59.3349 101.422 58.2525 101.836 57.2891C102.266 56.3264 102.842 55.5104 103.565 54.8411C104.303 54.1726 105.164 53.679 106.149 53.3604C107.134 53.0271 108.213 52.8894 109.385 52.9471C110.557 53.0048 111.617 53.2478 112.565 53.6763C113.514 54.0901 114.315 54.6656 114.969 55.4026C115.638 56.1404 116.131 57.009 116.449 58.0085C116.782 58.9941 116.919 60.0875 116.86 61.2887C116.8 62.5046 116.555 63.5939 116.126 64.5566C115.712 65.5201 115.135 66.3434 114.397 67.0265C113.674 67.6958 112.819 68.1971 111.834 68.5303C110.849 68.8489 109.77 68.9794 108.599 68.9217ZM108.765 65.5378C109.542 65.576 110.21 65.4254 110.77 65.0858C111.33 64.7463 111.773 64.2395 112.1 63.5654C112.427 62.8913 112.614 62.0709 112.662 61.1041C112.709 60.1372 112.604 59.3024 112.345 58.5994C112.1 57.8972 111.708 57.3566 111.169 56.9777C110.645 56.5848 109.995 56.3692 109.218 56.331C108.457 56.2935 107.788 56.4441 107.214 56.7829C106.654 57.1078 106.211 57.6073 105.884 58.2814C105.558 58.9554 105.37 59.7759 105.323 60.7427C105.275 61.7095 105.374 62.5441 105.618 63.2463C105.877 63.9492 106.276 64.4975 106.815 64.8911C107.353 65.2847 108.003 65.5003 108.765 65.5378Z" fill="#245B88"/>
<path id="[Copy] DISPOSABLE_6" d="M125.301 69.0387C124.495 69.0707 123.701 69.0362 122.919 68.9351C122.137 68.8341 121.411 68.6721 120.742 68.4491C120.072 68.2262 119.489 67.9558 118.992 67.6379L119.989 64.4498C120.455 64.7249 120.97 64.9613 121.536 65.159C122.102 65.3567 122.695 65.5093 123.316 65.6168C123.936 65.7096 124.554 65.7438 125.169 65.7193C126.136 65.6809 126.805 65.5296 127.177 65.2653C127.562 64.9858 127.747 64.6556 127.732 64.2745C127.722 64.04 127.656 63.8445 127.532 63.688C127.409 63.5314 127.205 63.4001 126.922 63.2939C126.653 63.1724 126.29 63.0768 125.832 63.0069L123.238 62.5594C121.82 62.3222 120.751 61.8509 120.034 61.1455C119.316 60.4401 118.934 59.5085 118.888 58.3507C118.847 57.3249 119.083 56.4275 119.596 55.6585C120.122 54.8743 120.868 54.2576 121.834 53.8083C122.814 53.3437 123.948 53.0858 125.238 53.0346C125.956 53.0061 126.647 53.0447 127.312 53.1504C127.991 53.2555 128.622 53.4287 129.204 53.6698C129.786 53.8962 130.281 54.1701 130.69 54.4915L129.686 57.4817C129.113 57.0934 128.448 56.8042 127.692 56.6141C126.95 56.4087 126.161 56.3226 125.326 56.3557C124.783 56.3773 124.324 56.4615 123.949 56.6086C123.572 56.7409 123.286 56.9284 123.09 57.1711C122.909 57.4131 122.825 57.688 122.837 57.9958C122.849 58.3035 122.984 58.5624 123.242 58.7723C123.514 58.967 123.997 59.124 124.692 59.2432L127.264 59.6915C128.697 59.9428 129.78 60.4062 130.511 61.0817C131.243 61.7573 131.631 62.6592 131.676 63.7877C131.715 64.7842 131.479 65.6743 130.967 66.4579C130.454 67.2268 129.715 67.836 128.75 68.2853C127.784 68.7346 126.634 68.9858 125.301 69.0387Z" fill="#245B88"/>
<path id="[Copy] DISPOSABLE_7" d="M133.172 68.5481L138.486 52.2682L141.652 51.8789L150.75 66.3872L146.732 66.8811L144.399 62.8678L146.065 63.7935L137.068 64.8995L138.482 63.5953L137.19 68.0542L133.172 68.5481ZM140.551 56.27L138.762 62.6299L138.022 61.6569L144.376 60.8758L143.893 61.999L140.595 56.2646L140.551 56.27Z" fill="#245B88"/>
<path id="[Copy] DISPOSABLE_8" d="M152.246 66.0681L149.273 50.8456L156.614 49.4119C158.255 49.0914 159.591 49.1967 160.621 49.7278C161.666 50.256 162.306 51.1247 162.542 52.3339C162.717 53.2263 162.607 54.0399 162.212 54.7744C161.832 55.5062 161.225 56.073 160.392 56.4748L160.325 56.1293C161.055 56.1211 161.691 56.2361 162.23 56.4745C162.77 56.7128 163.22 57.0657 163.58 57.5333C163.938 57.9865 164.183 58.5514 164.315 59.228C164.486 60.1061 164.419 60.9111 164.114 61.6432C163.809 62.3753 163.288 63 162.552 63.5173C161.828 64.0174 160.912 64.3757 159.803 64.5922L152.246 66.0681ZM155.477 62.411L158.694 61.7827C158.996 61.7236 159.258 61.65 159.48 61.5619C159.702 61.4737 159.884 61.371 160.025 61.2537C160.167 61.1364 160.283 61.0017 160.372 60.8497C160.459 60.6832 160.508 60.5094 160.517 60.3283C160.538 60.1299 160.526 59.9155 160.481 59.6852C160.439 59.4693 160.372 59.2806 160.281 59.1191C160.201 58.9404 160.091 58.7975 159.951 58.6905C159.807 58.569 159.648 58.4806 159.473 58.4251C159.298 58.3697 159.091 58.3428 158.852 58.3446C158.613 58.3464 158.343 58.3769 158.04 58.4359L154.823 59.0642L155.477 62.411ZM154.254 56.1493L157.083 55.5969C157.802 55.4563 158.302 55.2241 158.583 54.9004C158.878 54.5738 158.973 54.1442 158.869 53.6116C158.765 53.079 158.517 52.7241 158.123 52.5468C157.742 52.3524 157.191 52.3254 156.471 52.466L153.643 53.0184L154.254 56.1493Z" fill="#245B88"/>
<path id="[Copy] DISPOSABLE_9" d="M168.741 62.7123L165.042 47.6498L168.973 46.6845L171.869 58.4781L178.578 56.8308L179.381 60.0997L168.741 62.7123Z" fill="#245B88"/>
<path id="[Copy] DISPOSABLE_10" d="M181.689 59.4781L177.505 44.543L188.054 41.5876L188.897 44.5958L182.076 46.5067L182.871 49.3455L189.205 47.571L190.048 50.5792L183.714 52.3536L184.574 55.4254L191.396 53.5144L192.238 56.5226L181.689 59.4781Z" fill="#245B88"/>
</g>
</g>
</svg>
