<svg width="234" height="363" viewBox="0 0 234 363" fill="none" xmlns="http://www.w3.org/2000/svg">
<g id="surgical_gown_cloth">
<g id="surgical gown 1">
<g id="surgical gown 2">
<path id="Rectangle 31" d="M1.82115 160.968C-0.554721 176.891 -0.658824 186.042 1.82115 202.853V209.834C12.682 215.549 19.4315 216.983 32.3292 217.225L35.2151 208.191C42.8645 205.17 53.216 98.6247 55.6566 85.4118C51.9973 114.744 41.7705 233.091 40.5747 266.912L38.5133 351.502C68.7771 359.379 86.1207 361.935 117.257 363C149.766 361.784 166.964 359.188 196.001 351.502L193.527 266.912L180.987 85.4118C182.674 99.0202 192.434 207.024 198.887 208.191L202.597 217.225C215.545 216.487 222.192 214.973 232.693 209.834V199.568C234.647 184.494 234.211 176.042 232.693 160.968C223.161 101.776 215.034 68.6916 196.001 9.85521C178.959 3.75859 169.39 1.83968 152.3 0.410645L132.511 2.87445H116.433H99.5295L80.565 0.410645C62.1429 0.784881 53.1381 3.18659 38.5133 9.85521C20.2693 68.095 11.28 100.993 1.82115 160.968Z" fill="#7BD8A5"/>
<path id="Rectangle 32" d="M1.64911 202.442C4.72707 204.095 6.38933 205.115 9.89454 206.138C13.1828 207.377 14.7892 207.864 17.7277 208.191L26.3854 209.012C30.7981 209.385 32.5006 208.98 35.4554 208.191L34.6308 209.834C33.8258 212.72 33.3745 214.339 32.5695 217.225H26.3854L23.0872 216.814C20.3496 216.641 18.7488 216.418 15.6663 215.583C12.917 214.718 11.5424 214.139 9.07 213.119C6.08198 212.167 4.49823 211.296 1.64911 209.834V202.442Z" fill="#4F955F"/>
<path id="Rectangle 33" d="M232.521 202.442C229.443 204.095 227.781 205.115 224.276 206.138C220.987 207.377 219.381 207.864 216.443 208.191L207.785 209.012C203.372 209.385 201.67 208.98 198.715 208.191L199.539 209.834C200.344 212.72 200.796 214.339 201.601 217.225H207.785L211.083 216.814C213.821 216.641 215.421 216.418 218.504 215.583C221.253 214.718 222.628 214.139 225.1 213.119C228.088 212.167 229.672 211.296 232.521 209.834V202.442Z" fill="#4F955F"/>
<path id="Rectangle 35" d="M82.4207 2.4638C89.4294 3.6957 93.3218 4.50849 100.561 4.9276C107.806 4.80011 111.868 4.76788 119.113 4.9276C126.024 4.98961 129.932 4.48979 136.841 4.10633C144.323 3.12704 148.135 2.74892 154.98 2.05316C155.833 3.49642 155.789 4.71623 154.98 6.1595C149.007 10.5958 145.95 12.1803 137.253 14.7828C129.832 15.6041 125.793 17.0616 118.701 16.836C111.609 16.6103 107.628 16.3378 100.561 15.6041C92.3429 13.3248 88.775 11.049 82.4207 6.98076C81.154 4.86501 81.6018 4.00035 82.4207 2.4638Z" fill="#428B53"/>
<path id="Rectangle 34" d="M82.4542 0.410634C89.4629 1.64253 93.3553 2.45533 100.594 2.87443C107.839 2.74695 111.901 2.71472 119.146 2.87443C126.058 2.93645 129.965 2.43663 136.874 2.05317C144.356 1.07387 148.168 0.695756 155.014 0C155.867 1.44326 155.823 2.66307 155.014 4.10634C149.041 8.54265 145.983 10.1271 137.286 12.7296C129.866 13.5509 125.826 15.0085 118.734 14.7828C111.642 14.5571 107.661 14.2846 100.594 13.5509C92.3764 11.2717 88.8085 8.99586 82.4542 4.9276C81.1875 2.81185 81.6353 1.94718 82.4542 0.410634Z" fill="#70C784"/>
</g>
</g>
<g id="Linked Path Group">
<path id="[Copy] Reusable" d="M45.8479 64.9937C45.1096 64.8027 44.5911 64.4537 44.2926 63.9468C43.9983 63.4231 43.9467 62.792 44.1378 62.0537L47.5759 48.7632C47.7713 48.008 48.1224 47.4812 48.6293 47.1826C49.153 46.8884 49.7841 46.8368 50.5224 47.0278L56.7146 48.6297C58.7283 49.1506 60.1525 50.0472 60.9871 51.3195C61.8429 52.5793 62.045 54.0818 61.5935 55.827C61.3027 56.9513 60.797 57.8679 60.0765 58.5767C59.3772 59.2731 58.499 59.7262 57.4421 59.9362C56.4063 60.1338 55.2087 60.0567 53.8495 59.7051L54.168 59.3041L55.3763 59.6167C56.0978 59.8033 56.6899 60.1445 57.1525 60.6402C57.6195 61.119 57.9464 61.7586 58.1333 62.5589L58.8058 65.1499C58.9484 65.706 58.9505 66.2168 58.8122 66.6824C58.6782 67.1311 58.3959 67.4609 57.9654 67.6718C57.556 67.8703 57.024 67.8849 56.3696 67.7156C55.7151 67.5462 55.2129 67.2731 54.8628 66.8961C54.5295 66.5234 54.2772 66.0105 54.106 65.3575L52.9029 60.5613C52.797 60.14 52.602 59.821 52.3179 59.6043C52.0549 59.3751 51.722 59.2085 51.3193 59.1043L49.9349 58.7461L48.7693 63.2518C48.5783 63.9902 48.2355 64.5192 47.741 64.8389C47.2509 65.1418 46.6199 65.1934 45.8479 64.9937ZM50.7814 55.4739L53.8523 56.2683C54.7417 56.4984 55.4669 56.498 56.0279 56.2671C56.589 56.0363 56.965 55.5517 57.156 54.8133C57.3383 54.1085 57.2401 53.5191 56.8614 53.0452C56.4871 52.5545 55.8552 52.1941 54.9658 51.964L51.8949 51.1696L50.7814 55.4739Z" fill="#2A985B"/>
<path id="[Copy] Reusable_2" d="M63.9078 69.2403C63.1105 69.0729 62.5426 68.7411 62.2041 68.2449C61.886 67.7353 61.8089 67.0903 61.9728 66.31L64.7251 53.2059C64.889 52.4256 65.2172 51.8747 65.7098 51.5531C66.223 51.2181 66.8782 51.1343 67.6755 51.3017L76.3013 53.1134C76.9119 53.2417 77.3379 53.4905 77.5791 53.86C77.8203 54.2295 77.8803 54.7026 77.7592 55.2793C77.6345 55.873 77.3856 56.299 77.0126 56.5572C76.6431 56.7984 76.1531 56.8548 75.5424 56.7266L68.9522 55.3424L68.2361 58.752L74.2665 60.0186C74.8602 60.1433 75.2777 60.3904 75.5189 60.7599C75.777 61.1329 75.8438 61.6163 75.7191 62.21C75.5944 62.8037 75.3388 63.2194 74.9524 63.457C74.5829 63.6982 74.1013 63.7565 73.5076 63.6318L67.4772 62.3652L66.7023 66.0547L73.2925 67.4389C73.9032 67.5671 74.3273 67.8245 74.565 68.2109C74.8062 68.5804 74.8662 69.0535 74.7451 69.6302C74.6204 70.2239 74.3733 70.6414 74.0038 70.8826C73.6344 71.1238 73.1443 71.1803 72.5336 71.052L63.9078 69.2403Z" fill="#2A985B"/>
<path id="[Copy] Reusable_3" d="M87.1037 73.7939C85.782 73.6079 84.6378 73.2805 83.6711 72.8119C82.7067 72.326 81.9198 71.6989 81.3103 70.9304C80.7179 70.1644 80.3116 69.2582 80.0913 68.212C79.8905 67.151 79.8832 65.9597 80.0692 64.638L81.2326 56.3735C81.3437 55.5839 81.633 55.0208 82.1005 54.684C82.5705 54.33 83.183 54.2062 83.9382 54.3125C84.7106 54.4212 85.2652 54.7094 85.602 55.1769C85.9584 55.6296 86.081 56.2508 85.9699 57.0403L84.7993 65.3563C84.6132 66.678 84.7649 67.7146 85.2543 68.4661C85.7436 69.2177 86.5461 69.672 87.6618 69.829C88.7603 69.9836 89.6485 69.7673 90.3263 69.1801C91.0041 68.5928 91.436 67.6384 91.622 66.3167L92.7926 58.0007C92.9037 57.2112 93.1845 56.6468 93.6348 56.3076C94.1047 55.9536 94.7173 55.8298 95.4725 55.9361C96.2278 56.0424 96.7738 56.3293 97.1106 56.7968C97.4498 57.2472 97.5638 57.8671 97.4527 58.6567L96.2893 66.9212C96.0405 68.6891 95.5225 70.1303 94.7355 71.2448C93.9681 72.3446 92.9413 73.1103 91.6553 73.5419C90.3716 73.9563 88.8544 74.0404 87.1037 73.7939Z" fill="#2A985B"/>
<path id="[Copy] Reusable_4" d="M107.491 75.7632C106.799 75.7284 106.074 75.6399 105.318 75.4977C104.578 75.3737 103.875 75.1995 103.21 74.9752C102.544 74.7508 101.949 74.4953 101.426 74.2086C100.97 73.9601 100.656 73.6493 100.483 73.2761C100.312 72.8857 100.263 72.4841 100.336 72.0712C100.409 71.6583 100.574 71.3022 100.832 71.0028C101.091 70.686 101.422 70.4858 101.825 70.4019C102.23 70.3007 102.677 70.3753 103.168 70.6256C103.81 70.9703 104.542 71.2501 105.364 71.465C106.187 71.6798 106.961 71.8056 107.688 71.8421C108.831 71.8996 109.635 71.7925 110.1 71.5208C110.583 71.2327 110.836 70.8636 110.858 70.4135C110.878 70.0153 110.73 69.6868 110.413 69.4279C110.114 69.1699 109.562 68.9338 108.757 68.7198L105.751 67.9179C104.107 67.4881 102.899 66.82 102.129 65.9135C101.359 65.007 101.008 63.87 101.077 62.5024C101.122 61.6022 101.345 60.7977 101.745 60.0889C102.163 59.3636 102.723 58.7583 103.424 58.2729C104.143 57.7884 104.977 57.4311 105.925 57.2011C106.892 56.9547 107.956 56.8607 109.116 56.919C110.016 56.9642 110.919 57.1138 111.827 57.3677C112.752 57.6051 113.542 57.9398 114.197 58.372C114.585 58.5997 114.856 58.8997 115.011 59.272C115.166 59.6442 115.216 60.0285 115.161 60.425C115.107 60.8041 114.952 61.1347 114.695 61.4168C114.455 61.6998 114.133 61.8832 113.73 61.967C113.345 62.0344 112.889 61.9421 112.364 61.6901C111.873 61.4398 111.31 61.2466 110.675 61.1106C110.058 60.958 109.455 60.867 108.867 60.8374C108.226 60.8052 107.677 60.8557 107.219 60.9889C106.762 61.1047 106.405 61.295 106.149 61.5598C105.91 61.8255 105.781 62.1401 105.763 62.5037C105.745 62.8672 105.876 63.1862 106.157 63.4607C106.457 63.7187 107.009 63.9547 107.814 64.1687L110.794 64.9694C112.454 65.4173 113.679 66.0777 114.469 66.9504C115.258 67.8231 115.619 68.926 115.552 70.259C115.507 71.1592 115.284 71.9637 114.884 72.6725C114.484 73.3813 113.933 73.9784 113.232 74.4638C112.531 74.9319 111.698 75.2805 110.732 75.5096C109.766 75.7387 108.686 75.8232 107.491 75.7632Z" fill="#2A985B"/>
<path id="[Copy] Reusable_5" d="M119.32 76.1084C118.784 76.1371 118.327 76.0401 117.951 75.8173C117.573 75.5771 117.33 75.243 117.22 74.8149C117.109 74.3696 117.16 73.8634 117.373 73.2966L123.092 59.034C123.367 58.3423 123.721 57.8285 124.155 57.4929C124.605 57.1563 125.125 56.9722 125.713 56.9406C126.302 56.9091 126.821 57.0375 127.27 57.3258C127.737 57.6133 128.153 58.0857 128.518 58.7431L135.729 72.3125C136.035 72.8515 136.157 73.3484 136.095 73.803C136.05 74.2568 135.852 74.6145 135.501 74.8763C135.168 75.1372 134.742 75.2816 134.223 75.3094C133.53 75.3465 132.986 75.2195 132.588 74.9284C132.208 74.6363 131.852 74.152 131.521 73.4754L129.942 70.2533L131.83 71.48L121.134 72.0535L122.906 70.6305L121.681 74.003C121.406 74.712 121.113 75.2311 120.801 75.5603C120.489 75.8895 119.995 76.0722 119.32 76.1084ZM125.941 62.1619L123.315 69.5151L122.521 68.3078L130.076 67.9028L129.416 69.188L125.993 62.1591L125.941 62.1619Z" fill="#2A985B"/>
<path id="[Copy] Reusable_6" d="M143.471 73.9863C142.666 74.1136 142.017 74.0057 141.524 73.6625C141.046 73.2995 140.744 72.7243 140.62 71.9368L138.527 58.7113C138.402 57.9238 138.513 57.292 138.859 56.8161C139.219 56.3204 139.802 56.0089 140.606 55.8816L146.872 54.8901C148.173 54.6842 149.309 54.7063 150.278 54.9565C151.263 55.1869 152.05 55.6151 152.64 56.2412C153.231 56.8673 153.6 57.6511 153.749 58.5927C153.917 59.6542 153.753 60.6103 153.256 61.4611C152.776 62.3093 152.035 62.9529 151.034 63.3921L150.969 62.9812C152.237 63.0087 153.266 63.3548 154.055 64.0196C154.862 64.6817 155.36 65.6119 155.55 66.8103C155.802 68.4025 155.427 69.7516 154.427 70.8576C153.44 71.9438 151.963 72.6426 149.994 72.9542L143.471 73.9863ZM144.977 70.1944L148.803 69.5889C149.676 69.4507 150.284 69.1879 150.626 68.8003C150.983 68.3928 151.109 67.8553 151.003 67.1876C150.897 66.5199 150.613 66.0559 150.151 65.7956C149.706 65.5327 149.047 65.4703 148.173 65.6084L144.347 66.2139L144.977 70.1944ZM143.798 62.747L147.163 62.2147C148.019 62.0792 148.619 61.8263 148.964 61.4558C149.326 61.0826 149.457 60.5793 149.357 59.9459C149.257 59.3124 148.978 58.8827 148.521 58.6566C148.079 58.4108 147.429 58.3556 146.573 58.491L143.209 59.0233L143.798 62.747Z" fill="#2A985B"/>
<path id="[Copy] Reusable_7" d="M162.67 70.5247C161.928 70.6983 161.298 70.6318 160.781 70.3254C160.278 69.9981 159.939 69.4631 159.766 68.7205L156.689 55.5553C156.511 54.7958 156.577 54.1661 156.888 53.6663C157.198 53.1666 157.725 52.8299 158.467 52.6563C159.227 52.4788 159.848 52.5472 160.331 52.8616C160.831 53.172 161.169 53.707 161.347 54.4665L164.069 66.1126L170.246 64.6688C170.888 64.5189 171.417 64.5733 171.833 64.8319C172.263 65.0698 172.55 65.501 172.696 66.1255C172.842 66.75 172.777 67.2724 172.502 67.6928C172.243 68.1093 171.793 68.3925 171.152 68.5424L162.67 70.5247Z" fill="#2A985B"/>
<path id="[Copy] Reusable_8" d="M177.935 66.7431C177.152 66.9684 176.494 66.9411 175.963 66.6612C175.443 66.3598 175.073 65.826 174.853 65.0598L171.149 52.1921C170.929 51.4259 170.961 50.7853 171.246 50.2705C171.542 49.7342 172.082 49.3534 172.865 49.1281L181.335 46.6904C181.935 46.5178 182.428 46.5383 182.814 46.7518C183.2 46.9653 183.474 47.3553 183.637 47.9216C183.805 48.5046 183.785 48.9975 183.576 49.4003C183.362 49.7864 182.956 50.0658 182.356 50.2383L175.885 52.1008L176.848 55.4489L182.77 53.7446C183.353 53.5769 183.838 53.5997 184.224 53.8133C184.627 54.022 184.912 54.4179 185.08 55.0009C185.247 55.5839 185.216 56.0708 184.986 56.4618C184.773 56.8479 184.374 57.1248 183.791 57.2926L177.87 58.9969L178.912 62.6198L185.384 60.7574C185.983 60.5848 186.479 60.6136 186.869 60.8438C187.256 61.0573 187.53 61.4473 187.693 62.0136C187.861 62.5966 187.838 63.0812 187.625 63.4673C187.411 63.8534 187.004 64.1328 186.405 64.3054L177.935 66.7431Z" fill="#2A985B"/>
</g>
</g>
</svg>
