<svg width="234" height="363" viewBox="0 0 234 363" fill="none" xmlns="http://www.w3.org/2000/svg">
<g id="surgical_gown_recycle">
<g id="surgical gown 3">
<g id="surgical gown 3_2">
<path id="Rectangle 31" d="M1.82115 160.968C-0.554721 176.891 -0.658824 186.042 1.82115 202.853V209.834C12.682 215.549 19.4315 216.983 32.3292 217.225L35.2151 208.191C42.8645 205.17 53.216 98.6247 55.6566 85.4118C51.9973 114.744 41.7705 233.091 40.5747 266.912L38.5133 351.502C68.7771 359.379 86.1207 361.935 117.257 363C149.766 361.784 166.964 359.188 196.001 351.502L193.527 266.912L180.987 85.4118C182.674 99.0202 192.434 207.024 198.887 208.191L202.597 217.225C215.545 216.487 222.192 214.973 232.693 209.834V199.568C234.647 184.494 234.211 176.042 232.693 160.968C223.161 101.776 215.034 68.6916 196.001 9.85521C178.959 3.75859 169.39 1.83968 152.3 0.410645L132.511 2.87445H116.433H99.5295L80.565 0.410645C62.1429 0.784881 53.1381 3.18659 38.5133 9.85521C20.2693 68.095 11.28 100.993 1.82115 160.968Z" fill="#C1E0E6"/>
<path id="Rectangle 32" d="M1.64905 202.442C4.72701 204.095 6.38927 205.115 9.89448 206.138C13.1827 207.377 14.7892 207.864 17.7276 208.191L26.3853 209.012C30.798 209.385 32.5006 208.98 35.4553 208.191L34.6308 209.834C33.8258 212.72 33.3744 214.339 32.5694 217.225H26.3853L23.0872 216.814C20.3495 216.641 18.7487 216.418 15.6663 215.583C12.9169 214.718 11.5423 214.139 9.06993 213.119C6.08191 212.167 4.49817 211.296 1.64905 209.834V202.442Z" fill="#52ACBD"/>
<path id="Rectangle 33" d="M232.521 202.442C229.443 204.095 227.781 205.115 224.276 206.138C220.987 207.377 219.381 207.864 216.443 208.191L207.785 209.012C203.372 209.385 201.67 208.98 198.715 208.191L199.539 209.834C200.344 212.72 200.796 214.339 201.601 217.225H207.785L211.083 216.814C213.821 216.641 215.421 216.418 218.504 215.583C221.253 214.718 222.628 214.139 225.1 213.119C228.088 212.167 229.672 211.296 232.521 209.834V202.442Z" fill="#52ACBD"/>
<path id="Rectangle 35" d="M82.4207 2.4638C89.4294 3.6957 93.3218 4.50849 100.561 4.9276C107.806 4.80011 111.868 4.76788 119.113 4.9276C126.024 4.98961 129.932 4.48979 136.841 4.10633C144.323 3.12704 148.135 2.74892 154.98 2.05316C155.833 3.49642 155.789 4.71623 154.98 6.1595C149.007 10.5958 145.95 12.1803 137.253 14.7828C129.832 15.6041 125.793 17.0616 118.701 16.836C111.609 16.6103 107.628 16.3378 100.561 15.6041C92.3429 13.3248 88.775 11.049 82.4207 6.98076C81.154 4.86501 81.6018 4.00035 82.4207 2.4638Z" fill="#395E65"/>
<path id="Rectangle 34" d="M82.4543 0.410634C89.463 1.64253 93.3554 2.45533 100.594 2.87443C107.839 2.74695 111.901 2.71472 119.146 2.87443C126.058 2.93645 129.965 2.43663 136.874 2.05317C144.356 1.07387 148.168 0.695756 155.014 0C155.867 1.44326 155.823 2.66307 155.014 4.10634C149.041 8.54265 145.983 10.1271 137.286 12.7296C129.866 13.5509 125.826 15.0085 118.734 14.7828C111.642 14.5571 107.661 14.2846 100.594 13.5509C92.3765 11.2717 88.8086 8.99586 82.4543 4.9276C81.1875 2.81185 81.6353 1.94718 82.4543 0.410634Z" fill="#87A7AD"/>
</g>
</g>
<g id="Linked Path Group">
<path id="[Copy] Recyclable" d="M33.5857 70.0204C32.8982 69.8685 32.4085 69.5637 32.1163 69.1059C31.8277 68.6325 31.7592 68.0521 31.9111 67.3647L34.6446 54.991C34.8 54.2879 35.1065 53.7904 35.5643 53.4982C36.0377 53.2096 36.6181 53.1412 37.3056 53.293L43.0706 54.5666C44.9454 54.9808 46.2887 55.7609 47.1006 56.907C47.9315 58.041 48.1675 59.4204 47.8086 61.0452C47.5773 62.0919 47.1411 62.9541 46.4998 63.6318C45.8776 64.2972 45.0825 64.7442 44.1144 64.9728C43.1654 65.1891 42.0581 65.1575 40.7926 64.878L41.0733 64.4976L42.1982 64.7461C42.87 64.8945 43.4274 65.1897 43.8705 65.6317C44.317 66.058 44.6397 66.6373 44.8384 67.3694L45.5443 69.7374C45.6941 70.2457 45.7129 70.7168 45.6007 71.1508C45.4919 71.5692 45.2424 71.8828 44.8521 72.0915C44.481 72.2881 43.9908 72.3191 43.3815 72.1844C42.7722 72.0498 42.2998 71.8144 41.9645 71.4781C41.6447 71.1453 41.3951 70.6806 41.2156 70.0838L39.9476 65.699C39.8361 65.3139 39.6457 65.0261 39.3764 64.8355C39.1263 64.6328 38.8137 64.49 38.4388 64.4071L37.1499 64.1224L36.2231 68.3172C36.0713 69.0047 35.7725 69.504 35.3269 69.8152C34.8847 70.1108 34.3043 70.1792 33.5857 70.0204ZM37.8229 61.0758L40.6819 61.7075C41.51 61.8904 42.179 61.8661 42.6889 61.6347C43.1988 61.4032 43.5297 60.9438 43.6816 60.2564C43.8265 59.6002 43.7165 59.0597 43.3516 58.635C42.99 58.1946 42.3953 57.883 41.5672 57.7001L38.7082 57.0685L37.8229 61.0758Z" fill="#2B91A1"/>
<path id="[Copy] Recyclable_2" d="M51.6225 73.6832C50.885 73.536 50.3577 73.235 50.0406 72.7802C49.7423 72.3128 49.6652 71.7182 49.8092 70.9964L52.2279 58.8754C52.3719 58.1536 52.6698 57.642 53.1215 57.3406C53.592 57.0266 54.196 56.9432 54.9335 57.0903L62.9122 58.6824C63.477 58.7951 63.8725 59.0209 64.0986 59.3597C64.3247 59.6984 64.3845 60.1346 64.278 60.6681C64.1684 61.2172 63.9427 61.6127 63.6008 61.8545C63.262 62.0805 62.8102 62.1372 62.2453 62.0245L56.1495 60.8081L55.5201 63.962L61.0982 65.075C61.6473 65.1846 62.035 65.4088 62.261 65.7476C62.5028 66.0895 62.5689 66.535 62.4593 67.0842C62.3497 67.6334 62.1177 68.0195 61.7632 68.2424C61.4244 68.4685 60.9805 68.5267 60.4313 68.4171L54.8532 67.3041L54.1723 70.7168L60.2681 71.9332C60.833 72.0459 61.2269 72.2795 61.4498 72.634C61.6759 72.9728 61.7357 73.4089 61.6292 73.9424C61.5197 74.4915 61.2955 74.8792 60.9567 75.1052C60.6179 75.3313 60.1661 75.388 59.6012 75.2753L51.6225 73.6832Z" fill="#2B91A1"/>
<path id="[Copy] Recyclable_3" d="M73.6313 78.0237C71.7851 77.7145 70.2586 77.0938 69.052 76.1617C67.8454 75.2296 66.9954 74.0571 66.502 72.6442C66.0244 71.2339 65.9309 69.6609 66.2217 67.9251C66.4384 66.6311 66.8325 65.4885 67.4041 64.4973C67.9915 63.5087 68.7273 62.6992 69.6116 62.0686C70.5117 61.4406 71.5392 61.0206 72.6941 60.8084C73.8674 60.5831 75.1405 60.5855 76.5134 60.8154C77.2393 60.937 77.9743 61.1493 78.7185 61.4524C79.4811 61.7423 80.1344 62.1032 80.6786 62.535C81.0808 62.8457 81.3383 63.1971 81.4511 63.5891C81.5639 63.9811 81.557 64.3612 81.4305 64.7294C81.3197 65.1002 81.1287 65.417 80.8576 65.6798C80.5865 65.9426 80.2681 66.1002 79.9024 66.1525C79.5394 66.189 79.1699 66.0704 78.794 65.7965C78.3576 65.4963 77.9119 65.2513 77.457 65.0616C77.0205 64.8587 76.5498 64.715 76.0448 64.6304C75.0664 64.4665 74.2142 64.5185 73.488 64.7862C72.7802 65.0408 72.2011 65.4954 71.7508 66.15C71.3005 66.8046 70.9881 67.6526 70.8137 68.6941C70.6393 69.7356 70.657 70.6471 70.8668 71.4285C71.0792 72.1941 71.4772 72.8204 72.0608 73.3075C72.6628 73.7815 73.453 74.1004 74.4313 74.2642C74.8416 74.3329 75.2914 74.3596 75.7807 74.3442C76.2726 74.313 76.7658 74.2253 77.2605 74.081C77.7682 73.9552 78.1956 73.97 78.5427 74.1254C78.9056 74.2836 79.1737 74.5231 79.3471 74.8442C79.5362 75.1679 79.6306 75.5244 79.6303 75.9136C79.6326 76.2872 79.5166 76.6409 79.2822 76.9747C79.0636 77.3112 78.7307 77.5556 78.2834 77.7078C77.6756 77.9467 76.9456 78.0921 76.0933 78.144C75.2568 78.1986 74.4361 78.1585 73.6313 78.0237Z" fill="#2B91A1"/>
<path id="[Copy] Recyclable_4" d="M88.9421 80.1564C88.2432 80.0719 87.7262 79.8159 87.3911 79.3886C87.058 78.9453 86.9356 78.3584 87.024 77.6277L87.8139 71.0993L88.4281 73.6153L83.9024 65.0658C83.6785 64.6519 83.6103 64.2165 83.6978 63.7597C83.8031 63.289 84.0418 62.9149 84.4138 62.6376C84.8036 62.3463 85.3162 62.2391 85.9515 62.316C86.3963 62.3698 86.7879 62.53 87.1263 62.7966C87.4667 63.0473 87.7649 63.446 88.0211 63.9928L90.7629 69.3046L89.9051 69.2008L93.8376 64.6724C94.2327 64.2045 94.6174 63.8884 94.9919 63.7242C95.3663 63.56 95.7918 63.5067 96.2683 63.5644C96.8719 63.6374 97.3222 63.845 97.6193 64.1871C97.9163 64.5293 98.0449 64.9317 98.0051 65.3942C97.9811 65.8587 97.7814 66.31 97.4061 66.7481L91.0252 73.9296L92.198 71.6298L91.408 78.1582C91.2254 79.6672 90.4035 80.3333 88.9421 80.1564Z" fill="#2B91A1"/>
<path id="[Copy] Recyclable_5" d="M108.387 81.9313C106.519 81.8166 104.936 81.3588 103.638 80.5579C102.341 79.7569 101.373 78.6796 100.735 77.3259C100.112 75.9733 99.8552 74.4186 99.963 72.6619C100.043 71.3524 100.316 70.1749 100.781 69.1294C101.262 68.0849 101.909 67.2029 102.723 66.4833C103.552 65.7648 104.53 65.2397 105.657 64.9081C106.8 64.5615 108.066 64.4308 109.456 64.5161C110.19 64.5611 110.944 64.6955 111.715 64.9192C112.504 65.1279 113.191 65.4186 113.778 65.7912C114.21 66.0582 114.503 66.3807 114.656 66.7588C114.809 67.1369 114.842 67.5156 114.755 67.895C114.683 68.2753 114.526 68.6103 114.284 68.9C114.042 69.1897 113.742 69.3797 113.384 69.4699C113.026 69.5442 112.647 69.4648 112.244 69.2317C111.779 68.9787 111.31 68.7816 110.838 68.6404C110.382 68.4843 109.899 68.3905 109.388 68.3591C108.398 68.2984 107.556 68.4391 106.862 68.7812C106.184 69.1083 105.656 69.6209 105.276 70.319C104.897 71.017 104.675 71.8931 104.61 72.9471C104.546 74.0011 104.658 74.9057 104.949 75.6609C105.24 76.4001 105.701 76.9815 106.332 77.405C106.981 77.8134 107.8 78.048 108.79 78.1088C109.205 78.1343 109.655 78.1138 110.14 78.0474C110.626 77.965 111.108 77.8262 111.584 77.6311C112.076 77.4529 112.503 77.4229 112.864 77.5413C113.242 77.6606 113.533 77.8709 113.739 78.1721C113.961 78.4742 114.092 78.8189 114.133 79.2061C114.174 79.5773 114.096 79.9412 113.897 80.2977C113.715 80.6553 113.41 80.9331 112.981 81.1312C112.401 81.4322 111.69 81.6531 110.848 81.7938C110.022 81.9354 109.202 81.9813 108.387 81.9313Z" fill="#2B91A1"/>
<path id="[Copy] Recyclable_6" d="M120.073 82.032C119.369 82.0369 118.816 81.8488 118.413 81.4676C118.027 81.0703 117.831 80.5196 117.826 79.8156L117.739 67.3359C117.734 66.6159 117.922 66.0626 118.303 65.676C118.685 65.2893 119.227 65.0935 119.931 65.0886C120.651 65.0836 121.196 65.2718 121.567 65.6532C121.954 66.0345 122.15 66.5852 122.155 67.3051L122.232 78.3449L128.088 78.304C128.696 78.2998 129.161 78.4565 129.483 78.7743C129.821 79.076 129.992 79.5228 129.996 80.1148C130 80.7067 129.836 81.1639 129.502 81.4862C129.184 81.8085 128.721 81.9717 128.113 81.9759L120.073 82.032Z" fill="#2B91A1"/>
<path id="[Copy] Recyclable_7" d="M133.992 82.0141C133.497 82.0526 133.074 81.9732 132.721 81.776C132.368 81.5628 132.135 81.2599 132.025 80.8673C131.913 80.4587 131.948 79.9906 132.132 79.4627L137.091 66.1737C137.33 65.5292 137.646 65.0473 138.038 64.7279C138.446 64.4072 138.922 64.2258 139.464 64.1836C140.007 64.1413 140.488 64.2483 140.909 64.5044C141.347 64.7592 141.741 65.1859 142.092 65.7844L149.049 78.1458C149.344 78.6364 149.467 79.0922 149.42 79.5131C149.388 79.9328 149.214 80.2674 148.896 80.5168C148.595 80.7649 148.205 80.9077 147.726 80.9449C147.088 80.9946 146.582 80.8895 146.209 80.6297C145.852 80.3686 145.512 79.9296 145.192 79.3127L143.663 76.3745L145.433 77.4644L135.575 78.2318L137.179 76.8792L136.123 80.0186C135.886 80.6791 135.627 81.1646 135.346 81.4754C135.065 81.7861 134.614 81.9657 133.992 82.0141ZM139.791 68.9967L137.531 75.8408L136.772 74.7444L143.735 74.2023L143.154 75.403L139.839 68.993L139.791 68.9967Z" fill="#2B91A1"/>
<path id="[Copy] Recyclable_8" d="M155.458 79.7567C154.714 79.8648 154.116 79.7577 153.665 79.4352C153.228 79.0945 152.956 78.56 152.85 77.8317L151.073 65.6001C150.968 64.8717 151.077 64.2899 151.402 63.8547C151.74 63.4014 152.281 63.1206 153.026 63.0125L158.821 62.1706C160.024 61.9958 161.072 62.0295 161.964 62.2717C162.87 62.4958 163.591 62.9003 164.129 63.4851C164.667 64.0698 164.999 64.7977 165.125 65.6685C165.268 66.6502 165.105 67.5308 164.636 68.3103C164.183 69.0875 163.492 69.6729 162.563 70.0666L162.508 69.6866C163.678 69.7268 164.623 70.0583 165.344 70.6811C166.081 71.3016 166.53 72.1661 166.691 73.2744C166.905 74.747 166.544 75.9878 165.607 76.997C164.684 77.988 163.312 78.6157 161.491 78.8803L155.458 79.7567ZM156.892 76.2743L160.431 75.7602C161.239 75.6429 161.803 75.4074 162.123 75.0536C162.457 74.6817 162.579 74.187 162.49 73.5695C162.4 72.952 162.143 72.5204 161.72 72.2748C161.312 72.0268 160.704 71.9615 159.896 72.0789L156.358 72.593L156.892 76.2743ZM155.892 69.3867L159.003 68.9346C159.795 68.8196 160.352 68.5931 160.675 68.2552C161.013 67.915 161.14 67.452 161.055 66.8661C160.97 66.2803 160.718 65.8804 160.299 65.6664C159.893 65.4343 159.295 65.3758 158.503 65.4908L155.391 65.9428L155.892 69.3867Z" fill="#2B91A1"/>
<path id="[Copy] Recyclable_9" d="M172.807 76.9922C172.115 77.125 171.537 77.0407 171.072 76.7391C170.619 76.4187 170.326 75.9129 170.193 75.2216L167.838 62.9659C167.702 62.2588 167.786 61.6805 168.091 61.2309C168.396 60.7813 168.894 60.4901 169.585 60.3572C170.292 60.2213 170.862 60.3072 171.296 60.6149C171.746 60.9195 172.039 61.4253 172.174 62.1324L174.258 72.974L180.009 71.8687C180.606 71.7539 181.092 71.8235 181.467 72.0773C181.854 72.3125 182.103 72.7207 182.215 73.3021C182.327 73.8834 182.248 74.3629 181.978 74.7406C181.725 75.1152 181.299 75.3599 180.702 75.4747L172.807 76.9922Z" fill="#2B91A1"/>
<path id="[Copy] Recyclable_10" d="M188.564 73.8004C187.831 73.9655 187.226 73.9046 186.752 73.6177C186.289 73.3118 185.977 72.7998 185.816 72.0817L183.103 60.0231C182.942 59.305 183.006 58.7165 183.296 58.2576C183.599 57.7796 184.117 57.458 184.851 57.293L192.788 55.5073C193.35 55.3809 193.803 55.4265 194.147 55.6443C194.492 55.8621 194.723 56.2363 194.843 56.7671C194.966 57.3134 194.92 57.7665 194.706 58.1263C194.488 58.4705 194.098 58.7058 193.536 58.8322L187.472 60.1965L188.178 63.3341L193.727 62.0857C194.273 61.9628 194.719 62.0102 195.063 62.228C195.423 62.4422 195.664 62.8225 195.787 63.3689C195.91 63.9152 195.854 64.3622 195.621 64.7099C195.403 65.0541 195.021 65.2877 194.475 65.4106L188.926 66.659L189.689 70.0541L195.754 68.6898C196.316 68.5634 196.771 68.6169 197.118 68.8503C197.462 69.068 197.694 69.4423 197.814 69.973C197.937 70.5194 197.889 70.9646 197.671 71.3088C197.454 71.653 197.064 71.8883 196.502 72.0147L188.564 73.8004Z" fill="#2B91A1"/>
</g>
</g>
</svg>
