<svg width="323" height="306" viewBox="0 0 323 306" fill="none" xmlns="http://www.w3.org/2000/svg">
<rect width="86.6416" height="169.124" fill="#92D3E0"/>
<rect x="236.358" width="86.6416" height="169.124" fill="#92D3E0"/>
<rect x="86.6416" width="149.717" height="305.672" fill="#86CEDB"/>
<rect x="132.388" y="128.923" width="57.53" height="112.288" fill="#4EA1B1"/>
<rect x="151.796" y="153.182" width="19.4077" height="30.4979" rx="3.46567" fill="white"/>
<rect x="156.648" y="197.543" width="9.70386" height="18.7146" rx="1.38627" fill="white"/>
<path d="M44.6558 47.315C43.6291 47.315 42.8358 47.035 42.2758 46.475C41.7158 45.8917 41.4358 45.0867 41.4358 44.06V25.58C41.4358 24.53 41.7158 23.725 42.2758 23.165C42.8591 22.605 43.6641 22.325 44.6908 22.325H53.3008C56.1008 22.325 58.2591 23.0133 59.7758 24.39C61.3158 25.7433 62.0858 27.6333 62.0858 30.06C62.0858 31.6233 61.7358 32.9883 61.0358 34.155C60.3591 35.2983 59.3675 36.185 58.0608 36.815C56.7775 37.4217 55.1908 37.725 53.3008 37.725L53.5808 37.095H55.2608C56.2641 37.095 57.1508 37.34 57.9208 37.83C58.6908 38.2967 59.3325 39.02 59.8458 40L61.5958 43.15C61.9691 43.8267 62.1441 44.4917 62.1208 45.145C62.0975 45.775 61.8408 46.3 61.3508 46.72C60.8841 47.1167 60.1958 47.315 59.2858 47.315C58.3758 47.315 57.6291 47.1283 57.0458 46.755C56.4858 46.3817 55.9841 45.7983 55.5408 45.005L52.3558 39.16C52.0758 38.6467 51.7141 38.2967 51.2708 38.11C50.8508 37.9 50.3608 37.795 49.8008 37.795H47.8758V44.06C47.8758 45.0867 47.6075 45.8917 47.0708 46.475C46.5341 47.035 45.7291 47.315 44.6558 47.315ZM47.8758 33.245H52.1458C53.3825 33.245 54.3275 33 54.9808 32.51C55.6341 32.02 55.9608 31.2617 55.9608 30.235C55.9608 29.255 55.6341 28.52 54.9808 28.03C54.3275 27.5167 53.3825 27.26 52.1458 27.26H47.8758V33.245ZM70.2077 47C69.111 47 68.271 46.72 67.6877 46.16C67.1277 45.5767 66.8477 44.7483 66.8477 43.675V25.65C66.8477 24.5767 67.1277 23.76 67.6877 23.2C68.271 22.6167 69.111 22.325 70.2077 22.325H82.0727C82.9127 22.325 83.5427 22.535 83.9627 22.955C84.3827 23.375 84.5927 23.9817 84.5927 24.775C84.5927 25.5917 84.3827 26.2217 83.9627 26.665C83.5427 27.085 82.9127 27.295 82.0727 27.295H73.0077V31.985H81.3027C82.1194 31.985 82.7377 32.195 83.1577 32.615C83.601 33.035 83.8227 33.6533 83.8227 34.47C83.8227 35.2867 83.601 35.905 83.1577 36.325C82.7377 36.745 82.1194 36.955 81.3027 36.955H73.0077V42.03H82.0727C82.9127 42.03 83.5427 42.2517 83.9627 42.695C84.3827 43.115 84.5927 43.7217 84.5927 44.515C84.5927 45.3317 84.3827 45.95 83.9627 46.37C83.5427 46.79 82.9127 47 82.0727 47H70.2077ZM101.575 47.385C98.8451 47.385 96.5001 46.86 94.5401 45.81C92.5801 44.76 91.0751 43.2783 90.0251 41.365C88.9984 39.4517 88.4851 37.2117 88.4851 34.645C88.4851 32.7317 88.7768 30.9933 89.3601 29.43C89.9668 27.8667 90.8301 26.525 91.9501 25.405C93.0934 24.285 94.4701 23.4333 96.0801 22.85C97.7134 22.2433 99.5451 21.94 101.575 21.94C102.648 21.94 103.757 22.0683 104.9 22.325C106.067 22.5583 107.093 22.92 107.98 23.41C108.633 23.76 109.088 24.2033 109.345 24.74C109.602 25.2767 109.683 25.825 109.59 26.385C109.52 26.945 109.322 27.4467 108.995 27.89C108.668 28.3333 108.248 28.6367 107.735 28.8C107.222 28.94 106.662 28.8583 106.055 28.555C105.355 28.2283 104.655 27.9833 103.955 27.82C103.278 27.6333 102.567 27.54 101.82 27.54C100.373 27.54 99.1601 27.82 98.1801 28.38C97.2234 28.9167 96.5001 29.71 96.0101 30.76C95.5201 31.81 95.2751 33.105 95.2751 34.645C95.2751 36.185 95.5201 37.4917 96.0101 38.565C96.5001 39.615 97.2234 40.42 98.1801 40.98C99.1601 41.5167 100.373 41.785 101.82 41.785C102.427 41.785 103.08 41.715 103.78 41.575C104.48 41.4117 105.168 41.1667 105.845 40.84C106.545 40.5367 107.163 40.455 107.7 40.595C108.26 40.735 108.703 41.015 109.03 41.435C109.38 41.855 109.602 42.345 109.695 42.905C109.788 43.4417 109.707 43.9783 109.45 44.515C109.217 45.0517 108.797 45.4833 108.19 45.81C107.373 46.3 106.358 46.685 105.145 46.965C103.955 47.245 102.765 47.385 101.575 47.385ZM122.532 47.315C121.505 47.315 120.712 47.035 120.152 46.475C119.592 45.8917 119.312 45.0633 119.312 43.99V34.4L120.642 37.935L112.592 26.35C112.195 25.79 112.02 25.1717 112.067 24.495C112.137 23.795 112.417 23.2117 112.907 22.745C113.42 22.255 114.143 22.01 115.077 22.01C115.73 22.01 116.325 22.1733 116.862 22.5C117.398 22.8033 117.9 23.3283 118.367 24.075L123.267 31.285H122.007L126.907 24.04C127.397 23.2933 127.898 22.7683 128.412 22.465C128.925 22.1617 129.532 22.01 130.232 22.01C131.118 22.01 131.807 22.2317 132.297 22.675C132.787 23.1183 133.043 23.6783 133.067 24.355C133.113 25.0317 132.903 25.72 132.437 26.42L124.457 37.935L125.752 34.4V43.99C125.752 46.2067 124.678 47.315 122.532 47.315ZM147.785 47.385C145.055 47.385 142.71 46.86 140.75 45.81C138.79 44.76 137.285 43.2783 136.235 41.365C135.208 39.4517 134.695 37.2117 134.695 34.645C134.695 32.7317 134.986 30.9933 135.57 29.43C136.176 27.8667 137.04 26.525 138.16 25.405C139.303 24.285 140.68 23.4333 142.29 22.85C143.923 22.2433 145.755 21.94 147.785 21.94C148.858 21.94 149.966 22.0683 151.11 22.325C152.276 22.5583 153.303 22.92 154.19 23.41C154.843 23.76 155.298 24.2033 155.555 24.74C155.811 25.2767 155.893 25.825 155.8 26.385C155.73 26.945 155.531 27.4467 155.205 27.89C154.878 28.3333 154.458 28.6367 153.945 28.8C153.431 28.94 152.871 28.8583 152.265 28.555C151.565 28.2283 150.865 27.9833 150.165 27.82C149.488 27.6333 148.776 27.54 148.03 27.54C146.583 27.54 145.37 27.82 144.39 28.38C143.433 28.9167 142.71 29.71 142.22 30.76C141.73 31.81 141.485 33.105 141.485 34.645C141.485 36.185 141.73 37.4917 142.22 38.565C142.71 39.615 143.433 40.42 144.39 40.98C145.37 41.5167 146.583 41.785 148.03 41.785C148.636 41.785 149.29 41.715 149.99 41.575C150.69 41.4117 151.378 41.1667 152.055 40.84C152.755 40.5367 153.373 40.455 153.91 40.595C154.47 40.735 154.913 41.015 155.24 41.435C155.59 41.855 155.811 42.345 155.905 42.905C155.998 43.4417 155.916 43.9783 155.66 44.515C155.426 45.0517 155.006 45.4833 154.4 45.81C153.583 46.3 152.568 46.685 151.355 46.965C150.165 47.245 148.975 47.385 147.785 47.385ZM163.376 47C162.35 47 161.545 46.72 160.961 46.16C160.401 45.5767 160.121 44.7717 160.121 43.745V25.545C160.121 24.495 160.401 23.69 160.961 23.13C161.521 22.57 162.315 22.29 163.341 22.29C164.391 22.29 165.185 22.57 165.721 23.13C166.281 23.69 166.561 24.495 166.561 25.545V41.645H175.101C175.988 41.645 176.665 41.8783 177.131 42.345C177.621 42.7883 177.866 43.4417 177.866 44.305C177.866 45.1683 177.621 45.8333 177.131 46.3C176.665 46.7667 175.988 47 175.101 47H163.376ZM182.142 47.315C181.419 47.315 180.812 47.1517 180.322 46.825C179.832 46.475 179.529 46.0083 179.412 45.425C179.296 44.8183 179.401 44.1417 179.727 43.395L188.442 24.635C188.862 23.725 189.376 23.06 189.982 22.64C190.612 22.22 191.324 22.01 192.117 22.01C192.911 22.01 193.599 22.22 194.182 22.64C194.789 23.06 195.314 23.725 195.757 24.635L204.472 43.395C204.846 44.1417 204.974 44.8183 204.857 45.425C204.764 46.0317 204.472 46.4983 203.982 46.825C203.516 47.1517 202.932 47.315 202.232 47.315C201.299 47.315 200.576 47.105 200.062 46.685C199.572 46.265 199.129 45.5883 198.732 44.655L196.842 40.21L199.292 41.995H184.872L187.357 40.21L185.467 44.655C185.047 45.5883 184.616 46.265 184.172 46.685C183.729 47.105 183.052 47.315 182.142 47.315ZM192.047 29.045L187.987 38.74L187.007 37.06H197.192L196.212 38.74L192.117 29.045H192.047ZM211.742 47C210.645 47 209.805 46.72 209.222 46.16C208.662 45.5767 208.382 44.7483 208.382 43.675V25.65C208.382 24.5767 208.662 23.76 209.222 23.2C209.805 22.6167 210.645 22.325 211.742 22.325H220.282C222.055 22.325 223.56 22.5933 224.797 23.13C226.057 23.6433 227.013 24.3783 227.667 25.335C228.32 26.2917 228.647 27.4117 228.647 28.695C228.647 30.1417 228.227 31.3783 227.387 32.405C226.57 33.4317 225.45 34.1317 224.027 34.505V33.945C225.707 34.2483 227.002 34.925 227.912 35.975C228.845 37.025 229.312 38.3667 229.312 40C229.312 42.17 228.53 43.885 226.967 45.145C225.427 46.3817 223.315 47 220.632 47H211.742ZM214.542 42.275H219.757C220.947 42.275 221.81 42.0533 222.347 41.61C222.907 41.1433 223.187 40.455 223.187 39.545C223.187 38.635 222.907 37.9583 222.347 37.515C221.81 37.0717 220.947 36.85 219.757 36.85H214.542V42.275ZM214.542 32.125H219.127C220.293 32.125 221.145 31.915 221.682 31.495C222.242 31.075 222.522 30.4333 222.522 29.57C222.522 28.7067 222.242 28.0767 221.682 27.68C221.145 27.26 220.293 27.05 219.127 27.05H214.542V32.125ZM236.912 47C235.885 47 235.08 46.72 234.497 46.16C233.937 45.5767 233.657 44.7717 233.657 43.745V25.545C233.657 24.495 233.937 23.69 234.497 23.13C235.057 22.57 235.85 22.29 236.877 22.29C237.927 22.29 238.72 22.57 239.257 23.13C239.817 23.69 240.097 24.495 240.097 25.545V41.645H248.637C249.524 41.645 250.2 41.8783 250.667 42.345C251.157 42.7883 251.402 43.4417 251.402 44.305C251.402 45.1683 251.157 45.8333 250.667 46.3C250.2 46.7667 249.524 47 248.637 47H236.912ZM258.191 47C257.094 47 256.254 46.72 255.671 46.16C255.111 45.5767 254.831 44.7483 254.831 43.675V25.65C254.831 24.5767 255.111 23.76 255.671 23.2C256.254 22.6167 257.094 22.325 258.191 22.325H270.056C270.896 22.325 271.526 22.535 271.946 22.955C272.366 23.375 272.576 23.9817 272.576 24.775C272.576 25.5917 272.366 26.2217 271.946 26.665C271.526 27.085 270.896 27.295 270.056 27.295H260.991V31.985H269.286C270.102 31.985 270.721 32.195 271.141 32.615C271.584 33.035 271.806 33.6533 271.806 34.47C271.806 35.2867 271.584 35.905 271.141 36.325C270.721 36.745 270.102 36.955 269.286 36.955H260.991V42.03H270.056C270.896 42.03 271.526 42.2517 271.946 42.695C272.366 43.115 272.576 43.7217 272.576 44.515C272.576 45.3317 272.366 45.95 271.946 46.37C271.526 46.79 270.896 47 270.056 47H258.191ZM91.1724 87.315C90.1458 87.315 89.3524 87.035 88.7924 86.475C88.2324 85.8917 87.9524 85.0867 87.9524 84.06V67.575H82.4574C81.5941 67.575 80.9291 67.3533 80.4624 66.91C80.0191 66.4433 79.7974 65.79 79.7974 64.95C79.7974 64.0867 80.0191 63.4333 80.4624 62.99C80.9291 62.5467 81.5941 62.325 82.4574 62.325H99.8874C100.751 62.325 101.404 62.5467 101.847 62.99C102.314 63.4333 102.547 64.0867 102.547 64.95C102.547 65.79 102.314 66.4433 101.847 66.91C101.404 67.3533 100.751 67.575 99.8874 67.575H94.3924V84.06C94.3924 85.0867 94.1241 85.8917 93.5874 86.475C93.0508 87.035 92.2458 87.315 91.1724 87.315ZM105.758 80.035C105.058 80.035 104.475 79.8017 104.008 79.335C103.541 78.8683 103.308 78.285 103.308 77.585C103.308 76.885 103.541 76.3133 104.008 75.87C104.475 75.4033 105.058 75.17 105.758 75.17H112.688C113.388 75.17 113.971 75.4033 114.438 75.87C114.905 76.3133 115.138 76.885 115.138 77.585C115.138 78.285 114.905 78.8683 114.438 79.335C113.971 79.8017 113.388 80.035 112.688 80.035H105.758ZM123.304 87C122.207 87 121.367 86.72 120.784 86.16C120.224 85.5767 119.944 84.7483 119.944 83.675V65.65C119.944 64.5767 120.224 63.76 120.784 63.2C121.367 62.6167 122.207 62.325 123.304 62.325H130.164C134.457 62.325 137.77 63.3983 140.104 65.545C142.46 67.6917 143.639 70.725 143.639 74.645C143.639 76.605 143.335 78.355 142.729 79.895C142.122 81.4117 141.247 82.7067 140.104 83.78C138.96 84.83 137.549 85.635 135.869 86.195C134.212 86.7317 132.31 87 130.164 87H123.304ZM126.384 81.785H129.744C130.98 81.785 132.042 81.6333 132.929 81.33C133.839 81.0267 134.585 80.5833 135.169 80C135.775 79.4167 136.219 78.6817 136.499 77.795C136.802 76.9083 136.954 75.8583 136.954 74.645C136.954 72.2183 136.359 70.4333 135.169 69.29C133.979 68.1233 132.17 67.54 129.744 67.54H126.384V81.785ZM151.378 87.315C150.352 87.315 149.558 87.035 148.998 86.475C148.438 85.8917 148.158 85.0867 148.158 84.06V65.58C148.158 64.53 148.438 63.725 148.998 63.165C149.582 62.605 150.387 62.325 151.413 62.325H160.023C162.823 62.325 164.982 63.0133 166.498 64.39C168.038 65.7433 168.808 67.6333 168.808 70.06C168.808 71.6233 168.458 72.9883 167.758 74.155C167.082 75.2983 166.09 76.185 164.783 76.815C163.5 77.4217 161.913 77.725 160.023 77.725L160.303 77.095H161.983C162.987 77.095 163.873 77.34 164.643 77.83C165.413 78.2967 166.055 79.02 166.568 80L168.318 83.15C168.692 83.8267 168.867 84.4917 168.843 85.145C168.82 85.775 168.563 86.3 168.073 86.72C167.607 87.1167 166.918 87.315 166.008 87.315C165.098 87.315 164.352 87.1283 163.768 86.755C163.208 86.3817 162.707 85.7983 162.263 85.005L159.078 79.16C158.798 78.6467 158.437 78.2967 157.993 78.11C157.573 77.9 157.083 77.795 156.523 77.795H154.598V84.06C154.598 85.0867 154.33 85.8917 153.793 86.475C153.257 87.035 152.452 87.315 151.378 87.315ZM154.598 73.245H158.868C160.105 73.245 161.05 73 161.703 72.51C162.357 72.02 162.683 71.2617 162.683 70.235C162.683 69.255 162.357 68.52 161.703 68.03C161.05 67.5167 160.105 67.26 158.868 67.26H154.598V73.245ZM174.247 87.315C173.524 87.315 172.917 87.1517 172.427 86.825C171.937 86.475 171.634 86.0083 171.517 85.425C171.4 84.8183 171.505 84.1417 171.832 83.395L180.547 64.635C180.967 63.725 181.48 63.06 182.087 62.64C182.717 62.22 183.429 62.01 184.222 62.01C185.015 62.01 185.704 62.22 186.287 62.64C186.894 63.06 187.419 63.725 187.862 64.635L196.577 83.395C196.95 84.1417 197.079 84.8183 196.962 85.425C196.869 86.0317 196.577 86.4983 196.087 86.825C195.62 87.1517 195.037 87.315 194.337 87.315C193.404 87.315 192.68 87.105 192.167 86.685C191.677 86.265 191.234 85.5883 190.837 84.655L188.947 80.21L191.397 81.995H176.977L179.462 80.21L177.572 84.655C177.152 85.5883 176.72 86.265 176.277 86.685C175.834 87.105 175.157 87.315 174.247 87.315ZM184.152 69.045L180.092 78.74L179.112 77.06H189.297L188.317 78.74L184.222 69.045H184.152ZM203.706 87.315C202.68 87.315 201.886 87.035 201.326 86.475C200.766 85.8917 200.486 85.0867 200.486 84.06V65.58C200.486 64.53 200.766 63.725 201.326 63.165C201.91 62.605 202.715 62.325 203.741 62.325H212.351C215.151 62.325 217.31 63.0483 218.826 64.495C220.366 65.9183 221.136 67.89 221.136 70.41C221.136 72.93 220.366 74.9133 218.826 76.36C217.31 77.7833 215.151 78.495 212.351 78.495H206.926V84.06C206.926 85.0867 206.658 85.8917 206.121 86.475C205.585 87.035 204.78 87.315 203.706 87.315ZM206.926 73.56H211.231C212.445 73.56 213.378 73.3033 214.031 72.79C214.685 72.2533 215.011 71.46 215.011 70.41C215.011 69.3367 214.685 68.5433 214.031 68.03C213.378 67.5167 212.445 67.26 211.231 67.26H206.926V73.56ZM228.199 87C227.102 87 226.262 86.72 225.679 86.16C225.119 85.5767 224.839 84.7483 224.839 83.675V65.65C224.839 64.5767 225.119 63.76 225.679 63.2C226.262 62.6167 227.102 62.325 228.199 62.325H240.064C240.904 62.325 241.534 62.535 241.954 62.955C242.374 63.375 242.584 63.9817 242.584 64.775C242.584 65.5917 242.374 66.2217 241.954 66.665C241.534 67.085 240.904 67.295 240.064 67.295H230.999V71.985H239.294C240.11 71.985 240.729 72.195 241.149 72.615C241.592 73.035 241.814 73.6533 241.814 74.47C241.814 75.2867 241.592 75.905 241.149 76.325C240.729 76.745 240.11 76.955 239.294 76.955H230.999V82.03H240.064C240.904 82.03 241.534 82.2517 241.954 82.695C242.374 83.115 242.584 83.7217 242.584 84.515C242.584 85.3317 242.374 85.95 241.954 86.37C241.534 86.79 240.904 87 240.064 87H228.199Z" fill="#217D8D"/>
</svg>
