<svg width="906" height="394" viewBox="0 0 906 394" fill="none" xmlns="http://www.w3.org/2000/svg">
<path d="M906 61C906 33.938 884.062 12 857 12H50C22.9381 12 1 33.938 1 61C1 88.062 22.938 110 50 110H857C884.062 110 906 88.062 906 61Z" fill="#D1CAB6"/>
<path d="M905 203C905 175.938 883.062 154 856 154H49C21.9381 154 0 175.938 0 203C0 230.062 21.938 252 49 252H856C883.062 252 905 230.062 905 203Z" fill="#D1CAB6"/>
<path d="M905 345C905 317.938 883.062 296 856 296H49C21.9381 296 0 317.938 0 345C0 372.062 21.938 394 49 394H856C883.062 394 905 372.062 905 345Z" fill="#D1CAB6"/>
<path d="M906 49C906 21.938 884.062 0 857 0H50C22.9381 0 1 21.938 1 49C1 76.062 22.938 98 50 98H857C884.062 98 906 76.062 906 49Z" fill="white"/>
<path d="M905 191C905 163.938 883.062 142 856 142H49C21.9381 142 0 163.938 0 191C0 218.062 21.938 240 49 240H856C883.062 240 905 218.062 905 191Z" fill="white"/>
<path d="M905 333C905 305.938 883.062 284 856 284H49C21.9381 284 0 305.938 0 333C0 360.062 21.938 382 49 382H856C883.062 382 905 360.062 905 333Z" fill="#FFC5C6"/>
<path d="M255.262 39.81H258.73L262.028 53.138L265.972 39.81H268.624L272.534 53.138L275.866 39.81H279.334L274.268 58H271.344L267.298 44.332L263.218 58H260.294L255.262 39.81ZM288.661 58.51C286.644 58.51 285.034 58.0113 283.833 57.014C282.654 55.994 282.065 54.5547 282.065 52.696C282.065 50.86 282.722 49.398 284.037 48.31C285.374 47.222 287.176 46.678 289.443 46.678C291.687 46.678 293.704 47.0973 295.495 47.936V46.542C295.495 44.978 295.064 43.8447 294.203 43.142C293.364 42.4167 291.959 42.054 289.987 42.054C288.899 42.054 287.834 42.156 286.791 42.36C285.748 42.564 284.842 42.8473 284.071 43.21V40.49C284.774 40.15 285.726 39.8667 286.927 39.64C288.151 39.4133 289.341 39.3 290.497 39.3C293.33 39.3 295.45 39.946 296.855 41.238C298.26 42.53 298.963 44.2753 298.963 46.474V58H295.495V50.69C293.84 49.8513 291.948 49.432 289.817 49.432C288.344 49.432 287.256 49.704 286.553 50.248C285.873 50.792 285.533 51.608 285.533 52.696C285.533 54.7587 286.859 55.79 289.511 55.79C290.327 55.79 291.041 55.6767 291.653 55.45V58.136C290.837 58.3853 289.84 58.51 288.661 58.51ZM309.79 46.236C309.79 44.7853 309.495 43.7313 308.906 43.074C308.316 42.394 307.274 42.054 305.778 42.054C304.327 42.054 302.967 42.3713 301.698 43.006V40.286C302.242 40.014 302.944 39.7873 303.806 39.606C304.69 39.402 305.562 39.3 306.424 39.3C308.713 39.3 310.424 39.9233 311.558 41.17C312.691 42.394 313.258 44.162 313.258 46.474V58H309.79V46.236ZM323.591 58.51C321.574 58.51 319.964 58.0113 318.763 57.014C317.584 55.994 316.995 54.5547 316.995 52.696C316.995 50.86 317.652 49.398 318.967 48.31C320.304 47.222 322.106 46.678 324.373 46.678C326.617 46.678 328.634 47.0973 330.425 47.936V46.542C330.425 44.978 329.994 43.8447 329.133 43.142C328.294 42.4167 326.889 42.054 324.917 42.054C323.829 42.054 322.764 42.156 321.721 42.36C320.678 42.564 319.772 42.8473 319.001 43.21V40.49C319.704 40.15 320.656 39.8667 321.857 39.64C323.081 39.4133 324.271 39.3 325.427 39.3C327.467 39.3 329.167 39.674 330.527 40.422L332.261 38.45H336.103L332.669 42.292C333.485 43.448 333.893 44.842 333.893 46.474V58H330.425V50.69C328.77 49.8513 326.878 49.432 324.747 49.432C323.274 49.432 322.186 49.704 321.483 50.248C320.803 50.792 320.463 51.608 320.463 52.696C320.463 54.7587 321.789 55.79 324.441 55.79C325.257 55.79 325.971 55.6767 326.583 55.45V58.136C325.767 58.3853 324.77 58.51 323.591 58.51ZM346.883 58.51C344.163 58.51 342.021 57.7393 340.457 56.198C338.916 54.6567 338.145 52.39 338.145 49.398C338.145 47.3353 338.429 45.5447 338.995 44.026C339.562 42.5073 340.333 41.34 341.307 40.524C342.305 39.708 343.438 39.3 344.707 39.3C346.43 39.3 347.643 39.9913 348.345 41.374C348.731 40.6713 349.309 40.15 350.079 39.81C350.85 39.47 351.711 39.3 352.663 39.3C354.227 39.3 355.395 39.7987 356.165 40.796C356.959 41.7933 357.355 43.1307 357.355 44.808V58H353.887V45.046C353.887 44.026 353.729 43.278 353.411 42.802C353.094 42.3033 352.55 42.054 351.779 42.054C350.487 42.054 349.683 42.7567 349.365 44.162H347.325C347.212 43.4593 346.985 42.938 346.645 42.598C346.328 42.2353 345.863 42.054 345.251 42.054C344.186 42.054 343.313 42.6887 342.633 43.958C341.976 45.2273 341.647 47.0407 341.647 49.398C341.647 51.574 342.123 53.1833 343.075 54.226C344.027 55.2687 345.489 55.79 347.461 55.79C348.323 55.79 349.116 55.6767 349.841 55.45V58.136C349.048 58.3853 348.062 58.51 346.883 58.51ZM342.627 34.778H357.315V37.124H342.627V34.778ZM362.789 46.678L361.089 43.924C362.29 42.4053 363.661 41.2607 365.203 40.49C366.744 39.6967 368.569 39.3 370.677 39.3C373.397 39.3 375.482 39.9233 376.933 41.17C378.383 42.394 379.109 44.1167 379.109 46.338V58H375.641V46.61C375.641 45.046 375.221 43.9013 374.383 43.176C373.567 42.428 372.331 42.054 370.677 42.054C369.43 42.054 368.331 42.2467 367.379 42.632C366.427 42.9947 365.565 43.584 364.795 44.4L366.257 46.678V58H362.789V46.678ZM389.773 58.51C388.526 58.51 387.257 58.3627 385.965 58.068C384.673 57.796 383.664 57.388 382.939 56.844V54.056C383.913 54.6453 384.979 55.0987 386.135 55.416C387.313 55.7107 388.435 55.858 389.501 55.858C390.997 55.858 392.073 55.688 392.731 55.348C393.388 54.9853 393.717 54.3733 393.717 53.512C393.717 52.9227 393.558 52.4467 393.241 52.084C392.923 51.7213 392.436 51.404 391.779 51.132C391.144 50.86 390.135 50.52 388.753 50.112C386.758 49.5 385.273 48.786 384.299 47.97C383.324 47.1313 382.837 45.9753 382.837 44.502C382.837 42.8247 383.483 41.544 384.775 40.66C386.067 39.7533 387.835 39.3 390.079 39.3C391.235 39.3 392.345 39.436 393.411 39.708C394.499 39.9573 395.394 40.2973 396.097 40.728V43.584C395.326 43.108 394.442 42.734 393.445 42.462C392.447 42.19 391.427 42.054 390.385 42.054C387.665 42.054 386.305 42.87 386.305 44.502C386.305 45.114 386.486 45.6013 386.849 45.964C387.234 46.3267 387.733 46.6327 388.345 46.882C388.979 47.1087 390.033 47.4373 391.507 47.868C392.957 48.2987 394.091 48.7633 394.907 49.262C395.723 49.7607 396.301 50.35 396.641 51.03C396.981 51.71 397.151 52.5487 397.151 53.546C397.151 55.042 396.539 56.2433 395.315 57.15C394.091 58.0567 392.243 58.51 389.773 58.51ZM381.74 34.778H393.266V31.14H396.428V37.124H381.74V34.778ZM405.438 57.966C404.327 57.966 403.477 57.66 402.888 57.048C402.321 56.4133 402.038 55.5293 402.038 54.396V41.51C402.038 39.9913 402.253 38.7447 402.684 37.77C403.115 36.7953 403.84 35.9907 404.86 35.356H398.672V32.432H409.382V35.22C408.022 35.8093 407.036 36.5687 406.424 37.498C405.812 38.4273 405.506 39.7193 405.506 41.374V53.41C405.506 54.022 405.631 54.4527 405.88 54.702C406.129 54.9287 406.56 55.042 407.172 55.042H408.396V57.966H405.438ZM419.925 58.51C418.315 58.51 416.899 58.2267 415.675 57.66C414.451 57.0933 413.499 56.3 412.819 55.28C412.161 54.26 411.833 53.0927 411.833 51.778V50.452C411.833 49.7267 412.025 49.0467 412.411 48.412C412.796 47.7773 413.351 47.0067 414.077 46.1C414.553 45.5333 414.904 45.08 415.131 44.74C415.357 44.4 415.471 44.0827 415.471 43.788V43.686C415.017 43.9353 414.473 44.06 413.839 44.06C413.068 44.06 412.467 43.8447 412.037 43.414C411.629 42.9607 411.425 42.3033 411.425 41.442V39.81H413.907V41C413.907 41.3627 413.986 41.6347 414.145 41.816C414.326 41.9747 414.609 42.054 414.995 42.054C415.448 42.054 415.822 41.9067 416.117 41.612V39.81H418.803V42.904C418.803 43.6293 418.633 44.3207 418.293 44.978C417.953 45.6353 417.477 46.372 416.865 47.188C416.321 47.936 415.924 48.5593 415.675 49.058C415.425 49.534 415.301 50.01 415.301 50.486V51.71C415.301 52.9793 415.709 53.9767 416.525 54.702C417.341 55.4273 418.474 55.79 419.925 55.79C421.443 55.79 422.633 55.3707 423.495 54.532C424.379 53.6933 424.821 52.458 424.821 50.826C424.821 49.194 424.481 47.97 423.801 47.154C423.121 46.338 422.123 45.93 420.809 45.93V44.06L424.413 39.3H428.187L424.311 44.366C425.693 44.8873 426.702 45.692 427.337 46.78C427.971 47.8453 428.289 49.194 428.289 50.826C428.289 52.3673 427.937 53.7273 427.235 54.906C426.532 56.062 425.546 56.9573 424.277 57.592C423.03 58.204 421.579 58.51 419.925 58.51ZM435.592 58C434.482 58 433.632 57.694 433.042 57.082C432.476 56.4473 432.192 55.5633 432.192 54.43V39.81H435.66V53.478C435.66 54.09 435.785 54.5207 436.034 54.77C436.284 54.9967 436.714 55.11 437.326 55.11H438.55V58H435.592ZM442.286 46.746C442.286 44.3887 443.057 42.564 444.598 41.272C446.14 39.9573 448.259 39.3 450.956 39.3C453.631 39.3 455.739 39.946 457.28 41.238C458.822 42.53 459.592 44.366 459.592 46.746V58H456.124V46.644C456.124 45.1027 455.671 43.958 454.764 43.21C453.858 42.4393 452.588 42.054 450.956 42.054C449.302 42.054 448.021 42.4393 447.114 43.21C446.208 43.958 445.754 45.1027 445.754 46.644V50.112C446.049 49.568 446.514 49.1373 447.148 48.82C447.783 48.48 448.531 48.31 449.392 48.31H452.112V51.166H449.12C448.168 51.166 447.364 51.506 446.706 52.186C446.072 52.8433 445.754 53.6027 445.754 54.464V58H442.286V46.746ZM444.859 34.778H459.547V37.124H444.859V34.778ZM469.917 58.51C467.9 58.51 466.29 58.0113 465.089 57.014C463.91 55.994 463.321 54.5547 463.321 52.696C463.321 50.86 463.978 49.398 465.293 48.31C466.63 47.222 468.432 46.678 470.699 46.678C472.943 46.678 474.96 47.0973 476.751 47.936V46.542C476.751 44.978 476.32 43.8447 475.459 43.142C474.62 42.4167 473.215 42.054 471.243 42.054C470.155 42.054 469.09 42.156 468.047 42.36C467.004 42.564 466.098 42.8473 465.327 43.21V40.49C466.03 40.15 466.982 39.8667 468.183 39.64C469.407 39.4133 470.597 39.3 471.753 39.3C474.586 39.3 476.706 39.946 478.111 41.238C479.516 42.53 480.219 44.2753 480.219 46.474V58H476.751V50.69C475.096 49.8513 473.204 49.432 471.073 49.432C469.6 49.432 468.512 49.704 467.809 50.248C467.129 50.792 466.789 51.608 466.789 52.696C466.789 54.7587 468.115 55.79 470.767 55.79C471.583 55.79 472.297 55.6767 472.909 55.45V58.136C472.093 58.3853 471.096 58.51 469.917 58.51ZM484.891 48.004H488.325L490.093 55.28C492.292 55.28 494.049 54.6907 495.363 53.512C496.701 52.3107 497.369 50.656 497.369 48.548C497.369 46.2587 496.825 44.604 495.737 43.584C494.649 42.564 492.859 42.054 490.365 42.054C489.232 42.054 488.076 42.1673 486.897 42.394C485.741 42.598 484.767 42.8813 483.973 43.244V40.524C484.812 40.1387 485.832 39.844 487.033 39.64C488.257 39.4133 489.504 39.3 490.773 39.3C493.992 39.3 496.474 40.0707 498.219 41.612C499.987 43.1533 500.871 45.4653 500.871 48.548C500.871 50.3387 500.418 51.9593 499.511 53.41C498.605 54.838 497.369 55.96 495.805 56.776C494.264 57.592 492.564 58 490.705 58H487.339L484.891 48.004ZM511 46.236C511 44.7853 510.706 43.7313 510.116 43.074C509.527 42.394 508.484 42.054 506.988 42.054C505.538 42.054 504.178 42.3713 502.908 43.006V40.286C503.452 40.014 504.155 39.7873 505.016 39.606C505.9 39.402 506.773 39.3 507.634 39.3C509.924 39.3 511.635 39.9233 512.768 41.17C513.902 42.394 514.468 44.162 514.468 46.474V58H511V46.236ZM519.906 46.678L518.206 43.924C519.407 42.4053 520.778 41.2607 522.32 40.49C523.861 39.6967 525.686 39.3 527.794 39.3C530.514 39.3 532.599 39.9233 534.05 41.17C535.5 42.394 536.226 44.1167 536.226 46.338V58H532.758V46.61C532.758 45.046 532.338 43.9013 531.5 43.176C530.684 42.428 529.448 42.054 527.794 42.054C526.547 42.054 525.448 42.2467 524.496 42.632C523.544 42.9947 522.682 43.584 521.912 44.4L523.374 46.678V58H519.906V46.678ZM548.114 58.51C546.482 58.51 545.065 58.2267 543.864 57.66C542.662 57.0933 541.733 56.3 541.076 55.28C540.441 54.2373 540.124 53.0473 540.124 51.71V50.554C540.124 49.7833 540.282 49.0807 540.6 48.446C540.917 47.8113 541.382 47.0747 541.994 46.236C542.424 45.6693 542.742 45.2047 542.946 44.842C543.15 44.4567 543.252 44.094 543.252 43.754C543.252 43.3233 543.138 43.0173 542.912 42.836C542.708 42.6547 542.356 42.564 541.858 42.564H539.954V39.81H543.524C544.521 39.81 545.303 40.1047 545.87 40.694C546.459 41.2607 546.754 42.02 546.754 42.972C546.754 43.6293 546.618 44.2413 546.346 44.808C546.074 45.352 545.666 46.0207 545.122 46.814C544.578 47.63 544.181 48.2873 543.932 48.786C543.705 49.2847 543.592 49.8287 543.592 50.418V51.676C543.592 52.9907 543.966 54.0107 544.714 54.736C545.484 55.4387 546.618 55.79 548.114 55.79C549.61 55.79 550.72 55.4273 551.446 54.702C552.171 53.954 552.534 52.9113 552.534 51.574V39.81H556.002V50.996C556.002 53.3307 555.31 55.1667 553.928 56.504C552.545 57.8413 550.607 58.51 548.114 58.51ZM568.379 58.51C565.75 58.51 563.653 58.0113 562.089 57.014C560.525 56.0167 559.743 54.566 559.743 52.662C559.743 51.6647 560.015 50.792 560.559 50.044C561.126 49.2733 561.874 48.7407 562.803 48.446C561.919 48.0607 561.205 47.5053 560.661 46.78C560.14 46.0547 559.879 45.216 559.879 44.264C559.879 42.768 560.378 41.5667 561.375 40.66C562.372 39.7533 563.834 39.3 565.761 39.3C566.305 39.3 566.86 39.3453 567.427 39.436C567.994 39.504 568.447 39.5833 568.787 39.674V42.394C568.492 42.2807 568.107 42.2013 567.631 42.156C567.178 42.088 566.758 42.054 566.373 42.054C565.398 42.054 564.65 42.2693 564.129 42.7C563.63 43.108 563.381 43.6973 563.381 44.468C563.381 45.284 563.653 45.9073 564.197 46.338C564.741 46.7687 565.546 46.984 566.611 46.984H568.787V49.84H566.645C565.557 49.84 564.718 50.078 564.129 50.554C563.54 51.0073 563.245 51.71 563.245 52.662C563.245 53.6593 563.698 54.43 564.605 54.974C565.534 55.518 566.792 55.79 568.379 55.79C572.119 55.79 573.989 54.2033 573.989 51.03V39.81H577.457V50.962C577.457 52.2313 577.162 53.444 576.573 54.6C575.984 55.7333 575.009 56.674 573.649 57.422C572.312 58.1473 570.555 58.51 568.379 58.51ZM583.912 46.95C582.915 46.95 582.212 46.7233 581.804 46.27C581.396 45.8167 581.192 45.1253 581.192 44.196V42.258H584.32V43.55C584.32 43.9127 584.399 44.1733 584.558 44.332C584.717 44.468 585 44.536 585.408 44.536H589.386V46.95H583.912ZM583.912 56.232C582.915 56.232 582.212 56.0053 581.804 55.552C581.396 55.0987 581.192 54.4073 581.192 53.478V51.54H584.32V52.832C584.32 53.1947 584.399 53.4553 584.558 53.614C584.717 53.75 585 53.818 585.408 53.818H589.386V56.232H583.912ZM593.128 39.81H596.46V42.258C597.344 41.2607 598.375 40.524 599.554 40.048C600.755 39.5493 601.968 39.3 603.192 39.3C605.413 39.3 607.113 39.912 608.292 41.136C609.471 42.36 610.06 43.9353 610.06 45.862V58H606.592V46.032C606.592 44.7627 606.241 43.788 605.538 43.108C604.835 42.4053 603.747 42.054 602.274 42.054C599.803 42.054 597.911 43.0853 596.596 45.148V58H593.128V39.81ZM603.666 37.124C602.691 37.124 601.988 36.886 601.558 36.41C601.104 35.9113 600.878 35.1747 600.878 34.2V32.432H604.006V33.792C604.006 34.1773 604.085 34.438 604.244 34.574C604.38 34.71 604.652 34.778 605.06 34.778H613.084V37.124H603.666ZM606.896 26.496H610.024V31.018H606.896V26.496ZM620.428 58.51C617.572 58.51 615.362 58 613.798 56.98V54.192C615.316 55.2573 617.3 55.79 619.748 55.79C621.969 55.79 623.692 55.212 624.916 54.056C626.162 52.9 626.786 51.1887 626.786 48.922C626.786 46.6553 626.162 44.944 624.916 43.788C623.692 42.632 621.969 42.054 619.748 42.054C617.368 42.054 615.407 42.5867 613.866 43.652V40.83C615.452 39.81 617.64 39.3 620.428 39.3C623.488 39.3 625.902 40.15 627.67 41.85C629.438 43.5273 630.322 45.8847 630.322 48.922C630.322 51.9593 629.438 54.3167 627.67 55.994C625.902 57.6713 623.488 58.51 620.428 58.51ZM638.623 57.966C637.513 57.966 636.663 57.66 636.073 57.048C635.507 56.4133 635.223 55.5293 635.223 54.396V41.51C635.223 39.9913 635.439 38.7447 635.869 37.77C636.3 36.7953 637.025 35.9907 638.045 35.356H631.857V32.432H642.567V35.22C641.207 35.8093 640.221 36.5687 639.609 37.498C638.997 38.4273 638.691 39.7193 638.691 41.374V53.41C638.691 54.022 638.816 54.4527 639.065 54.702C639.315 54.9287 639.745 55.042 640.357 55.042H641.581V57.966H638.623ZM654.028 58.51C652.26 58.51 650.719 58.1927 649.404 57.558C648.089 56.9233 647.069 56.0393 646.344 54.906C645.641 53.75 645.29 52.4353 645.29 50.962V39.81H648.758V50.894C648.758 52.4127 649.2 53.614 650.084 54.498C650.991 55.3593 652.305 55.79 654.028 55.79C655.728 55.79 657.02 55.3593 657.904 54.498C658.811 53.614 659.264 52.4127 659.264 50.894V33.724H662.732V50.962C662.732 52.4353 662.369 53.75 661.644 54.906C660.941 56.0393 659.933 56.9233 658.618 57.558C657.303 58.1927 655.773 58.51 654.028 58.51Z" fill="black"/>
<path d="M95.5347 181.81H99.0027L102.301 195.138L106.245 181.81H108.897L112.807 195.138L116.139 181.81H119.607L114.541 200H111.617L107.571 186.332L103.491 200H100.567L95.5347 181.81ZM128.934 200.51C126.916 200.51 125.307 200.011 124.106 199.014C122.927 197.994 122.338 196.555 122.338 194.696C122.338 192.86 122.995 191.398 124.31 190.31C125.647 189.222 127.449 188.678 129.716 188.678C131.96 188.678 133.977 189.097 135.768 189.936V188.542C135.768 186.978 135.337 185.845 134.476 185.142C133.637 184.417 132.232 184.054 130.26 184.054C129.172 184.054 128.106 184.156 127.064 184.36C126.021 184.564 125.114 184.847 124.344 185.21V182.49C125.046 182.15 125.998 181.867 127.2 181.64C128.424 181.413 129.614 181.3 130.77 181.3C133.603 181.3 135.722 181.946 137.128 183.238C138.533 184.53 139.236 186.275 139.236 188.474V200H135.768V192.69C134.113 191.851 132.22 191.432 130.09 191.432C128.616 191.432 127.528 191.704 126.826 192.248C126.146 192.792 125.806 193.608 125.806 194.696C125.806 196.759 127.132 197.79 129.784 197.79C130.6 197.79 131.314 197.677 131.926 197.45V200.136C131.11 200.385 130.112 200.51 128.934 200.51ZM150.062 188.236C150.062 186.785 149.767 185.731 149.178 185.074C148.589 184.394 147.546 184.054 146.05 184.054C144.599 184.054 143.239 184.371 141.97 185.006V182.286C142.514 182.014 143.217 181.787 144.078 181.606C144.962 181.402 145.835 181.3 146.696 181.3C148.985 181.3 150.697 181.923 151.83 183.17C152.963 184.394 153.53 186.162 153.53 188.474V200H150.062V188.236ZM163.863 200.51C161.846 200.51 160.237 200.011 159.035 199.014C157.857 197.994 157.267 196.555 157.267 194.696C157.267 192.86 157.925 191.398 159.239 190.31C160.577 189.222 162.379 188.678 164.645 188.678C166.889 188.678 168.907 189.097 170.697 189.936V188.542C170.697 186.978 170.267 185.845 169.405 185.142C168.567 184.417 167.161 184.054 165.189 184.054C164.101 184.054 163.036 184.156 161.993 184.36C160.951 184.564 160.044 184.847 159.273 185.21V182.49C159.976 182.15 160.928 181.867 162.129 181.64C163.353 181.413 164.543 181.3 165.699 181.3C167.739 181.3 169.439 181.674 170.799 182.422L172.533 180.45H176.375L172.941 184.292C173.757 185.448 174.165 186.842 174.165 188.474V200H170.697V192.69C169.043 191.851 167.15 191.432 165.019 191.432C163.546 191.432 162.458 191.704 161.755 192.248C161.075 192.792 160.735 193.608 160.735 194.696C160.735 196.759 162.061 197.79 164.713 197.79C165.529 197.79 166.243 197.677 166.855 197.45V200.136C166.039 200.385 165.042 200.51 163.863 200.51ZM187.156 200.51C184.436 200.51 182.294 199.739 180.73 198.198C179.188 196.657 178.418 194.39 178.418 191.398C178.418 189.335 178.701 187.545 179.268 186.026C179.834 184.507 180.605 183.34 181.58 182.524C182.577 181.708 183.71 181.3 184.98 181.3C186.702 181.3 187.915 181.991 188.618 183.374C189.003 182.671 189.581 182.15 190.352 181.81C191.122 181.47 191.984 181.3 192.936 181.3C194.5 181.3 195.667 181.799 196.438 182.796C197.231 183.793 197.628 185.131 197.628 186.808V200H194.16V187.046C194.16 186.026 194.001 185.278 193.684 184.802C193.366 184.303 192.822 184.054 192.052 184.054C190.76 184.054 189.955 184.757 189.638 186.162H187.598C187.484 185.459 187.258 184.938 186.918 184.598C186.6 184.235 186.136 184.054 185.524 184.054C184.458 184.054 183.586 184.689 182.906 185.958C182.248 187.227 181.92 189.041 181.92 191.398C181.92 193.574 182.396 195.183 183.348 196.226C184.3 197.269 185.762 197.79 187.734 197.79C188.595 197.79 189.388 197.677 190.114 197.45V200.136C189.32 200.385 188.334 200.51 187.156 200.51ZM182.899 176.778H197.587V179.124H182.899V176.778ZM203.061 188.678L201.361 185.924C202.562 184.405 203.934 183.261 205.475 182.49C207.016 181.697 208.841 181.3 210.949 181.3C213.669 181.3 215.754 181.923 217.205 183.17C218.656 184.394 219.381 186.117 219.381 188.338V200H215.913V188.61C215.913 187.046 215.494 185.901 214.655 185.176C213.839 184.428 212.604 184.054 210.949 184.054C209.702 184.054 208.603 184.247 207.651 184.632C206.699 184.995 205.838 185.584 205.067 186.4L206.529 188.678V200H203.061V188.678ZM230.045 200.51C228.798 200.51 227.529 200.363 226.237 200.068C224.945 199.796 223.936 199.388 223.211 198.844V196.056C224.186 196.645 225.251 197.099 226.407 197.416C227.586 197.711 228.708 197.858 229.773 197.858C231.269 197.858 232.346 197.688 233.003 197.348C233.66 196.985 233.989 196.373 233.989 195.512C233.989 194.923 233.83 194.447 233.513 194.084C233.196 193.721 232.708 193.404 232.051 193.132C231.416 192.86 230.408 192.52 229.025 192.112C227.03 191.5 225.546 190.786 224.571 189.97C223.596 189.131 223.109 187.975 223.109 186.502C223.109 184.825 223.755 183.544 225.047 182.66C226.339 181.753 228.107 181.3 230.351 181.3C231.507 181.3 232.618 181.436 233.683 181.708C234.771 181.957 235.666 182.297 236.369 182.728V185.584C235.598 185.108 234.714 184.734 233.717 184.462C232.72 184.19 231.7 184.054 230.657 184.054C227.937 184.054 226.577 184.87 226.577 186.502C226.577 187.114 226.758 187.601 227.121 187.964C227.506 188.327 228.005 188.633 228.617 188.882C229.252 189.109 230.306 189.437 231.779 189.868C233.23 190.299 234.363 190.763 235.179 191.262C235.995 191.761 236.573 192.35 236.913 193.03C237.253 193.71 237.423 194.549 237.423 195.546C237.423 197.042 236.811 198.243 235.587 199.15C234.363 200.057 232.516 200.51 230.045 200.51ZM222.012 176.778H233.538V173.14H236.7V179.124H222.012V176.778ZM245.71 199.966C244.6 199.966 243.75 199.66 243.16 199.048C242.594 198.413 242.31 197.529 242.31 196.396V183.51C242.31 181.991 242.526 180.745 242.956 179.77C243.387 178.795 244.112 177.991 245.132 177.356H238.944V174.432H249.654V177.22C248.294 177.809 247.308 178.569 246.696 179.498C246.084 180.427 245.778 181.719 245.778 183.374V195.41C245.778 196.022 245.903 196.453 246.152 196.702C246.402 196.929 246.832 197.042 247.444 197.042H248.668V199.966H245.71ZM260.197 200.51C258.588 200.51 257.171 200.227 255.947 199.66C254.723 199.093 253.771 198.3 253.091 197.28C252.434 196.26 252.105 195.093 252.105 193.778V192.452C252.105 191.727 252.298 191.047 252.683 190.412C253.068 189.777 253.624 189.007 254.349 188.1C254.825 187.533 255.176 187.08 255.403 186.74C255.63 186.4 255.743 186.083 255.743 185.788V185.686C255.29 185.935 254.746 186.06 254.111 186.06C253.34 186.06 252.74 185.845 252.309 185.414C251.901 184.961 251.697 184.303 251.697 183.442V181.81H254.179V183C254.179 183.363 254.258 183.635 254.417 183.816C254.598 183.975 254.882 184.054 255.267 184.054C255.72 184.054 256.094 183.907 256.389 183.612V181.81H259.075V184.904C259.075 185.629 258.905 186.321 258.565 186.978C258.225 187.635 257.749 188.372 257.137 189.188C256.593 189.936 256.196 190.559 255.947 191.058C255.698 191.534 255.573 192.01 255.573 192.486V193.71C255.573 194.979 255.981 195.977 256.797 196.702C257.613 197.427 258.746 197.79 260.197 197.79C261.716 197.79 262.906 197.371 263.767 196.532C264.651 195.693 265.093 194.458 265.093 192.826C265.093 191.194 264.753 189.97 264.073 189.154C263.393 188.338 262.396 187.93 261.081 187.93V186.06L264.685 181.3H268.459L264.583 186.366C265.966 186.887 266.974 187.692 267.609 188.78C268.244 189.845 268.561 191.194 268.561 192.826C268.561 194.367 268.21 195.727 267.507 196.906C266.804 198.062 265.818 198.957 264.549 199.592C263.302 200.204 261.852 200.51 260.197 200.51ZM275.865 200C274.754 200 273.904 199.694 273.315 199.082C272.748 198.447 272.465 197.563 272.465 196.43V181.81H275.933V195.478C275.933 196.09 276.058 196.521 276.307 196.77C276.556 196.997 276.987 197.11 277.599 197.11H278.823V200H275.865ZM282.559 188.746C282.559 186.389 283.329 184.564 284.871 183.272C286.412 181.957 288.531 181.3 291.229 181.3C293.903 181.3 296.011 181.946 297.553 183.238C299.094 184.53 299.865 186.366 299.865 188.746V200H296.397V188.644C296.397 187.103 295.943 185.958 295.037 185.21C294.13 184.439 292.861 184.054 291.229 184.054C289.574 184.054 288.293 184.439 287.387 185.21C286.48 185.958 286.027 187.103 286.027 188.644V192.112C286.321 191.568 286.786 191.137 287.421 190.82C288.055 190.48 288.803 190.31 289.665 190.31H292.385V193.166H289.393C288.441 193.166 287.636 193.506 286.979 194.186C286.344 194.843 286.027 195.603 286.027 196.464V200H282.559V188.746ZM285.131 176.778H299.819V179.124H285.131V176.778ZM310.189 200.51C308.172 200.51 306.563 200.011 305.361 199.014C304.183 197.994 303.593 196.555 303.593 194.696C303.593 192.86 304.251 191.398 305.565 190.31C306.903 189.222 308.705 188.678 310.971 188.678C313.215 188.678 315.233 189.097 317.023 189.936V188.542C317.023 186.978 316.593 185.845 315.731 185.142C314.893 184.417 313.487 184.054 311.515 184.054C310.427 184.054 309.362 184.156 308.319 184.36C307.277 184.564 306.37 184.847 305.599 185.21V182.49C306.302 182.15 307.254 181.867 308.455 181.64C309.679 181.413 310.869 181.3 312.025 181.3C314.859 181.3 316.978 181.946 318.383 183.238C319.789 184.53 320.491 186.275 320.491 188.474V200H317.023V192.69C315.369 191.851 313.476 191.432 311.345 191.432C309.872 191.432 308.784 191.704 308.081 192.248C307.401 192.792 307.061 193.608 307.061 194.696C307.061 196.759 308.387 197.79 311.039 197.79C311.855 197.79 312.569 197.677 313.181 197.45V200.136C312.365 200.385 311.368 200.51 310.189 200.51ZM325.164 190.004H328.598L330.366 197.28C332.564 197.28 334.321 196.691 335.636 195.512C336.973 194.311 337.642 192.656 337.642 190.548C337.642 188.259 337.098 186.604 336.01 185.584C334.922 184.564 333.131 184.054 330.638 184.054C329.504 184.054 328.348 184.167 327.17 184.394C326.014 184.598 325.039 184.881 324.246 185.244V182.524C325.084 182.139 326.104 181.844 327.306 181.64C328.53 181.413 329.776 181.3 331.046 181.3C334.264 181.3 336.746 182.071 338.492 183.612C340.26 185.153 341.144 187.465 341.144 190.548C341.144 192.339 340.69 193.959 339.784 195.41C338.877 196.838 337.642 197.96 336.078 198.776C334.536 199.592 332.836 200 330.978 200H327.612L325.164 190.004ZM351.273 188.236C351.273 186.785 350.978 185.731 350.389 185.074C349.8 184.394 348.757 184.054 347.261 184.054C345.81 184.054 344.45 184.371 343.181 185.006V182.286C343.725 182.014 344.428 181.787 345.289 181.606C346.173 181.402 347.046 181.3 347.907 181.3C350.196 181.3 351.908 181.923 353.041 183.17C354.174 184.394 354.741 186.162 354.741 188.474V200H351.273V188.236ZM360.178 188.678L358.478 185.924C359.68 184.405 361.051 183.261 362.592 182.49C364.134 181.697 365.958 181.3 368.066 181.3C370.786 181.3 372.872 181.923 374.322 183.17C375.773 184.394 376.498 186.117 376.498 188.338V200H373.03V188.61C373.03 187.046 372.611 185.901 371.772 185.176C370.956 184.428 369.721 184.054 368.066 184.054C366.82 184.054 365.72 184.247 364.768 184.632C363.816 184.995 362.955 185.584 362.184 186.4L363.646 188.678V200H360.178V188.678ZM388.386 200.51C386.754 200.51 385.338 200.227 384.136 199.66C382.935 199.093 382.006 198.3 381.348 197.28C380.714 196.237 380.396 195.047 380.396 193.71V192.554C380.396 191.783 380.555 191.081 380.872 190.446C381.19 189.811 381.654 189.075 382.266 188.236C382.697 187.669 383.014 187.205 383.218 186.842C383.422 186.457 383.524 186.094 383.524 185.754C383.524 185.323 383.411 185.017 383.184 184.836C382.98 184.655 382.629 184.564 382.13 184.564H380.226V181.81H383.796C384.794 181.81 385.576 182.105 386.142 182.694C386.732 183.261 387.026 184.02 387.026 184.972C387.026 185.629 386.89 186.241 386.618 186.808C386.346 187.352 385.938 188.021 385.394 188.814C384.85 189.63 384.454 190.287 384.204 190.786C383.978 191.285 383.864 191.829 383.864 192.418V193.676C383.864 194.991 384.238 196.011 384.986 196.736C385.757 197.439 386.89 197.79 388.386 197.79C389.882 197.79 390.993 197.427 391.718 196.702C392.444 195.954 392.806 194.911 392.806 193.574V181.81H396.274V192.996C396.274 195.331 395.583 197.167 394.2 198.504C392.818 199.841 390.88 200.51 388.386 200.51ZM408.651 200.51C406.022 200.51 403.925 200.011 402.361 199.014C400.797 198.017 400.015 196.566 400.015 194.662C400.015 193.665 400.287 192.792 400.831 192.044C401.398 191.273 402.146 190.741 403.075 190.446C402.191 190.061 401.477 189.505 400.933 188.78C400.412 188.055 400.151 187.216 400.151 186.264C400.151 184.768 400.65 183.567 401.647 182.66C402.645 181.753 404.107 181.3 406.033 181.3C406.577 181.3 407.133 181.345 407.699 181.436C408.266 181.504 408.719 181.583 409.059 181.674V184.394C408.765 184.281 408.379 184.201 407.903 184.156C407.45 184.088 407.031 184.054 406.645 184.054C405.671 184.054 404.923 184.269 404.401 184.7C403.903 185.108 403.653 185.697 403.653 186.468C403.653 187.284 403.925 187.907 404.469 188.338C405.013 188.769 405.818 188.984 406.883 188.984H409.059V191.84H406.917C405.829 191.84 404.991 192.078 404.401 192.554C403.812 193.007 403.517 193.71 403.517 194.662C403.517 195.659 403.971 196.43 404.877 196.974C405.807 197.518 407.065 197.79 408.651 197.79C412.391 197.79 414.261 196.203 414.261 193.03V181.81H417.729V192.962C417.729 194.231 417.435 195.444 416.845 196.6C416.256 197.733 415.281 198.674 413.921 199.422C412.584 200.147 410.827 200.51 408.651 200.51ZM424.185 188.95C423.187 188.95 422.485 188.723 422.077 188.27C421.669 187.817 421.465 187.125 421.465 186.196V184.258H424.593V185.55C424.593 185.913 424.672 186.173 424.831 186.332C424.989 186.468 425.273 186.536 425.681 186.536H429.659V188.95H424.185ZM424.185 198.232C423.187 198.232 422.485 198.005 422.077 197.552C421.669 197.099 421.465 196.407 421.465 195.478V193.54H424.593V194.832C424.593 195.195 424.672 195.455 424.831 195.614C424.989 195.75 425.273 195.818 425.681 195.818H429.659V198.232H424.185ZM433.4 181.81H436.732V184.258C437.616 183.261 438.648 182.524 439.826 182.048C441.028 181.549 442.24 181.3 443.464 181.3C445.686 181.3 447.386 181.912 448.564 183.136C449.743 184.36 450.332 185.935 450.332 187.862V200H446.864V188.032C446.864 186.763 446.513 185.788 445.81 185.108C445.108 184.405 444.02 184.054 442.546 184.054C440.076 184.054 438.183 185.085 436.868 187.148V200H433.4V181.81ZM435.608 176.778H447.134V173.14H450.296V179.124H435.608V176.778ZM447.168 166.496H450.296V171.018H447.168V166.496ZM454.75 185.516C454.75 184.315 455.067 183.397 455.702 182.762C456.337 182.127 457.243 181.81 458.422 181.81H461.108V184.734H459.884C459.272 184.734 458.83 184.87 458.558 185.142C458.309 185.391 458.184 185.833 458.184 186.468V194.934L462.74 187.522H464.236L468.792 194.934V181.81H472.226V200H469.098L463.488 190.854L457.878 200H454.75V185.516ZM468.845 173.446H472.279V179.124H468.845V173.446ZM483.023 188.236C483.023 186.785 482.728 185.731 482.139 185.074C481.55 184.394 480.507 184.054 479.011 184.054C477.56 184.054 476.2 184.371 474.931 185.006V182.286C475.475 182.014 476.178 181.787 477.039 181.606C477.923 181.402 478.796 181.3 479.657 181.3C481.946 181.3 483.658 181.923 484.791 183.17C485.924 184.394 486.491 186.162 486.491 188.474V200H483.023V188.236ZM497.946 200.51C495.725 200.51 493.991 199.887 492.744 198.64C491.52 197.393 490.908 195.784 490.908 193.812V181.81H494.376V193.676C494.376 195.036 494.75 196.067 495.498 196.77C496.269 197.45 497.391 197.79 498.864 197.79C501.199 197.79 503.035 196.747 504.372 194.662V181.81H507.84V200H504.474V197.552C502.774 199.524 500.598 200.51 497.946 200.51ZM513.278 188.678L511.578 185.924C512.779 184.405 514.151 183.261 515.692 182.49C517.233 181.697 519.058 181.3 521.166 181.3C523.886 181.3 525.971 181.923 527.422 183.17C528.873 184.394 529.598 186.117 529.598 188.338V200H526.13V188.61C526.13 187.046 525.711 185.901 524.872 185.176C524.056 184.428 522.821 184.054 521.166 184.054C519.919 184.054 518.82 184.247 517.868 184.632C516.916 184.995 516.055 185.584 515.284 186.4L516.746 188.678V200H513.278V188.678ZM540.398 188.236C540.398 186.785 540.103 185.731 539.514 185.074C538.925 184.394 537.882 184.054 536.386 184.054C534.935 184.054 533.575 184.371 532.306 185.006V182.286C532.85 182.014 533.553 181.787 534.414 181.606C535.298 181.402 536.171 181.3 537.032 181.3C539.321 181.3 541.033 181.923 542.166 183.17C543.299 184.394 543.866 186.162 543.866 188.474V200H540.398V188.236ZM554.539 200.51C553.293 200.51 552.023 200.363 550.731 200.068C549.439 199.796 548.431 199.388 547.705 198.844V196.056C548.68 196.645 549.745 197.099 550.901 197.416C552.08 197.711 553.202 197.858 554.267 197.858C555.763 197.858 556.84 197.688 557.497 197.348C558.155 196.985 558.483 196.373 558.483 195.512C558.483 194.923 558.325 194.447 558.007 194.084C557.69 193.721 557.203 193.404 556.545 193.132C555.911 192.86 554.902 192.52 553.519 192.112C551.525 191.5 550.04 190.786 549.065 189.97C548.091 189.131 547.603 187.975 547.603 186.502C547.603 184.825 548.249 183.544 549.541 182.66C550.833 181.753 552.601 181.3 554.845 181.3C556.001 181.3 557.112 181.436 558.177 181.708C559.265 181.957 560.161 182.297 560.863 182.728V185.584C560.093 185.108 559.209 184.734 558.211 184.462C557.214 184.19 556.194 184.054 555.151 184.054C552.431 184.054 551.071 184.87 551.071 186.502C551.071 187.114 551.253 187.601 551.615 187.964C552.001 188.327 552.499 188.633 553.111 188.882C553.746 189.109 554.8 189.437 556.273 189.868C557.724 190.299 558.857 190.763 559.673 191.262C560.489 191.761 561.067 192.35 561.407 193.03C561.747 193.71 561.917 194.549 561.917 195.546C561.917 197.042 561.305 198.243 560.081 199.15C558.857 200.057 557.01 200.51 554.539 200.51ZM569.184 200C568.074 200 567.224 199.694 566.634 199.082C566.068 198.447 565.784 197.563 565.784 196.43V187.216C565.784 186.06 565.988 185.097 566.396 184.326C566.804 183.533 567.394 182.683 568.164 181.776C568.686 181.187 569.06 180.688 569.286 180.28C569.536 179.872 569.66 179.441 569.66 178.988C569.66 178.24 569.456 177.696 569.048 177.356C568.663 177.016 567.983 176.846 567.008 176.846C565.626 176.846 564.379 177.231 563.268 178.002V175.282C563.926 174.897 564.662 174.602 565.478 174.398C566.317 174.194 567.178 174.092 568.062 174.092C569.785 174.092 571.066 174.511 571.904 175.35C572.766 176.189 573.196 177.277 573.196 178.614C573.196 179.339 573.038 179.985 572.72 180.552C572.426 181.096 571.972 181.731 571.36 182.456C570.658 183.295 570.125 184.043 569.762 184.7C569.422 185.357 569.252 186.162 569.252 187.114V195.478C569.252 196.09 569.377 196.521 569.626 196.77C569.876 196.997 570.306 197.11 570.918 197.11H572.142V200H569.184ZM583.49 200.51C581.881 200.51 580.464 200.227 579.24 199.66C578.016 199.093 577.064 198.3 576.384 197.28C575.727 196.237 575.398 195.047 575.398 193.71V192.554C575.398 191.783 575.568 191.069 575.908 190.412C576.248 189.732 576.713 188.995 577.302 188.202C577.733 187.613 578.039 187.137 578.22 186.774C578.424 186.411 578.526 186.071 578.526 185.754C578.526 185.323 578.413 185.017 578.186 184.836C577.982 184.655 577.631 184.564 577.132 184.564H575.228V181.81H578.798C579.796 181.81 580.578 182.105 581.144 182.694C581.734 183.261 582.028 184.02 582.028 184.972C582.028 185.629 581.892 186.241 581.62 186.808C581.348 187.352 580.94 188.021 580.396 188.814C579.852 189.63 579.456 190.287 579.206 190.786C578.98 191.285 578.866 191.829 578.866 192.418V193.676C578.866 194.968 579.274 195.977 580.09 196.702C580.906 197.427 582.04 197.79 583.49 197.79C585.032 197.79 586.233 197.371 587.094 196.532C587.956 195.693 588.386 194.458 588.386 192.826C588.386 191.194 588.046 189.97 587.366 189.154C586.686 188.338 585.689 187.93 584.374 187.93V186.06L588.012 181.3H591.752L587.91 186.366C589.293 186.887 590.29 187.692 590.902 188.78C591.537 189.845 591.854 191.194 591.854 192.826C591.854 194.39 591.503 195.75 590.8 196.906C590.12 198.062 589.146 198.957 587.876 199.592C586.607 200.204 585.145 200.51 583.49 200.51ZM584.034 176.982C584.034 176.71 583.988 176.517 583.898 176.404C583.784 176.291 583.592 176.234 583.32 176.234H581.79V173.786H584.34C585.065 173.786 585.598 173.967 585.938 174.33C586.255 174.67 586.414 175.101 586.414 175.622V176.812H593.384V179.124H584.034V176.982ZM595.084 184.088H598.552L602.87 197.28C605 197.28 606.644 196.691 607.8 195.512C608.956 194.333 609.534 192.667 609.534 190.514C609.534 188.383 609.137 186.774 608.344 185.686C607.55 184.598 606.281 184.054 604.536 184.054C603.72 184.054 602.926 184.156 602.156 184.36V181.674C603.062 181.425 604.048 181.3 605.114 181.3C607.698 181.3 609.67 182.116 611.03 183.748C612.39 185.38 613.07 187.635 613.07 190.514C613.07 192.486 612.639 194.186 611.778 195.614C610.939 197.042 609.794 198.13 608.344 198.878C606.893 199.626 605.284 200 603.516 200H600.252L595.084 184.088ZM623.206 188.236C623.206 186.785 622.912 185.731 622.322 185.074C621.733 184.394 620.69 184.054 619.194 184.054C617.744 184.054 616.384 184.371 615.114 185.006V182.286C615.658 182.014 616.361 181.787 617.222 181.606C618.106 181.402 618.979 181.3 619.84 181.3C622.13 181.3 623.841 181.923 624.974 183.17C626.108 184.394 626.674 186.162 626.674 188.474V200H623.206V188.236ZM638.13 200.51C635.909 200.51 634.175 199.887 632.928 198.64C631.704 197.393 631.092 195.784 631.092 193.812V181.81H634.56V193.676C634.56 195.036 634.934 196.067 635.682 196.77C636.453 197.45 637.575 197.79 639.048 197.79C641.383 197.79 643.219 196.747 644.556 194.662V181.81H648.024V200H644.658V197.552C642.958 199.524 640.782 200.51 638.13 200.51ZM652.679 190.004H656.113L657.881 197.28C660.08 197.28 661.837 196.691 663.151 195.512C664.489 194.311 665.157 192.656 665.157 190.548C665.157 188.259 664.613 186.604 663.525 185.584C662.437 184.564 660.647 184.054 658.153 184.054C657.02 184.054 655.864 184.167 654.685 184.394C653.529 184.598 652.555 184.881 651.761 185.244V182.524C652.6 182.139 653.62 181.844 654.821 181.64C656.045 181.413 657.292 181.3 658.561 181.3C661.78 181.3 664.262 182.071 666.007 183.612C667.775 185.153 668.659 187.465 668.659 190.548C668.659 192.339 668.206 193.959 667.299 195.41C666.393 196.838 665.157 197.96 663.593 198.776C662.052 199.592 660.352 200 658.493 200H655.127L652.679 190.004ZM678.789 188.236C678.789 186.785 678.494 185.731 677.905 185.074C677.315 184.394 676.273 184.054 674.777 184.054C673.326 184.054 671.966 184.371 670.697 185.006V182.286C671.241 182.014 671.943 181.787 672.805 181.606C673.689 181.402 674.561 181.3 675.423 181.3C677.712 181.3 679.423 181.923 680.557 183.17C681.69 184.394 682.257 186.162 682.257 188.474V200H678.789V188.236ZM687.694 188.678L685.994 185.924C687.195 184.405 688.567 183.261 690.108 182.49C691.649 181.697 693.474 181.3 695.582 181.3C698.302 181.3 700.387 181.923 701.838 183.17C703.289 184.394 704.014 186.117 704.014 188.338V200H700.546V188.61C700.546 187.046 700.127 185.901 699.288 185.176C698.472 184.428 697.237 184.054 695.582 184.054C694.335 184.054 693.236 184.247 692.284 184.632C691.332 184.995 690.471 185.584 689.7 186.4L691.162 188.678V200H687.694V188.678ZM708.422 185.516C708.422 184.315 708.739 183.397 709.374 182.762C710.009 182.127 710.915 181.81 712.094 181.81H714.78V184.734H713.556C712.944 184.734 712.502 184.87 712.23 185.142C711.981 185.391 711.856 185.833 711.856 186.468V194.934L716.412 187.522H717.908L722.464 194.934V181.81H725.898V200H722.77L717.16 190.854L711.55 200H708.422V185.516ZM721.667 209.214C720.261 209.214 719.173 208.919 718.403 208.33C717.609 207.741 717.213 206.947 717.213 205.95V205.032C717.213 204.715 717.167 204.499 717.077 204.386C716.986 204.295 716.793 204.25 716.499 204.25H715.343V201.938H718.335C718.947 201.938 719.366 202.074 719.593 202.346C719.819 202.618 719.933 203.06 719.933 203.672V205.61C719.933 206.607 720.477 207.106 721.565 207.106C722.63 207.106 723.163 206.607 723.163 205.61V201.938H725.883V205.848C725.883 206.845 725.52 207.65 724.795 208.262C724.047 208.897 723.004 209.214 721.667 209.214ZM718.573 176.982C718.573 176.71 718.527 176.517 718.437 176.404C718.323 176.291 718.131 176.234 717.859 176.234H716.329V173.786H718.879C719.604 173.786 720.137 173.967 720.477 174.33C720.794 174.67 720.953 175.101 720.953 175.622V176.812H727.923V179.124H718.573V176.982ZM739.041 200.51C737.273 200.51 735.731 200.193 734.417 199.558C733.102 198.923 732.082 198.039 731.357 196.906C730.654 195.75 730.303 194.435 730.303 192.962V181.81H733.771V192.894C733.771 194.413 734.213 195.614 735.097 196.498C736.003 197.359 737.318 197.79 739.041 197.79C740.741 197.79 742.033 197.359 742.917 196.498C743.823 195.614 744.277 194.413 744.277 192.894V181.81H747.745V192.962C747.745 194.435 747.382 195.75 746.657 196.906C745.954 198.039 744.945 198.923 743.631 199.558C742.316 200.193 740.786 200.51 739.041 200.51ZM758.406 200.51C757.16 200.51 755.89 200.363 754.598 200.068C753.306 199.796 752.298 199.388 751.572 198.844V196.056C752.547 196.645 753.612 197.099 754.768 197.416C755.947 197.711 757.069 197.858 758.134 197.858C759.63 197.858 760.707 197.688 761.364 197.348C762.022 196.985 762.35 196.373 762.35 195.512C762.35 194.923 762.192 194.447 761.874 194.084C761.557 193.721 761.07 193.404 760.412 193.132C759.778 192.86 758.769 192.52 757.386 192.112C755.392 191.5 753.907 190.786 752.932 189.97C751.958 189.131 751.47 187.975 751.47 186.502C751.47 184.825 752.116 183.544 753.408 182.66C754.7 181.753 756.468 181.3 758.712 181.3C759.868 181.3 760.979 181.436 762.044 181.708C763.132 181.957 764.028 182.297 764.73 182.728V185.584C763.96 185.108 763.076 184.734 762.078 184.462C761.081 184.19 760.061 184.054 759.018 184.054C756.298 184.054 754.938 184.87 754.938 186.502C754.938 187.114 755.12 187.601 755.482 187.964C755.868 188.327 756.366 188.633 756.978 188.882C757.613 189.109 758.667 189.437 760.14 189.868C761.591 190.299 762.724 190.763 763.54 191.262C764.356 191.761 764.934 192.35 765.274 193.03C765.614 193.71 765.784 194.549 765.784 195.546C765.784 197.042 765.172 198.243 763.948 199.15C762.724 200.057 760.877 200.51 758.406 200.51ZM750.374 176.778H765.062V179.124H750.374V176.778ZM774.582 200C773.471 200 772.621 199.694 772.032 199.082C771.465 198.447 771.182 197.563 771.182 196.43V183.374C771.182 181.719 770.876 180.427 770.264 179.498C769.652 178.569 768.666 177.821 767.306 177.254V174.432H778.016V177.356H771.93C772.859 177.968 773.539 178.784 773.97 179.804C774.423 180.824 774.65 182.048 774.65 183.476V195.478C774.65 196.09 774.774 196.521 775.024 196.77C775.273 196.997 775.704 197.11 776.316 197.11H777.54V200H774.582ZM780.058 197.11H781.486C782.098 197.11 782.518 196.997 782.744 196.77C782.971 196.521 783.084 196.067 783.084 195.41V188.678L780.704 185.924C781.86 184.428 783.22 183.283 784.784 182.49C786.348 181.697 788.196 181.3 790.326 181.3C793.024 181.3 795.098 181.923 796.548 183.17C797.999 184.394 798.724 186.117 798.724 188.338V200H795.256V188.61C795.256 187.046 794.837 185.901 793.998 185.176C793.16 184.428 791.924 184.054 790.292 184.054C789.046 184.054 787.958 184.235 787.028 184.598C786.122 184.938 785.283 185.505 784.512 186.298L786.552 188.644V196.43C786.552 197.541 786.246 198.413 785.634 199.048C785.045 199.683 784.184 200 783.05 200H780.058V197.11ZM803.15 188.746C803.15 186.389 803.921 184.564 805.462 183.272C807.004 181.957 809.123 181.3 811.82 181.3C814.495 181.3 816.603 181.946 818.144 183.238C819.686 184.53 820.456 186.366 820.456 188.746V200H816.988V188.644C816.988 187.103 816.535 185.958 815.628 185.21C814.722 184.439 813.452 184.054 811.82 184.054C810.166 184.054 808.885 184.439 807.978 185.21C807.072 185.958 806.618 187.103 806.618 188.644V192.112C806.913 191.568 807.378 191.137 808.012 190.82C808.647 190.48 809.395 190.31 810.256 190.31H812.976V193.166H809.984C809.032 193.166 808.228 193.506 807.57 194.186C806.936 194.843 806.618 195.603 806.618 196.464V200H803.15V188.746Z" fill="black"/>
<path d="M202.416 323.81H205.884L209.182 337.138L213.126 323.81H215.778L219.688 337.138L223.02 323.81H226.488L221.422 342H218.498L214.452 328.332L210.372 342H207.448L202.416 323.81ZM235.814 342.51C233.797 342.51 232.188 342.011 230.986 341.014C229.808 339.994 229.218 338.555 229.218 336.696C229.218 334.86 229.876 333.398 231.19 332.31C232.528 331.222 234.33 330.678 236.596 330.678C238.84 330.678 240.858 331.097 242.648 331.936V330.542C242.648 328.978 242.218 327.845 241.356 327.142C240.518 326.417 239.112 326.054 237.14 326.054C236.052 326.054 234.987 326.156 233.944 326.36C232.902 326.564 231.995 326.847 231.224 327.21V324.49C231.927 324.15 232.879 323.867 234.08 323.64C235.304 323.413 236.494 323.3 237.65 323.3C240.484 323.3 242.603 323.946 244.008 325.238C245.414 326.53 246.116 328.275 246.116 330.474V342H242.648V334.69C240.994 333.851 239.101 333.432 236.97 333.432C235.497 333.432 234.409 333.704 233.706 334.248C233.026 334.792 232.686 335.608 232.686 336.696C232.686 338.759 234.012 339.79 236.664 339.79C237.48 339.79 238.194 339.677 238.806 339.45V342.136C237.99 342.385 236.993 342.51 235.814 342.51ZM256.943 330.236C256.943 328.785 256.648 327.731 256.059 327.074C255.469 326.394 254.427 326.054 252.931 326.054C251.48 326.054 250.12 326.371 248.851 327.006V324.286C249.395 324.014 250.097 323.787 250.959 323.606C251.843 323.402 252.715 323.3 253.577 323.3C255.866 323.3 257.577 323.923 258.711 325.17C259.844 326.394 260.411 328.162 260.411 330.474V342H256.943V330.236ZM270.744 342.51C268.727 342.51 267.117 342.011 265.916 341.014C264.737 339.994 264.148 338.555 264.148 336.696C264.148 334.86 264.805 333.398 266.12 332.31C267.457 331.222 269.259 330.678 271.526 330.678C273.77 330.678 275.787 331.097 277.578 331.936V330.542C277.578 328.978 277.147 327.845 276.286 327.142C275.447 326.417 274.042 326.054 272.07 326.054C270.982 326.054 269.917 326.156 268.874 326.36C267.831 326.564 266.925 326.847 266.154 327.21V324.49C266.857 324.15 267.809 323.867 269.01 323.64C270.234 323.413 271.424 323.3 272.58 323.3C274.62 323.3 276.32 323.674 277.68 324.422L279.414 322.45H283.256L279.822 326.292C280.638 327.448 281.046 328.842 281.046 330.474V342H277.578V334.69C275.923 333.851 274.031 333.432 271.9 333.432C270.427 333.432 269.339 333.704 268.636 334.248C267.956 334.792 267.616 335.608 267.616 336.696C267.616 338.759 268.942 339.79 271.594 339.79C272.41 339.79 273.124 339.677 273.736 339.45V342.136C272.92 342.385 271.923 342.51 270.744 342.51ZM294.037 342.51C291.317 342.51 289.175 341.739 287.611 340.198C286.069 338.657 285.299 336.39 285.299 333.398C285.299 331.335 285.582 329.545 286.149 328.026C286.715 326.507 287.486 325.34 288.461 324.524C289.458 323.708 290.591 323.3 291.861 323.3C293.583 323.3 294.796 323.991 295.499 325.374C295.884 324.671 296.462 324.15 297.233 323.81C298.003 323.47 298.865 323.3 299.817 323.3C301.381 323.3 302.548 323.799 303.319 324.796C304.112 325.793 304.509 327.131 304.509 328.808V342H301.041V329.046C301.041 328.026 300.882 327.278 300.565 326.802C300.247 326.303 299.703 326.054 298.933 326.054C297.641 326.054 296.836 326.757 296.519 328.162H294.479C294.365 327.459 294.139 326.938 293.799 326.598C293.481 326.235 293.017 326.054 292.405 326.054C291.339 326.054 290.467 326.689 289.787 327.958C289.129 329.227 288.801 331.041 288.801 333.398C288.801 335.574 289.277 337.183 290.229 338.226C291.181 339.269 292.643 339.79 294.615 339.79C295.476 339.79 296.269 339.677 296.995 339.45V342.136C296.201 342.385 295.215 342.51 294.037 342.51ZM289.78 318.778H304.468V321.124H289.78V318.778ZM309.942 330.678L308.242 327.924C309.443 326.405 310.815 325.261 312.356 324.49C313.897 323.697 315.722 323.3 317.83 323.3C320.55 323.3 322.635 323.923 324.086 325.17C325.537 326.394 326.262 328.117 326.262 330.338V342H322.794V330.61C322.794 329.046 322.375 327.901 321.536 327.176C320.72 326.428 319.485 326.054 317.83 326.054C316.583 326.054 315.484 326.247 314.532 326.632C313.58 326.995 312.719 327.584 311.948 328.4L313.41 330.678V342H309.942V330.678ZM336.926 342.51C335.679 342.51 334.41 342.363 333.118 342.068C331.826 341.796 330.817 341.388 330.092 340.844V338.056C331.067 338.645 332.132 339.099 333.288 339.416C334.467 339.711 335.589 339.858 336.654 339.858C338.15 339.858 339.227 339.688 339.884 339.348C340.541 338.985 340.87 338.373 340.87 337.512C340.87 336.923 340.711 336.447 340.394 336.084C340.077 335.721 339.589 335.404 338.932 335.132C338.297 334.86 337.289 334.52 335.906 334.112C333.911 333.5 332.427 332.786 331.452 331.97C330.477 331.131 329.99 329.975 329.99 328.502C329.99 326.825 330.636 325.544 331.928 324.66C333.22 323.753 334.988 323.3 337.232 323.3C338.388 323.3 339.499 323.436 340.564 323.708C341.652 323.957 342.547 324.297 343.25 324.728V327.584C342.479 327.108 341.595 326.734 340.598 326.462C339.601 326.19 338.581 326.054 337.538 326.054C334.818 326.054 333.458 326.87 333.458 328.502C333.458 329.114 333.639 329.601 334.002 329.964C334.387 330.327 334.886 330.633 335.498 330.882C336.133 331.109 337.187 331.437 338.66 331.868C340.111 332.299 341.244 332.763 342.06 333.262C342.876 333.761 343.454 334.35 343.794 335.03C344.134 335.71 344.304 336.549 344.304 337.546C344.304 339.042 343.692 340.243 342.468 341.15C341.244 342.057 339.397 342.51 336.926 342.51ZM328.893 318.778H340.419V315.14H343.581V321.124H328.893V318.778ZM352.591 341.966C351.481 341.966 350.631 341.66 350.041 341.048C349.475 340.413 349.191 339.529 349.191 338.396V325.51C349.191 323.991 349.407 322.745 349.837 321.77C350.268 320.795 350.993 319.991 352.013 319.356H345.825V316.432H356.535V319.22C355.175 319.809 354.189 320.569 353.577 321.498C352.965 322.427 352.659 323.719 352.659 325.374V337.41C352.659 338.022 352.784 338.453 353.033 338.702C353.283 338.929 353.713 339.042 354.325 339.042H355.549V341.966H352.591ZM367.078 342.51C365.469 342.51 364.052 342.227 362.828 341.66C361.604 341.093 360.652 340.3 359.972 339.28C359.315 338.26 358.986 337.093 358.986 335.778V334.452C358.986 333.727 359.179 333.047 359.564 332.412C359.949 331.777 360.505 331.007 361.23 330.1C361.706 329.533 362.057 329.08 362.284 328.74C362.511 328.4 362.624 328.083 362.624 327.788V327.686C362.171 327.935 361.627 328.06 360.992 328.06C360.221 328.06 359.621 327.845 359.19 327.414C358.782 326.961 358.578 326.303 358.578 325.442V323.81H361.06V325C361.06 325.363 361.139 325.635 361.298 325.816C361.479 325.975 361.763 326.054 362.148 326.054C362.601 326.054 362.975 325.907 363.27 325.612V323.81H365.956V326.904C365.956 327.629 365.786 328.321 365.446 328.978C365.106 329.635 364.63 330.372 364.018 331.188C363.474 331.936 363.077 332.559 362.828 333.058C362.579 333.534 362.454 334.01 362.454 334.486V335.71C362.454 336.979 362.862 337.977 363.678 338.702C364.494 339.427 365.627 339.79 367.078 339.79C368.597 339.79 369.787 339.371 370.648 338.532C371.532 337.693 371.974 336.458 371.974 334.826C371.974 333.194 371.634 331.97 370.954 331.154C370.274 330.338 369.277 329.93 367.962 329.93V328.06L371.566 323.3H375.34L371.464 328.366C372.847 328.887 373.855 329.692 374.49 330.78C375.125 331.845 375.442 333.194 375.442 334.826C375.442 336.367 375.091 337.727 374.388 338.906C373.685 340.062 372.699 340.957 371.43 341.592C370.183 342.204 368.733 342.51 367.078 342.51ZM382.746 342C381.635 342 380.785 341.694 380.196 341.082C379.629 340.447 379.346 339.563 379.346 338.43V323.81H382.814V337.478C382.814 338.09 382.938 338.521 383.188 338.77C383.437 338.997 383.868 339.11 384.48 339.11H385.704V342H382.746ZM389.439 330.746C389.439 328.389 390.21 326.564 391.751 325.272C393.293 323.957 395.412 323.3 398.109 323.3C400.784 323.3 402.892 323.946 404.433 325.238C405.975 326.53 406.745 328.366 406.745 330.746V342H403.277V330.644C403.277 329.103 402.824 327.958 401.917 327.21C401.011 326.439 399.741 326.054 398.109 326.054C396.455 326.054 395.174 326.439 394.267 327.21C393.361 327.958 392.907 329.103 392.907 330.644V334.112C393.202 333.568 393.667 333.137 394.301 332.82C394.936 332.48 395.684 332.31 396.545 332.31H399.265V335.166H396.273C395.321 335.166 394.517 335.506 393.859 336.186C393.225 336.843 392.907 337.603 392.907 338.464V342H389.439V330.746ZM392.012 318.778H406.7V321.124H392.012V318.778ZM417.07 342.51C415.053 342.51 413.444 342.011 412.242 341.014C411.064 339.994 410.474 338.555 410.474 336.696C410.474 334.86 411.132 333.398 412.446 332.31C413.784 331.222 415.586 330.678 417.852 330.678C420.096 330.678 422.114 331.097 423.904 331.936V330.542C423.904 328.978 423.474 327.845 422.612 327.142C421.774 326.417 420.368 326.054 418.396 326.054C417.308 326.054 416.243 326.156 415.2 326.36C414.158 326.564 413.251 326.847 412.48 327.21V324.49C413.183 324.15 414.135 323.867 415.336 323.64C416.56 323.413 417.75 323.3 418.906 323.3C421.74 323.3 423.859 323.946 425.264 325.238C426.67 326.53 427.372 328.275 427.372 330.474V342H423.904V334.69C422.25 333.851 420.357 333.432 418.226 333.432C416.753 333.432 415.665 333.704 414.962 334.248C414.282 334.792 413.942 335.608 413.942 336.696C413.942 338.759 415.268 339.79 417.92 339.79C418.736 339.79 419.45 339.677 420.062 339.45V342.136C419.246 342.385 418.249 342.51 417.07 342.51ZM432.045 332.004H435.479L437.247 339.28C439.445 339.28 441.202 338.691 442.517 337.512C443.854 336.311 444.523 334.656 444.523 332.548C444.523 330.259 443.979 328.604 442.891 327.584C441.803 326.564 440.012 326.054 437.519 326.054C436.385 326.054 435.229 326.167 434.051 326.394C432.895 326.598 431.92 326.881 431.127 327.244V324.524C431.965 324.139 432.985 323.844 434.187 323.64C435.411 323.413 436.657 323.3 437.927 323.3C441.145 323.3 443.627 324.071 445.373 325.612C447.141 327.153 448.025 329.465 448.025 332.548C448.025 334.339 447.571 335.959 446.665 337.41C445.758 338.838 444.523 339.96 442.959 340.776C441.417 341.592 439.717 342 437.859 342H434.493L432.045 332.004ZM458.154 330.236C458.154 328.785 457.859 327.731 457.27 327.074C456.68 326.394 455.638 326.054 454.142 326.054C452.691 326.054 451.331 326.371 450.062 327.006V324.286C450.606 324.014 451.308 323.787 452.17 323.606C453.054 323.402 453.926 323.3 454.788 323.3C457.077 323.3 458.788 323.923 459.922 325.17C461.055 326.394 461.622 328.162 461.622 330.474V342H458.154V330.236ZM467.059 330.678L465.359 327.924C466.56 326.405 467.932 325.261 469.473 324.49C471.014 323.697 472.839 323.3 474.947 323.3C477.667 323.3 479.752 323.923 481.203 325.17C482.654 326.394 483.379 328.117 483.379 330.338V342H479.911V330.61C479.911 329.046 479.492 327.901 478.653 327.176C477.837 326.428 476.602 326.054 474.947 326.054C473.7 326.054 472.601 326.247 471.649 326.632C470.697 326.995 469.836 327.584 469.065 328.4L470.527 330.678V342H467.059V330.678ZM495.267 342.51C493.635 342.51 492.218 342.227 491.017 341.66C489.816 341.093 488.886 340.3 488.229 339.28C487.594 338.237 487.277 337.047 487.277 335.71V334.554C487.277 333.783 487.436 333.081 487.753 332.446C488.07 331.811 488.535 331.075 489.147 330.236C489.578 329.669 489.895 329.205 490.099 328.842C490.303 328.457 490.405 328.094 490.405 327.754C490.405 327.323 490.292 327.017 490.065 326.836C489.861 326.655 489.51 326.564 489.011 326.564H487.107V323.81H490.677C491.674 323.81 492.456 324.105 493.023 324.694C493.612 325.261 493.907 326.02 493.907 326.972C493.907 327.629 493.771 328.241 493.499 328.808C493.227 329.352 492.819 330.021 492.275 330.814C491.731 331.63 491.334 332.287 491.085 332.786C490.858 333.285 490.745 333.829 490.745 334.418V335.676C490.745 336.991 491.119 338.011 491.867 338.736C492.638 339.439 493.771 339.79 495.267 339.79C496.763 339.79 497.874 339.427 498.599 338.702C499.324 337.954 499.687 336.911 499.687 335.574V323.81H503.155V334.996C503.155 337.331 502.464 339.167 501.081 340.504C499.698 341.841 497.76 342.51 495.267 342.51ZM515.532 342.51C512.903 342.51 510.806 342.011 509.242 341.014C507.678 340.017 506.896 338.566 506.896 336.662C506.896 335.665 507.168 334.792 507.712 334.044C508.279 333.273 509.027 332.741 509.956 332.446C509.072 332.061 508.358 331.505 507.814 330.78C507.293 330.055 507.032 329.216 507.032 328.264C507.032 326.768 507.531 325.567 508.528 324.66C509.526 323.753 510.988 323.3 512.914 323.3C513.458 323.3 514.014 323.345 514.58 323.436C515.147 323.504 515.6 323.583 515.94 323.674V326.394C515.646 326.281 515.26 326.201 514.784 326.156C514.331 326.088 513.912 326.054 513.526 326.054C512.552 326.054 511.804 326.269 511.282 326.7C510.784 327.108 510.534 327.697 510.534 328.468C510.534 329.284 510.806 329.907 511.35 330.338C511.894 330.769 512.699 330.984 513.764 330.984H515.94V333.84H513.798C512.71 333.84 511.872 334.078 511.282 334.554C510.693 335.007 510.398 335.71 510.398 336.662C510.398 337.659 510.852 338.43 511.758 338.974C512.688 339.518 513.946 339.79 515.532 339.79C519.272 339.79 521.142 338.203 521.142 335.03V323.81H524.61V334.962C524.61 336.231 524.316 337.444 523.726 338.6C523.137 339.733 522.162 340.674 520.802 341.422C519.465 342.147 517.708 342.51 515.532 342.51ZM531.065 330.95C530.068 330.95 529.365 330.723 528.957 330.27C528.549 329.817 528.345 329.125 528.345 328.196V326.258H531.473V327.55C531.473 327.913 531.553 328.173 531.711 328.332C531.87 328.468 532.153 328.536 532.561 328.536H536.539V330.95H531.065ZM531.065 340.232C530.068 340.232 529.365 340.005 528.957 339.552C528.549 339.099 528.345 338.407 528.345 337.478V335.54H531.473V336.832C531.473 337.195 531.553 337.455 531.711 337.614C531.87 337.75 532.153 337.818 532.561 337.818H536.539V340.232H531.065ZM547.013 342.51C545.608 342.51 544.248 342.34 542.933 342C541.619 341.683 540.508 341.229 539.601 340.64V331.596H547.149V334.384H543.069V338.906C544.044 339.495 545.359 339.79 547.013 339.79C549.189 339.79 550.844 339.189 551.977 337.988C553.133 336.787 553.711 335.041 553.711 332.752C553.711 330.463 553.122 328.774 551.943 327.686C550.787 326.598 548.883 326.054 546.231 326.054C545.03 326.054 543.851 326.179 542.695 326.428C541.539 326.655 540.565 327.029 539.771 327.55V324.796C540.655 324.297 541.698 323.923 542.899 323.674C544.101 323.425 545.393 323.3 546.775 323.3C550.175 323.3 552.771 324.127 554.561 325.782C556.352 327.437 557.247 329.76 557.247 332.752C557.247 335.767 556.352 338.147 554.561 339.892C552.793 341.637 550.277 342.51 547.013 342.51ZM553.418 347.474C553.418 347.066 553.35 346.783 553.214 346.624C553.055 346.488 552.761 346.42 552.33 346.42H551.208V343.938H553.996C555.016 343.938 555.707 344.142 556.07 344.55C556.41 344.958 556.58 345.683 556.58 346.726V350.942H553.418V347.474ZM569.058 342.51C566.338 342.51 564.196 341.739 562.632 340.198C561.091 338.657 560.32 336.39 560.32 333.398C560.32 331.335 560.603 329.545 561.17 328.026C561.737 326.507 562.507 325.34 563.482 324.524C564.479 323.708 565.613 323.3 566.882 323.3C568.605 323.3 569.817 323.991 570.52 325.374C570.905 324.671 571.483 324.15 572.254 323.81C573.025 323.47 573.886 323.3 574.838 323.3C576.402 323.3 577.569 323.799 578.34 324.796C579.133 325.793 579.53 327.131 579.53 328.808V342H576.062V329.046C576.062 328.026 575.903 327.278 575.586 326.802C575.269 326.303 574.725 326.054 573.954 326.054C572.662 326.054 571.857 326.757 571.54 328.162H569.5C569.387 327.459 569.16 326.938 568.82 326.598C568.503 326.235 568.038 326.054 567.426 326.054C566.361 326.054 565.488 326.689 564.808 327.958C564.151 329.227 563.822 331.041 563.822 333.398C563.822 335.574 564.298 337.183 565.25 338.226C566.202 339.269 567.664 339.79 569.636 339.79C570.497 339.79 571.291 339.677 572.016 339.45V342.136C571.223 342.385 570.237 342.51 569.058 342.51ZM589.859 342.51C587.842 342.51 586.233 342.011 585.031 341.014C583.853 339.994 583.263 338.555 583.263 336.696C583.263 334.86 583.921 333.398 585.235 332.31C586.573 331.222 588.375 330.678 590.641 330.678C592.885 330.678 594.903 331.097 596.693 331.936V330.542C596.693 328.978 596.263 327.845 595.401 327.142C594.563 326.417 593.157 326.054 591.185 326.054C590.097 326.054 589.032 326.156 587.989 326.36C586.947 326.564 586.04 326.847 585.269 327.21V324.49C585.972 324.15 586.924 323.867 588.125 323.64C589.349 323.413 590.539 323.3 591.695 323.3C593.735 323.3 595.435 323.674 596.795 324.422L598.529 322.45H602.371L598.937 326.292C599.753 327.448 600.161 328.842 600.161 330.474V342H596.693V334.69C595.039 333.851 593.146 333.432 591.015 333.432C589.542 333.432 588.454 333.704 587.751 334.248C587.071 334.792 586.731 335.608 586.731 336.696C586.731 338.759 588.057 339.79 590.709 339.79C591.525 339.79 592.239 339.677 592.851 339.45V342.136C592.035 342.385 591.038 342.51 589.859 342.51ZM611.486 330.236C611.486 328.785 611.191 327.731 610.602 327.074C610.012 326.394 608.97 326.054 607.474 326.054C606.023 326.054 604.663 326.371 603.394 327.006V324.286C603.938 324.014 604.64 323.787 605.502 323.606C606.386 323.402 607.258 323.3 608.12 323.3C610.409 323.3 612.12 323.923 613.254 325.17C614.387 326.394 614.954 328.162 614.954 330.474V342H611.486V330.236ZM619.371 323.81H622.839V331.834L631.645 323.81H635.691L630.727 328.332C632.586 328.808 633.878 329.567 634.603 330.61C635.351 331.653 635.725 333.047 635.725 334.792V342H632.257V334.996C632.257 333.636 631.974 332.605 631.407 331.902C630.863 331.199 629.911 330.701 628.551 330.406L622.839 335.608V342H619.371V323.81ZM641.176 330.678L639.476 327.924C640.678 326.405 642.049 325.261 643.59 324.49C645.132 323.697 646.956 323.3 649.064 323.3C651.784 323.3 653.87 323.923 655.32 325.17C656.771 326.394 657.496 328.117 657.496 330.338V342H654.028V330.61C654.028 329.046 653.609 327.901 652.77 327.176C651.954 326.428 650.719 326.054 649.064 326.054C647.818 326.054 646.718 326.247 645.766 326.632C644.814 326.995 643.953 327.584 643.182 328.4L644.644 330.678V342H641.176V330.678ZM668.16 342.51C666.914 342.51 665.644 342.363 664.352 342.068C663.06 341.796 662.052 341.388 661.326 340.844V338.056C662.301 338.645 663.366 339.099 664.522 339.416C665.701 339.711 666.823 339.858 667.888 339.858C669.384 339.858 670.461 339.688 671.118 339.348C671.776 338.985 672.104 338.373 672.104 337.512C672.104 336.923 671.946 336.447 671.628 336.084C671.311 335.721 670.824 335.404 670.166 335.132C669.532 334.86 668.523 334.52 667.14 334.112C665.146 333.5 663.661 332.786 662.686 331.97C661.712 331.131 661.224 329.975 661.224 328.502C661.224 326.825 661.87 325.544 663.162 324.66C664.454 323.753 666.222 323.3 668.466 323.3C669.622 323.3 670.733 323.436 671.798 323.708C672.886 323.957 673.782 324.297 674.484 324.728V327.584C673.714 327.108 672.83 326.734 671.832 326.462C670.835 326.19 669.815 326.054 668.772 326.054C666.052 326.054 664.692 326.87 664.692 328.502C664.692 329.114 664.874 329.601 665.236 329.964C665.622 330.327 666.12 330.633 666.732 330.882C667.367 331.109 668.421 331.437 669.894 331.868C671.345 332.299 672.478 332.763 673.294 333.262C674.11 333.761 674.688 334.35 675.028 335.03C675.368 335.71 675.538 336.549 675.538 337.546C675.538 339.042 674.926 340.243 673.702 341.15C672.478 342.057 670.631 342.51 668.16 342.51ZM685.526 342.51C684.279 342.51 683.01 342.363 681.718 342.068C680.426 341.796 679.417 341.388 678.692 340.844V338.056C679.666 338.645 680.732 339.099 681.888 339.416C683.066 339.711 684.188 339.858 685.254 339.858C686.75 339.858 687.826 339.688 688.484 339.348C689.141 338.985 689.47 338.373 689.47 337.512C689.47 336.923 689.311 336.447 688.994 336.084C688.676 335.721 688.189 335.404 687.532 335.132C686.897 334.86 685.888 334.52 684.506 334.112C682.511 333.5 681.026 332.786 680.052 331.97C679.077 331.131 678.59 329.975 678.59 328.502C678.59 326.825 679.236 325.544 680.528 324.66C681.82 323.753 683.588 323.3 685.832 323.3C686.988 323.3 688.098 323.436 689.164 323.708C690.252 323.957 691.147 324.297 691.85 324.728V327.584C691.079 327.108 690.195 326.734 689.198 326.462C688.2 326.19 687.18 326.054 686.138 326.054C683.418 326.054 682.058 326.87 682.058 328.502C682.058 329.114 682.239 329.601 682.602 329.964C682.987 330.327 683.486 330.633 684.098 330.882C684.732 331.109 685.786 331.437 687.26 331.868C688.71 332.299 689.844 332.763 690.66 333.262C691.476 333.761 692.054 334.35 692.394 335.03C692.734 335.71 692.904 336.549 692.904 337.546C692.904 339.042 692.292 340.243 691.068 341.15C689.844 342.057 687.996 342.51 685.526 342.51ZM706.529 342.51C705.282 342.51 704.092 342.261 702.959 341.762C701.848 341.263 700.851 340.527 699.967 339.552V342H696.635V323.81H700.103V336.662C701.44 338.747 703.276 339.79 705.611 339.79C707.084 339.79 708.195 339.45 708.943 338.77C709.713 338.067 710.099 337.036 710.099 335.676V323.81H713.567V335.812C713.567 337.784 712.943 339.393 711.697 340.64C710.45 341.887 708.727 342.51 706.529 342.51Z" fill="black"/>
</svg>
