<svg width="1440" height="1024" viewBox="0 0 1440 1024" fill="none" xmlns="http://www.w3.org/2000/svg">
<rect width="1440" height="1024" fill="#FFF8E4"/>
<g filter="url(#filter0_d_35_1198)">
<path d="M290 185.608C290 169.256 303.256 156 319.608 156H1120.39C1136.74 156 1150 169.256 1150 185.608V336.392C1150 352.744 1136.74 366 1120.39 366H319.608C303.256 366 290 352.744 290 336.392V185.608Z" fill="white"/>
</g>
<path d="M364.894 261.516L363.094 258.456C365.902 254.952 369.514 253.2 373.93 253.2C377.026 253.2 379.402 253.884 381.058 255.252C382.738 256.62 383.578 258.528 383.578 260.976V273H378.106V261.408C378.106 258.768 376.714 257.448 373.93 257.448C372.898 257.448 371.974 257.592 371.158 257.88C370.366 258.168 369.622 258.636 368.926 259.284L370.33 261.588V273H364.894V261.516ZM393.131 261.012C393.131 259.764 392.867 258.864 392.339 258.312C391.811 257.736 390.887 257.448 389.567 257.448C388.295 257.448 387.011 257.772 385.715 258.42V254.28C386.291 253.992 387.059 253.74 388.019 253.524C389.003 253.308 389.951 253.2 390.863 253.2C393.383 253.2 395.303 253.872 396.623 255.216C397.943 256.56 398.603 258.504 398.603 261.048V273H393.131V261.012ZM409.547 273.54C408.131 273.54 406.691 273.396 405.227 273.108C403.787 272.844 402.647 272.436 401.807 271.884V267.708C402.863 268.332 404.039 268.812 405.335 269.148C406.655 269.484 407.843 269.652 408.899 269.652C410.171 269.652 411.095 269.532 411.671 269.292C412.271 269.028 412.571 268.572 412.571 267.924C412.571 267.348 412.283 266.904 411.707 266.592C411.155 266.28 410.111 265.884 408.575 265.404L407.675 265.116C405.611 264.468 404.087 263.688 403.103 262.776C402.119 261.864 401.627 260.616 401.627 259.032C401.627 257.184 402.371 255.756 403.859 254.748C405.347 253.716 407.351 253.2 409.871 253.2C411.239 253.2 412.559 253.344 413.831 253.632C415.103 253.92 416.123 254.292 416.891 254.748V259.032C416.123 258.504 415.163 258.084 414.011 257.772C412.883 257.436 411.767 257.268 410.663 257.268C408.335 257.268 407.171 257.856 407.171 259.032C407.171 259.608 407.447 260.052 407.999 260.364C408.551 260.676 409.535 261.048 410.951 261.48L412.247 261.876C413.759 262.356 414.935 262.884 415.775 263.46C416.639 264.036 417.239 264.684 417.575 265.404C417.911 266.124 418.079 267 418.079 268.032C418.079 269.688 417.359 271.02 415.919 272.028C414.503 273.036 412.379 273.54 409.547 273.54ZM432.784 273.54C431.584 273.54 430.42 273.312 429.292 272.856C428.164 272.4 427.18 271.728 426.34 270.84V273H421.12V265.584C421.12 264.72 421.324 263.916 421.732 263.172C422.14 262.404 422.716 261.552 423.46 260.616C424.132 259.776 424.528 259.152 424.648 258.744C424.168 258.936 423.652 259.032 423.1 259.032C421.3 259.032 420.4 258.012 420.4 255.972V253.74H424.18V255.036C424.18 255.708 424.504 256.044 425.152 256.044C425.608 256.044 425.944 255.912 426.16 255.648V253.74H430.084V256.404C430.084 257.292 429.916 258.108 429.58 258.852C429.244 259.572 428.752 260.448 428.104 261.48C427.6 262.272 427.216 262.932 426.952 263.46C426.712 263.964 426.592 264.492 426.592 265.044V266.7C427.12 267.588 427.756 268.248 428.5 268.68C429.244 269.088 430.12 269.292 431.128 269.292C433.6 269.292 434.836 268.128 434.836 265.8V253.74H440.272V266.124C440.272 267.516 439.984 268.776 439.408 269.904C438.832 271.032 437.98 271.92 436.852 272.568C435.724 273.216 434.368 273.54 432.784 273.54ZM434.826 244.956H440.298V251.364H434.826V244.956ZM449.838 261.012C449.838 259.764 449.574 258.864 449.046 258.312C448.518 257.736 447.594 257.448 446.274 257.448C445.002 257.448 443.718 257.772 442.422 258.42V254.28C442.998 253.992 443.766 253.74 444.726 253.524C445.71 253.308 446.658 253.2 447.57 253.2C450.09 253.2 452.01 253.872 453.33 255.216C454.65 256.56 455.31 258.504 455.31 261.048V273H449.838V261.012ZM463.158 273C461.838 273 460.818 272.628 460.098 271.884C459.402 271.116 459.054 270.06 459.054 268.716V253.74H464.526V267.24C464.526 267.816 464.646 268.224 464.886 268.464C465.126 268.704 465.522 268.824 466.074 268.824H467.334V273H463.158ZM479.124 273.54C477.228 273.54 475.572 273.24 474.156 272.64C472.74 272.04 471.66 271.2 470.916 270.12C470.172 269.04 469.8 267.816 469.8 266.448V265.548C469.8 264.684 469.968 263.904 470.304 263.208C470.64 262.512 471.108 261.732 471.708 260.868C472.092 260.34 472.368 259.92 472.536 259.608C472.704 259.272 472.788 258.972 472.788 258.708C472.788 258.036 472.38 257.7 471.564 257.7H469.548V253.74H474.768C475.848 253.74 476.712 254.052 477.36 254.676C478.008 255.3 478.332 256.116 478.332 257.124C478.332 257.844 478.2 258.516 477.936 259.14C477.672 259.74 477.276 260.436 476.748 261.228C476.244 262.02 475.86 262.692 475.596 263.244C475.356 263.796 475.236 264.396 475.236 265.044V265.8C475.236 266.928 475.572 267.792 476.244 268.392C476.916 268.992 477.876 269.292 479.124 269.292C480.444 269.292 481.44 268.932 482.112 268.212C482.808 267.468 483.156 266.4 483.156 265.008C483.156 262.08 482.016 260.616 479.736 260.616V257.988L483.228 253.2H489.024L485.1 258.564C486.372 259.212 487.272 260.064 487.8 261.12C488.352 262.152 488.628 263.472 488.628 265.08C488.628 266.736 488.244 268.2 487.476 269.472C486.732 270.744 485.64 271.74 484.2 272.46C482.76 273.18 481.068 273.54 479.124 273.54ZM471.725 247.908H478.421V244.092H482.201V247.908H484.613V244.092H488.357V251.364H471.725V247.908ZM481.157 240.068C481.157 239.804 481.121 239.624 481.049 239.528C480.953 239.432 480.761 239.384 480.473 239.384H478.925V235.892H482.165C483.701 235.892 484.469 236.552 484.469 237.872V238.808H490.589V242.012H481.157V240.068ZM500.021 273.54C498.413 273.54 496.829 273.372 495.269 273.036C493.709 272.724 492.413 272.28 491.381 271.704V261.588H500.489V265.584H496.745V268.68C497.489 269.088 498.581 269.292 500.021 269.292C503.837 269.292 505.745 267.3 505.745 263.316C505.745 261.276 505.193 259.788 504.089 258.852C502.985 257.916 501.125 257.448 498.509 257.448C497.309 257.448 496.073 257.58 494.801 257.844C493.553 258.084 492.497 258.432 491.633 258.888V254.64C492.617 254.184 493.805 253.836 495.197 253.596C496.589 253.332 498.041 253.2 499.553 253.2C503.417 253.2 506.345 254.088 508.337 255.864C510.353 257.616 511.361 260.1 511.361 263.316C511.361 266.484 510.377 268.98 508.409 270.804C506.441 272.628 503.645 273.54 500.021 273.54ZM523.318 273.54C520.342 273.54 517.99 272.712 516.262 271.056C514.534 269.4 513.67 266.976 513.67 263.784C513.67 260.448 514.666 257.856 516.658 256.008C518.65 254.136 521.398 253.2 524.902 253.2C528.526 253.2 531.19 254.04 532.894 255.72C534.622 257.4 535.486 259.608 535.486 262.344V273H530.05V262.308C530.05 260.724 529.642 259.524 528.826 258.708C528.034 257.868 526.726 257.448 524.902 257.448C523.174 257.448 521.806 257.988 520.798 259.068C519.79 260.148 519.286 261.72 519.286 263.784C519.286 265.68 519.694 267.072 520.51 267.96C521.35 268.848 522.622 269.292 524.326 269.292C525.238 269.292 526.054 269.16 526.774 268.896V273.072C525.838 273.384 524.686 273.54 523.318 273.54ZM526.716 249.06C526.716 248.796 526.668 248.616 526.572 248.52C526.452 248.4 526.26 248.34 525.996 248.34H524.304V244.632H527.688C528.576 244.632 529.224 244.836 529.632 245.244C530.016 245.652 530.208 246.168 530.208 246.792V247.872H537.444V251.364H526.716V249.06ZM545.868 273.54C542.676 273.54 540.24 273.024 538.56 271.992V267.744C540.048 268.776 542.088 269.292 544.68 269.292C546.696 269.292 548.256 268.812 549.36 267.852C550.464 266.868 551.016 265.38 551.016 263.388C551.016 261.396 550.464 259.908 549.36 258.924C548.256 257.94 546.696 257.448 544.68 257.448C542.184 257.448 540.192 257.976 538.704 259.032V254.784C539.544 254.256 540.588 253.86 541.836 253.596C543.084 253.332 544.428 253.2 545.868 253.2C549.228 253.2 551.856 254.1 553.752 255.9C555.672 257.676 556.632 260.172 556.632 263.388C556.632 266.604 555.672 269.1 553.752 270.876C551.856 272.652 549.228 273.54 545.868 273.54ZM568.851 273.54C565.851 273.54 563.451 273 561.651 271.92C559.851 270.816 558.951 269.244 558.951 267.204C558.951 266.268 559.203 265.428 559.707 264.684C560.235 263.916 560.931 263.364 561.795 263.028C561.003 262.62 560.355 262.032 559.851 261.264C559.371 260.496 559.131 259.656 559.131 258.744C559.131 257.064 559.719 255.72 560.895 254.712C562.095 253.704 563.823 253.2 566.079 253.2C566.775 253.2 567.459 253.248 568.131 253.344C568.827 253.44 569.355 253.548 569.715 253.668V257.772C569.379 257.628 568.971 257.508 568.491 257.412C568.035 257.316 567.615 257.268 567.231 257.268C565.551 257.268 564.711 257.892 564.711 259.14C564.711 259.788 564.915 260.28 565.323 260.616C565.755 260.928 566.415 261.084 567.303 261.084H569.715V264.936H567.303C565.479 264.936 564.567 265.656 564.567 267.096C564.567 267.864 564.927 268.464 565.647 268.896C566.391 269.304 567.459 269.508 568.851 269.508C570.531 269.508 571.755 269.172 572.523 268.5C573.315 267.804 573.711 266.772 573.711 265.404V253.704H579.183V265.368C579.183 266.736 578.835 268.044 578.139 269.292C577.443 270.516 576.327 271.536 574.791 272.352C573.255 273.144 571.275 273.54 568.851 273.54ZM887.559 273C886.239 273 885.219 272.628 884.499 271.884C883.803 271.116 883.455 270.06 883.455 268.716V260.04C883.455 258.912 883.671 257.94 884.103 257.124C884.535 256.308 885.135 255.444 885.903 254.532C886.407 253.956 886.779 253.464 887.019 253.056C887.283 252.648 887.415 252.228 887.415 251.796C887.415 251.1 887.235 250.596 886.875 250.284C886.515 249.972 885.903 249.816 885.039 249.816C883.647 249.816 882.351 250.26 881.151 251.148V246.972C881.895 246.516 882.771 246.168 883.779 245.928C884.787 245.688 885.819 245.568 886.875 245.568C888.939 245.568 890.475 246.048 891.483 247.008C892.515 247.944 893.031 249.168 893.031 250.68C893.031 251.568 892.863 252.348 892.527 253.02C892.191 253.668 891.675 254.46 890.979 255.396C890.307 256.26 889.791 257.04 889.431 257.736C889.095 258.408 888.927 259.176 888.927 260.04V267.24C888.927 267.816 889.047 268.224 889.287 268.464C889.527 268.704 889.923 268.824 890.475 268.824H891.735V273H887.559ZM903.847 273.54C901.951 273.54 900.295 273.24 898.879 272.64C897.463 272.04 896.383 271.2 895.639 270.12C894.895 269.04 894.523 267.816 894.523 266.448V265.548C894.523 264.684 894.691 263.904 895.027 263.208C895.363 262.512 895.831 261.732 896.431 260.868C896.815 260.34 897.091 259.92 897.259 259.608C897.427 259.272 897.511 258.972 897.511 258.708C897.511 258.036 897.103 257.7 896.287 257.7H894.271V253.74H899.491C900.571 253.74 901.435 254.052 902.083 254.676C902.731 255.3 903.055 256.116 903.055 257.124C903.055 257.844 902.923 258.516 902.659 259.14C902.395 259.74 901.999 260.436 901.471 261.228C900.967 262.02 900.583 262.692 900.319 263.244C900.079 263.796 899.959 264.396 899.959 265.044V265.8C899.959 266.928 900.295 267.792 900.967 268.392C901.639 268.992 902.599 269.292 903.847 269.292C905.167 269.292 906.163 268.932 906.835 268.212C907.531 267.468 907.879 266.4 907.879 265.008C907.879 262.08 906.739 260.616 904.459 260.616V257.988L907.951 253.2H913.747L909.823 258.564C911.095 259.212 911.995 260.064 912.523 261.12C913.075 262.152 913.351 263.472 913.351 265.08C913.351 266.736 912.967 268.2 912.199 269.472C911.455 270.744 910.363 271.74 908.923 272.46C907.483 273.18 905.791 273.54 903.847 273.54ZM904.259 249.06C904.259 248.796 904.211 248.616 904.115 248.52C903.995 248.4 903.803 248.34 903.539 248.34H901.847V244.632H905.231C906.119 244.632 906.767 244.836 907.175 245.244C907.559 245.652 907.751 246.168 907.751 246.792V247.872H914.987V251.364H904.259V249.06ZM916.823 253.74H922.295V260.688L929.603 253.74H935.831L930.647 258.672C932.519 259.2 933.827 260.016 934.571 261.12C935.339 262.224 935.723 263.688 935.723 265.512V273H930.251V265.98C930.251 264.756 930.035 263.844 929.603 263.244C929.195 262.644 928.439 262.212 927.335 261.948L922.295 266.664V273H916.823V253.74ZM946.015 273.54C943.807 273.54 942.043 272.988 940.723 271.884C939.427 270.78 938.779 269.22 938.779 267.204C938.779 265.188 939.487 263.604 940.903 262.452C942.343 261.3 944.311 260.724 946.807 260.724C949.135 260.724 951.127 261.108 952.783 261.876V261.12C952.783 259.824 952.351 258.864 951.487 258.24C950.647 257.616 949.279 257.304 947.383 257.304C946.207 257.304 945.055 257.424 943.927 257.664C942.799 257.904 941.791 258.24 940.903 258.672V254.568C941.695 254.184 942.787 253.86 944.179 253.596C945.571 253.332 946.975 253.2 948.391 253.2C951.607 253.2 954.043 253.92 955.699 255.36C957.379 256.776 958.219 258.684 958.219 261.084V273H952.783V265.836C951.391 265.116 949.759 264.756 947.887 264.756C946.663 264.756 945.763 264.96 945.187 265.368C944.635 265.776 944.359 266.412 944.359 267.276C944.359 268.068 944.611 268.668 945.115 269.076C945.643 269.46 946.471 269.652 947.599 269.652C948.391 269.652 949.063 269.532 949.615 269.292V273.072C948.679 273.384 947.479 273.54 946.015 273.54ZM950.768 251.364C948.464 251.364 947.312 250.2 947.312 247.872V245.244H952.208V247.008C952.208 247.344 952.28 247.584 952.424 247.728C952.544 247.848 952.784 247.908 953.144 247.908H961.352V251.364H950.768ZM962.972 261.516L961.172 258.456C963.98 254.952 967.592 253.2 972.008 253.2C975.104 253.2 977.48 253.884 979.136 255.252C980.816 256.62 981.656 258.528 981.656 260.976V273H976.184V261.408C976.184 258.768 974.792 257.448 972.008 257.448C970.976 257.448 970.052 257.592 969.236 257.88C968.444 258.168 967.7 258.636 967.004 259.284L968.408 261.588V273H962.972V261.516ZM986.421 261.516L984.621 258.456C987.429 254.952 991.041 253.2 995.457 253.2C998.553 253.2 1000.93 253.884 1002.59 255.252C1004.27 256.62 1005.11 258.528 1005.11 260.976V273H999.633V261.408C999.633 258.768 998.241 257.448 995.457 257.448C994.425 257.448 993.501 257.592 992.685 257.88C991.893 258.168 991.149 258.636 990.453 259.284L991.857 261.588V273H986.421V261.516ZM1014.66 261.012C1014.66 259.764 1014.39 258.864 1013.87 258.312C1013.34 257.736 1012.41 257.448 1011.09 257.448C1009.82 257.448 1008.54 257.772 1007.24 258.42V254.28C1007.82 253.992 1008.59 253.74 1009.55 253.524C1010.53 253.308 1011.48 253.2 1012.39 253.2C1014.91 253.2 1016.83 253.872 1018.15 255.216C1019.47 256.56 1020.13 258.504 1020.13 261.048V273H1014.66V261.012ZM1031.07 273.54C1029.66 273.54 1028.22 273.396 1026.75 273.108C1025.31 272.844 1024.17 272.436 1023.33 271.884V267.708C1024.39 268.332 1025.57 268.812 1026.86 269.148C1028.18 269.484 1029.37 269.652 1030.43 269.652C1031.7 269.652 1032.62 269.532 1033.2 269.292C1033.8 269.028 1034.1 268.572 1034.1 267.924C1034.1 267.348 1033.81 266.904 1033.23 266.592C1032.68 266.28 1031.64 265.884 1030.1 265.404L1029.2 265.116C1027.14 264.468 1025.61 263.688 1024.63 262.776C1023.65 261.864 1023.15 260.616 1023.15 259.032C1023.15 257.184 1023.9 255.756 1025.39 254.748C1026.87 253.716 1028.88 253.2 1031.4 253.2C1032.77 253.2 1034.09 253.344 1035.36 253.632C1036.63 253.92 1037.65 254.292 1038.42 254.748V259.032C1037.65 258.504 1036.69 258.084 1035.54 257.772C1034.41 257.436 1033.29 257.268 1032.19 257.268C1029.86 257.268 1028.7 257.856 1028.7 259.032C1028.7 259.608 1028.97 260.052 1029.53 260.364C1030.08 260.676 1031.06 261.048 1032.48 261.48L1033.77 261.876C1035.29 262.356 1036.46 262.884 1037.3 263.46C1038.17 264.036 1038.77 264.684 1039.1 265.404C1039.44 266.124 1039.61 267 1039.61 268.032C1039.61 269.688 1038.89 271.02 1037.45 272.028C1036.03 273.036 1033.91 273.54 1031.07 273.54ZM1046.54 273C1045.22 273 1044.2 272.628 1043.48 271.884C1042.78 271.116 1042.43 270.06 1042.43 268.716V260.04C1042.43 258.912 1042.65 257.94 1043.08 257.124C1043.51 256.308 1044.11 255.444 1044.88 254.532C1045.38 253.956 1045.76 253.464 1046 253.056C1046.26 252.648 1046.39 252.228 1046.39 251.796C1046.39 251.1 1046.21 250.596 1045.85 250.284C1045.49 249.972 1044.88 249.816 1044.02 249.816C1042.62 249.816 1041.33 250.26 1040.13 251.148V246.972C1040.87 246.516 1041.75 246.168 1042.76 245.928C1043.76 245.688 1044.8 245.568 1045.85 245.568C1047.92 245.568 1049.45 246.048 1050.46 247.008C1051.49 247.944 1052.01 249.168 1052.01 250.68C1052.01 251.568 1051.84 252.348 1051.5 253.02C1051.17 253.668 1050.65 254.46 1049.96 255.396C1049.28 256.26 1048.77 257.04 1048.41 257.736C1048.07 258.408 1047.9 259.176 1047.9 260.04V267.24C1047.9 267.816 1048.02 268.224 1048.26 268.464C1048.5 268.704 1048.9 268.824 1049.45 268.824H1050.71V273H1046.54ZM1062.9 273.54C1059.92 273.54 1057.57 272.712 1055.84 271.056C1054.11 269.4 1053.25 266.976 1053.25 263.784C1053.25 260.448 1054.24 257.856 1056.24 256.008C1058.23 254.136 1060.98 253.2 1064.48 253.2C1068.1 253.2 1070.77 254.04 1072.47 255.72C1074.2 257.4 1075.06 259.608 1075.06 262.344V273H1069.63V262.308C1069.63 260.724 1069.22 259.524 1068.4 258.708C1067.61 257.868 1066.3 257.448 1064.48 257.448C1062.75 257.448 1061.38 257.988 1060.38 259.068C1059.37 260.148 1058.86 261.72 1058.86 263.784C1058.86 265.68 1059.27 267.072 1060.09 267.96C1060.93 268.848 1062.2 269.292 1063.9 269.292C1064.82 269.292 1065.63 269.16 1066.35 268.896V273.072C1065.42 273.384 1064.26 273.54 1062.9 273.54Z" fill="black"/>
<path d="M587.048 273C585.728 273 584.708 272.628 583.988 271.884C583.292 271.116 582.944 270.06 582.944 268.716V253.74H588.416V267.24C588.416 267.816 588.536 268.224 588.776 268.464C589.016 268.704 589.412 268.824 589.964 268.824H591.224V273H587.048ZM594.159 261.444C594.159 258.78 595.047 256.74 596.823 255.324C598.623 253.908 601.035 253.2 604.059 253.2C607.083 253.2 609.483 253.908 611.259 255.324C613.035 256.74 613.923 258.78 613.923 261.444V273H608.451V261.408C608.451 260.088 608.067 259.104 607.299 258.456C606.555 257.784 605.475 257.448 604.059 257.448C602.619 257.448 601.515 257.784 600.747 258.456C600.003 259.104 599.631 260.088 599.631 261.408V264.144C599.919 263.712 600.339 263.376 600.891 263.136C601.467 262.872 602.103 262.74 602.799 262.74H605.607V266.916H602.511C601.671 266.916 600.975 267.18 600.423 267.708C599.895 268.236 599.631 268.92 599.631 269.76V273H594.159V261.444ZM624.879 273.54C623.463 273.54 622.023 273.396 620.559 273.108C619.119 272.844 617.979 272.436 617.139 271.884V267.708C618.195 268.332 619.371 268.812 620.667 269.148C621.987 269.484 623.175 269.652 624.231 269.652C625.503 269.652 626.427 269.532 627.003 269.292C627.603 269.028 627.903 268.572 627.903 267.924C627.903 267.348 627.615 266.904 627.039 266.592C626.487 266.28 625.443 265.884 623.907 265.404L623.007 265.116C620.943 264.468 619.419 263.688 618.435 262.776C617.451 261.864 616.959 260.616 616.959 259.032C616.959 257.184 617.703 255.756 619.191 254.748C620.679 253.716 622.683 253.2 625.203 253.2C626.571 253.2 627.891 253.344 629.163 253.632C630.435 253.92 631.455 254.292 632.223 254.748V259.032C631.455 258.504 630.495 258.084 629.343 257.772C628.215 257.436 627.099 257.268 625.995 257.268C623.667 257.268 622.503 257.856 622.503 259.032C622.503 259.608 622.779 260.052 623.331 260.364C623.883 260.676 624.867 261.048 626.283 261.48L627.579 261.876C629.091 262.356 630.267 262.884 631.107 263.46C631.971 264.036 632.571 264.684 632.907 265.404C633.243 266.124 633.411 267 633.411 268.032C633.411 269.688 632.691 271.02 631.251 272.028C629.835 273.036 627.711 273.54 624.879 273.54ZM616.076 247.908H622.772V244.092H626.552V247.908H628.964V244.092H632.708V251.364H616.076V247.908ZM627.776 236.9H632.672V241.976H627.776V236.9ZM644.372 273.54C642.764 273.54 641.18 273.372 639.62 273.036C638.06 272.724 636.764 272.28 635.732 271.704V261.588H644.84V265.584H641.096V268.68C641.84 269.088 642.932 269.292 644.372 269.292C648.188 269.292 650.096 267.3 650.096 263.316C650.096 261.276 649.544 259.788 648.44 258.852C647.336 257.916 645.476 257.448 642.86 257.448C641.66 257.448 640.424 257.58 639.152 257.844C637.904 258.084 636.848 258.432 635.984 258.888V254.64C636.968 254.184 638.156 253.836 639.548 253.596C640.94 253.332 642.392 253.2 643.904 253.2C647.768 253.2 650.696 254.088 652.688 255.864C654.704 257.616 655.712 260.1 655.712 263.316C655.712 266.484 654.728 268.98 652.76 270.804C650.792 272.628 647.996 273.54 644.372 273.54ZM658.021 256.152H663.457L667.561 268.932C669.337 268.932 670.705 268.404 671.665 267.348C672.625 266.268 673.105 264.744 673.105 262.776C673.105 261 672.769 259.668 672.097 258.78C671.425 257.892 670.393 257.448 669.001 257.448C668.233 257.448 667.465 257.568 666.697 257.808V253.704C667.705 253.368 668.845 253.2 670.117 253.2C672.973 253.2 675.109 254.04 676.525 255.72C677.965 257.376 678.685 259.728 678.685 262.776C678.685 264.912 678.217 266.748 677.281 268.284C676.345 269.82 675.073 270.996 673.465 271.812C671.881 272.604 670.141 273 668.245 273H663.421L658.021 256.152ZM703.679 247.836H709.043L719.087 273H713.507L711.347 267.528H701.375L699.215 273H693.599L703.679 247.836ZM709.907 263.172L706.343 253.596L702.779 263.172H709.907ZM727.738 273.54C725.386 273.54 723.622 272.904 722.446 271.632C721.27 270.336 720.682 268.62 720.682 266.484V255.72H726.118V265.908C726.118 268.164 727.162 269.292 729.25 269.292C730.162 269.292 731.014 269.076 731.806 268.644C732.598 268.212 733.258 267.564 733.786 266.7V255.72H739.222V273H733.966V270.912C733.198 271.8 732.262 272.46 731.158 272.892C730.078 273.324 728.938 273.54 727.738 273.54ZM750.247 273.54C748.231 273.54 746.695 272.988 745.639 271.884C744.607 270.756 744.091 269.196 744.091 267.204V259.644H741.571V255.72H744.091V250.536H749.527V255.72H753.595V259.644H749.527V266.484C749.527 267.492 749.719 268.224 750.103 268.68C750.487 269.112 751.171 269.328 752.155 269.328C752.947 269.328 753.703 269.136 754.423 268.752V272.82C753.319 273.3 751.927 273.54 750.247 273.54ZM766.441 273.54C764.353 273.54 762.517 273.168 760.933 272.424C759.373 271.656 758.161 270.588 757.297 269.22C756.457 267.828 756.037 266.208 756.037 264.36C756.037 262.56 756.457 260.964 757.297 259.572C758.161 258.18 759.373 257.1 760.933 256.332C762.517 255.564 764.353 255.18 766.441 255.18C768.505 255.18 770.317 255.564 771.877 256.332C773.461 257.1 774.673 258.18 775.513 259.572C776.377 260.964 776.809 262.56 776.809 264.36C776.809 266.208 776.377 267.828 775.513 269.22C774.673 270.588 773.473 271.656 771.913 272.424C770.353 273.168 768.529 273.54 766.441 273.54ZM766.441 269.292C767.905 269.292 769.069 268.848 769.933 267.96C770.797 267.048 771.229 265.848 771.229 264.36C771.229 262.824 770.797 261.624 769.933 260.76C769.093 259.872 767.929 259.428 766.441 259.428C764.953 259.428 763.777 259.872 762.913 260.76C762.049 261.624 761.617 262.824 761.617 264.36C761.617 265.848 762.049 267.048 762.913 267.96C763.801 268.848 764.977 269.292 766.441 269.292ZM788.831 273.54C785.711 273.54 783.227 272.748 781.379 271.164C779.531 269.556 778.607 267.3 778.607 264.396C778.607 261.492 779.531 259.236 781.379 257.628C783.251 255.996 785.747 255.18 788.867 255.18C791.699 255.18 793.955 255.708 795.635 256.764V261.048C794.867 260.496 793.967 260.088 792.935 259.824C791.927 259.56 790.859 259.428 789.731 259.428C788.051 259.428 786.707 259.836 785.699 260.652C784.691 261.468 784.187 262.716 784.187 264.396C784.187 266.076 784.679 267.324 785.663 268.14C786.671 268.932 788.015 269.328 789.695 269.328C792.023 269.328 794.075 268.764 795.851 267.636V271.884C794.075 272.988 791.735 273.54 788.831 273.54ZM798.874 246.396H804.31V273H798.874V246.396ZM814.529 273.54C812.417 273.54 810.689 273.012 809.345 271.956C808.025 270.876 807.365 269.412 807.365 267.564C807.365 265.644 808.001 264.156 809.273 263.1C810.545 262.02 812.345 261.48 814.673 261.48C815.705 261.48 816.689 261.588 817.625 261.804C818.561 262.02 819.389 262.32 820.109 262.704V262.272C820.109 261.192 819.725 260.4 818.957 259.896C818.189 259.392 817.013 259.14 815.429 259.14C813.317 259.14 811.373 259.536 809.597 260.328V256.368C810.365 256.032 811.361 255.756 812.585 255.54C813.809 255.3 815.033 255.18 816.257 255.18C819.377 255.18 821.705 255.828 823.241 257.124C824.777 258.396 825.545 260.184 825.545 262.488V273H820.433V271.416C818.969 272.832 817.001 273.54 814.529 273.54ZM816.005 269.94C816.893 269.94 817.697 269.772 818.417 269.436C819.137 269.1 819.701 268.632 820.109 268.032V266.304C818.885 265.488 817.541 265.08 816.077 265.08C815.069 265.08 814.289 265.296 813.737 265.728C813.209 266.136 812.945 266.748 812.945 267.564C812.945 268.332 813.209 268.92 813.737 269.328C814.265 269.736 815.021 269.94 816.005 269.94ZM827.094 255.72H831.666L836.346 267.672L841.026 255.72H845.598L838.47 273H834.222L827.094 255.72ZM859.294 273.54C855.982 273.54 853.378 272.748 851.482 271.164C849.586 269.556 848.638 267.312 848.638 264.432C848.638 261.576 849.478 259.32 851.158 257.664C852.862 256.008 855.286 255.18 858.43 255.18C860.494 255.18 862.246 255.564 863.686 256.332C865.126 257.1 866.218 258.168 866.962 259.536C867.706 260.88 868.078 262.404 868.078 264.108V266.304H853.822C854.206 268.512 856.27 269.616 860.014 269.616C861.118 269.616 862.258 269.52 863.434 269.328C864.61 269.136 865.63 268.872 866.494 268.536V272.352C865.654 272.712 864.574 273 863.254 273.216C861.934 273.432 860.614 273.54 859.294 273.54ZM862.93 262.776C862.858 261.624 862.426 260.736 861.634 260.112C860.842 259.464 859.75 259.14 858.358 259.14C856.99 259.14 855.91 259.464 855.118 260.112C854.326 260.76 853.894 261.648 853.822 262.776H862.93Z" fill="#184188"/>
<rect y="3" width="1440" height="55" rx="27.5" fill="white"/>
<rect x="11" y="14" width="1418" height="33" rx="16.5" fill="url(#paint0_linear_35_1198)"/>
<path d="M1173 573C1173 545.938 1151.06 524 1124 524H317C289.938 524 268 545.938 268 573C268 600.062 289.938 622 317 622H1124C1151.06 622 1173 600.062 1173 573Z" fill="#D1CAB6"/>
<path d="M1172 715C1172 687.938 1150.06 666 1123 666H316C288.938 666 267 687.938 267 715C267 742.062 288.938 764 316 764H1123C1150.06 764 1172 742.062 1172 715Z" fill="#D1CAB6"/>
<path d="M1172 857C1172 829.938 1150.06 808 1123 808H316C288.938 808 267 829.938 267 857C267 884.062 288.938 906 316 906H1123C1150.06 906 1172 884.062 1172 857Z" fill="#D1CAB6"/>
<path d="M1173 561C1173 533.938 1151.06 512 1124 512H317C289.938 512 268 533.938 268 561C268 588.062 289.938 610 317 610H1124C1151.06 610 1173 588.062 1173 561Z" fill="#FFC5C6"/>
<path d="M1172 703C1172 675.938 1150.06 654 1123 654H316C288.938 654 267 675.938 267 703C267 730.062 288.938 752 316 752H1123C1150.06 752 1172 730.062 1172 703Z" fill="white"/>
<path d="M1172 845C1172 817.938 1150.06 796 1123 796H316C288.938 796 267 817.938 267 845C267 872.062 288.938 894 316 894H1123C1150.06 894 1172 872.062 1172 845Z" fill="white"/>
<path d="M674.652 570C673.541 570 672.691 569.694 672.102 569.082C671.535 568.447 671.252 567.563 671.252 566.43V551.81H674.72V565.478C674.72 566.09 674.845 566.521 675.094 566.77C675.343 566.997 675.774 567.11 676.386 567.11H677.61V570H674.652ZM683.39 570C682.302 570 681.463 569.683 680.874 569.048C680.285 568.413 679.99 567.541 679.99 566.43V551.81H683.458V565.478C683.458 566.09 683.583 566.521 683.832 566.77C684.104 566.997 684.546 567.11 685.158 567.11H686.382V570H683.39ZM691.131 558.678L689.431 555.924C690.633 554.405 692.004 553.261 693.545 552.49C695.087 551.697 696.911 551.3 699.019 551.3C701.739 551.3 703.825 551.923 705.275 553.17C706.726 554.394 707.451 556.117 707.451 558.338V570H703.983V558.61C703.983 557.046 703.564 555.901 702.725 555.176C701.909 554.428 700.674 554.054 699.019 554.054C697.773 554.054 696.673 554.247 695.721 554.632C694.769 554.995 693.908 555.584 693.137 556.4L694.599 558.678V570H691.131V558.678ZM694.145 549.124C693.579 548.263 693.295 547.265 693.295 546.132C693.295 544.931 693.59 543.99 694.179 543.31C694.769 542.63 695.539 542.29 696.491 542.29C697.149 542.29 697.67 542.415 698.055 542.664C698.441 542.891 698.735 543.231 698.939 543.684C699.37 542.777 700.175 542.324 701.353 542.324C703.144 542.324 704.039 543.31 704.039 545.282V547.152H704.549C704.912 547.152 705.173 547.073 705.331 546.914C705.467 546.755 705.535 546.472 705.535 546.064V542.426H707.541V545.996C707.541 548.081 706.476 549.124 704.345 549.124H702.169V546.234C702.169 545.667 702.09 545.248 701.931 544.976C701.773 544.704 701.478 544.568 701.047 544.568C700.549 544.568 700.22 544.704 700.061 544.976C699.88 545.225 699.789 545.611 699.789 546.132V546.71H698.123V546.166C698.123 545.101 697.727 544.568 696.933 544.568C696.457 544.568 696.117 544.715 695.913 545.01C695.687 545.305 695.573 545.781 695.573 546.438C695.573 547.39 695.868 548.285 696.457 549.124H694.145ZM717.775 570.51C715.758 570.51 714.149 570.011 712.947 569.014C711.769 567.994 711.179 566.555 711.179 564.696C711.179 562.86 711.837 561.398 713.151 560.31C714.489 559.222 716.291 558.678 718.557 558.678C720.801 558.678 722.819 559.097 724.609 559.936V558.542C724.609 556.978 724.179 555.845 723.317 555.142C722.479 554.417 721.073 554.054 719.101 554.054C718.013 554.054 716.948 554.156 715.905 554.36C714.863 554.564 713.956 554.847 713.185 555.21V552.49C713.888 552.15 714.84 551.867 716.041 551.64C717.265 551.413 718.455 551.3 719.611 551.3C721.651 551.3 723.351 551.674 724.711 552.422L726.445 550.45H730.287L726.853 554.292C727.669 555.448 728.077 556.842 728.077 558.474V570H724.609V562.69C722.955 561.851 721.062 561.432 718.931 561.432C717.458 561.432 716.37 561.704 715.667 562.248C714.987 562.792 714.647 563.608 714.647 564.696C714.647 566.759 715.973 567.79 718.625 567.79C719.441 567.79 720.155 567.677 720.767 567.45V570.136C719.951 570.385 718.954 570.51 717.775 570.51ZM736.41 570C735.299 570 734.449 569.694 733.86 569.082C733.293 568.447 733.01 567.563 733.01 566.43V551.81H736.478V565.478C736.478 566.09 736.602 566.521 736.852 566.77C737.101 566.997 737.532 567.11 738.144 567.11H739.368V570H736.41ZM743.104 558.746C743.104 556.389 743.874 554.564 745.416 553.272C746.957 551.957 749.076 551.3 751.774 551.3C754.448 551.3 756.556 551.946 758.098 553.238C759.639 554.53 760.41 556.366 760.41 558.746V570H756.942V558.644C756.942 557.103 756.488 555.958 755.582 555.21C754.675 554.439 753.406 554.054 751.774 554.054C750.119 554.054 748.838 554.439 747.932 555.21C747.025 555.958 746.572 557.103 746.572 558.644V562.112C746.866 561.568 747.331 561.137 747.966 560.82C748.6 560.48 749.348 560.31 750.21 560.31H752.93V563.166H749.938C748.986 563.166 748.181 563.506 747.524 564.186C746.889 564.843 746.572 565.603 746.572 566.464V570H743.104V558.746ZM774.712 570.51C773.466 570.51 772.276 570.261 771.142 569.762C770.032 569.263 769.034 568.527 768.15 567.552V570H764.818V551.81H768.286V564.662C769.624 566.747 771.46 567.79 773.794 567.79C775.268 567.79 776.378 567.45 777.126 566.77C777.897 566.067 778.282 565.036 778.282 563.676V551.81H781.75V563.812C781.75 565.784 781.127 567.393 779.88 568.64C778.634 569.887 776.911 570.51 774.712 570.51ZM767.026 546.778H778.552V543.14H781.714V549.124H767.026V546.778Z" fill="black"/>
<path d="M704.183 712.51C702.936 712.51 701.667 712.363 700.375 712.068C699.083 711.796 698.074 711.388 697.349 710.844V708.056C698.323 708.645 699.389 709.099 700.545 709.416C701.723 709.711 702.845 709.858 703.911 709.858C705.407 709.858 706.483 709.688 707.141 709.348C707.798 708.985 708.127 708.373 708.127 707.512C708.127 706.923 707.968 706.447 707.651 706.084C707.333 705.721 706.846 705.404 706.189 705.132C705.554 704.86 704.545 704.52 703.163 704.112C701.168 703.5 699.683 702.786 698.709 701.97C697.734 701.131 697.247 699.975 697.247 698.502C697.247 696.825 697.893 695.544 699.185 694.66C700.477 693.753 702.245 693.3 704.489 693.3C705.645 693.3 706.755 693.436 707.821 693.708C708.909 693.957 709.804 694.297 710.507 694.728V697.584C709.736 697.108 708.852 696.734 707.855 696.462C706.857 696.19 705.837 696.054 704.795 696.054C702.075 696.054 700.715 696.87 700.715 698.502C700.715 699.114 700.896 699.601 701.259 699.964C701.644 700.327 702.143 700.633 702.755 700.882C703.389 701.109 704.443 701.437 705.917 701.868C707.367 702.299 708.501 702.763 709.317 703.262C710.133 703.761 710.711 704.35 711.051 705.03C711.391 705.71 711.561 706.549 711.561 707.546C711.561 709.042 710.949 710.243 709.725 711.15C708.501 712.057 706.653 712.51 704.183 712.51ZM704.48 691.124C703.505 691.124 702.803 690.886 702.372 690.41C701.919 689.911 701.692 689.175 701.692 688.2V686.432H704.82V687.792C704.82 688.177 704.899 688.438 705.058 688.574C705.194 688.71 705.466 688.778 705.874 688.778H713.898V691.124H704.48ZM714.612 696.088H718.08L722.398 709.28C724.529 709.28 726.172 708.691 727.328 707.512C728.484 706.333 729.062 704.667 729.062 702.514C729.062 700.383 728.665 698.774 727.872 697.686C727.079 696.598 725.809 696.054 724.064 696.054C723.248 696.054 722.455 696.156 721.684 696.36V693.674C722.591 693.425 723.577 693.3 724.642 693.3C727.226 693.3 729.198 694.116 730.558 695.748C731.918 697.38 732.598 699.635 732.598 702.514C732.598 704.486 732.167 706.186 731.306 707.614C730.467 709.042 729.323 710.13 727.872 710.878C726.421 711.626 724.812 712 723.044 712H719.78L714.612 696.088ZM742.259 712.51C740.241 712.51 738.632 712.011 737.431 711.014C736.252 709.994 735.663 708.555 735.663 706.696C735.663 704.86 736.32 703.398 737.635 702.31C738.972 701.222 740.774 700.678 743.041 700.678C745.285 700.678 747.302 701.097 749.093 701.936V700.542C749.093 698.978 748.662 697.845 747.801 697.142C746.962 696.417 745.557 696.054 743.585 696.054C742.497 696.054 741.431 696.156 740.389 696.36C739.346 696.564 738.439 696.847 737.669 697.21V694.49C738.371 694.15 739.323 693.867 740.525 693.64C741.749 693.413 742.939 693.3 744.095 693.3C746.135 693.3 747.835 693.674 749.195 694.422L750.929 692.45H754.771L751.337 696.292C752.153 697.448 752.561 698.842 752.561 700.474V712H749.093V704.69C747.438 703.851 745.545 703.432 743.415 703.432C741.941 703.432 740.853 703.704 740.151 704.248C739.471 704.792 739.131 705.608 739.131 706.696C739.131 708.759 740.457 709.79 743.109 709.79C743.925 709.79 744.639 709.677 745.251 709.45V712.136C744.435 712.385 743.437 712.51 742.259 712.51ZM738.351 688.778H749.877V685.14H753.039V691.124H738.351V688.778Z" fill="black"/>
<path d="M596.88 853.966C595.77 853.966 594.92 853.66 594.33 853.048C593.764 852.413 593.48 851.529 593.48 850.396V837.51C593.48 835.991 593.696 834.745 594.126 833.77C594.557 832.795 595.282 831.991 596.302 831.356H590.114V828.432H600.824V831.22C599.464 831.809 598.478 832.569 597.866 833.498C597.254 834.427 596.948 835.719 596.948 837.374V849.41C596.948 850.022 597.073 850.453 597.322 850.702C597.572 850.929 598.002 851.042 598.614 851.042H599.838V853.966H596.88ZM610.279 854.51C608.874 854.51 607.514 854.34 606.199 854C604.884 853.683 603.774 853.229 602.867 852.64V843.596H610.415V846.384H606.335V850.906C607.31 851.495 608.624 851.79 610.279 851.79C612.455 851.79 614.11 851.189 615.243 849.988C616.399 848.787 616.977 847.041 616.977 844.752C616.977 842.463 616.388 840.774 615.209 839.686C614.053 838.598 612.149 838.054 609.497 838.054C608.296 838.054 607.117 838.179 605.961 838.428C604.805 838.655 603.83 839.029 603.037 839.55V836.796C603.921 836.297 604.964 835.923 606.165 835.674C607.366 835.425 608.658 835.3 610.041 835.3C613.441 835.3 616.036 836.127 617.827 837.782C619.618 839.437 620.513 841.76 620.513 844.752C620.513 847.767 619.618 850.147 617.827 851.892C616.059 853.637 613.543 854.51 610.279 854.51ZM631.304 854.51C629.082 854.51 627.348 853.887 626.102 852.64C624.878 851.393 624.266 849.784 624.266 847.812V835.81H627.734V847.676C627.734 849.036 628.108 850.067 628.856 850.77C629.626 851.45 630.748 851.79 632.222 851.79C634.556 851.79 636.392 850.747 637.73 848.662V835.81H641.198V854H637.832V851.552C636.132 853.524 633.956 854.51 631.304 854.51ZM639.019 833.43C637.999 833.43 637.127 833.067 636.401 832.342C635.653 831.617 635.279 830.744 635.279 829.724C635.279 828.681 635.653 827.797 636.401 827.072C637.127 826.324 637.999 825.95 639.019 825.95C640.039 825.95 640.923 826.324 641.671 827.072C642.397 827.797 642.759 828.681 642.759 829.724C642.759 830.744 642.397 831.617 641.671 832.342C640.923 833.067 640.039 833.43 639.019 833.43ZM639.019 831.322C639.427 831.322 639.79 831.163 640.107 830.846C640.402 830.506 640.549 830.132 640.549 829.724C640.549 829.316 640.402 828.953 640.107 828.636C639.79 828.319 639.427 828.16 639.019 828.16C638.611 828.16 638.26 828.319 637.965 828.636C637.648 828.953 637.489 829.316 637.489 829.724C637.489 830.132 637.648 830.506 637.965 830.846C638.26 831.163 638.611 831.322 639.019 831.322ZM635.517 822.08C635.517 821.808 635.472 821.627 635.381 821.536C635.291 821.423 635.098 821.366 634.803 821.366H633.375V819.054H635.823C637.138 819.054 637.795 819.632 637.795 820.788V821.876H643.541V824.018H635.517V822.08ZM652.007 842.236C652.007 840.785 651.713 839.731 651.123 839.074C650.534 838.394 649.491 838.054 647.995 838.054C646.545 838.054 645.185 838.371 643.915 839.006V836.286C644.459 836.014 645.162 835.787 646.023 835.606C646.907 835.402 647.78 835.3 648.641 835.3C650.931 835.3 652.642 835.923 653.775 837.17C654.909 838.394 655.475 840.162 655.475 842.474V854H652.007V842.236ZM666.149 854.51C664.902 854.51 663.633 854.363 662.341 854.068C661.049 853.796 660.04 853.388 659.315 852.844V850.056C660.289 850.645 661.355 851.099 662.511 851.416C663.689 851.711 664.811 851.858 665.877 851.858C667.373 851.858 668.449 851.688 669.107 851.348C669.764 850.985 670.093 850.373 670.093 849.512C670.093 848.923 669.934 848.447 669.617 848.084C669.299 847.721 668.812 847.404 668.155 847.132C667.52 846.86 666.511 846.52 665.129 846.112C663.134 845.5 661.649 844.786 660.675 843.97C659.7 843.131 659.213 841.975 659.213 840.502C659.213 838.825 659.859 837.544 661.151 836.66C662.443 835.753 664.211 835.3 666.455 835.3C667.611 835.3 668.721 835.436 669.787 835.708C670.875 835.957 671.77 836.297 672.473 836.728V839.584C671.702 839.108 670.818 838.734 669.821 838.462C668.823 838.19 667.803 838.054 666.761 838.054C664.041 838.054 662.681 838.87 662.681 840.502C662.681 841.114 662.862 841.601 663.225 841.964C663.61 842.327 664.109 842.633 664.721 842.882C665.355 843.109 666.409 843.437 667.883 843.868C669.333 844.299 670.467 844.763 671.283 845.262C672.099 845.761 672.677 846.35 673.017 847.03C673.357 847.71 673.527 848.549 673.527 849.546C673.527 851.042 672.915 852.243 671.691 853.15C670.467 854.057 668.619 854.51 666.149 854.51ZM665.528 830.982C665.528 830.71 665.483 830.517 665.392 830.404C665.279 830.291 665.086 830.234 664.814 830.234H663.284V827.786H665.834C666.559 827.786 667.092 827.967 667.432 828.33C667.749 828.67 667.908 829.101 667.908 829.622V830.812H674.878V833.124H665.528V830.982ZM683.99 854.51C682.585 854.51 681.225 854.34 679.91 854C678.595 853.683 677.485 853.229 676.578 852.64V843.596H684.126V846.384H680.046V850.906C681.021 851.495 682.335 851.79 683.99 851.79C686.166 851.79 687.821 851.189 688.954 849.988C690.11 848.787 690.688 847.041 690.688 844.752C690.688 842.463 690.099 840.774 688.92 839.686C687.764 838.598 685.86 838.054 683.208 838.054C682.007 838.054 680.828 838.179 679.672 838.428C678.516 838.655 677.541 839.029 676.748 839.55V836.796C677.632 836.297 678.675 835.923 679.876 835.674C681.077 835.425 682.369 835.3 683.752 835.3C687.152 835.3 689.747 836.127 691.538 837.782C693.329 839.437 694.224 841.76 694.224 844.752C694.224 847.767 693.329 850.147 691.538 851.892C689.77 853.637 687.254 854.51 683.99 854.51ZM705.015 854.51C702.793 854.51 701.059 853.887 699.813 852.64C698.589 851.393 697.977 849.784 697.977 847.812V835.81H701.445V847.676C701.445 849.036 701.819 850.067 702.567 850.77C703.337 851.45 704.459 851.79 705.933 851.79C708.267 851.79 710.103 850.747 711.441 848.662V835.81H714.909V854H711.543V851.552C709.843 853.524 707.667 854.51 705.015 854.51ZM722.726 854C721.616 854 720.766 853.694 720.176 853.082C719.61 852.447 719.326 851.563 719.326 850.43V835.81H722.794V849.478C722.794 850.09 722.919 850.521 723.168 850.77C723.418 850.997 723.848 851.11 724.46 851.11H725.684V854H722.726ZM731.464 854C730.376 854 729.538 853.683 728.948 853.048C728.359 852.413 728.064 851.541 728.064 850.43V835.81H731.532V849.478C731.532 850.09 731.657 850.521 731.906 850.77C732.178 850.997 732.62 851.11 733.232 851.11H734.456V854H731.464ZM744.442 854.51C743.195 854.51 741.926 854.363 740.634 854.068C739.342 853.796 738.333 853.388 737.608 852.844V850.056C738.582 850.645 739.648 851.099 740.804 851.416C741.982 851.711 743.104 851.858 744.17 851.858C745.666 851.858 746.742 851.688 747.4 851.348C748.057 850.985 748.386 850.373 748.386 849.512C748.386 848.923 748.227 848.447 747.91 848.084C747.592 847.721 747.105 847.404 746.448 847.132C745.813 846.86 744.804 846.52 743.422 846.112C741.427 845.5 739.942 844.786 738.968 843.97C737.993 843.131 737.506 841.975 737.506 840.502C737.506 838.825 738.152 837.544 739.444 836.66C740.736 835.753 742.504 835.3 744.748 835.3C745.904 835.3 747.014 835.436 748.08 835.708C749.168 835.957 750.063 836.297 750.766 836.728V839.584C749.995 839.108 749.111 838.734 748.114 838.462C747.116 838.19 746.096 838.054 745.054 838.054C742.334 838.054 740.974 838.87 740.974 840.502C740.974 841.114 741.155 841.601 741.518 841.964C741.903 842.327 742.402 842.633 743.014 842.882C743.648 843.109 744.702 843.437 746.176 843.868C747.626 844.299 748.76 844.763 749.576 845.262C750.392 845.761 750.97 846.35 751.31 847.03C751.65 847.71 751.82 848.549 751.82 849.546C751.82 851.042 751.208 852.243 749.984 853.15C748.76 854.057 746.912 854.51 744.442 854.51ZM754.871 838.088H758.339L762.657 851.28C764.787 851.28 766.431 850.691 767.587 849.512C768.743 848.333 769.321 846.667 769.321 844.514C769.321 842.383 768.924 840.774 768.131 839.686C767.337 838.598 766.068 838.054 764.323 838.054C763.507 838.054 762.713 838.156 761.943 838.36V835.674C762.849 835.425 763.835 835.3 764.901 835.3C767.485 835.3 769.457 836.116 770.817 837.748C772.177 839.38 772.857 841.635 772.857 844.514C772.857 846.486 772.426 848.186 771.565 849.614C770.726 851.042 769.581 852.13 768.131 852.878C766.68 853.626 765.071 854 763.303 854H760.039L754.871 838.088ZM784.66 854.51C781.94 854.51 779.798 853.739 778.234 852.198C776.692 850.657 775.922 848.39 775.922 845.398C775.922 843.313 776.318 841.511 777.112 839.992C777.928 838.473 779.084 837.317 780.58 836.524C782.076 835.708 783.855 835.3 785.918 835.3C789.114 835.3 791.448 836.059 792.922 837.578C794.395 839.074 795.132 840.989 795.132 843.324V854H791.664V843.29C791.664 839.799 789.748 838.054 785.918 838.054C783.9 838.054 782.314 838.689 781.158 839.958C780.002 841.227 779.424 843.041 779.424 845.398C779.424 847.574 779.911 849.183 780.886 850.226C781.86 851.269 783.311 851.79 785.238 851.79C786.099 851.79 786.892 851.677 787.618 851.45V854.136C786.824 854.385 785.838 854.51 784.66 854.51ZM788.733 833.124C787.758 833.124 787.056 832.886 786.625 832.41C786.172 831.911 785.945 831.175 785.945 830.2V828.432H789.073V829.792C789.073 830.177 789.152 830.438 789.311 830.574C789.447 830.71 789.719 830.778 790.127 830.778H798.151V833.124H788.733ZM806.583 854.51C804.362 854.51 802.628 853.887 801.381 852.64C800.157 851.393 799.545 849.784 799.545 847.812V835.81H803.013V847.676C803.013 849.036 803.387 850.067 804.135 850.77C804.906 851.45 806.028 851.79 807.501 851.79C809.836 851.79 811.672 850.747 813.009 848.662V835.81H816.477V854H813.111V851.552C811.411 853.524 809.235 854.51 806.583 854.51ZM826.811 854.51C824.793 854.51 823.184 854.011 821.983 853.014C820.804 851.994 820.215 850.555 820.215 848.696C820.215 846.86 820.872 845.398 822.187 844.31C823.524 843.222 825.326 842.678 827.593 842.678C829.837 842.678 831.854 843.097 833.645 843.936V842.542C833.645 840.978 833.214 839.845 832.353 839.142C831.514 838.417 830.109 838.054 828.137 838.054C827.049 838.054 825.983 838.156 824.941 838.36C823.898 838.564 822.991 838.847 822.221 839.21V836.49C822.923 836.15 823.875 835.867 825.077 835.64C826.301 835.413 827.491 835.3 828.647 835.3C830.687 835.3 832.387 835.674 833.747 836.422L835.481 834.45H839.323L835.889 838.292C836.705 839.448 837.113 840.842 837.113 842.474V854H833.645V846.69C831.99 845.851 830.097 845.432 827.967 845.432C826.493 845.432 825.405 845.704 824.703 846.248C824.023 846.792 823.683 847.608 823.683 848.696C823.683 850.759 825.009 851.79 827.661 851.79C828.477 851.79 829.191 851.677 829.803 851.45V854.136C828.987 854.385 827.989 854.51 826.811 854.51ZM833.409 863.214C832.004 863.214 830.916 862.919 830.145 862.33C829.352 861.741 828.955 860.947 828.955 859.95V859.032C828.955 858.715 828.91 858.499 828.819 858.386C828.728 858.295 828.536 858.25 828.241 858.25H827.085V855.938H830.077C830.689 855.938 831.108 856.074 831.335 856.346C831.562 856.618 831.675 857.06 831.675 857.672V859.61C831.675 860.607 832.219 861.106 833.307 861.106C834.372 861.106 834.905 860.607 834.905 859.61V855.938H837.625V859.848C837.625 860.845 837.262 861.65 836.537 862.262C835.789 862.897 834.746 863.214 833.409 863.214ZM841.365 838.088H844.833L849.151 851.28C851.282 851.28 852.925 850.691 854.081 849.512C855.237 848.333 855.815 846.667 855.815 844.514C855.815 842.383 855.418 840.774 854.625 839.686C853.832 838.598 852.562 838.054 850.817 838.054C850.001 838.054 849.208 838.156 848.437 838.36V835.674C849.344 835.425 850.33 835.3 851.395 835.3C853.979 835.3 855.951 836.116 857.311 837.748C858.671 839.38 859.351 841.635 859.351 844.514C859.351 846.486 858.92 848.186 858.059 849.614C857.22 851.042 856.076 852.13 854.625 852.878C853.174 853.626 851.565 854 849.797 854H846.533L841.365 838.088Z" fill="black"/>
<defs>
<filter id="filter0_d_35_1198" x="215.979" y="111.587" width="1008.04" height="358.042" filterUnits="userSpaceOnUse" color-interpolation-filters="sRGB">
<feFlood flood-opacity="0" result="BackgroundImageFix"/>
<feColorMatrix in="SourceAlpha" type="matrix" values="0 0 0 0 0 0 0 0 0 0 0 0 0 0 0 0 0 0 127 0" result="hardAlpha"/>
<feOffset dy="29.6084"/>
<feGaussianBlur stdDeviation="37.0104"/>
<feComposite in2="hardAlpha" operator="out"/>
<feColorMatrix type="matrix" values="0 0 0 0 0 0 0 0 0 0 0 0 0 0 0 0 0 0 0.15 0"/>
<feBlend mode="normal" in2="BackgroundImageFix" result="effect1_dropShadow_35_1198"/>
<feBlend mode="normal" in="SourceGraphic" in2="effect1_dropShadow_35_1198" result="shape"/>
</filter>
<linearGradient id="paint0_linear_35_1198" x1="11" y1="30.5" x2="1429" y2="30.5" gradientUnits="userSpaceOnUse">
<stop stop-color="#66A865"/>
<stop offset="1" stop-color="#8EC5DD"/>
</linearGradient>
</defs>
</svg>
