<svg width="1440" height="1024" viewBox="0 0 1440 1024" fill="none" xmlns="http://www.w3.org/2000/svg">
<rect width="1440" height="1024" fill="#FFF8E4"/>
<g filter="url(#filter0_d_35_1296)">
<path d="M290 185.608C290 169.256 303.256 156 319.608 156H1120.39C1136.74 156 1150 169.256 1150 185.608V336.392C1150 352.744 1136.74 366 1120.39 366H319.608C303.256 366 290 352.744 290 336.392V185.608Z" fill="white"/>
</g>
<path d="M569.161 247.836H586.621V252.408H574.633V258.24H583.453V262.632H574.633V268.428H586.621V273H569.161V247.836ZM596.83 273.54C595.294 273.54 593.77 273.396 592.258 273.108C590.746 272.82 589.51 272.436 588.55 271.956V267.132C589.822 267.756 591.142 268.224 592.51 268.536C593.878 268.848 595.186 269.004 596.434 269.004C597.826 269.004 598.882 268.764 599.602 268.284C600.322 267.804 600.682 267.132 600.682 266.268C600.682 265.644 600.502 265.116 600.142 264.684C599.782 264.252 599.254 263.868 598.558 263.532C597.886 263.172 596.842 262.704 595.426 262.128C593.074 261.168 591.37 260.1 590.314 258.924C589.258 257.724 588.73 256.248 588.73 254.496C588.73 253.08 589.114 251.832 589.882 250.752C590.65 249.648 591.73 248.796 593.122 248.196C594.514 247.596 596.122 247.296 597.946 247.296C599.434 247.296 600.754 247.416 601.906 247.656C603.058 247.896 604.186 248.268 605.29 248.772V253.452C603.178 252.396 601.066 251.868 598.954 251.868C597.61 251.868 596.554 252.108 595.786 252.588C595.018 253.044 594.634 253.704 594.634 254.568C594.634 255.192 594.814 255.708 595.174 256.116C595.534 256.524 596.038 256.884 596.686 257.196C597.334 257.508 598.39 257.964 599.854 258.564C601.558 259.284 602.89 259.98 603.85 260.652C604.81 261.3 605.518 262.08 605.974 262.992C606.43 263.88 606.658 264.984 606.658 266.304C606.658 268.584 605.83 270.36 604.174 271.632C602.542 272.904 600.094 273.54 596.83 273.54ZM622.619 273.54C619.931 273.54 617.555 273.012 615.491 271.956C613.427 270.876 611.831 269.352 610.703 267.384C609.575 265.416 609.011 263.1 609.011 260.436C609.011 257.772 609.575 255.456 610.703 253.488C611.831 251.496 613.427 249.972 615.491 248.916C617.555 247.836 619.931 247.296 622.619 247.296C624.443 247.296 626.051 247.488 627.443 247.872C628.859 248.232 630.155 248.808 631.331 249.6V254.82C630.275 253.956 629.063 253.332 627.695 252.948C626.351 252.54 624.815 252.336 623.087 252.336C621.479 252.336 620.027 252.672 618.731 253.344C617.459 253.992 616.451 254.928 615.707 256.152C614.963 257.376 614.591 258.804 614.591 260.436C614.591 262.092 614.927 263.544 615.599 264.792C616.295 266.016 617.267 266.964 618.515 267.636C619.763 268.308 621.203 268.644 622.835 268.644C624.323 268.644 625.619 268.38 626.723 267.852V262.992H622.655V258.96H632.015V271.092C629.639 272.724 626.507 273.54 622.619 273.54Z" fill="#2B5C47"/>
<path d="M656.845 273.54C653.845 273.54 651.445 273 649.645 271.92C647.845 270.816 646.945 269.244 646.945 267.204C646.945 266.268 647.197 265.428 647.701 264.684C648.229 263.916 648.925 263.364 649.789 263.028C648.997 262.62 648.349 262.032 647.845 261.264C647.365 260.496 647.125 259.656 647.125 258.744C647.125 257.064 647.713 255.72 648.889 254.712C650.089 253.704 651.817 253.2 654.073 253.2C654.769 253.2 655.453 253.248 656.125 253.344C656.821 253.44 657.349 253.548 657.709 253.668V257.772C657.373 257.628 656.965 257.508 656.485 257.412C656.029 257.316 655.609 257.268 655.225 257.268C653.545 257.268 652.705 257.892 652.705 259.14C652.705 259.788 652.909 260.28 653.317 260.616C653.749 260.928 654.409 261.084 655.297 261.084H657.709V264.936H655.297C653.473 264.936 652.561 265.656 652.561 267.096C652.561 267.864 652.921 268.464 653.641 268.896C654.385 269.304 655.453 269.508 656.845 269.508C658.525 269.508 659.749 269.172 660.517 268.5C661.309 267.804 661.705 266.772 661.705 265.404V253.704H667.177V265.368C667.177 266.736 666.829 268.044 666.133 269.292C665.437 270.516 664.321 271.536 662.785 272.352C661.249 273.144 659.269 273.54 656.845 273.54ZM661.722 244.956H667.194V251.364H661.722V244.956ZM678.858 273.54C677.25 273.54 675.666 273.372 674.106 273.036C672.546 272.724 671.25 272.28 670.218 271.704V261.588H679.326V265.584H675.582V268.68C676.326 269.088 677.418 269.292 678.858 269.292C682.674 269.292 684.582 267.3 684.582 263.316C684.582 261.276 684.03 259.788 682.926 258.852C681.822 257.916 679.962 257.448 677.346 257.448C676.146 257.448 674.91 257.58 673.638 257.844C672.39 258.084 671.334 258.432 670.47 258.888V254.64C671.454 254.184 672.642 253.836 674.034 253.596C675.426 253.332 676.878 253.2 678.39 253.2C682.254 253.2 685.182 254.088 687.174 255.864C689.19 257.616 690.198 260.1 690.198 263.316C690.198 266.484 689.214 268.98 687.246 270.804C685.278 272.628 682.482 273.54 678.858 273.54ZM704.891 273.54C703.691 273.54 702.527 273.312 701.399 272.856C700.271 272.4 699.287 271.728 698.447 270.84V273H693.227V253.74H698.699V266.7C699.227 267.588 699.863 268.248 700.607 268.68C701.351 269.088 702.227 269.292 703.235 269.292C705.707 269.292 706.943 268.128 706.943 265.8V253.74H712.379V266.124C712.379 267.516 712.091 268.776 711.515 269.904C710.939 271.032 710.087 271.92 708.959 272.568C707.831 273.216 706.475 273.54 704.891 273.54ZM721.945 261.012C721.945 259.764 721.681 258.864 721.153 258.312C720.625 257.736 719.701 257.448 718.381 257.448C717.109 257.448 715.825 257.772 714.529 258.42V254.28C715.105 253.992 715.873 253.74 716.833 253.524C717.817 253.308 718.765 253.2 719.677 253.2C722.197 253.2 724.117 253.872 725.437 255.216C726.757 256.56 727.417 258.504 727.417 261.048V273H721.945V261.012ZM731.017 262.416H736.417L738.037 268.932C739.693 268.932 741.061 268.428 742.141 267.42C743.245 266.388 743.797 264.984 743.797 263.208C743.797 261.288 743.281 259.848 742.249 258.888C741.241 257.928 739.501 257.448 737.029 257.448C735.877 257.448 734.689 257.568 733.465 257.808C732.241 258.048 731.233 258.36 730.441 258.744V254.532C731.401 254.124 732.541 253.8 733.861 253.56C735.205 253.32 736.561 253.2 737.929 253.2C741.649 253.2 744.481 254.052 746.425 255.756C748.393 257.436 749.377 259.896 749.377 263.136C749.377 265.104 748.885 266.832 747.901 268.32C746.941 269.808 745.633 270.96 743.977 271.776C742.345 272.592 740.545 273 738.577 273H733.645L731.017 262.416ZM758.227 261.012C758.227 259.764 757.963 258.864 757.435 258.312C756.907 257.736 755.983 257.448 754.663 257.448C753.391 257.448 752.107 257.772 750.811 258.42V254.28C751.387 253.992 752.155 253.74 753.115 253.524C754.099 253.308 755.047 253.2 755.959 253.2C758.479 253.2 760.399 253.872 761.719 255.216C763.039 256.56 763.699 258.504 763.699 261.048V273H758.227V261.012ZM768.45 261.516L766.65 258.456C769.458 254.952 773.07 253.2 777.486 253.2C780.582 253.2 782.958 253.884 784.614 255.252C786.294 256.62 787.134 258.528 787.134 260.976V273H781.662V261.408C781.662 258.768 780.27 257.448 777.486 257.448C776.454 257.448 775.53 257.592 774.714 257.88C773.922 258.168 773.178 258.636 772.482 259.284L773.886 261.588V273H768.45V261.516ZM798.812 273.54C797.204 273.54 795.62 273.372 794.06 273.036C792.5 272.724 791.204 272.28 790.172 271.704V261.588H799.28V265.584H795.536V268.68C796.28 269.088 797.372 269.292 798.812 269.292C802.628 269.292 804.536 267.3 804.536 263.316C804.536 261.276 803.984 259.788 802.88 258.852C801.776 257.916 799.916 257.448 797.3 257.448C796.1 257.448 794.864 257.58 793.592 257.844C792.344 258.084 791.288 258.432 790.424 258.888V254.64C791.408 254.184 792.596 253.836 793.988 253.596C795.38 253.332 796.832 253.2 798.344 253.2C802.208 253.2 805.136 254.088 807.128 255.864C809.144 257.616 810.152 260.1 810.152 263.316C810.152 266.484 809.168 268.98 807.2 270.804C805.232 272.628 802.436 273.54 798.812 273.54ZM815.845 261.732C814.645 261.732 813.781 261.468 813.253 260.94C812.725 260.388 812.461 259.56 812.461 258.456V255.648H817.357V257.196C817.357 257.508 817.429 257.736 817.573 257.88C817.717 258.024 817.969 258.096 818.329 258.096H822.577V261.732H815.845ZM815.845 271.452C814.645 271.452 813.781 271.176 813.253 270.624C812.725 270.072 812.461 269.244 812.461 268.14V265.332H817.357V266.88C817.357 267.192 817.429 267.42 817.573 267.564C817.717 267.708 817.969 267.78 818.329 267.78H822.577V271.452H815.845ZM830.811 273C829.491 273 828.471 272.628 827.751 271.884C827.055 271.116 826.707 270.06 826.707 268.716V256.296C826.707 253.464 827.535 251.412 829.191 250.14H823.251V245.928H836.103V249.78C834.711 250.332 833.703 251.112 833.079 252.12C832.455 253.128 832.143 254.484 832.143 256.188V267.24C832.143 267.816 832.263 268.224 832.503 268.464C832.743 268.704 833.151 268.824 833.727 268.824H834.987V273H830.811ZM845.236 273.54C843.82 273.54 842.38 273.396 840.916 273.108C839.476 272.844 838.336 272.436 837.496 271.884V267.708C838.552 268.332 839.728 268.812 841.024 269.148C842.344 269.484 843.532 269.652 844.588 269.652C845.86 269.652 846.784 269.532 847.36 269.292C847.96 269.028 848.26 268.572 848.26 267.924C848.26 267.348 847.972 266.904 847.396 266.592C846.844 266.28 845.8 265.884 844.264 265.404L843.364 265.116C841.3 264.468 839.776 263.688 838.792 262.776C837.808 261.864 837.316 260.616 837.316 259.032C837.316 257.184 838.06 255.756 839.548 254.748C841.036 253.716 843.04 253.2 845.56 253.2C846.928 253.2 848.248 253.344 849.52 253.632C850.792 253.92 851.812 254.292 852.58 254.748V259.032C851.812 258.504 850.852 258.084 849.7 257.772C848.572 257.436 847.456 257.268 846.352 257.268C844.024 257.268 842.86 257.856 842.86 259.032C842.86 259.608 843.136 260.052 843.688 260.364C844.24 260.676 845.224 261.048 846.64 261.48L847.936 261.876C849.448 262.356 850.624 262.884 851.464 263.46C852.328 264.036 852.928 264.684 853.264 265.404C853.6 266.124 853.768 267 853.768 268.032C853.768 269.688 853.048 271.02 851.608 272.028C850.192 273.036 848.068 273.54 845.236 273.54ZM860.194 264.324C860.194 263.004 860.446 261.864 860.95 260.904C861.454 259.944 862.246 259.08 863.326 258.312C863.494 258.168 863.65 258.048 863.794 257.952C863.962 257.856 864.118 257.76 864.262 257.664C865.198 257.04 865.858 256.512 866.242 256.08C866.65 255.648 866.854 255.108 866.854 254.46C866.854 253.62 866.518 252.984 865.846 252.552C865.174 252.096 864.166 251.868 862.822 251.868C861.694 251.868 860.542 252 859.366 252.264C858.19 252.528 857.098 252.912 856.09 253.416V248.772C858.274 247.788 860.65 247.296 863.218 247.296C866.098 247.296 868.366 247.908 870.022 249.132C871.702 250.332 872.542 252.024 872.542 254.208C872.542 255.072 872.386 255.828 872.074 256.476C871.786 257.1 871.39 257.652 870.886 258.132C870.382 258.612 869.662 259.188 868.726 259.86C867.766 260.58 867.094 261.12 866.71 261.48C866.326 261.816 866.026 262.212 865.81 262.668C865.618 263.1 865.521 263.664 865.521 264.36V265.116H860.194V264.324ZM862.822 273.54C861.982 273.54 861.274 273.264 860.698 272.712C860.146 272.16 859.87 271.464 859.87 270.624C859.87 269.784 860.146 269.088 860.698 268.536C861.274 267.984 861.982 267.708 862.822 267.708C863.638 267.708 864.334 267.996 864.91 268.572C865.486 269.124 865.774 269.808 865.774 270.624C865.774 271.44 865.486 272.136 864.91 272.712C864.334 273.264 863.638 273.54 862.822 273.54Z" fill="black"/>
<rect y="3" width="1440" height="55" rx="27.5" fill="white"/>
<rect x="11" y="14" width="1418" height="33" rx="16.5" fill="url(#paint0_linear_35_1296)"/>
<path d="M1195 573C1195 545.938 1173.06 524 1146 524H339C311.938 524 290 545.938 290 573C290 600.062 311.938 622 339 622H1146C1173.06 622 1195 600.062 1195 573Z" fill="#D1CAB6"/>
<path d="M1194 715C1194 687.938 1172.06 666 1145 666H338C310.938 666 289 687.938 289 715C289 742.062 310.938 764 338 764H1145C1172.06 764 1194 742.062 1194 715Z" fill="#D1CAB6"/>
<path d="M1194 857C1194 829.938 1172.06 808 1145 808H338C310.938 808 289 829.938 289 857C289 884.062 310.938 906 338 906H1145C1172.06 906 1194 884.062 1194 857Z" fill="#D1CAB6"/>
<path d="M1195 561C1195 533.938 1173.06 512 1146 512H339C311.938 512 290 533.938 290 561C290 588.062 311.938 610 339 610H1146C1173.06 610 1195 588.062 1195 561Z" fill="white"/>
<path d="M1194 703C1194 675.938 1172.06 654 1145 654H338C310.938 654 289 675.938 289 703C289 730.062 310.938 752 338 752H1145C1172.06 752 1194 730.062 1194 703Z" fill="white"/>
<path d="M1194 845C1194 817.938 1172.06 796 1145 796H338C310.938 796 289 817.938 289 845C289 872.062 310.938 894 338 894H1145C1172.06 894 1194 872.062 1194 845Z" fill="#A1FF9F"/>
<path d="M605.712 546.234H621.386V549.158H609.18V556.672H618.292V559.562H609.18V567.11H621.386V570H605.712V546.234ZM632.708 570.51C630.895 570.51 629.286 570.17 627.88 569.49C626.475 568.81 625.376 567.824 624.582 566.532C623.812 565.217 623.426 563.665 623.426 561.874C623.426 560.083 623.812 558.542 624.582 557.25C625.376 555.935 626.475 554.927 627.88 554.224C629.308 553.521 630.94 553.17 632.776 553.17C635.27 553.17 637.264 553.657 638.76 554.632V557.454C637.287 556.434 635.406 555.924 633.116 555.924C631.258 555.924 629.75 556.434 628.594 557.454C627.461 558.451 626.894 559.925 626.894 561.874C626.894 563.823 627.461 565.297 628.594 566.294C629.728 567.291 631.212 567.79 633.048 567.79C635.338 567.79 637.31 567.246 638.964 566.158V568.946C638.171 569.49 637.264 569.887 636.244 570.136C635.247 570.385 634.068 570.51 632.708 570.51ZM650.804 570.51C648.968 570.51 647.348 570.17 645.942 569.49C644.56 568.787 643.472 567.79 642.678 566.498C641.908 565.183 641.522 563.642 641.522 561.874C641.522 560.129 641.908 558.599 642.678 557.284C643.449 555.969 644.537 554.961 645.942 554.258C647.348 553.533 648.968 553.17 650.804 553.17C652.64 553.17 654.261 553.533 655.666 554.258C657.072 554.961 658.16 555.969 658.93 557.284C659.724 558.599 660.12 560.129 660.12 561.874C660.12 563.642 659.724 565.183 658.93 566.498C658.16 567.79 657.072 568.787 655.666 569.49C654.261 570.17 652.64 570.51 650.804 570.51ZM650.804 567.79C652.572 567.79 653.978 567.246 655.02 566.158C656.063 565.07 656.584 563.642 656.584 561.874C656.584 560.038 656.063 558.587 655.02 557.522C653.978 556.457 652.572 555.924 650.804 555.924C649.036 555.924 647.631 556.457 646.588 557.522C645.546 558.587 645.024 560.038 645.024 561.874C645.024 563.642 645.546 565.07 646.588 566.158C647.631 567.246 649.036 567.79 650.804 567.79ZM663.171 558.474H682.075V561.296H663.171V558.474ZM692.427 570.51C691.067 570.51 689.718 570.385 688.381 570.136C687.066 569.909 685.99 569.592 685.151 569.184V566.056C687.327 567.076 689.673 567.586 692.189 567.586C695.725 567.586 697.493 566.396 697.493 564.016C697.493 563.2 697.3 562.543 696.915 562.044C696.53 561.545 695.974 561.115 695.249 560.752C694.524 560.367 693.345 559.845 691.713 559.188C689.469 558.281 687.848 557.284 686.851 556.196C685.854 555.108 685.355 553.737 685.355 552.082C685.355 550.835 685.695 549.736 686.375 548.784C687.055 547.809 688.007 547.061 689.231 546.54C690.455 545.996 691.86 545.724 693.447 545.724C694.739 545.724 695.906 545.826 696.949 546.03C697.992 546.234 699.012 546.563 700.009 547.016V550.008C698.037 549.124 696.042 548.682 694.025 548.682C692.393 548.682 691.146 548.977 690.285 549.566C689.424 550.155 688.993 550.994 688.993 552.082C688.993 552.83 689.174 553.465 689.537 553.986C689.922 554.485 690.478 554.938 691.203 555.346C691.951 555.731 693.05 556.219 694.501 556.808C696.11 557.465 697.38 558.089 698.309 558.678C699.238 559.267 699.941 559.993 700.417 560.854C700.916 561.693 701.165 562.747 701.165 564.016C701.165 566.079 700.428 567.677 698.955 568.81C697.482 569.943 695.306 570.51 692.427 570.51ZM710.886 570.51C708.687 570.51 707.021 569.921 705.888 568.742C704.777 567.563 704.222 565.988 704.222 564.016V553.68H707.656V563.88C707.656 566.487 708.959 567.79 711.566 567.79C713.855 567.79 715.646 566.759 716.938 564.696V553.68H720.372V570H717.04V567.688C716.269 568.663 715.351 569.377 714.286 569.83C713.243 570.283 712.11 570.51 710.886 570.51ZM730.796 570.51C729.663 570.51 728.462 570.363 727.192 570.068C725.923 569.796 724.926 569.422 724.2 568.946V566.022C725.084 566.543 726.104 566.974 727.26 567.314C728.416 567.631 729.538 567.79 730.626 567.79C731.85 567.79 732.746 567.643 733.312 567.348C733.879 567.053 734.162 566.577 734.162 565.92C734.162 565.421 734.026 565.025 733.754 564.73C733.505 564.413 733.063 564.129 732.428 563.88C731.816 563.631 730.887 563.336 729.64 562.996C728.303 562.611 727.238 562.225 726.444 561.84C725.674 561.432 725.084 560.922 724.676 560.31C724.291 559.698 724.098 558.905 724.098 557.93C724.098 556.366 724.71 555.187 725.934 554.394C727.181 553.578 728.847 553.17 730.932 553.17C732.02 553.17 733.086 553.272 734.128 553.476C735.171 553.68 736.01 553.963 736.644 554.326V557.182C735.987 556.797 735.171 556.491 734.196 556.264C733.244 556.037 732.27 555.924 731.272 555.924C730.071 555.924 729.153 556.071 728.518 556.366C727.884 556.661 727.566 557.182 727.566 557.93C727.566 558.406 727.702 558.791 727.974 559.086C728.246 559.381 728.677 559.641 729.266 559.868C729.878 560.072 730.842 560.344 732.156 560.684C734.219 561.251 735.647 561.919 736.44 562.69C737.256 563.461 737.664 564.526 737.664 565.886C737.664 567.291 737.086 568.413 735.93 569.252C734.774 570.091 733.063 570.51 730.796 570.51ZM747.205 570.51C745.55 570.51 744.27 570.034 743.363 569.082C742.479 568.13 742.037 566.781 742.037 565.036V556.332H739.555V553.68H742.037V548.784H745.505V553.68H749.517V556.332H745.505V564.798C745.505 565.886 745.709 566.657 746.117 567.11C746.548 567.563 747.318 567.79 748.429 567.79C749.086 567.79 749.744 567.643 750.401 567.348V570.068C749.54 570.363 748.474 570.51 747.205 570.51ZM758.982 570.51C757.01 570.51 755.423 570.011 754.222 569.014C753.043 567.994 752.454 566.623 752.454 564.9C752.454 563.087 753.02 561.693 754.154 560.718C755.31 559.721 756.942 559.222 759.05 559.222C761.294 559.222 763.198 559.675 764.762 560.582V559.732C764.762 558.44 764.365 557.488 763.572 556.876C762.801 556.241 761.577 555.924 759.9 555.924C758.902 555.924 757.928 556.026 756.976 556.23C756.046 556.411 755.208 556.672 754.46 557.012V554.224C755.14 553.907 756.024 553.657 757.112 553.476C758.2 553.272 759.254 553.17 760.274 553.17C762.971 553.17 764.966 553.771 766.258 554.972C767.572 556.151 768.23 557.794 768.23 559.902V570H765V568.164C764.297 568.935 763.458 569.524 762.484 569.932C761.532 570.317 760.364 570.51 758.982 570.51ZM759.832 567.892C760.92 567.892 761.906 567.677 762.79 567.246C763.674 566.815 764.331 566.215 764.762 565.444V563.234C763.288 562.282 761.645 561.806 759.832 561.806C758.517 561.806 757.531 562.067 756.874 562.588C756.239 563.087 755.922 563.857 755.922 564.9C755.922 566.895 757.225 567.892 759.832 567.892ZM774.497 550.484C773.931 550.484 773.455 550.291 773.069 549.906C772.684 549.521 772.491 549.045 772.491 548.478C772.491 547.911 772.684 547.435 773.069 547.05C773.455 546.665 773.931 546.472 774.497 546.472C775.087 546.472 775.574 546.665 775.959 547.05C776.367 547.435 776.571 547.911 776.571 548.478C776.571 549.045 776.367 549.521 775.959 549.906C775.574 550.291 775.087 550.484 774.497 550.484ZM772.763 553.68H776.265V570H772.763V553.68ZM780.991 553.68H784.323V556.026C785.094 555.051 786.035 554.337 787.145 553.884C788.279 553.408 789.457 553.17 790.681 553.17C792.857 553.17 794.478 553.748 795.543 554.904C796.609 556.06 797.141 557.613 797.141 559.562V570H793.707V559.902C793.707 557.25 792.438 555.924 789.899 555.924C788.811 555.924 787.791 556.185 786.839 556.706C785.91 557.205 785.105 557.975 784.425 559.018V570H780.991V553.68ZM800.698 558.474H819.602V561.296H800.698V558.474ZM835.258 570.51C832.81 570.51 830.634 570 828.73 568.98C826.826 567.96 825.342 566.521 824.276 564.662C823.211 562.781 822.678 560.605 822.678 558.134C822.678 555.663 823.211 553.487 824.276 551.606C825.342 549.725 826.826 548.274 828.73 547.254C830.634 546.234 832.81 545.724 835.258 545.724C838.545 545.724 841.276 546.54 843.452 548.172V551.504C841.48 549.781 838.851 548.92 835.564 548.92C833.774 548.92 832.164 549.294 830.736 550.042C829.308 550.79 828.186 551.867 827.37 553.272C826.577 554.655 826.18 556.275 826.18 558.134C826.18 559.993 826.577 561.625 827.37 563.03C828.164 564.435 829.263 565.512 830.668 566.26C832.074 567.008 833.66 567.382 835.428 567.382C837.491 567.382 839.18 566.963 840.494 566.124V559.902H835.972V557.08H843.962V567.96C842.897 568.844 841.639 569.49 840.188 569.898C838.76 570.306 837.117 570.51 835.258 570.51ZM856.298 570.51C854.462 570.51 852.842 570.17 851.436 569.49C850.054 568.787 848.966 567.79 848.172 566.498C847.402 565.183 847.016 563.642 847.016 561.874C847.016 560.129 847.402 558.599 848.172 557.284C848.943 555.969 850.031 554.961 851.436 554.258C852.842 553.533 854.462 553.17 856.298 553.17C858.134 553.17 859.755 553.533 861.16 554.258C862.566 554.961 863.654 555.969 864.424 557.284C865.218 558.599 865.614 560.129 865.614 561.874C865.614 563.642 865.218 565.183 864.424 566.498C863.654 567.79 862.566 568.787 861.16 569.49C859.755 570.17 858.134 570.51 856.298 570.51ZM856.298 567.79C858.066 567.79 859.472 567.246 860.514 566.158C861.557 565.07 862.078 563.642 862.078 561.874C862.078 560.038 861.557 558.587 860.514 557.522C859.472 556.457 858.066 555.924 856.298 555.924C854.53 555.924 853.125 556.457 852.082 557.522C851.04 558.587 850.518 560.038 850.518 561.874C850.518 563.642 851.04 565.07 852.082 566.158C853.125 567.246 854.53 567.79 856.298 567.79ZM874.329 570.51C872.357 570.51 870.771 570.011 869.569 569.014C868.391 567.994 867.801 566.623 867.801 564.9C867.801 563.087 868.368 561.693 869.501 560.718C870.657 559.721 872.289 559.222 874.397 559.222C876.641 559.222 878.545 559.675 880.109 560.582V559.732C880.109 558.44 879.713 557.488 878.919 556.876C878.149 556.241 876.925 555.924 875.247 555.924C874.25 555.924 873.275 556.026 872.323 556.23C871.394 556.411 870.555 556.672 869.807 557.012V554.224C870.487 553.907 871.371 553.657 872.459 553.476C873.547 553.272 874.601 553.17 875.621 553.17C878.319 553.17 880.313 553.771 881.605 554.972C882.92 556.151 883.577 557.794 883.577 559.902V570H880.347V568.164C879.645 568.935 878.806 569.524 877.831 569.932C876.879 570.317 875.712 570.51 874.329 570.51ZM875.179 567.892C876.267 567.892 877.253 567.677 878.137 567.246C879.021 566.815 879.679 566.215 880.109 565.444V563.234C878.636 562.282 876.993 561.806 875.179 561.806C873.865 561.806 872.879 562.067 872.221 562.588C871.587 563.087 871.269 563.857 871.269 564.9C871.269 566.895 872.573 567.892 875.179 567.892ZM887.839 544.874H891.273V570H887.839V544.874Z" fill="black"/>
<path d="M585.056 688.234H600.73V691.158H588.524V698.672H597.636V701.562H588.524V709.11H600.73V712H585.056V688.234ZM609.663 712.51C607.691 712.51 606.105 712.011 604.903 711.014C603.725 709.994 603.135 708.623 603.135 706.9C603.135 705.087 603.702 703.693 604.835 702.718C605.991 701.721 607.623 701.222 609.731 701.222C611.975 701.222 613.879 701.675 615.443 702.582V701.732C615.443 700.44 615.047 699.488 614.253 698.876C613.483 698.241 612.259 697.924 610.581 697.924C609.584 697.924 608.609 698.026 607.657 698.23C606.728 698.411 605.889 698.672 605.141 699.012V696.224C605.821 695.907 606.705 695.657 607.793 695.476C608.881 695.272 609.935 695.17 610.955 695.17C613.653 695.17 615.647 695.771 616.939 696.972C618.254 698.151 618.911 699.794 618.911 701.902V712H615.681V710.164C614.979 710.935 614.14 711.524 613.165 711.932C612.213 712.317 611.046 712.51 609.663 712.51ZM610.513 709.892C611.601 709.892 612.587 709.677 613.471 709.246C614.355 708.815 615.013 708.215 615.443 707.444V705.234C613.97 704.282 612.327 703.806 610.513 703.806C609.199 703.806 608.213 704.067 607.555 704.588C606.921 705.087 606.603 705.857 606.603 706.9C606.603 708.895 607.907 709.892 610.513 709.892ZM623.173 695.68H626.505V698.604C627.185 697.607 628.137 696.87 629.361 696.394C630.608 695.918 632.047 695.68 633.679 695.68V698.366C631.934 698.366 630.438 698.649 629.191 699.216C627.944 699.783 627.083 700.678 626.607 701.902V712H623.173V695.68ZM643.043 712.51C641.388 712.51 640.108 712.034 639.201 711.082C638.317 710.13 637.875 708.781 637.875 707.036V698.332H635.393V695.68H637.875V690.784H641.343V695.68H645.355V698.332H641.343V706.798C641.343 707.886 641.547 708.657 641.955 709.11C642.386 709.563 643.156 709.79 644.267 709.79C644.924 709.79 645.582 709.643 646.239 709.348V712.068C645.378 712.363 644.312 712.51 643.043 712.51ZM649.47 686.874H652.904V697.924C654.468 696.088 656.553 695.17 659.16 695.17C661.336 695.17 662.956 695.748 664.022 696.904C665.087 698.06 665.62 699.613 665.62 701.562V712H662.186V701.902C662.186 699.25 660.916 697.924 658.378 697.924C657.29 697.924 656.27 698.185 655.318 698.706C654.388 699.205 653.584 699.975 652.904 701.018V712H649.47V686.874ZM669.176 700.474H688.08V703.296H669.176V700.474ZM698.433 712.51C697.073 712.51 695.724 712.385 694.387 712.136C693.072 711.909 691.996 711.592 691.157 711.184V708.056C693.333 709.076 695.679 709.586 698.195 709.586C701.731 709.586 703.499 708.396 703.499 706.016C703.499 705.2 703.306 704.543 702.921 704.044C702.536 703.545 701.98 703.115 701.255 702.752C700.53 702.367 699.351 701.845 697.719 701.188C695.475 700.281 693.854 699.284 692.857 698.196C691.86 697.108 691.361 695.737 691.361 694.082C691.361 692.835 691.701 691.736 692.381 690.784C693.061 689.809 694.013 689.061 695.237 688.54C696.461 687.996 697.866 687.724 699.453 687.724C700.745 687.724 701.912 687.826 702.955 688.03C703.998 688.234 705.018 688.563 706.015 689.016V692.008C704.043 691.124 702.048 690.682 700.031 690.682C698.399 690.682 697.152 690.977 696.291 691.566C695.43 692.155 694.999 692.994 694.999 694.082C694.999 694.83 695.18 695.465 695.543 695.986C695.928 696.485 696.484 696.938 697.209 697.346C697.957 697.731 699.056 698.219 700.507 698.808C702.116 699.465 703.386 700.089 704.315 700.678C705.244 701.267 705.947 701.993 706.423 702.854C706.922 703.693 707.171 704.747 707.171 706.016C707.171 708.079 706.434 709.677 704.961 710.81C703.488 711.943 701.312 712.51 698.433 712.51ZM716.246 712.51C714.274 712.51 712.687 712.011 711.486 711.014C710.307 709.994 709.718 708.623 709.718 706.9C709.718 705.087 710.284 703.693 711.418 702.718C712.574 701.721 714.206 701.222 716.314 701.222C718.558 701.222 720.462 701.675 722.026 702.582V701.732C722.026 700.44 721.629 699.488 720.836 698.876C720.065 698.241 718.841 697.924 717.163 697.924C716.166 697.924 715.192 698.026 714.24 698.23C713.31 698.411 712.472 698.672 711.724 699.012V696.224C712.404 695.907 713.288 695.657 714.376 695.476C715.464 695.272 716.518 695.17 717.538 695.17C720.235 695.17 722.23 695.771 723.522 696.972C724.836 698.151 725.494 699.794 725.494 701.902V712H722.264V710.164C721.561 710.935 720.722 711.524 719.748 711.932C718.796 712.317 717.628 712.51 716.246 712.51ZM717.096 709.892C718.184 709.892 719.17 709.677 720.054 709.246C720.938 708.815 721.595 708.215 722.026 707.444V705.234C720.552 704.282 718.909 703.806 717.096 703.806C715.781 703.806 714.795 704.067 714.138 704.588C713.503 705.087 713.185 705.857 713.185 706.9C713.185 708.895 714.489 709.892 717.096 709.892ZM730.877 698.332H728.395V695.68H730.877V692.484C730.877 690.603 731.41 689.175 732.475 688.2C733.54 687.203 734.968 686.704 736.759 686.704C737.688 686.704 738.561 686.84 739.377 687.112V689.968C738.742 689.673 738.085 689.526 737.405 689.526C736.34 689.526 735.558 689.787 735.059 690.308C734.56 690.807 734.311 691.6 734.311 692.688V695.68H738.391V698.332H734.311V712H730.877V698.332ZM750.717 712.51C747.703 712.51 745.334 711.762 743.611 710.266C741.911 708.747 741.061 706.617 741.061 703.874C741.061 701.199 741.821 699.08 743.339 697.516C744.881 695.952 747.068 695.17 749.901 695.17C751.783 695.17 753.381 695.533 754.695 696.258C756.01 696.961 756.996 697.947 757.653 699.216C758.333 700.463 758.673 701.891 758.673 703.5V705.2H744.325C744.439 706.741 745.085 707.897 746.263 708.668C747.465 709.416 749.085 709.79 751.125 709.79C752.168 709.79 753.222 709.699 754.287 709.518C755.353 709.314 756.293 709.053 757.109 708.736V711.49C756.384 711.785 755.421 712.023 754.219 712.204C753.041 712.408 751.873 712.51 750.717 712.51ZM755.443 702.786C755.398 701.245 754.888 700.055 753.913 699.216C752.961 698.355 751.601 697.924 749.833 697.924C748.111 697.924 746.773 698.366 745.821 699.25C744.869 700.134 744.371 701.313 744.325 702.786H755.443ZM768.717 712.51C767.062 712.51 765.781 712.034 764.875 711.082C763.991 710.13 763.549 708.781 763.549 707.036V698.332H761.067V695.68H763.549V690.784H767.017V695.68H771.029V698.332H767.017V706.798C767.017 707.886 767.221 708.657 767.629 709.11C768.059 709.563 768.83 709.79 769.941 709.79C770.598 709.79 771.255 709.643 771.913 709.348V712.068C771.051 712.363 769.986 712.51 768.717 712.51ZM777.25 718.732C776.026 718.732 775.006 718.607 774.19 718.358V715.672C774.78 715.899 775.505 716.012 776.366 716.012C777.16 716.012 777.783 715.808 778.236 715.4C778.69 715.015 779.098 714.38 779.46 713.496L780.242 711.592L773.102 695.68H776.638L782.078 708.226L787.144 695.68H790.68L783.336 713.836C782.656 715.536 781.84 716.771 780.888 717.542C779.959 718.335 778.746 718.732 777.25 718.732ZM793.057 700.474H811.961V703.296H793.057V700.474ZM827.618 712.51C825.17 712.51 822.994 712 821.09 710.98C819.186 709.96 817.701 708.521 816.636 706.662C815.57 704.781 815.038 702.605 815.038 700.134C815.038 697.663 815.57 695.487 816.636 693.606C817.701 691.725 819.186 690.274 821.09 689.254C822.994 688.234 825.17 687.724 827.618 687.724C830.904 687.724 833.636 688.54 835.812 690.172V693.504C833.84 691.781 831.21 690.92 827.924 690.92C826.133 690.92 824.524 691.294 823.096 692.042C821.668 692.79 820.546 693.867 819.73 695.272C818.936 696.655 818.54 698.275 818.54 700.134C818.54 701.993 818.936 703.625 819.73 705.03C820.523 706.435 821.622 707.512 823.028 708.26C824.433 709.008 826.02 709.382 827.788 709.382C829.85 709.382 831.539 708.963 832.854 708.124V701.902H828.332V699.08H836.322V709.96C835.256 710.844 833.998 711.49 832.548 711.898C831.12 712.306 829.476 712.51 827.618 712.51ZM840.056 695.68H843.388V698.604C844.068 697.607 845.02 696.87 846.244 696.394C847.49 695.918 848.93 695.68 850.562 695.68V698.366C848.816 698.366 847.32 698.649 846.074 699.216C844.827 699.783 843.966 700.678 843.49 701.902V712H840.056V695.68ZM861.582 712.51C858.568 712.51 856.199 711.762 854.476 710.266C852.776 708.747 851.926 706.617 851.926 703.874C851.926 701.199 852.686 699.08 854.204 697.516C855.746 695.952 857.933 695.17 860.766 695.17C862.648 695.17 864.246 695.533 865.56 696.258C866.875 696.961 867.861 697.947 868.518 699.216C869.198 700.463 869.538 701.891 869.538 703.5V705.2H855.19C855.304 706.741 855.95 707.897 857.128 708.668C858.33 709.416 859.95 709.79 861.99 709.79C863.033 709.79 864.087 709.699 865.152 709.518C866.218 709.314 867.158 709.053 867.974 708.736V711.49C867.249 711.785 866.286 712.023 865.084 712.204C863.906 712.408 862.738 712.51 861.582 712.51ZM866.308 702.786C866.263 701.245 865.753 700.055 864.778 699.216C863.826 698.355 862.466 697.924 860.698 697.924C858.976 697.924 857.638 698.366 856.686 699.25C855.734 700.134 855.236 701.313 855.19 702.786H866.308ZM882.268 712.51C879.253 712.51 876.885 711.762 875.162 710.266C873.462 708.747 872.612 706.617 872.612 703.874C872.612 701.199 873.371 699.08 874.89 697.516C876.431 695.952 878.619 695.17 881.452 695.17C883.333 695.17 884.931 695.533 886.246 696.258C887.561 696.961 888.547 697.947 889.204 699.216C889.884 700.463 890.224 701.891 890.224 703.5V705.2H875.876C875.989 706.741 876.635 707.897 877.814 708.668C879.015 709.416 880.636 709.79 882.676 709.79C883.719 709.79 884.773 709.699 885.838 709.518C886.903 709.314 887.844 709.053 888.66 708.736V711.49C887.935 711.785 886.971 712.023 885.77 712.204C884.591 712.408 883.424 712.51 882.268 712.51ZM886.994 702.786C886.949 701.245 886.439 700.055 885.464 699.216C884.512 698.355 883.152 697.924 881.384 697.924C879.661 697.924 878.324 698.366 877.372 699.25C876.42 700.134 875.921 701.313 875.876 702.786H886.994ZM893.978 695.68H897.31V698.026C898.08 697.051 899.021 696.337 900.132 695.884C901.265 695.408 902.444 695.17 903.668 695.17C905.844 695.17 907.464 695.748 908.53 696.904C909.595 698.06 910.128 699.613 910.128 701.562V712H906.694V701.902C906.694 699.25 905.424 697.924 902.886 697.924C901.798 697.924 900.778 698.185 899.826 698.706C898.896 699.205 898.092 699.975 897.412 701.018V712H893.978V695.68Z" fill="black"/>
<path d="M488.567 830.234H504.241V833.158H492.035V840.672H501.147V843.562H492.035V851.11H504.241V854H488.567V830.234ZM507.825 837.68H511.157V840.026C511.928 839.051 512.869 838.337 513.979 837.884C515.113 837.408 516.291 837.17 517.515 837.17C519.691 837.17 521.312 837.748 522.377 838.904C523.443 840.06 523.975 841.613 523.975 843.562V854H520.541V843.902C520.541 841.25 519.272 839.924 516.733 839.924C515.645 839.924 514.625 840.185 513.673 840.706C512.744 841.205 511.939 841.975 511.259 843.018V854H507.825V837.68ZM526.005 837.68H529.643L534.437 849.41L539.231 837.68H542.869L535.933 854H532.941L526.005 837.68ZM548.612 834.484C548.046 834.484 547.57 834.291 547.184 833.906C546.799 833.521 546.606 833.045 546.606 832.478C546.606 831.911 546.799 831.435 547.184 831.05C547.57 830.665 548.046 830.472 548.612 830.472C549.202 830.472 549.689 830.665 550.074 831.05C550.482 831.435 550.686 831.911 550.686 832.478C550.686 833.045 550.482 833.521 550.074 833.906C549.689 834.291 549.202 834.484 548.612 834.484ZM546.878 837.68H550.38V854H546.878V837.68ZM555.106 837.68H558.438V840.604C559.118 839.607 560.07 838.87 561.294 838.394C562.541 837.918 563.98 837.68 565.612 837.68V840.366C563.867 840.366 562.371 840.649 561.124 841.216C559.878 841.783 559.016 842.678 558.54 843.902V854H555.106V837.68ZM576.791 854.51C574.955 854.51 573.334 854.17 571.929 853.49C570.546 852.787 569.458 851.79 568.665 850.498C567.894 849.183 567.509 847.642 567.509 845.874C567.509 844.129 567.894 842.599 568.665 841.284C569.435 839.969 570.523 838.961 571.929 838.258C573.334 837.533 574.955 837.17 576.791 837.17C578.627 837.17 580.247 837.533 581.653 838.258C583.058 838.961 584.146 839.969 584.917 841.284C585.71 842.599 586.107 844.129 586.107 845.874C586.107 847.642 585.71 849.183 584.917 850.498C584.146 851.79 583.058 852.787 581.653 853.49C580.247 854.17 578.627 854.51 576.791 854.51ZM576.791 851.79C578.559 851.79 579.964 851.246 581.007 850.158C582.049 849.07 582.571 847.642 582.571 845.874C582.571 844.038 582.049 842.587 581.007 841.522C579.964 840.457 578.559 839.924 576.791 839.924C575.023 839.924 573.617 840.457 572.575 841.522C571.532 842.587 571.011 844.038 571.011 845.874C571.011 847.642 571.532 849.07 572.575 850.158C573.617 851.246 575.023 851.79 576.791 851.79ZM589.837 837.68H593.169V840.026C593.94 839.051 594.88 838.337 595.991 837.884C597.124 837.408 598.303 837.17 599.527 837.17C601.703 837.17 603.324 837.748 604.389 838.904C605.454 840.06 605.987 841.613 605.987 843.562V854H602.553V843.902C602.553 841.25 601.284 839.924 598.745 839.924C597.657 839.924 596.637 840.185 595.685 840.706C594.756 841.205 593.951 841.975 593.271 843.018V854H589.837V837.68ZM610.224 837.68H613.488V840.026C614.258 839.074 615.131 838.36 616.106 837.884C617.08 837.408 618.089 837.17 619.132 837.17C620.446 837.17 621.489 837.397 622.26 837.85C623.03 838.281 623.597 838.949 623.96 839.856C624.685 838.972 625.569 838.303 626.612 837.85C627.677 837.397 628.742 837.17 629.808 837.17C631.802 837.17 633.242 837.68 634.126 838.7C635.01 839.697 635.452 841.182 635.452 843.154V854H632.12V843.596C632.12 842.259 631.87 841.318 631.372 840.774C630.873 840.207 630.023 839.924 628.822 839.924C627.099 839.924 625.694 840.672 624.606 842.168C624.651 842.508 624.674 843.063 624.674 843.834V854H621.342V843.596C621.342 842.259 621.115 841.318 620.662 840.774C620.208 840.207 619.392 839.924 618.214 839.924C616.491 839.924 614.95 840.899 613.59 842.848V854H610.224V837.68ZM648.684 854.51C645.669 854.51 643.301 853.762 641.578 852.266C639.878 850.747 639.028 848.617 639.028 845.874C639.028 843.199 639.787 841.08 641.306 839.516C642.847 837.952 645.035 837.17 647.868 837.17C649.749 837.17 651.347 837.533 652.662 838.258C653.977 838.961 654.963 839.947 655.62 841.216C656.3 842.463 656.64 843.891 656.64 845.5V847.2H642.292C642.405 848.741 643.051 849.897 644.23 850.668C645.431 851.416 647.052 851.79 649.092 851.79C650.135 851.79 651.189 851.699 652.254 851.518C653.319 851.314 654.26 851.053 655.076 850.736V853.49C654.351 853.785 653.387 854.023 652.186 854.204C651.007 854.408 649.84 854.51 648.684 854.51ZM653.41 844.786C653.365 843.245 652.855 842.055 651.88 841.216C650.928 840.355 649.568 839.924 647.8 839.924C646.077 839.924 644.74 840.366 643.788 841.25C642.836 842.134 642.337 843.313 642.292 844.786H653.41ZM660.394 837.68H663.726V840.026C664.496 839.051 665.437 838.337 666.548 837.884C667.681 837.408 668.86 837.17 670.084 837.17C672.26 837.17 673.88 837.748 674.946 838.904C676.011 840.06 676.544 841.613 676.544 843.562V854H673.11V843.902C673.11 841.25 671.84 839.924 669.302 839.924C668.214 839.924 667.194 840.185 666.242 840.706C665.312 841.205 664.508 841.975 663.828 843.018V854H660.394V837.68ZM687.07 854.51C685.416 854.51 684.135 854.034 683.228 853.082C682.344 852.13 681.902 850.781 681.902 849.036V840.332H679.42V837.68H681.902V832.784H685.37V837.68H689.382V840.332H685.37V848.798C685.37 849.886 685.574 850.657 685.982 851.11C686.413 851.563 687.184 851.79 688.294 851.79C688.952 851.79 689.609 851.643 690.266 851.348V854.068C689.405 854.363 688.34 854.51 687.07 854.51ZM692.817 842.474H703.663V845.296H692.817V842.474ZM714.005 854.51C712.645 854.51 711.297 854.385 709.959 854.136C708.645 853.909 707.568 853.592 706.729 853.184V850.056C708.905 851.076 711.251 851.586 713.767 851.586C717.303 851.586 719.071 850.396 719.071 848.016C719.071 847.2 718.879 846.543 718.493 846.044C718.108 845.545 717.553 845.115 716.827 844.752C716.102 844.367 714.923 843.845 713.291 843.188C711.047 842.281 709.427 841.284 708.429 840.196C707.432 839.108 706.933 837.737 706.933 836.082C706.933 834.835 707.273 833.736 707.953 832.784C708.633 831.809 709.585 831.061 710.809 830.54C712.033 829.996 713.439 829.724 715.025 829.724C716.317 829.724 717.485 829.826 718.527 830.03C719.57 830.234 720.59 830.563 721.587 831.016V834.008C719.615 833.124 717.621 832.682 715.603 832.682C713.971 832.682 712.725 832.977 711.863 833.566C711.002 834.155 710.571 834.994 710.571 836.082C710.571 836.83 710.753 837.465 711.115 837.986C711.501 838.485 712.056 838.938 712.781 839.346C713.529 839.731 714.629 840.219 716.079 840.808C717.689 841.465 718.958 842.089 719.887 842.678C720.817 843.267 721.519 843.993 721.995 844.854C722.494 845.693 722.743 846.747 722.743 848.016C722.743 850.079 722.007 851.677 720.533 852.81C719.06 853.943 716.884 854.51 714.005 854.51ZM734.572 854.51C732.736 854.51 731.115 854.17 729.71 853.49C728.327 852.787 727.239 851.79 726.446 850.498C725.675 849.183 725.29 847.642 725.29 845.874C725.29 844.129 725.675 842.599 726.446 841.284C727.216 839.969 728.304 838.961 729.71 838.258C731.115 837.533 732.736 837.17 734.572 837.17C736.408 837.17 738.028 837.533 739.434 838.258C740.839 838.961 741.927 839.969 742.698 841.284C743.491 842.599 743.888 844.129 743.888 845.874C743.888 847.642 743.491 849.183 742.698 850.498C741.927 851.79 740.839 852.787 739.434 853.49C738.028 854.17 736.408 854.51 734.572 854.51ZM734.572 851.79C736.34 851.79 737.745 851.246 738.788 850.158C739.83 849.07 740.352 847.642 740.352 845.874C740.352 844.038 739.83 842.587 738.788 841.522C737.745 840.457 736.34 839.924 734.572 839.924C732.804 839.924 731.398 840.457 730.356 841.522C729.313 842.587 728.792 844.038 728.792 845.874C728.792 847.642 729.313 849.07 730.356 850.158C731.398 851.246 732.804 851.79 734.572 851.79ZM755.722 854.51C753.909 854.51 752.299 854.17 750.894 853.49C749.489 852.81 748.389 851.824 747.596 850.532C746.825 849.217 746.44 847.665 746.44 845.874C746.44 844.083 746.825 842.542 747.596 841.25C748.389 839.935 749.489 838.927 750.894 838.224C752.322 837.521 753.954 837.17 755.79 837.17C758.283 837.17 760.278 837.657 761.774 838.632V841.454C760.301 840.434 758.419 839.924 756.13 839.924C754.271 839.924 752.764 840.434 751.608 841.454C750.475 842.451 749.908 843.925 749.908 845.874C749.908 847.823 750.475 849.297 751.608 850.294C752.741 851.291 754.226 851.79 756.062 851.79C758.351 851.79 760.323 851.246 761.978 850.158V852.946C761.185 853.49 760.278 853.887 759.258 854.136C758.261 854.385 757.082 854.51 755.722 854.51ZM767.72 834.484C767.153 834.484 766.677 834.291 766.292 833.906C765.907 833.521 765.714 833.045 765.714 832.478C765.714 831.911 765.907 831.435 766.292 831.05C766.677 830.665 767.153 830.472 767.72 830.472C768.309 830.472 768.797 830.665 769.182 831.05C769.59 831.435 769.794 831.911 769.794 832.478C769.794 833.045 769.59 833.521 769.182 833.906C768.797 834.291 768.309 834.484 767.72 834.484ZM765.986 837.68H769.488V854H765.986V837.68ZM780.062 854.51C778.09 854.51 776.503 854.011 775.302 853.014C774.123 851.994 773.534 850.623 773.534 848.9C773.534 847.087 774.101 845.693 775.234 844.718C776.39 843.721 778.022 843.222 780.13 843.222C782.374 843.222 784.278 843.675 785.842 844.582V843.732C785.842 842.44 785.445 841.488 784.652 840.876C783.881 840.241 782.657 839.924 780.98 839.924C779.983 839.924 779.008 840.026 778.056 840.23C777.127 840.411 776.288 840.672 775.54 841.012V838.224C776.22 837.907 777.104 837.657 778.192 837.476C779.28 837.272 780.334 837.17 781.354 837.17C784.051 837.17 786.046 837.771 787.338 838.972C788.653 840.151 789.31 841.794 789.31 843.902V854H786.08V852.164C785.377 852.935 784.539 853.524 783.564 853.932C782.612 854.317 781.445 854.51 780.062 854.51ZM780.912 851.892C782 851.892 782.986 851.677 783.87 851.246C784.754 850.815 785.411 850.215 785.842 849.444V847.234C784.369 846.282 782.725 845.806 780.912 845.806C779.597 845.806 778.611 846.067 777.954 846.588C777.319 847.087 777.002 847.857 777.002 848.9C777.002 850.895 778.305 851.892 780.912 851.892ZM793.571 828.874H797.005V854H793.571V828.874ZM800.76 842.474H811.606V845.296H800.76V842.474ZM827.253 854.51C824.805 854.51 822.629 854 820.725 852.98C818.821 851.96 817.336 850.521 816.271 848.662C815.205 846.781 814.673 844.605 814.673 842.134C814.673 839.663 815.205 837.487 816.271 835.606C817.336 833.725 818.821 832.274 820.725 831.254C822.629 830.234 824.805 829.724 827.253 829.724C830.539 829.724 833.271 830.54 835.447 832.172V835.504C833.475 833.781 830.845 832.92 827.559 832.92C825.768 832.92 824.159 833.294 822.731 834.042C821.303 834.79 820.181 835.867 819.365 837.272C818.571 838.655 818.175 840.275 818.175 842.134C818.175 843.993 818.571 845.625 819.365 847.03C820.158 848.435 821.257 849.512 822.663 850.26C824.068 851.008 825.655 851.382 827.423 851.382C829.485 851.382 831.174 850.963 832.489 850.124V843.902H827.967V841.08H835.957V851.96C834.891 852.844 833.633 853.49 832.183 853.898C830.755 854.306 829.111 854.51 827.253 854.51ZM848.292 854.51C846.456 854.51 844.836 854.17 843.43 853.49C842.048 852.787 840.96 851.79 840.166 850.498C839.396 849.183 839.01 847.642 839.01 845.874C839.01 844.129 839.396 842.599 840.166 841.284C840.937 839.969 842.025 838.961 843.43 838.258C844.836 837.533 846.456 837.17 848.292 837.17C850.128 837.17 851.749 837.533 853.154 838.258C854.56 838.961 855.648 839.969 856.418 841.284C857.212 842.599 857.608 844.129 857.608 845.874C857.608 847.642 857.212 849.183 856.418 850.498C855.648 851.79 854.56 852.787 853.154 853.49C851.749 854.17 850.128 854.51 848.292 854.51ZM848.292 851.79C850.06 851.79 851.466 851.246 852.508 850.158C853.551 849.07 854.072 847.642 854.072 845.874C854.072 844.038 853.551 842.587 852.508 841.522C851.466 840.457 850.06 839.924 848.292 839.924C846.524 839.924 845.119 840.457 844.076 841.522C843.034 842.587 842.512 844.038 842.512 845.874C842.512 847.642 843.034 849.07 844.076 850.158C845.119 851.246 846.524 851.79 848.292 851.79ZM858.434 837.68H862.072L866.866 849.41L871.66 837.68H875.298L868.362 854H865.37L858.434 837.68ZM886.651 854.51C883.636 854.51 881.268 853.762 879.545 852.266C877.845 850.747 876.995 848.617 876.995 845.874C876.995 843.199 877.754 841.08 879.273 839.516C880.814 837.952 883.002 837.17 885.835 837.17C887.716 837.17 889.314 837.533 890.629 838.258C891.944 838.961 892.93 839.947 893.587 841.216C894.267 842.463 894.607 843.891 894.607 845.5V847.2H880.259C880.372 848.741 881.018 849.897 882.197 850.668C883.398 851.416 885.019 851.79 887.059 851.79C888.102 851.79 889.156 851.699 890.221 851.518C891.286 851.314 892.227 851.053 893.043 850.736V853.49C892.318 853.785 891.354 854.023 890.153 854.204C888.974 854.408 887.807 854.51 886.651 854.51ZM891.377 844.786C891.332 843.245 890.822 842.055 889.847 841.216C888.895 840.355 887.535 839.924 885.767 839.924C884.044 839.924 882.707 840.366 881.755 841.25C880.803 842.134 880.304 843.313 880.259 844.786H891.377ZM898.36 837.68H901.692V840.604C902.372 839.607 903.324 838.87 904.548 838.394C905.795 837.918 907.234 837.68 908.866 837.68V840.366C907.121 840.366 905.625 840.649 904.378 841.216C903.132 841.783 902.27 842.678 901.794 843.902V854H898.36V837.68ZM911.94 837.68H915.272V840.026C916.043 839.051 916.984 838.337 918.094 837.884C919.228 837.408 920.406 837.17 921.63 837.17C923.806 837.17 925.427 837.748 926.492 838.904C927.558 840.06 928.09 841.613 928.09 843.562V854H924.656V843.902C924.656 841.25 923.387 839.924 920.848 839.924C919.76 839.924 918.74 840.185 917.788 840.706C916.859 841.205 916.054 841.975 915.374 843.018V854H911.94V837.68ZM937.677 854.51C935.705 854.51 934.118 854.011 932.917 853.014C931.738 851.994 931.149 850.623 931.149 848.9C931.149 847.087 931.716 845.693 932.849 844.718C934.005 843.721 935.637 843.222 937.745 843.222C939.989 843.222 941.893 843.675 943.457 844.582V843.732C943.457 842.44 943.06 841.488 942.267 840.876C941.496 840.241 940.272 839.924 938.595 839.924C937.598 839.924 936.623 840.026 935.671 840.23C934.742 840.411 933.903 840.672 933.155 841.012V838.224C933.835 837.907 934.719 837.657 935.807 837.476C936.895 837.272 937.949 837.17 938.969 837.17C941.666 837.17 943.661 837.771 944.953 838.972C946.268 840.151 946.925 841.794 946.925 843.902V854H943.695V852.164C942.992 852.935 942.154 853.524 941.179 853.932C940.227 854.317 939.06 854.51 937.677 854.51ZM938.527 851.892C939.615 851.892 940.601 851.677 941.485 851.246C942.369 850.815 943.026 850.215 943.457 849.444V847.234C941.984 846.282 940.34 845.806 938.527 845.806C937.212 845.806 936.226 846.067 935.569 846.588C934.934 847.087 934.617 847.857 934.617 848.9C934.617 850.895 935.92 851.892 938.527 851.892ZM951.187 837.68H954.519V840.026C955.289 839.051 956.23 838.337 957.341 837.884C958.474 837.408 959.653 837.17 960.877 837.17C963.053 837.17 964.673 837.748 965.739 838.904C966.804 840.06 967.337 841.613 967.337 843.562V854H963.903V843.902C963.903 841.25 962.633 839.924 960.095 839.924C959.007 839.924 957.987 840.185 957.035 840.706C956.105 841.205 955.301 841.975 954.621 843.018V854H951.187V837.68ZM980.175 854.51C978.362 854.51 976.753 854.17 975.347 853.49C973.942 852.81 972.843 851.824 972.049 850.532C971.279 849.217 970.893 847.665 970.893 845.874C970.893 844.083 971.279 842.542 972.049 841.25C972.843 839.935 973.942 838.927 975.347 838.224C976.775 837.521 978.407 837.17 980.243 837.17C982.737 837.17 984.731 837.657 986.227 838.632V841.454C984.754 840.434 982.873 839.924 980.583 839.924C978.725 839.924 977.217 840.434 976.061 841.454C974.928 842.451 974.361 843.925 974.361 845.874C974.361 847.823 974.928 849.297 976.061 850.294C977.195 851.291 978.679 851.79 980.515 851.79C982.805 851.79 984.777 851.246 986.431 850.158V852.946C985.638 853.49 984.731 853.887 983.711 854.136C982.714 854.385 981.535 854.51 980.175 854.51ZM999.143 854.51C996.128 854.51 993.76 853.762 992.037 852.266C990.337 850.747 989.487 848.617 989.487 845.874C989.487 843.199 990.246 841.08 991.765 839.516C993.306 837.952 995.494 837.17 998.327 837.17C1000.21 837.17 1001.81 837.533 1003.12 838.258C1004.44 838.961 1005.42 839.947 1006.08 841.216C1006.76 842.463 1007.1 843.891 1007.1 845.5V847.2H992.751C992.864 848.741 993.51 849.897 994.689 850.668C995.89 851.416 997.511 851.79 999.551 851.79C1000.59 851.79 1001.65 851.699 1002.71 851.518C1003.78 851.314 1004.72 851.053 1005.54 850.736V853.49C1004.81 853.785 1003.85 854.023 1002.65 854.204C1001.47 854.408 1000.3 854.51 999.143 854.51ZM1003.87 844.786C1003.82 843.245 1003.31 842.055 1002.34 841.216C1001.39 840.355 1000.03 839.924 998.259 839.924C996.536 839.924 995.199 840.366 994.247 841.25C993.295 842.134 992.796 843.313 992.751 844.786H1003.87Z" fill="black"/>
<defs>
<filter id="filter0_d_35_1296" x="215.979" y="111.587" width="1008.04" height="358.042" filterUnits="userSpaceOnUse" color-interpolation-filters="sRGB">
<feFlood flood-opacity="0" result="BackgroundImageFix"/>
<feColorMatrix in="SourceAlpha" type="matrix" values="0 0 0 0 0 0 0 0 0 0 0 0 0 0 0 0 0 0 127 0" result="hardAlpha"/>
<feOffset dy="29.6084"/>
<feGaussianBlur stdDeviation="37.0104"/>
<feComposite in2="hardAlpha" operator="out"/>
<feColorMatrix type="matrix" values="0 0 0 0 0 0 0 0 0 0 0 0 0 0 0 0 0 0 0.15 0"/>
<feBlend mode="normal" in2="BackgroundImageFix" result="effect1_dropShadow_35_1296"/>
<feBlend mode="normal" in="SourceGraphic" in2="effect1_dropShadow_35_1296" result="shape"/>
</filter>
<linearGradient id="paint0_linear_35_1296" x1="11" y1="30.5" x2="1429" y2="30.5" gradientUnits="userSpaceOnUse">
<stop stop-color="#66A865"/>
<stop offset="1" stop-color="#8EC5DD"/>
</linearGradient>
</defs>
</svg>
