<svg width="1440" height="1024" viewBox="0 0 1440 1024" fill="none" xmlns="http://www.w3.org/2000/svg">
<rect width="1440" height="1024" fill="#FFF8E4"/>
<g filter="url(#filter0_d_35_1234)">
<path d="M290 185.608C290 169.256 303.256 156 319.608 156H1120.39C1136.74 156 1150 169.256 1150 185.608V336.392C1150 352.744 1136.74 366 1120.39 366H319.608C303.256 366 290 352.744 290 336.392V185.608Z" fill="white"/>
</g>
<path d="M362.544 246.54C359.352 246.54 356.916 246.024 355.236 244.992V240.744C356.724 241.776 358.764 242.292 361.356 242.292C363.372 242.292 364.932 241.812 366.036 240.852C367.14 239.868 367.692 238.38 367.692 236.388C367.692 234.396 367.14 232.908 366.036 231.924C364.932 230.94 363.372 230.448 361.356 230.448C358.86 230.448 356.868 230.976 355.38 232.032V227.784C356.22 227.256 357.264 226.86 358.512 226.596C359.76 226.332 361.104 226.2 362.544 226.2C365.904 226.2 368.532 227.1 370.428 228.9C372.348 230.676 373.308 233.172 373.308 236.388C373.308 239.604 372.348 242.1 370.428 243.876C368.532 245.652 365.904 246.54 362.544 246.54ZM365.151 224.364C362.847 224.364 361.695 223.2 361.695 220.872V218.244H366.591V220.008C366.591 220.344 366.663 220.584 366.807 220.728C366.927 220.848 367.167 220.908 367.527 220.908H375.735V224.364H365.151ZM382.863 246.54C380.655 246.54 378.891 245.988 377.571 244.884C376.275 243.78 375.627 242.22 375.627 240.204C375.627 238.188 376.335 236.604 377.751 235.452C379.191 234.3 381.159 233.724 383.655 233.724C385.983 233.724 387.975 234.108 389.631 234.876V234.12C389.631 232.824 389.199 231.864 388.335 231.24C387.495 230.616 386.127 230.304 384.231 230.304C383.055 230.304 381.903 230.424 380.775 230.664C379.647 230.904 378.639 231.24 377.751 231.672V227.568C378.543 227.184 379.635 226.86 381.027 226.596C382.419 226.332 383.823 226.2 385.239 226.2C386.847 226.2 388.347 226.44 389.739 226.92L391.143 225.3H397.083L393.519 229.44C394.551 230.616 395.067 232.164 395.067 234.084V246H389.631V238.836C388.239 238.116 386.607 237.756 384.735 237.756C383.511 237.756 382.611 237.96 382.035 238.368C381.483 238.776 381.207 239.412 381.207 240.276C381.207 241.068 381.459 241.668 381.963 242.076C382.491 242.46 383.319 242.652 384.447 242.652C385.239 242.652 385.911 242.532 386.463 242.292V246.072C385.527 246.384 384.327 246.54 382.863 246.54ZM408.232 246.54C405.256 246.54 402.904 245.712 401.176 244.056C399.448 242.4 398.584 239.976 398.584 236.784C398.584 233.448 399.58 230.856 401.572 229.008C403.564 227.136 406.312 226.2 409.816 226.2C413.44 226.2 416.104 227.04 417.808 228.72C419.536 230.4 420.4 232.608 420.4 235.344V246H414.964V235.308C414.964 233.724 414.556 232.524 413.74 231.708C412.948 230.868 411.64 230.448 409.816 230.448C408.088 230.448 406.72 230.988 405.712 232.068C404.704 233.148 404.2 234.72 404.2 236.784C404.2 238.68 404.608 240.072 405.424 240.96C406.264 241.848 407.536 242.292 409.24 242.292C410.152 242.292 410.968 242.16 411.688 241.896V246.072C410.752 246.384 409.6 246.54 408.232 246.54ZM415.698 252.336C415.698 251.904 415.614 251.592 415.446 251.4C415.278 251.232 414.978 251.148 414.546 251.148H413.358V247.692H417.138C418.434 247.692 419.334 247.956 419.838 248.484C420.318 249.012 420.558 249.924 420.558 251.22V255.864H415.698V252.336ZM666.509 288.444C666.509 285.78 667.397 283.74 669.173 282.324C670.973 280.908 673.385 280.2 676.409 280.2C679.433 280.2 681.833 280.908 683.609 282.324C685.385 283.74 686.273 285.78 686.273 288.444V300H680.801V288.408C680.801 287.088 680.417 286.104 679.649 285.456C678.905 284.784 677.825 284.448 676.409 284.448C674.969 284.448 673.865 284.784 673.097 285.456C672.353 286.104 671.981 287.088 671.981 288.408V291.144C672.269 290.712 672.689 290.376 673.241 290.136C673.817 289.872 674.453 289.74 675.149 289.74H677.957V293.916H674.861C674.021 293.916 673.325 294.18 672.773 294.708C672.245 295.236 671.981 295.92 671.981 296.76V300H666.509V288.444ZM669.652 274.908H676.348V271.092H680.128V274.908H682.54V271.092H686.284V278.364H669.652V274.908ZM697.948 300.54C696.34 300.54 694.756 300.372 693.196 300.036C691.636 299.724 690.34 299.28 689.308 298.704V288.588H698.416V292.584H694.672V295.68C695.416 296.088 696.508 296.292 697.948 296.292C701.764 296.292 703.672 294.3 703.672 290.316C703.672 288.276 703.12 286.788 702.016 285.852C700.912 284.916 699.052 284.448 696.436 284.448C695.236 284.448 694 284.58 692.728 284.844C691.48 285.084 690.424 285.432 689.56 285.888V281.64C690.544 281.184 691.732 280.836 693.124 280.596C694.516 280.332 695.968 280.2 697.48 280.2C701.344 280.2 704.272 281.088 706.264 282.864C708.28 284.616 709.288 287.1 709.288 290.316C709.288 293.484 708.304 295.98 706.336 297.804C704.368 299.628 701.572 300.54 697.948 300.54ZM720.237 300.54C718.629 300.54 717.045 300.372 715.485 300.036C713.925 299.724 712.629 299.28 711.597 298.704V288.588H720.705V292.584H716.961V295.68C717.705 296.088 718.797 296.292 720.237 296.292C724.053 296.292 725.961 294.3 725.961 290.316C725.961 288.276 725.409 286.788 724.305 285.852C723.201 284.916 721.341 284.448 718.725 284.448C717.525 284.448 716.289 284.58 715.017 284.844C713.769 285.084 712.713 285.432 711.849 285.888V281.64C712.833 281.184 714.021 280.836 715.413 280.596C716.805 280.332 718.257 280.2 719.769 280.2C723.633 280.2 726.561 281.088 728.553 282.864C730.569 284.616 731.577 287.1 731.577 290.316C731.577 293.484 730.593 295.98 728.625 297.804C726.657 299.628 723.861 300.54 720.237 300.54ZM737.27 288.732C736.07 288.732 735.206 288.468 734.678 287.94C734.15 287.388 733.886 286.56 733.886 285.456V282.648H738.782V284.196C738.782 284.508 738.854 284.736 738.998 284.88C739.142 285.024 739.394 285.096 739.754 285.096H744.002V288.732H737.27ZM737.27 298.452C736.07 298.452 735.206 298.176 734.678 297.624C734.15 297.072 733.886 296.244 733.886 295.14V292.332H738.782V293.88C738.782 294.192 738.854 294.42 738.998 294.564C739.142 294.708 739.394 294.78 739.754 294.78H744.002V298.452H737.27ZM752.237 300C750.917 300 749.897 299.628 749.177 298.884C748.481 298.116 748.133 297.06 748.133 295.716V283.296C748.133 280.464 748.961 278.412 750.617 277.14H744.677V272.928H757.529V276.78C756.137 277.332 755.129 278.112 754.505 279.12C753.881 280.128 753.569 281.484 753.569 283.188V294.24C753.569 294.816 753.689 295.224 753.929 295.464C754.169 295.704 754.577 295.824 755.153 295.824H756.413V300H752.237ZM766.662 300.54C765.246 300.54 763.806 300.396 762.342 300.108C760.902 299.844 759.762 299.436 758.922 298.884V294.708C759.978 295.332 761.154 295.812 762.45 296.148C763.77 296.484 764.958 296.652 766.014 296.652C767.286 296.652 768.21 296.532 768.786 296.292C769.386 296.028 769.686 295.572 769.686 294.924C769.686 294.348 769.398 293.904 768.822 293.592C768.27 293.28 767.226 292.884 765.69 292.404L764.79 292.116C762.726 291.468 761.202 290.688 760.218 289.776C759.234 288.864 758.742 287.616 758.742 286.032C758.742 284.184 759.486 282.756 760.974 281.748C762.462 280.716 764.466 280.2 766.986 280.2C768.354 280.2 769.674 280.344 770.946 280.632C772.218 280.92 773.238 281.292 774.006 281.748V286.032C773.238 285.504 772.278 285.084 771.126 284.772C769.998 284.436 768.882 284.268 767.778 284.268C765.45 284.268 764.286 284.856 764.286 286.032C764.286 286.608 764.562 287.052 765.114 287.364C765.666 287.676 766.65 288.048 768.066 288.48L769.362 288.876C770.874 289.356 772.05 289.884 772.89 290.46C773.754 291.036 774.354 291.684 774.69 292.404C775.026 293.124 775.194 294 775.194 295.032C775.194 296.688 774.474 298.02 773.034 299.028C771.618 300.036 769.494 300.54 766.662 300.54Z" fill="black"/>
<path d="M436.78 220.836H447.364C450.22 220.836 452.5 221.592 454.204 223.104C455.908 224.592 456.76 226.668 456.76 229.332C456.76 232.068 455.908 234.168 454.204 235.632C452.524 237.096 450.244 237.828 447.364 237.828H442.252V246H436.78V220.836ZM446.572 233.256C449.668 233.256 451.216 231.948 451.216 229.332C451.216 227.868 450.796 226.848 449.956 226.272C449.14 225.696 448.012 225.408 446.572 225.408H442.252V233.256H446.572ZM471.254 246.54C468.566 246.54 466.19 246.012 464.126 244.956C462.062 243.876 460.466 242.352 459.338 240.384C458.21 238.416 457.646 236.1 457.646 233.436C457.646 230.772 458.21 228.456 459.338 226.488C460.466 224.496 462.062 222.972 464.126 221.916C466.19 220.836 468.566 220.296 471.254 220.296C474.734 220.296 477.638 221.088 479.966 222.672V227.856C478.91 226.968 477.698 226.332 476.33 225.948C474.986 225.54 473.45 225.336 471.722 225.336C469.106 225.336 467.03 226.068 465.494 227.532C463.982 228.972 463.226 230.94 463.226 233.436C463.226 235.956 463.994 237.948 465.53 239.412C467.066 240.852 469.13 241.572 471.722 241.572C473.498 241.572 475.07 241.368 476.438 240.96C477.806 240.528 479.078 239.844 480.254 238.908V244.092C478.046 245.724 475.046 246.54 471.254 246.54ZM483.327 220.836H494.235C497.091 220.836 499.311 221.556 500.895 222.996C502.503 224.412 503.307 226.464 503.307 229.152C503.307 231.024 502.875 232.62 502.011 233.94C501.147 235.236 499.923 236.184 498.339 236.784L503.127 246H497.511L493.083 237.468H488.799V246H483.327V220.836ZM493.263 232.896C494.655 232.896 495.747 232.596 496.539 231.996C497.355 231.396 497.763 230.448 497.763 229.152C497.763 227.784 497.367 226.824 496.575 226.272C495.783 225.696 494.679 225.408 493.263 225.408H488.799V232.896H493.263ZM523.62 252.264C520.02 247.848 518.22 242.52 518.22 236.28C518.22 230.04 520.02 224.712 523.62 220.296H529.272C525.624 224.976 523.8 230.304 523.8 236.28C523.8 242.256 525.624 247.584 529.272 252.264H523.62ZM531.561 220.836H542.145C545.001 220.836 547.281 221.592 548.985 223.104C550.689 224.592 551.541 226.668 551.541 229.332C551.541 232.068 550.689 234.168 548.985 235.632C547.305 237.096 545.025 237.828 542.145 237.828H537.033V246H531.561V220.836ZM541.353 233.256C544.449 233.256 545.997 231.948 545.997 229.332C545.997 227.868 545.577 226.848 544.737 226.272C543.921 225.696 542.793 225.408 541.353 225.408H537.033V233.256H541.353ZM561.777 246.54C559.689 246.54 557.853 246.168 556.269 245.424C554.709 244.656 553.497 243.588 552.633 242.22C551.793 240.828 551.373 239.208 551.373 237.36C551.373 235.56 551.793 233.964 552.633 232.572C553.497 231.18 554.709 230.1 556.269 229.332C557.853 228.564 559.689 228.18 561.777 228.18C563.841 228.18 565.653 228.564 567.213 229.332C568.797 230.1 570.009 231.18 570.849 232.572C571.713 233.964 572.145 235.56 572.145 237.36C572.145 239.208 571.713 240.828 570.849 242.22C570.009 243.588 568.809 244.656 567.249 245.424C565.689 246.168 563.865 246.54 561.777 246.54ZM561.777 242.292C563.241 242.292 564.405 241.848 565.269 240.96C566.133 240.048 566.565 238.848 566.565 237.36C566.565 235.824 566.133 234.624 565.269 233.76C564.429 232.872 563.265 232.428 561.777 232.428C560.289 232.428 559.113 232.872 558.249 233.76C557.385 234.624 556.953 235.824 556.953 237.36C556.953 238.848 557.385 240.048 558.249 240.96C559.137 241.848 560.313 242.292 561.777 242.292ZM581.368 246.54C580.072 246.54 578.68 246.396 577.192 246.108C575.728 245.844 574.576 245.46 573.736 244.956V240.708C574.696 241.284 575.848 241.752 577.192 242.112C578.536 242.472 579.784 242.652 580.936 242.652C581.92 242.652 582.64 242.568 583.096 242.4C583.552 242.232 583.78 241.92 583.78 241.464C583.78 241.104 583.648 240.816 583.384 240.6C583.12 240.36 582.712 240.156 582.16 239.988C581.632 239.796 580.744 239.52 579.496 239.16C578.032 238.728 576.88 238.296 576.04 237.864C575.224 237.408 574.6 236.844 574.168 236.172C573.76 235.5 573.556 234.636 573.556 233.58C573.556 231.78 574.264 230.436 575.68 229.548C577.12 228.636 579.064 228.18 581.512 228.18C582.712 228.18 583.948 228.312 585.22 228.576C586.516 228.816 587.512 229.14 588.208 229.548V233.688C587.512 233.232 586.6 232.86 585.472 232.572C584.368 232.284 583.288 232.14 582.232 232.14C581.248 232.14 580.48 232.236 579.928 232.428C579.4 232.62 579.136 232.98 579.136 233.508C579.136 233.964 579.388 234.312 579.892 234.552C580.42 234.792 581.392 235.092 582.808 235.452L583.528 235.632C585.04 236.04 586.216 236.496 587.056 237C587.896 237.48 588.484 238.068 588.82 238.764C589.18 239.436 589.36 240.288 589.36 241.32C589.36 242.904 588.676 244.176 587.308 245.136C585.94 246.072 583.96 246.54 581.368 246.54ZM599.126 246.54C597.11 246.54 595.574 245.988 594.518 244.884C593.486 243.756 592.97 242.196 592.97 240.204V232.644H590.45V228.72H592.97V223.536H598.406V228.72H602.474V232.644H598.406V239.484C598.406 240.492 598.598 241.224 598.982 241.68C599.366 242.112 600.05 242.328 601.034 242.328C601.826 242.328 602.582 242.136 603.302 241.752V245.82C602.198 246.3 600.806 246.54 599.126 246.54ZM605.091 233.004H617.475V237.324H605.091V233.004ZM633.43 246.54C630.742 246.54 628.366 246.012 626.302 244.956C624.238 243.876 622.642 242.352 621.514 240.384C620.386 238.416 619.822 236.1 619.822 233.436C619.822 230.772 620.386 228.456 621.514 226.488C622.642 224.496 624.238 222.972 626.302 221.916C628.366 220.836 630.742 220.296 633.43 220.296C636.91 220.296 639.814 221.088 642.142 222.672V227.856C641.086 226.968 639.874 226.332 638.506 225.948C637.162 225.54 635.626 225.336 633.898 225.336C631.282 225.336 629.206 226.068 627.67 227.532C626.158 228.972 625.402 230.94 625.402 233.436C625.402 235.956 626.17 237.948 627.706 239.412C629.242 240.852 631.306 241.572 633.898 241.572C635.674 241.572 637.246 241.368 638.614 240.96C639.982 240.528 641.254 239.844 642.43 238.908V244.092C640.222 245.724 637.222 246.54 633.43 246.54ZM654.273 246.54C652.185 246.54 650.349 246.168 648.765 245.424C647.205 244.656 645.993 243.588 645.129 242.22C644.289 240.828 643.869 239.208 643.869 237.36C643.869 235.56 644.289 233.964 645.129 232.572C645.993 231.18 647.205 230.1 648.765 229.332C650.349 228.564 652.185 228.18 654.273 228.18C656.337 228.18 658.149 228.564 659.709 229.332C661.293 230.1 662.505 231.18 663.345 232.572C664.209 233.964 664.641 235.56 664.641 237.36C664.641 239.208 664.209 240.828 663.345 242.22C662.505 243.588 661.305 244.656 659.745 245.424C658.185 246.168 656.361 246.54 654.273 246.54ZM654.273 242.292C655.737 242.292 656.901 241.848 657.765 240.96C658.629 240.048 659.061 238.848 659.061 237.36C659.061 235.824 658.629 234.624 657.765 233.76C656.925 232.872 655.761 232.428 654.273 232.428C652.785 232.428 651.609 232.872 650.745 233.76C649.881 234.624 649.449 235.824 649.449 237.36C649.449 238.848 649.881 240.048 650.745 240.96C651.633 241.848 652.809 242.292 654.273 242.292ZM667.686 228.72H672.942V230.844C673.734 229.956 674.67 229.296 675.75 228.864C676.854 228.408 678.006 228.18 679.206 228.18C681.558 228.18 683.31 228.816 684.462 230.088C685.638 231.336 686.226 233.028 686.226 235.164V246H680.79V235.776C680.79 233.544 679.758 232.428 677.694 232.428C676.782 232.428 675.93 232.656 675.138 233.112C674.346 233.544 673.674 234.192 673.122 235.056V246H667.686V228.72ZM696.927 246.54C695.631 246.54 694.239 246.396 692.751 246.108C691.287 245.844 690.135 245.46 689.295 244.956V240.708C690.255 241.284 691.407 241.752 692.751 242.112C694.095 242.472 695.343 242.652 696.495 242.652C697.479 242.652 698.199 242.568 698.655 242.4C699.111 242.232 699.339 241.92 699.339 241.464C699.339 241.104 699.207 240.816 698.943 240.6C698.679 240.36 698.271 240.156 697.719 239.988C697.191 239.796 696.303 239.52 695.055 239.16C693.591 238.728 692.439 238.296 691.599 237.864C690.783 237.408 690.159 236.844 689.727 236.172C689.319 235.5 689.115 234.636 689.115 233.58C689.115 231.78 689.823 230.436 691.239 229.548C692.679 228.636 694.623 228.18 697.071 228.18C698.271 228.18 699.507 228.312 700.779 228.576C702.075 228.816 703.071 229.14 703.767 229.548V233.688C703.071 233.232 702.159 232.86 701.031 232.572C699.927 232.284 698.847 232.14 697.791 232.14C696.807 232.14 696.039 232.236 695.487 232.428C694.959 232.62 694.695 232.98 694.695 233.508C694.695 233.964 694.947 234.312 695.451 234.552C695.979 234.792 696.951 235.092 698.367 235.452L699.087 235.632C700.599 236.04 701.775 236.496 702.615 237C703.455 237.48 704.043 238.068 704.379 238.764C704.739 239.436 704.919 240.288 704.919 241.32C704.919 242.904 704.235 244.176 702.867 245.136C701.499 246.072 699.519 246.54 696.927 246.54ZM714.852 246.54C712.5 246.54 710.736 245.904 709.56 244.632C708.384 243.336 707.796 241.62 707.796 239.484V228.72H713.232V238.908C713.232 241.164 714.276 242.292 716.364 242.292C717.276 242.292 718.128 242.076 718.92 241.644C719.712 241.212 720.372 240.564 720.9 239.7V228.72H726.336V246H721.08V243.912C720.312 244.8 719.376 245.46 718.272 245.892C717.192 246.324 716.052 246.54 714.852 246.54ZM730.124 228.72H735.2V230.808C735.944 229.968 736.808 229.32 737.792 228.864C738.776 228.408 739.796 228.18 740.852 228.18C742.172 228.18 743.228 228.396 744.02 228.828C744.812 229.236 745.436 229.848 745.892 230.664C746.636 229.872 747.536 229.26 748.592 228.828C749.672 228.396 750.74 228.18 751.796 228.18C754.004 228.18 755.576 228.744 756.512 229.872C757.472 231 757.952 232.632 757.952 234.768V246H752.768V235.524C752.768 234.42 752.552 233.628 752.12 233.148C751.688 232.668 750.992 232.428 750.032 232.428C748.688 232.428 747.608 232.956 746.792 234.012C746.84 234.78 746.864 235.404 746.864 235.884V246H741.644V235.344C741.644 234.288 741.452 233.544 741.068 233.112C740.708 232.656 740.072 232.428 739.16 232.428C737.744 232.428 736.484 233.232 735.38 234.84V246H730.124V228.72ZM771.49 246.54C768.178 246.54 765.574 245.748 763.678 244.164C761.782 242.556 760.834 240.312 760.834 237.432C760.834 234.576 761.674 232.32 763.354 230.664C765.058 229.008 767.482 228.18 770.626 228.18C772.69 228.18 774.442 228.564 775.882 229.332C777.322 230.1 778.414 231.168 779.158 232.536C779.902 233.88 780.274 235.404 780.274 237.108V239.304H766.018C766.402 241.512 768.466 242.616 772.21 242.616C773.314 242.616 774.454 242.52 775.63 242.328C776.806 242.136 777.826 241.872 778.69 241.536V245.352C777.85 245.712 776.77 246 775.45 246.216C774.13 246.432 772.81 246.54 771.49 246.54ZM775.126 235.776C775.054 234.624 774.622 233.736 773.83 233.112C773.038 232.464 771.946 232.14 770.554 232.14C769.186 232.14 768.106 232.464 767.314 233.112C766.522 233.76 766.09 234.648 766.018 235.776H775.126ZM783.28 228.72H788.536V231.204C789.232 230.364 790.204 229.728 791.452 229.296C792.7 228.84 794.116 228.612 795.7 228.612V232.752C794.044 232.752 792.58 233.004 791.308 233.508C790.06 234.012 789.196 234.78 788.716 235.812V246H783.28V228.72ZM810.597 220.836H821.505C824.361 220.836 826.581 221.556 828.165 222.996C829.773 224.412 830.577 226.464 830.577 229.152C830.577 231.024 830.145 232.62 829.281 233.94C828.417 235.236 827.193 236.184 825.609 236.784L830.397 246H824.781L820.353 237.468H816.069V246H810.597V220.836ZM820.533 232.896C821.925 232.896 823.017 232.596 823.809 231.996C824.625 231.396 825.033 230.448 825.033 229.152C825.033 227.784 824.637 226.824 823.845 226.272C823.053 225.696 821.949 225.408 820.533 225.408H816.069V232.896H820.533ZM843.56 246.54C840.248 246.54 837.644 245.748 835.748 244.164C833.852 242.556 832.904 240.312 832.904 237.432C832.904 234.576 833.744 232.32 835.424 230.664C837.128 229.008 839.552 228.18 842.696 228.18C844.76 228.18 846.512 228.564 847.952 229.332C849.392 230.1 850.484 231.168 851.228 232.536C851.972 233.88 852.344 235.404 852.344 237.108V239.304H838.088C838.472 241.512 840.536 242.616 844.28 242.616C845.384 242.616 846.524 242.52 847.7 242.328C848.876 242.136 849.896 241.872 850.76 241.536V245.352C849.92 245.712 848.84 246 847.52 246.216C846.2 246.432 844.88 246.54 843.56 246.54ZM847.196 235.776C847.124 234.624 846.692 233.736 845.9 233.112C845.108 232.464 844.016 232.14 842.624 232.14C841.256 232.14 840.176 232.464 839.384 233.112C838.592 233.76 838.16 234.648 838.088 235.776H847.196ZM864.855 246.54C861.735 246.54 859.251 245.748 857.403 244.164C855.555 242.556 854.631 240.3 854.631 237.396C854.631 234.492 855.555 232.236 857.403 230.628C859.275 228.996 861.771 228.18 864.891 228.18C867.723 228.18 869.979 228.708 871.659 229.764V234.048C870.891 233.496 869.991 233.088 868.959 232.824C867.951 232.56 866.883 232.428 865.755 232.428C864.075 232.428 862.731 232.836 861.723 233.652C860.715 234.468 860.211 235.716 860.211 237.396C860.211 239.076 860.703 240.324 861.687 241.14C862.695 241.932 864.039 242.328 865.719 242.328C868.047 242.328 870.099 241.764 871.875 240.636V244.884C870.099 245.988 867.759 246.54 864.855 246.54ZM878.735 253.128C878.015 253.128 877.271 253.08 876.503 252.984C875.759 252.888 875.195 252.756 874.811 252.588V248.52C875.507 248.784 876.275 248.916 877.115 248.916C877.979 248.916 878.627 248.724 879.059 248.34C879.515 247.956 879.887 247.356 880.175 246.54L880.751 245.064L873.263 228.72H878.735L883.631 240.636L888.275 228.72H893.711L886.367 247.188C885.551 249.228 884.543 250.728 883.343 251.688C882.143 252.648 880.607 253.128 878.735 253.128ZM903.913 246.54C900.793 246.54 898.309 245.748 896.461 244.164C894.613 242.556 893.689 240.3 893.689 237.396C893.689 234.492 894.613 232.236 896.461 230.628C898.333 228.996 900.829 228.18 903.949 228.18C906.781 228.18 909.037 228.708 910.717 229.764V234.048C909.949 233.496 909.049 233.088 908.017 232.824C907.009 232.56 905.941 232.428 904.813 232.428C903.133 232.428 901.789 232.836 900.781 233.652C899.773 234.468 899.269 235.716 899.269 237.396C899.269 239.076 899.761 240.324 900.745 241.14C901.753 241.932 903.097 242.328 904.777 242.328C907.105 242.328 909.157 241.764 910.933 240.636V244.884C909.157 245.988 906.817 246.54 903.913 246.54ZM913.956 219.396H919.392V246H913.956V219.396ZM933.103 246.54C929.791 246.54 927.187 245.748 925.291 244.164C923.395 242.556 922.447 240.312 922.447 237.432C922.447 234.576 923.287 232.32 924.967 230.664C926.671 229.008 929.095 228.18 932.239 228.18C934.303 228.18 936.055 228.564 937.495 229.332C938.935 230.1 940.027 231.168 940.771 232.536C941.515 233.88 941.887 235.404 941.887 237.108V239.304H927.631C928.015 241.512 930.079 242.616 933.823 242.616C934.927 242.616 936.067 242.52 937.243 242.328C938.419 242.136 939.439 241.872 940.303 241.536V245.352C939.463 245.712 938.383 246 937.063 246.216C935.743 246.432 934.423 246.54 933.103 246.54ZM936.739 235.776C936.667 234.624 936.235 233.736 935.443 233.112C934.651 232.464 933.559 232.14 932.167 232.14C930.799 232.14 929.719 232.464 928.927 233.112C928.135 233.76 927.703 234.648 927.631 235.776H936.739ZM953.317 246.54C951.541 246.54 949.957 246.168 948.565 245.424C947.197 244.656 946.117 243.588 945.325 242.22C944.557 240.828 944.173 239.22 944.173 237.396C944.173 235.596 944.557 234 945.325 232.608C946.093 231.216 947.173 230.136 948.565 229.368C949.957 228.576 951.541 228.18 953.317 228.18C954.613 228.18 955.801 228.36 956.881 228.72C957.961 229.08 958.873 229.596 959.617 230.268V219.396H965.053V246H959.797V244.128C958.909 244.968 957.937 245.58 956.881 245.964C955.849 246.348 954.661 246.54 953.317 246.54ZM954.721 242.328C955.849 242.328 956.845 242.028 957.709 241.428C958.597 240.828 959.233 240.024 959.617 239.016V235.74C959.281 234.756 958.657 233.964 957.745 233.364C956.857 232.74 955.849 232.428 954.721 232.428C953.257 232.428 952.057 232.884 951.121 233.796C950.209 234.708 949.753 235.908 949.753 237.396C949.753 238.884 950.209 240.084 951.121 240.996C952.057 241.884 953.257 242.328 954.721 242.328ZM981.421 220.836H992.329C995.185 220.836 997.405 221.556 998.989 222.996C1000.6 224.412 1001.4 226.464 1001.4 229.152C1001.4 231.024 1000.97 232.62 1000.1 233.94C999.241 235.236 998.017 236.184 996.433 236.784L1001.22 246H995.605L991.177 237.468H986.893V246H981.421V220.836ZM991.357 232.896C992.749 232.896 993.841 232.596 994.633 231.996C995.449 231.396 995.857 230.448 995.857 229.152C995.857 227.784 995.461 226.824 994.669 226.272C993.877 225.696 992.773 225.408 991.357 225.408H986.893V232.896H991.357ZM1014.38 246.54C1011.07 246.54 1008.47 245.748 1006.57 244.164C1004.68 242.556 1003.73 240.312 1003.73 237.432C1003.73 234.576 1004.57 232.32 1006.25 230.664C1007.95 229.008 1010.38 228.18 1013.52 228.18C1015.58 228.18 1017.34 228.564 1018.78 229.332C1020.22 230.1 1021.31 231.168 1022.05 232.536C1022.8 233.88 1023.17 235.404 1023.17 237.108V239.304H1008.91C1009.3 241.512 1011.36 242.616 1015.1 242.616C1016.21 242.616 1017.35 242.52 1018.52 242.328C1019.7 242.136 1020.72 241.872 1021.58 241.536V245.352C1020.74 245.712 1019.66 246 1018.34 246.216C1017.02 246.432 1015.7 246.54 1014.38 246.54ZM1018.02 235.776C1017.95 234.624 1017.52 233.736 1016.72 233.112C1015.93 232.464 1014.84 232.14 1013.45 232.14C1012.08 232.14 1011 232.464 1010.21 233.112C1009.42 233.76 1008.98 234.648 1008.91 235.776H1018.02ZM1033.27 246.54C1031.97 246.54 1030.58 246.396 1029.09 246.108C1027.63 245.844 1026.47 245.46 1025.63 244.956V240.708C1026.59 241.284 1027.75 241.752 1029.09 242.112C1030.43 242.472 1031.68 242.652 1032.83 242.652C1033.82 242.652 1034.54 242.568 1034.99 242.4C1035.45 242.232 1035.68 241.92 1035.68 241.464C1035.68 241.104 1035.55 240.816 1035.28 240.6C1035.02 240.36 1034.61 240.156 1034.06 239.988C1033.53 239.796 1032.64 239.52 1031.39 239.16C1029.93 238.728 1028.78 238.296 1027.94 237.864C1027.12 237.408 1026.5 236.844 1026.07 236.172C1025.66 235.5 1025.45 234.636 1025.45 233.58C1025.45 231.78 1026.16 230.436 1027.58 229.548C1029.02 228.636 1030.96 228.18 1033.41 228.18C1034.61 228.18 1035.85 228.312 1037.12 228.576C1038.41 228.816 1039.41 229.14 1040.11 229.548V233.688C1039.41 233.232 1038.5 232.86 1037.37 232.572C1036.27 232.284 1035.19 232.14 1034.13 232.14C1033.15 232.14 1032.38 232.236 1031.83 232.428C1031.3 232.62 1031.03 232.98 1031.03 233.508C1031.03 233.964 1031.29 234.312 1031.79 234.552C1032.32 234.792 1033.29 235.092 1034.71 235.452L1035.43 235.632C1036.94 236.04 1038.11 236.496 1038.95 237C1039.79 237.48 1040.38 238.068 1040.72 238.764C1041.08 239.436 1041.26 240.288 1041.26 241.32C1041.26 242.904 1040.57 244.176 1039.21 245.136C1037.84 246.072 1035.86 246.54 1033.27 246.54ZM1047.3 226.056C1046.46 226.056 1045.76 225.78 1045.18 225.228C1044.6 224.676 1044.32 223.98 1044.32 223.14C1044.32 222.324 1044.6 221.64 1045.18 221.088C1045.76 220.512 1046.46 220.224 1047.3 220.224C1048.14 220.224 1048.85 220.512 1049.43 221.088C1050 221.64 1050.29 222.324 1050.29 223.14C1050.29 223.98 1050 224.676 1049.43 225.228C1048.85 225.78 1048.14 226.056 1047.3 226.056ZM1044.57 228.72H1050.04V246H1044.57V228.72ZM1054.02 228.72H1059.27V230.844C1060.07 229.956 1061 229.296 1062.08 228.864C1063.19 228.408 1064.34 228.18 1065.54 228.18C1067.89 228.18 1069.64 228.816 1070.79 230.088C1071.97 231.336 1072.56 233.028 1072.56 235.164V246H1067.12V235.776C1067.12 233.544 1066.09 232.428 1064.03 232.428C1063.11 232.428 1062.26 232.656 1061.47 233.112C1060.68 233.544 1060.01 234.192 1059.45 235.056V246H1054.02V228.72ZM1074.73 252.264C1078.37 247.584 1080.2 242.256 1080.2 236.28C1080.2 230.304 1078.37 224.976 1074.73 220.296H1080.38C1083.98 224.712 1085.78 230.04 1085.78 236.28C1085.78 242.52 1083.98 247.848 1080.38 252.264H1074.73Z" fill="#801D1D"/>
<rect y="3" width="1440" height="55" rx="27.5" fill="white"/>
<rect x="11" y="14" width="1418" height="33" rx="16.5" fill="url(#paint0_linear_35_1234)"/>
<defs>
<filter id="filter0_d_35_1234" x="215.979" y="111.587" width="1008.04" height="358.042" filterUnits="userSpaceOnUse" color-interpolation-filters="sRGB">
<feFlood flood-opacity="0" result="BackgroundImageFix"/>
<feColorMatrix in="SourceAlpha" type="matrix" values="0 0 0 0 0 0 0 0 0 0 0 0 0 0 0 0 0 0 127 0" result="hardAlpha"/>
<feOffset dy="29.6084"/>
<feGaussianBlur stdDeviation="37.0104"/>
<feComposite in2="hardAlpha" operator="out"/>
<feColorMatrix type="matrix" values="0 0 0 0 0 0 0 0 0 0 0 0 0 0 0 0 0 0 0.15 0"/>
<feBlend mode="normal" in2="BackgroundImageFix" result="effect1_dropShadow_35_1234"/>
<feBlend mode="normal" in="SourceGraphic" in2="effect1_dropShadow_35_1234" result="shape"/>
</filter>
<linearGradient id="paint0_linear_35_1234" x1="11" y1="30.5" x2="1429" y2="30.5" gradientUnits="userSpaceOnUse">
<stop stop-color="#66A865"/>
<stop offset="1" stop-color="#8EC5DD"/>
</linearGradient>
</defs>
</svg>
