<svg width="1440" height="1024" viewBox="0 0 1440 1024" fill="none" xmlns="http://www.w3.org/2000/svg">
<rect width="1440" height="1024" fill="#FFF8E4"/>
<g filter="url(#filter0_d_35_1352)">
<path d="M290 185.608C290 169.256 303.256 156 319.608 156H1120.39C1136.74 156 1150 169.256 1150 185.608V336.392C1150 352.744 1136.74 366 1120.39 366H319.608C303.256 366 290 352.744 290 336.392V185.608Z" fill="white"/>
</g>
<path d="M476.626 273.54C474.706 273.54 473.038 273.24 471.622 272.64C470.23 272.04 469.162 271.2 468.418 270.12C467.674 269.04 467.302 267.816 467.302 266.448V265.548C467.302 264.684 467.47 263.916 467.806 263.244C468.142 262.548 468.61 261.768 469.21 260.904C469.594 260.376 469.87 259.956 470.038 259.644C470.206 259.308 470.29 258.996 470.29 258.708C470.29 258.036 469.882 257.7 469.066 257.7H467.05V253.74H472.27C473.35 253.74 474.214 254.052 474.862 254.676C475.51 255.3 475.834 256.116 475.834 257.124C475.834 257.844 475.702 258.516 475.438 259.14C475.174 259.74 474.778 260.436 474.25 261.228C473.746 262.02 473.362 262.692 473.098 263.244C472.858 263.796 472.738 264.396 472.738 265.044V265.8C472.738 266.928 473.062 267.792 473.71 268.392C474.382 268.992 475.354 269.292 476.626 269.292C479.146 269.292 480.406 268.08 480.406 265.656V253.74H485.878V265.08C485.878 267.696 485.074 269.76 483.466 271.272C481.882 272.784 479.602 273.54 476.626 273.54ZM498.818 273.54C495.818 273.54 493.418 273 491.618 271.92C489.818 270.816 488.918 269.244 488.918 267.204C488.918 266.268 489.17 265.428 489.674 264.684C490.202 263.916 490.898 263.364 491.762 263.028C490.97 262.62 490.322 262.032 489.818 261.264C489.338 260.496 489.098 259.656 489.098 258.744C489.098 257.064 489.686 255.72 490.862 254.712C492.062 253.704 493.79 253.2 496.046 253.2C496.742 253.2 497.426 253.248 498.098 253.344C498.794 253.44 499.322 253.548 499.682 253.668V257.772C499.346 257.628 498.938 257.508 498.458 257.412C498.002 257.316 497.582 257.268 497.198 257.268C495.518 257.268 494.678 257.892 494.678 259.14C494.678 259.788 494.882 260.28 495.29 260.616C495.722 260.928 496.382 261.084 497.27 261.084H499.682V264.936H497.27C495.446 264.936 494.534 265.656 494.534 267.096C494.534 267.864 494.894 268.464 495.614 268.896C496.358 269.304 497.426 269.508 498.818 269.508C500.498 269.508 501.722 269.172 502.49 268.5C503.282 267.804 503.678 266.772 503.678 265.404V253.704H509.15V265.368C509.15 266.736 508.802 268.044 508.106 269.292C507.41 270.516 506.294 271.536 504.758 272.352C503.222 273.144 501.242 273.54 498.818 273.54ZM515.575 261.732C514.375 261.732 513.511 261.468 512.983 260.94C512.455 260.388 512.191 259.56 512.191 258.456V255.648H517.087V257.196C517.087 257.508 517.159 257.736 517.303 257.88C517.447 258.024 517.699 258.096 518.059 258.096H522.307V261.732H515.575ZM515.575 271.452C514.375 271.452 513.511 271.176 512.983 270.624C512.455 270.072 512.191 269.244 512.191 268.14V265.332H517.087V266.88C517.087 267.192 517.159 267.42 517.303 267.564C517.447 267.708 517.699 267.78 518.059 267.78H522.307V271.452H515.575ZM534.249 273.54C531.273 273.54 528.921 272.724 527.193 271.092C525.465 269.436 524.601 267.012 524.601 263.82C524.601 261.636 524.913 259.752 525.537 258.168C526.161 256.56 527.037 255.336 528.165 254.496C529.317 253.632 530.637 253.2 532.125 253.2C533.013 253.2 533.781 253.368 534.429 253.704C535.101 254.04 535.641 254.508 536.049 255.108C536.505 254.46 537.129 253.98 537.921 253.668C538.737 253.356 539.649 253.2 540.657 253.2C542.481 253.2 543.897 253.764 544.905 254.892C545.913 255.996 546.417 257.46 546.417 259.284V273H540.981V259.824C540.981 259.008 540.849 258.408 540.585 258.024C540.345 257.64 539.925 257.448 539.325 257.448C538.269 257.448 537.609 258.096 537.345 259.392H534.789C534.621 258.096 534.057 257.448 533.097 257.448C532.233 257.448 531.537 257.988 531.009 259.068C530.481 260.148 530.217 261.732 530.217 263.82C530.217 265.692 530.613 267.072 531.405 267.96C532.221 268.848 533.505 269.292 535.257 269.292C536.169 269.292 536.985 269.16 537.705 268.896V273.072C536.769 273.384 535.617 273.54 534.249 273.54ZM529.764 247.908H546.432V251.364H529.764V247.908ZM559.14 273.54C556.164 273.54 553.812 272.712 552.084 271.056C550.356 269.4 549.492 266.976 549.492 263.784C549.492 260.448 550.488 257.856 552.48 256.008C554.472 254.136 557.22 253.2 560.724 253.2C564.348 253.2 567.012 254.04 568.716 255.72C570.444 257.4 571.308 259.608 571.308 262.344V273H565.872V262.308C565.872 260.724 565.464 259.524 564.648 258.708C563.856 257.868 562.548 257.448 560.724 257.448C558.996 257.448 557.628 257.988 556.62 259.068C555.612 260.148 555.108 261.72 555.108 263.784C555.108 265.68 555.516 267.072 556.332 267.96C557.172 268.848 558.444 269.292 560.148 269.292C561.06 269.292 561.876 269.16 562.596 268.896V273.072C561.66 273.384 560.508 273.54 559.14 273.54ZM579.206 273C577.886 273 576.866 272.628 576.146 271.884C575.45 271.116 575.102 270.06 575.102 268.716V253.74H580.574V267.24C580.574 267.816 580.694 268.224 580.934 268.464C581.174 268.704 581.57 268.824 582.122 268.824H583.382V273H579.206ZM595.173 273.54C593.277 273.54 591.621 273.24 590.205 272.64C588.789 272.04 587.709 271.2 586.965 270.12C586.221 269.04 585.849 267.816 585.849 266.448V265.548C585.849 264.684 586.017 263.904 586.353 263.208C586.689 262.512 587.157 261.732 587.757 260.868C588.141 260.34 588.417 259.92 588.585 259.608C588.753 259.272 588.837 258.972 588.837 258.708C588.837 258.036 588.429 257.7 587.613 257.7H585.597V253.74H590.817C591.897 253.74 592.761 254.052 593.409 254.676C594.057 255.3 594.381 256.116 594.381 257.124C594.381 257.844 594.249 258.516 593.985 259.14C593.721 259.74 593.325 260.436 592.797 261.228C592.293 262.02 591.909 262.692 591.645 263.244C591.405 263.796 591.285 264.396 591.285 265.044V265.8C591.285 266.928 591.621 267.792 592.293 268.392C592.965 268.992 593.925 269.292 595.173 269.292C596.493 269.292 597.489 268.932 598.161 268.212C598.857 267.468 599.205 266.4 599.205 265.008C599.205 262.08 598.065 260.616 595.785 260.616V257.988L599.277 253.2H605.073L601.149 258.564C602.421 259.212 603.321 260.064 603.849 261.12C604.401 262.152 604.677 263.472 604.677 265.08C604.677 266.736 604.293 268.2 603.525 269.472C602.781 270.744 601.689 271.74 600.249 272.46C598.809 273.18 597.117 273.54 595.173 273.54ZM587.773 247.908H594.469V244.092H598.249V247.908H600.661V244.092H604.405V251.364H587.773V247.908ZM597.205 240.068C597.205 239.804 597.169 239.624 597.097 239.528C597.001 239.432 596.809 239.384 596.521 239.384H594.973V235.892H598.213C599.749 235.892 600.517 236.552 600.517 237.872V238.808H606.637V242.012H597.205V240.068ZM616.069 273.54C614.461 273.54 612.877 273.372 611.317 273.036C609.757 272.724 608.461 272.28 607.429 271.704V261.588H616.537V265.584H612.793V268.68C613.537 269.088 614.629 269.292 616.069 269.292C619.885 269.292 621.793 267.3 621.793 263.316C621.793 261.276 621.241 259.788 620.137 258.852C619.033 257.916 617.173 257.448 614.557 257.448C613.357 257.448 612.121 257.58 610.849 257.844C609.601 258.084 608.545 258.432 607.681 258.888V254.64C608.665 254.184 609.853 253.836 611.245 253.596C612.637 253.332 614.089 253.2 615.601 253.2C619.465 253.2 622.393 254.088 624.385 255.864C626.401 257.616 627.409 260.1 627.409 263.316C627.409 266.484 626.425 268.98 624.457 270.804C622.489 272.628 619.693 273.54 616.069 273.54ZM630.438 261.444C630.438 258.78 631.326 256.74 633.102 255.324C634.902 253.908 637.314 253.2 640.338 253.2C643.362 253.2 645.762 253.908 647.538 255.324C649.314 256.74 650.202 258.78 650.202 261.444V273H644.73V261.408C644.73 260.088 644.346 259.104 643.578 258.456C642.834 257.784 641.754 257.448 640.338 257.448C638.898 257.448 637.794 257.784 637.026 258.456C636.282 259.104 635.91 260.088 635.91 261.408V264.144C636.198 263.712 636.618 263.376 637.17 263.136C637.746 262.872 638.382 262.74 639.078 262.74H641.886V266.916H638.79C637.95 266.916 637.254 267.18 636.702 267.708C636.174 268.236 635.91 268.92 635.91 269.76V273H630.438V261.444ZM660.546 273.54C657.354 273.54 654.918 273.024 653.238 271.992V267.744C654.726 268.776 656.766 269.292 659.358 269.292C661.374 269.292 662.934 268.812 664.038 267.852C665.142 266.868 665.694 265.38 665.694 263.388C665.694 261.396 665.142 259.908 664.038 258.924C662.934 257.94 661.374 257.448 659.358 257.448C656.862 257.448 654.87 257.976 653.382 259.032V254.784C654.222 254.256 655.266 253.86 656.514 253.596C657.762 253.332 659.106 253.2 660.546 253.2C663.906 253.2 666.534 254.1 668.43 255.9C670.35 257.676 671.31 260.172 671.31 263.388C671.31 266.604 670.35 269.1 668.43 270.876C666.534 272.652 663.906 273.54 660.546 273.54ZM681.549 273.54C680.133 273.54 678.693 273.396 677.229 273.108C675.789 272.844 674.649 272.436 673.809 271.884V267.708C674.865 268.332 676.041 268.812 677.337 269.148C678.657 269.484 679.845 269.652 680.901 269.652C682.173 269.652 683.097 269.532 683.673 269.292C684.273 269.028 684.573 268.572 684.573 267.924C684.573 267.348 684.285 266.904 683.709 266.592C683.157 266.28 682.113 265.884 680.577 265.404L679.677 265.116C677.613 264.468 676.089 263.688 675.105 262.776C674.121 261.864 673.629 260.616 673.629 259.032C673.629 257.184 674.373 255.756 675.861 254.748C677.349 253.716 679.353 253.2 681.873 253.2C683.241 253.2 684.561 253.344 685.833 253.632C687.105 253.92 688.125 254.292 688.893 254.748V259.032C688.125 258.504 687.165 258.084 686.013 257.772C684.885 257.436 683.769 257.268 682.665 257.268C680.337 257.268 679.173 257.856 679.173 259.032C679.173 259.608 679.449 260.052 680.001 260.364C680.553 260.676 681.537 261.048 682.953 261.48L684.249 261.876C685.761 262.356 686.937 262.884 687.777 263.46C688.641 264.036 689.241 264.684 689.577 265.404C689.913 266.124 690.081 267 690.081 268.032C690.081 269.688 689.361 271.02 687.921 272.028C686.505 273.036 684.381 273.54 681.549 273.54ZM698.27 273C696.95 273 695.93 272.628 695.21 271.884C694.49 271.116 694.13 270.06 694.13 268.716V261.516L692.33 258.456C695.138 254.952 698.75 253.2 703.166 253.2C706.262 253.2 708.638 253.884 710.294 255.252C711.974 256.62 712.814 258.528 712.814 260.976V273H707.342V261.408C707.342 258.768 705.95 257.448 703.166 257.448C702.134 257.448 701.21 257.592 700.394 257.88C699.602 258.168 698.858 258.636 698.162 259.284L699.566 261.588V267.24C699.566 267.816 699.698 268.224 699.962 268.464C700.226 268.704 700.658 268.824 701.258 268.824H703.094V273H698.27ZM707.571 283.08C705.795 283.08 704.427 282.732 703.467 282.036C702.483 281.34 701.991 280.416 701.991 279.264V278.616C701.991 278.304 701.943 278.088 701.847 277.968C701.727 277.848 701.523 277.788 701.235 277.788H700.047V274.692H704.115C704.835 274.692 705.339 274.848 705.627 275.16C705.891 275.496 706.023 276.012 706.023 276.708V278.688C706.023 279.552 706.479 279.984 707.391 279.984C708.279 279.984 708.723 279.552 708.723 278.688V274.692H712.755V279.12C712.755 280.272 712.311 281.22 711.423 281.964C710.511 282.708 709.227 283.08 707.571 283.08ZM717.579 261.516L715.779 258.456C718.587 254.952 722.199 253.2 726.615 253.2C729.711 253.2 732.087 253.884 733.743 255.252C735.423 256.62 736.263 258.528 736.263 260.976V273H730.791V261.408C730.791 258.768 729.399 257.448 726.615 257.448C725.583 257.448 724.659 257.592 723.843 257.88C723.051 258.168 722.307 258.636 721.611 259.284L723.015 261.588V273H717.579V261.516ZM739.876 262.416H745.276L746.896 268.932C748.552 268.932 749.92 268.428 751 267.42C752.104 266.388 752.656 264.984 752.656 263.208C752.656 261.288 752.14 259.848 751.108 258.888C750.1 257.928 748.36 257.448 745.888 257.448C744.736 257.448 743.548 257.568 742.324 257.808C741.1 258.048 740.092 258.36 739.3 258.744V254.532C740.26 254.124 741.4 253.8 742.72 253.56C744.064 253.32 745.42 253.2 746.788 253.2C750.508 253.2 753.34 254.052 755.284 255.756C757.252 257.436 758.236 259.896 758.236 263.136C758.236 265.104 757.744 266.832 756.76 268.32C755.8 269.808 754.492 270.96 752.836 271.776C751.204 272.592 749.404 273 747.436 273H742.504L739.876 262.416ZM750.094 251.364C747.79 251.364 746.638 250.2 746.638 247.872V245.244H751.534V247.008C751.534 247.344 751.606 247.584 751.75 247.728C751.87 247.848 752.11 247.908 752.47 247.908H760.678V251.364H750.094ZM770.218 273.54C767.242 273.54 764.89 272.712 763.162 271.056C761.434 269.4 760.57 266.976 760.57 263.784C760.57 260.448 761.566 257.856 763.558 256.008C765.55 254.136 768.298 253.2 771.802 253.2C775.426 253.2 778.09 254.04 779.794 255.72C781.522 257.4 782.386 259.608 782.386 262.344V273H776.95V262.308C776.95 260.724 776.542 259.524 775.726 258.708C774.934 257.868 773.626 257.448 771.802 257.448C770.074 257.448 768.706 257.988 767.698 259.068C766.69 260.148 766.186 261.72 766.186 263.784C766.186 265.68 766.594 267.072 767.41 267.96C768.25 268.848 769.522 269.292 771.226 269.292C772.138 269.292 772.954 269.16 773.674 268.896V273.072C772.738 273.384 771.586 273.54 770.218 273.54ZM787.189 261.516L785.389 258.456C788.197 254.952 791.809 253.2 796.225 253.2C799.321 253.2 801.697 253.884 803.353 255.252C805.033 256.62 805.873 258.528 805.873 260.976V273H800.401V261.408C800.401 258.768 799.009 257.448 796.225 257.448C795.193 257.448 794.269 257.592 793.453 257.88C792.661 258.168 791.917 258.636 791.221 259.284L792.625 261.588V273H787.189V261.516ZM815.426 261.012C815.426 259.764 815.162 258.864 814.634 258.312C814.106 257.736 813.182 257.448 811.862 257.448C810.59 257.448 809.306 257.772 808.01 258.42V254.28C808.586 253.992 809.354 253.74 810.314 253.524C811.298 253.308 812.246 253.2 813.158 253.2C815.678 253.2 817.598 253.872 818.918 255.216C820.238 256.56 820.898 258.504 820.898 261.048V273H815.426V261.012ZM831.842 273.54C830.426 273.54 828.986 273.396 827.522 273.108C826.082 272.844 824.942 272.436 824.102 271.884V267.708C825.158 268.332 826.334 268.812 827.63 269.148C828.95 269.484 830.138 269.652 831.194 269.652C832.466 269.652 833.39 269.532 833.966 269.292C834.566 269.028 834.866 268.572 834.866 267.924C834.866 267.348 834.578 266.904 834.002 266.592C833.45 266.28 832.406 265.884 830.87 265.404L829.97 265.116C827.906 264.468 826.382 263.688 825.398 262.776C824.414 261.864 823.922 260.616 823.922 259.032C823.922 257.184 824.666 255.756 826.154 254.748C827.642 253.716 829.646 253.2 832.166 253.2C833.534 253.2 834.854 253.344 836.126 253.632C837.398 253.92 838.418 254.292 839.186 254.748V259.032C838.418 258.504 837.458 258.084 836.306 257.772C835.178 257.436 834.062 257.268 832.958 257.268C830.63 257.268 829.466 257.856 829.466 259.032C829.466 259.608 829.742 260.052 830.294 260.364C830.846 260.676 831.83 261.048 833.246 261.48L834.542 261.876C836.054 262.356 837.23 262.884 838.07 263.46C838.934 264.036 839.534 264.684 839.87 265.404C840.206 266.124 840.374 267 840.374 268.032C840.374 269.688 839.654 271.02 838.214 272.028C836.798 273.036 834.674 273.54 831.842 273.54ZM851.335 273.54C849.727 273.54 848.143 273.372 846.583 273.036C845.023 272.724 843.727 272.28 842.695 271.704V261.588H851.803V265.584H848.059V268.68C848.803 269.088 849.895 269.292 851.335 269.292C855.151 269.292 857.059 267.3 857.059 263.316C857.059 261.276 856.507 259.788 855.403 258.852C854.299 257.916 852.439 257.448 849.823 257.448C848.623 257.448 847.387 257.58 846.115 257.844C844.867 258.084 843.811 258.432 842.947 258.888V254.64C843.931 254.184 845.119 253.836 846.511 253.596C847.903 253.332 849.355 253.2 850.867 253.2C854.731 253.2 857.659 254.088 859.651 255.864C861.667 257.616 862.675 260.1 862.675 263.316C862.675 266.484 861.691 268.98 859.723 270.804C857.755 272.628 854.959 273.54 851.335 273.54ZM874.884 273.54C871.884 273.54 869.484 273 867.684 271.92C865.884 270.816 864.984 269.244 864.984 267.204C864.984 266.268 865.236 265.428 865.74 264.684C866.268 263.916 866.964 263.364 867.828 263.028C867.036 262.62 866.388 262.032 865.884 261.264C865.404 260.496 865.164 259.656 865.164 258.744C865.164 257.064 865.752 255.72 866.928 254.712C868.128 253.704 869.856 253.2 872.112 253.2C872.808 253.2 873.492 253.248 874.164 253.344C874.86 253.44 875.388 253.548 875.748 253.668V257.772C875.412 257.628 875.004 257.508 874.524 257.412C874.068 257.316 873.648 257.268 873.264 257.268C871.584 257.268 870.744 257.892 870.744 259.14C870.744 259.788 870.948 260.28 871.356 260.616C871.788 260.928 872.448 261.084 873.336 261.084H875.748V264.936H873.336C871.512 264.936 870.6 265.656 870.6 267.096C870.6 267.864 870.96 268.464 871.68 268.896C872.424 269.304 873.492 269.508 874.884 269.508C876.564 269.508 877.788 269.172 878.556 268.5C879.348 267.804 879.744 266.772 879.744 265.404V253.704H885.216V265.368C885.216 266.736 884.868 268.044 884.172 269.292C883.476 270.516 882.36 271.536 880.824 272.352C879.288 273.144 877.308 273.54 874.884 273.54ZM879.761 244.956H885.233V251.364H879.761V244.956ZM894.773 261.012C894.773 259.764 894.509 258.864 893.981 258.312C893.453 257.736 892.529 257.448 891.209 257.448C889.937 257.448 888.653 257.772 887.357 258.42V254.28C887.933 253.992 888.701 253.74 889.661 253.524C890.645 253.308 891.593 253.2 892.505 253.2C895.025 253.2 896.945 253.872 898.265 255.216C899.585 256.56 900.245 258.504 900.245 261.048V273H894.773V261.012ZM903.269 256.152H908.705L912.809 268.932C914.585 268.932 915.953 268.404 916.913 267.348C917.873 266.268 918.353 264.744 918.353 262.776C918.353 261 918.017 259.668 917.345 258.78C916.673 257.892 915.641 257.448 914.249 257.448C913.481 257.448 912.713 257.568 911.945 257.808V253.704C912.953 253.368 914.093 253.2 915.365 253.2C918.221 253.2 920.357 254.04 921.773 255.72C923.213 257.376 923.933 259.728 923.933 262.776C923.933 264.912 923.465 266.748 922.529 268.284C921.593 269.82 920.321 270.996 918.713 271.812C917.129 272.604 915.389 273 913.493 273H908.669L903.269 256.152ZM932.201 273C930.881 273 929.861 272.628 929.141 271.884C928.445 271.116 928.097 270.06 928.097 268.716V256.296C928.097 253.464 928.925 251.412 930.581 250.14H924.641V245.928H937.493V249.78C936.101 250.332 935.093 251.112 934.469 252.12C933.845 253.128 933.533 254.484 933.533 256.188V267.24C933.533 267.816 933.653 268.224 933.893 268.464C934.133 268.704 934.541 268.824 935.117 268.824H936.377V273H932.201ZM946.627 273.54C945.211 273.54 943.771 273.396 942.307 273.108C940.867 272.844 939.727 272.436 938.887 271.884V267.708C939.943 268.332 941.119 268.812 942.415 269.148C943.735 269.484 944.923 269.652 945.979 269.652C947.251 269.652 948.175 269.532 948.751 269.292C949.351 269.028 949.651 268.572 949.651 267.924C949.651 267.348 949.363 266.904 948.787 266.592C948.235 266.28 947.191 265.884 945.655 265.404L944.755 265.116C942.691 264.468 941.167 263.688 940.183 262.776C939.199 261.864 938.707 260.616 938.707 259.032C938.707 257.184 939.451 255.756 940.939 254.748C942.427 253.716 944.431 253.2 946.951 253.2C948.319 253.2 949.639 253.344 950.911 253.632C952.183 253.92 953.203 254.292 953.971 254.748V259.032C953.203 258.504 952.243 258.084 951.091 257.772C949.963 257.436 948.847 257.268 947.743 257.268C945.415 257.268 944.251 257.856 944.251 259.032C944.251 259.608 944.527 260.052 945.079 260.364C945.631 260.676 946.615 261.048 948.031 261.48L949.327 261.876C950.839 262.356 952.015 262.884 952.855 263.46C953.719 264.036 954.319 264.684 954.655 265.404C954.991 266.124 955.159 267 955.159 268.032C955.159 269.688 954.439 271.02 952.999 272.028C951.583 273.036 949.459 273.54 946.627 273.54ZM961.584 264.324C961.584 263.004 961.836 261.864 962.34 260.904C962.844 259.944 963.636 259.08 964.716 258.312C964.884 258.168 965.04 258.048 965.184 257.952C965.352 257.856 965.508 257.76 965.652 257.664C966.588 257.04 967.248 256.512 967.632 256.08C968.04 255.648 968.244 255.108 968.244 254.46C968.244 253.62 967.908 252.984 967.236 252.552C966.564 252.096 965.556 251.868 964.212 251.868C963.084 251.868 961.932 252 960.756 252.264C959.58 252.528 958.488 252.912 957.48 253.416V248.772C959.664 247.788 962.04 247.296 964.608 247.296C967.488 247.296 969.756 247.908 971.412 249.132C973.092 250.332 973.932 252.024 973.932 254.208C973.932 255.072 973.776 255.828 973.464 256.476C973.176 257.1 972.78 257.652 972.276 258.132C971.772 258.612 971.052 259.188 970.116 259.86C969.156 260.58 968.484 261.12 968.1 261.48C967.716 261.816 967.416 262.212 967.2 262.668C967.008 263.1 966.912 263.664 966.912 264.36V265.116H961.584V264.324ZM964.212 273.54C963.372 273.54 962.664 273.264 962.088 272.712C961.536 272.16 961.26 271.464 961.26 270.624C961.26 269.784 961.536 269.088 962.088 268.536C962.664 267.984 963.372 267.708 964.212 267.708C965.028 267.708 965.724 267.996 966.3 268.572C966.876 269.124 967.164 269.808 967.164 270.624C967.164 271.44 966.876 272.136 966.3 272.712C965.724 273.264 965.028 273.54 964.212 273.54Z" fill="black"/>
<rect y="3" width="1440" height="55" rx="27.5" fill="white"/>
<rect x="11" y="14" width="1418" height="33" rx="16.5" fill="url(#paint0_linear_35_1352)"/>
<path d="M1195 573C1195 545.938 1173.06 524 1146 524H339C311.938 524 290 545.938 290 573C290 600.062 311.938 622 339 622H1146C1173.06 622 1195 600.062 1195 573Z" fill="#D1CAB6"/>
<path d="M1194 715C1194 687.938 1172.06 666 1145 666H338C310.938 666 289 687.938 289 715C289 742.062 310.938 764 338 764H1145C1172.06 764 1194 742.062 1194 715Z" fill="#D1CAB6"/>
<path d="M1194 857C1194 829.938 1172.06 808 1145 808H338C310.938 808 289 829.938 289 857C289 884.062 310.938 906 338 906H1145C1172.06 906 1194 884.062 1194 857Z" fill="#D1CAB6"/>
<path d="M1195 561C1195 533.938 1173.06 512 1146 512H339C311.938 512 290 533.938 290 561C290 588.062 311.938 610 339 610H1146C1173.06 610 1195 588.062 1195 561Z" fill="white"/>
<path d="M1194 703C1194 675.938 1172.06 654 1145 654H338C310.938 654 289 675.938 289 703C289 730.062 310.938 752 338 752H1145C1172.06 752 1194 730.062 1194 703Z" fill="white"/>
<path d="M1194 845C1194 817.938 1172.06 796 1145 796H338C310.938 796 289 817.938 289 845C289 872.062 310.938 894 338 894H1145C1172.06 894 1194 872.062 1194 845Z" fill="#A1FF9F"/>
<path d="M638.633 555.516C638.633 554.315 638.95 553.397 639.585 552.762C640.22 552.127 641.126 551.81 642.305 551.81H644.991V554.734H643.767C643.155 554.734 642.713 554.87 642.441 555.142C642.192 555.391 642.067 555.833 642.067 556.468V564.934L646.623 557.522H648.119L652.675 564.934V545.724H656.109V570H652.981L647.371 560.854L641.761 570H638.633V555.516ZM643.005 549.124C641.962 549.124 641.203 548.886 640.727 548.41C640.251 547.934 640.013 547.197 640.013 546.2V544.432H643.141V545.86C643.141 546.245 643.22 546.506 643.379 546.642C643.515 546.778 643.787 546.846 644.195 546.846H650.043V549.124H643.005ZM659.834 554.088H663.302L667.62 567.28C669.75 567.28 671.394 566.691 672.55 565.512C673.706 564.333 674.284 562.667 674.284 560.514C674.284 558.383 673.887 556.774 673.094 555.686C672.3 554.598 671.031 554.054 669.286 554.054C668.47 554.054 667.676 554.156 666.906 554.36V551.674C667.812 551.425 668.798 551.3 669.864 551.3C672.448 551.3 674.42 552.116 675.78 553.748C677.14 555.38 677.82 557.635 677.82 560.514C677.82 562.486 677.389 564.186 676.528 565.614C675.689 567.042 674.544 568.13 673.094 568.878C671.643 569.626 670.034 570 668.266 570H665.002L659.834 554.088ZM682.584 558.678L680.884 555.924C682.086 554.405 683.457 553.261 684.998 552.49C686.54 551.697 688.364 551.3 690.472 551.3C693.192 551.3 695.278 551.923 696.728 553.17C698.179 554.394 698.904 556.117 698.904 558.338V570H695.436V558.61C695.436 557.046 695.017 555.901 694.178 555.176C693.362 554.428 692.127 554.054 690.472 554.054C689.226 554.054 688.126 554.247 687.174 554.632C686.222 554.995 685.361 555.584 684.59 556.4L686.052 558.678V570H682.584V558.678ZM709.229 570.51C707.211 570.51 705.602 570.011 704.401 569.014C703.222 567.994 702.633 566.555 702.633 564.696C702.633 562.86 703.29 561.398 704.605 560.31C705.942 559.222 707.744 558.678 710.011 558.678C712.255 558.678 714.272 559.097 716.063 559.936V558.542C716.063 556.978 715.632 555.845 714.771 555.142C713.932 554.417 712.527 554.054 710.555 554.054C709.467 554.054 708.401 554.156 707.359 554.36C706.316 554.564 705.409 554.847 704.639 555.21V552.49C705.341 552.15 706.293 551.867 707.495 551.64C708.719 551.413 709.909 551.3 711.065 551.3C713.898 551.3 716.017 551.946 717.423 553.238C718.828 554.53 719.531 556.275 719.531 558.474V570H716.063V562.69C714.408 561.851 712.515 561.432 710.385 561.432C708.911 561.432 707.823 561.704 707.121 562.248C706.441 562.792 706.101 563.608 706.101 564.696C706.101 566.759 707.427 567.79 710.079 567.79C710.895 567.79 711.609 567.677 712.221 567.45V570.136C711.405 570.385 710.407 570.51 709.229 570.51ZM732.703 570.51C730.935 570.51 729.394 570.193 728.079 569.558C726.764 568.923 725.744 568.039 725.019 566.906C724.316 565.75 723.965 564.435 723.965 562.962V551.81H727.433V562.894C727.433 564.413 727.875 565.614 728.759 566.498C729.666 567.359 730.98 567.79 732.703 567.79C734.403 567.79 735.695 567.359 736.579 566.498C737.486 565.614 737.939 564.413 737.939 562.894V551.81H741.407V562.962C741.407 564.435 741.044 565.75 740.319 566.906C739.616 568.039 738.608 568.923 737.293 569.558C735.978 570.193 734.448 570.51 732.703 570.51ZM750.879 570C749.768 570 748.918 569.694 748.329 569.082C747.762 568.447 747.479 567.563 747.479 566.43V553.374C747.479 551.719 747.173 550.427 746.561 549.498C745.949 548.569 744.963 547.821 743.603 547.254V544.432H754.313V547.356H748.227C749.156 547.968 749.836 548.784 750.267 549.804C750.72 550.824 750.947 552.048 750.947 553.476V565.478C750.947 566.09 751.071 566.521 751.321 566.77C751.57 566.997 752.001 567.11 752.613 567.11H753.837V570H750.879ZM765.093 570.51C762.373 570.51 760.231 569.739 758.667 568.198C757.126 566.657 756.355 564.39 756.355 561.398C756.355 559.313 756.752 557.511 757.545 555.992C758.361 554.473 759.517 553.317 761.013 552.524C762.509 551.708 764.289 551.3 766.351 551.3C769.547 551.3 771.882 552.059 773.355 553.578C774.829 555.074 775.565 556.989 775.565 559.324V570H772.097V559.29C772.097 555.799 770.182 554.054 766.351 554.054C764.334 554.054 762.747 554.689 761.591 555.958C760.435 557.227 759.857 559.041 759.857 561.398C759.857 563.574 760.345 565.183 761.319 566.226C762.294 567.269 763.745 567.79 765.671 567.79C766.533 567.79 767.326 567.677 768.051 567.45V570.136C767.258 570.385 766.272 570.51 765.093 570.51ZM787.935 570.51C785.305 570.51 783.209 570.011 781.645 569.014C780.081 568.017 779.299 566.566 779.299 564.662C779.299 563.665 779.571 562.792 780.115 562.044C780.681 561.273 781.429 560.741 782.359 560.446C781.475 560.061 780.761 559.505 780.217 558.78C779.695 558.055 779.435 557.216 779.435 556.264C779.435 554.768 779.933 553.567 780.931 552.66C781.928 551.753 783.39 551.3 785.317 551.3C785.861 551.3 786.416 551.345 786.983 551.436C787.549 551.504 788.003 551.583 788.343 551.674V554.394C788.048 554.281 787.663 554.201 787.187 554.156C786.733 554.088 786.314 554.054 785.929 554.054C784.954 554.054 784.206 554.269 783.685 554.7C783.186 555.108 782.937 555.697 782.937 556.468C782.937 557.284 783.209 557.907 783.753 558.338C784.297 558.769 785.101 558.984 786.167 558.984H788.343V561.84H786.201C785.113 561.84 784.274 562.078 783.685 562.554C783.095 563.007 782.801 563.71 782.801 564.662C782.801 565.659 783.254 566.43 784.161 566.974C785.09 567.518 786.348 567.79 787.935 567.79C791.675 567.79 793.545 566.203 793.545 563.03V551.81H797.013V562.962C797.013 564.231 796.718 565.444 796.129 566.6C795.539 567.733 794.565 568.674 793.205 569.422C791.867 570.147 790.111 570.51 787.935 570.51ZM809.486 570.51C806.766 570.51 804.624 569.739 803.06 568.198C801.518 566.657 800.748 564.39 800.748 561.398C800.748 559.335 801.031 557.545 801.598 556.026C802.164 554.507 802.935 553.34 803.91 552.524C804.907 551.708 806.04 551.3 807.31 551.3C809.032 551.3 810.245 551.991 810.948 553.374C811.333 552.671 811.911 552.15 812.682 551.81C813.452 551.47 814.314 551.3 815.266 551.3C816.83 551.3 817.997 551.799 818.768 552.796C819.561 553.793 819.958 555.131 819.958 556.808V570H816.49V557.046C816.49 556.026 816.331 555.278 816.014 554.802C815.696 554.303 815.152 554.054 814.382 554.054C813.09 554.054 812.285 554.757 811.968 556.162H809.928C809.814 555.459 809.588 554.938 809.248 554.598C808.93 554.235 808.466 554.054 807.854 554.054C806.788 554.054 805.916 554.689 805.236 555.958C804.578 557.227 804.25 559.041 804.25 561.398C804.25 563.574 804.726 565.183 805.678 566.226C806.63 567.269 808.092 567.79 810.064 567.79C810.925 567.79 811.718 567.677 812.444 567.45V570.136C811.65 570.385 810.664 570.51 809.486 570.51ZM830.627 570.51C829.38 570.51 828.111 570.363 826.819 570.068C825.527 569.796 824.518 569.388 823.793 568.844V566.056C824.768 566.645 825.833 567.099 826.989 567.416C828.168 567.711 829.29 567.858 830.355 567.858C831.851 567.858 832.928 567.688 833.585 567.348C834.242 566.985 834.571 566.373 834.571 565.512C834.571 564.923 834.412 564.447 834.095 564.084C833.778 563.721 833.29 563.404 832.633 563.132C831.998 562.86 830.99 562.52 829.607 562.112C827.612 561.5 826.128 560.786 825.153 559.97C824.178 559.131 823.691 557.975 823.691 556.502C823.691 554.825 824.337 553.544 825.629 552.66C826.921 551.753 828.689 551.3 830.933 551.3C832.089 551.3 833.2 551.436 834.265 551.708C835.353 551.957 836.248 552.297 836.951 552.728V555.584C836.18 555.108 835.296 554.734 834.299 554.462C833.302 554.19 832.282 554.054 831.239 554.054C828.519 554.054 827.159 554.87 827.159 556.502C827.159 557.114 827.34 557.601 827.703 557.964C828.088 558.327 828.587 558.633 829.199 558.882C829.834 559.109 830.888 559.437 832.361 559.868C833.812 560.299 834.945 560.763 835.761 561.262C836.577 561.761 837.155 562.35 837.495 563.03C837.835 563.71 838.005 564.549 838.005 565.546C838.005 567.042 837.393 568.243 836.169 569.15C834.945 570.057 833.098 570.51 830.627 570.51ZM841.056 554.088H844.524L848.842 567.28C850.973 567.28 852.616 566.691 853.772 565.512C854.928 564.333 855.506 562.667 855.506 560.514C855.506 558.383 855.11 556.774 854.316 555.686C853.523 554.598 852.254 554.054 850.508 554.054C849.692 554.054 848.899 554.156 848.128 554.36V551.674C849.035 551.425 850.021 551.3 851.086 551.3C853.67 551.3 855.642 552.116 857.002 553.748C858.362 555.38 859.042 557.635 859.042 560.514C859.042 562.486 858.612 564.186 857.75 565.614C856.912 567.042 855.767 568.13 854.316 568.878C852.866 569.626 851.256 570 849.488 570H846.224L841.056 554.088Z" fill="black"/>
<path d="M705.398 712.51C704.151 712.51 702.882 712.363 701.59 712.068C700.298 711.796 699.289 711.388 698.564 710.844V708.056C699.538 708.645 700.604 709.099 701.76 709.416C702.938 709.711 704.06 709.858 705.126 709.858C706.622 709.858 707.698 709.688 708.356 709.348C709.013 708.985 709.342 708.373 709.342 707.512C709.342 706.923 709.183 706.447 708.866 706.084C708.548 705.721 708.061 705.404 707.404 705.132C706.769 704.86 705.76 704.52 704.378 704.112C702.383 703.5 700.898 702.786 699.924 701.97C698.949 701.131 698.462 699.975 698.462 698.502C698.462 696.825 699.108 695.544 700.4 694.66C701.692 693.753 703.46 693.3 705.704 693.3C706.86 693.3 707.97 693.436 709.036 693.708C710.124 693.957 711.019 694.297 711.722 694.728V697.584C710.951 697.108 710.067 696.734 709.07 696.462C708.072 696.19 707.052 696.054 706.01 696.054C703.29 696.054 701.93 696.87 701.93 698.502C701.93 699.114 702.111 699.601 702.474 699.964C702.859 700.327 703.358 700.633 703.97 700.882C704.604 701.109 705.658 701.437 707.132 701.868C708.582 702.299 709.716 702.763 710.532 703.262C711.348 703.761 711.926 704.35 712.266 705.03C712.606 705.71 712.776 706.549 712.776 707.546C712.776 709.042 712.164 710.243 710.94 711.15C709.716 712.057 707.868 712.51 705.398 712.51ZM697.365 688.778H708.891V685.14H712.053V691.124H697.365V688.778ZM721.063 711.966C719.952 711.966 719.102 711.66 718.513 711.048C717.946 710.413 717.663 709.529 717.663 708.396V695.51C717.663 693.991 717.878 692.745 718.309 691.77C718.74 690.795 719.465 689.991 720.485 689.356H714.297V686.432H725.007V689.22C723.647 689.809 722.661 690.569 722.049 691.498C721.437 692.427 721.131 693.719 721.131 695.374V707.41C721.131 708.022 721.256 708.453 721.505 708.702C721.754 708.929 722.185 709.042 722.797 709.042H724.021V711.966H721.063ZM735.55 712.51C733.94 712.51 732.524 712.227 731.3 711.66C730.076 711.093 729.124 710.3 728.444 709.28C727.786 708.26 727.458 707.093 727.458 705.778V704.452C727.458 703.727 727.65 703.047 728.036 702.412C728.421 701.777 728.976 701.007 729.702 700.1C730.178 699.533 730.529 699.08 730.756 698.74C730.982 698.4 731.096 698.083 731.096 697.788V697.686C730.642 697.935 730.098 698.06 729.464 698.06C728.693 698.06 728.092 697.845 727.662 697.414C727.254 696.961 727.05 696.303 727.05 695.442V693.81H729.532V695C729.532 695.363 729.611 695.635 729.77 695.816C729.951 695.975 730.234 696.054 730.62 696.054C731.073 696.054 731.447 695.907 731.742 695.612V693.81H734.428V696.904C734.428 697.629 734.258 698.321 733.918 698.978C733.578 699.635 733.102 700.372 732.49 701.188C731.946 701.936 731.549 702.559 731.3 703.058C731.05 703.534 730.926 704.01 730.926 704.486V705.71C730.926 706.979 731.334 707.977 732.15 708.702C732.966 709.427 734.099 709.79 735.55 709.79C737.068 709.79 738.258 709.371 739.12 708.532C740.004 707.693 740.446 706.458 740.446 704.826C740.446 703.194 740.106 701.97 739.426 701.154C738.746 700.338 737.748 699.93 736.434 699.93V698.06L740.038 693.3H743.812L739.936 698.366C741.318 698.887 742.327 699.692 742.962 700.78C743.596 701.845 743.914 703.194 743.914 704.826C743.914 706.367 743.562 707.727 742.86 708.906C742.157 710.062 741.171 710.957 739.902 711.592C738.655 712.204 737.204 712.51 735.55 712.51ZM751.217 712C750.107 712 749.257 711.694 748.667 711.082C748.101 710.447 747.817 709.563 747.817 708.43V693.81H751.285V707.478C751.285 708.09 751.41 708.521 751.659 708.77C751.909 708.997 752.339 709.11 752.951 709.11H754.175V712H751.217ZM757.911 700.746C757.911 698.389 758.682 696.564 760.223 695.272C761.765 693.957 763.884 693.3 766.581 693.3C769.256 693.3 771.364 693.946 772.905 695.238C774.447 696.53 775.217 698.366 775.217 700.746V712H771.749V700.644C771.749 699.103 771.296 697.958 770.389 697.21C769.483 696.439 768.213 696.054 766.581 696.054C764.927 696.054 763.646 696.439 762.739 697.21C761.833 697.958 761.379 699.103 761.379 700.644V704.112C761.674 703.568 762.139 703.137 762.773 702.82C763.408 702.48 764.156 702.31 765.017 702.31H767.737V705.166H764.745C763.793 705.166 762.989 705.506 762.331 706.186C761.697 706.843 761.379 707.603 761.379 708.464V712H757.911V700.746ZM760.484 688.778H775.172V691.124H760.484V688.778ZM785.542 712.51C783.525 712.51 781.915 712.011 780.714 711.014C779.535 709.994 778.946 708.555 778.946 706.696C778.946 704.86 779.603 703.398 780.918 702.31C782.255 701.222 784.057 700.678 786.324 700.678C788.568 700.678 790.585 701.097 792.376 701.936V700.542C792.376 698.978 791.945 697.845 791.084 697.142C790.245 696.417 788.84 696.054 786.868 696.054C785.78 696.054 784.715 696.156 783.672 696.36C782.629 696.564 781.723 696.847 780.952 697.21V694.49C781.655 694.15 782.607 693.867 783.808 693.64C785.032 693.413 786.222 693.3 787.378 693.3C790.211 693.3 792.331 693.946 793.736 695.238C795.141 696.53 795.844 698.275 795.844 700.474V712H792.376V704.69C790.721 703.851 788.829 703.432 786.698 703.432C785.225 703.432 784.137 703.704 783.434 704.248C782.754 704.792 782.414 705.608 782.414 706.696C782.414 708.759 783.74 709.79 786.392 709.79C787.208 709.79 787.922 709.677 788.534 709.45V712.136C787.718 712.385 786.721 712.51 785.542 712.51Z" fill="black"/>
<path d="M352.132 854C351.022 854 350.172 853.694 349.582 853.082C349.016 852.447 348.732 851.563 348.732 850.43V835.81H352.2V849.478C352.2 850.09 352.325 850.521 352.574 850.77C352.824 850.997 353.254 851.11 353.866 851.11H355.09V854H352.132ZM358.826 839.516C358.826 838.315 359.144 837.397 359.778 836.762C360.413 836.127 361.32 835.81 362.498 835.81H365.184V838.734H363.96C363.348 838.734 362.906 838.87 362.634 839.142C362.385 839.391 362.26 839.833 362.26 840.468V848.934L366.816 841.522H368.312L372.868 848.934V835.81H376.302V854H373.174L367.564 844.854L361.954 854H358.826V839.516ZM387.099 842.236C387.099 840.785 386.804 839.731 386.215 839.074C385.626 838.394 384.583 838.054 383.087 838.054C381.636 838.054 380.276 838.371 379.007 839.006V836.286C379.551 836.014 380.254 835.787 381.115 835.606C381.999 835.402 382.872 835.3 383.733 835.3C386.022 835.3 387.734 835.923 388.867 837.17C390 838.394 390.567 840.162 390.567 842.474V854H387.099V842.236ZM403.042 854.51C400.322 854.51 398.18 853.739 396.616 852.198C395.075 850.657 394.304 848.39 394.304 845.398C394.304 843.313 394.701 841.511 395.494 839.992C396.31 838.473 397.466 837.317 398.962 836.524C400.458 835.708 402.238 835.3 404.3 835.3C407.496 835.3 409.831 836.059 411.304 837.578C412.778 839.074 413.514 840.989 413.514 843.324V854H410.046V843.29C410.046 839.799 408.131 838.054 404.3 838.054C402.283 838.054 400.696 838.689 399.54 839.958C398.384 841.227 397.806 843.041 397.806 845.398C397.806 847.574 398.294 849.183 399.268 850.226C400.243 851.269 401.694 851.79 403.62 851.79C404.482 851.79 405.275 851.677 406 851.45V854.136C405.207 854.385 404.221 854.51 403.042 854.51ZM406.198 830.982C406.198 830.71 406.152 830.517 406.062 830.404C405.948 830.291 405.756 830.234 405.484 830.234H403.954V827.786H406.504C407.229 827.786 407.762 827.967 408.102 828.33C408.419 828.67 408.578 829.101 408.578 829.622V830.812H415.548V833.124H406.198V830.982ZM423.878 854.51C421.022 854.51 418.812 854 417.248 852.98V850.192C418.766 851.257 420.75 851.79 423.198 851.79C425.419 851.79 427.142 851.212 428.366 850.056C429.612 848.9 430.236 847.189 430.236 844.922C430.236 842.655 429.612 840.944 428.366 839.788C427.142 838.632 425.419 838.054 423.198 838.054C420.818 838.054 418.857 838.587 417.316 839.652V836.83C418.902 835.81 421.09 835.3 423.878 835.3C426.938 835.3 429.352 836.15 431.12 837.85C432.888 839.527 433.772 841.885 433.772 844.922C433.772 847.959 432.888 850.317 431.12 851.994C429.352 853.671 426.938 854.51 423.878 854.51ZM445.474 854.51C442.844 854.51 440.748 854.011 439.184 853.014C437.62 852.017 436.838 850.566 436.838 848.662C436.838 847.665 437.11 846.792 437.654 846.044C438.22 845.273 438.968 844.741 439.898 844.446C439.014 844.061 438.3 843.505 437.756 842.78C437.234 842.055 436.974 841.216 436.974 840.264C436.974 838.768 437.472 837.567 438.47 836.66C439.467 835.753 440.929 835.3 442.856 835.3C443.4 835.3 443.955 835.345 444.522 835.436C445.088 835.504 445.542 835.583 445.882 835.674V838.394C445.587 838.281 445.202 838.201 444.726 838.156C444.272 838.088 443.853 838.054 443.468 838.054C442.493 838.054 441.745 838.269 441.224 838.7C440.725 839.108 440.476 839.697 440.476 840.468C440.476 841.284 440.748 841.907 441.292 842.338C441.836 842.769 442.64 842.984 443.706 842.984H445.882V845.84H443.74C442.652 845.84 441.813 846.078 441.224 846.554C440.634 847.007 440.34 847.71 440.34 848.662C440.34 849.659 440.793 850.43 441.7 850.974C442.629 851.518 443.887 851.79 445.474 851.79C449.214 851.79 451.084 850.203 451.084 847.03V835.81H454.552V846.962C454.552 848.231 454.257 849.444 453.668 850.6C453.078 851.733 452.104 852.674 450.744 853.422C449.406 854.147 447.65 854.51 445.474 854.51ZM465.223 854.51C463.976 854.51 462.707 854.363 461.415 854.068C460.123 853.796 459.114 853.388 458.389 852.844V850.056C459.364 850.645 460.429 851.099 461.585 851.416C462.764 851.711 463.886 851.858 464.951 851.858C466.447 851.858 467.524 851.688 468.181 851.348C468.838 850.985 469.167 850.373 469.167 849.512C469.167 848.923 469.008 848.447 468.691 848.084C468.374 847.721 467.886 847.404 467.229 847.132C466.594 846.86 465.586 846.52 464.203 846.112C462.208 845.5 460.724 844.786 459.749 843.97C458.774 843.131 458.287 841.975 458.287 840.502C458.287 838.825 458.933 837.544 460.225 836.66C461.517 835.753 463.285 835.3 465.529 835.3C466.685 835.3 467.796 835.436 468.861 835.708C469.949 835.957 470.844 836.297 471.547 836.728V839.584C470.776 839.108 469.892 838.734 468.895 838.462C467.898 838.19 466.878 838.054 465.835 838.054C463.115 838.054 461.755 838.87 461.755 840.502C461.755 841.114 461.936 841.601 462.299 841.964C462.684 842.327 463.183 842.633 463.795 842.882C464.43 843.109 465.484 843.437 466.957 843.868C468.408 844.299 469.541 844.763 470.357 845.262C471.173 845.761 471.751 846.35 472.091 847.03C472.431 847.71 472.601 848.549 472.601 849.546C472.601 851.042 471.989 852.243 470.765 853.15C469.541 854.057 467.694 854.51 465.223 854.51ZM478.372 842.95C477.375 842.95 476.672 842.723 476.264 842.27C475.856 841.817 475.652 841.125 475.652 840.196V838.258H478.78V839.55C478.78 839.913 478.859 840.173 479.018 840.332C479.177 840.468 479.46 840.536 479.868 840.536H483.846V842.95H478.372ZM478.372 852.232C477.375 852.232 476.672 852.005 476.264 851.552C475.856 851.099 475.652 850.407 475.652 849.478V847.54H478.78V848.832C478.78 849.195 478.859 849.455 479.018 849.614C479.177 849.75 479.46 849.818 479.868 849.818H483.846V852.232H478.372ZM496.326 854.51C494.558 854.51 493.017 854.193 491.702 853.558C490.387 852.923 489.367 852.039 488.642 850.906C487.939 849.75 487.588 848.435 487.588 846.962V835.81H491.056V846.894C491.056 848.413 491.498 849.614 492.382 850.498C493.289 851.359 494.603 851.79 496.326 851.79C498.026 851.79 499.318 851.359 500.202 850.498C501.109 849.614 501.562 848.413 501.562 846.894V835.81H505.03V846.962C505.03 848.435 504.667 849.75 503.942 850.906C503.239 852.039 502.231 852.923 500.916 853.558C499.601 854.193 498.071 854.51 496.326 854.51ZM518.174 854.51C516.406 854.51 514.864 854.193 513.55 853.558C512.235 852.923 511.215 852.039 510.49 850.906C509.787 849.75 509.436 848.435 509.436 846.962V835.81H512.904V846.894C512.904 848.413 513.346 849.614 514.23 850.498C515.136 851.359 516.451 851.79 518.174 851.79C519.874 851.79 521.166 851.359 522.05 850.498C522.956 849.614 523.41 848.413 523.41 846.894V835.81H526.878V846.962C526.878 848.435 526.515 849.75 525.79 850.906C525.087 852.039 524.078 852.923 522.764 853.558C521.449 854.193 519.919 854.51 518.174 854.51ZM531.283 842.746C531.283 840.389 532.054 838.564 533.595 837.272C535.137 835.957 537.256 835.3 539.953 835.3C542.628 835.3 544.736 835.946 546.277 837.238C547.819 838.53 548.589 840.366 548.589 842.746V854H545.121V842.644C545.121 841.103 544.668 839.958 543.761 839.21C542.855 838.439 541.585 838.054 539.953 838.054C538.299 838.054 537.018 838.439 536.111 839.21C535.205 839.958 534.751 841.103 534.751 842.644V846.112C535.046 845.568 535.511 845.137 536.145 844.82C536.78 844.48 537.528 844.31 538.389 844.31H541.109V847.166H538.117C537.165 847.166 536.361 847.506 535.703 848.186C535.069 848.843 534.751 849.603 534.751 850.464V854H531.283V842.746ZM558.948 854.51C556.092 854.51 553.882 854 552.318 852.98V850.192C553.837 851.257 555.82 851.79 558.268 851.79C560.489 851.79 562.212 851.212 563.436 850.056C564.683 848.9 565.306 847.189 565.306 844.922C565.306 842.655 564.683 840.944 563.436 839.788C562.212 838.632 560.489 838.054 558.268 838.054C555.888 838.054 553.927 838.587 552.386 839.652V836.83C553.973 835.81 556.16 835.3 558.948 835.3C562.008 835.3 564.422 836.15 566.19 837.85C567.958 839.527 568.842 841.885 568.842 844.922C568.842 847.959 567.958 850.317 566.19 851.994C564.422 853.671 562.008 854.51 558.948 854.51ZM581.326 854.51C579.558 854.51 578.017 854.193 576.702 853.558C575.387 852.923 574.367 852.039 573.642 850.906C572.939 849.75 572.588 848.435 572.588 846.962V835.81H576.056V846.894C576.056 848.413 576.498 849.614 577.382 850.498C578.289 851.359 579.603 851.79 581.326 851.79C583.026 851.79 584.318 851.359 585.202 850.498C586.109 849.614 586.562 848.413 586.562 846.894V835.81H590.03V846.962C590.03 848.435 589.667 849.75 588.942 850.906C588.239 852.039 587.231 852.923 585.916 853.558C584.601 854.193 583.071 854.51 581.326 854.51ZM594.436 842.746C594.436 840.389 595.206 838.564 596.748 837.272C598.289 835.957 600.408 835.3 603.106 835.3C605.78 835.3 607.888 835.946 609.43 837.238C610.971 838.53 611.742 840.366 611.742 842.746V854H608.274V842.644C608.274 841.103 607.82 839.958 606.914 839.21C606.007 838.439 604.738 838.054 603.106 838.054C601.451 838.054 600.17 838.439 599.264 839.21C598.357 839.958 597.904 841.103 597.904 842.644V846.112C598.198 845.568 598.663 845.137 599.298 844.82C599.932 844.48 600.68 844.31 601.542 844.31H604.262V847.166H601.27C600.318 847.166 599.513 847.506 598.856 848.186C598.221 848.843 597.904 849.603 597.904 850.464V854H594.436V842.746ZM608.568 859.474C608.568 859.066 608.5 858.783 608.364 858.624C608.206 858.488 607.911 858.42 607.48 858.42H606.358V855.938H609.146C610.166 855.938 610.858 856.142 611.22 856.55C611.56 856.958 611.73 857.683 611.73 858.726V862.942H608.568V859.474ZM626.044 854.51C624.798 854.51 623.608 854.261 622.474 853.762C621.364 853.263 620.366 852.527 619.482 851.552V854H616.15V835.81H619.618V848.662C620.956 850.747 622.792 851.79 625.126 851.79C626.6 851.79 627.71 851.45 628.458 850.77C629.229 850.067 629.614 849.036 629.614 847.676V835.81H633.082V847.812C633.082 849.784 632.459 851.393 631.212 852.64C629.966 853.887 628.243 854.51 626.044 854.51ZM654.436 859.916C652.804 857.921 651.557 855.655 650.696 853.116C649.835 850.577 649.404 847.812 649.404 844.82C649.404 841.851 649.835 839.097 650.696 836.558C651.557 833.997 652.804 831.719 654.436 829.724H658.074C656.351 831.923 655.059 834.257 654.198 836.728C653.337 839.199 652.906 841.896 652.906 844.82C652.906 847.744 653.337 850.441 654.198 852.912C655.059 855.383 656.351 857.717 658.074 859.916H654.436ZM663.313 834.484C662.746 834.484 662.27 834.291 661.885 833.906C661.499 833.521 661.307 833.045 661.307 832.478C661.307 831.911 661.499 831.435 661.885 831.05C662.27 830.665 662.746 830.472 663.313 830.472C663.902 830.472 664.389 830.665 664.775 831.05C665.183 831.435 665.387 831.911 665.387 832.478C665.387 833.045 665.183 833.521 664.775 833.906C664.389 834.291 663.902 834.484 663.313 834.484ZM661.579 837.68H665.081V854H661.579V837.68ZM669.807 837.68H673.139V840.026C673.909 839.051 674.85 838.337 675.961 837.884C677.094 837.408 678.273 837.17 679.497 837.17C681.673 837.17 683.293 837.748 684.359 838.904C685.424 840.06 685.957 841.613 685.957 843.562V854H682.523V843.902C682.523 841.25 681.253 839.924 678.715 839.924C677.627 839.924 676.607 840.185 675.655 840.706C674.725 841.205 673.921 841.975 673.241 843.018V854H669.807V837.68ZM698.795 854.51C696.982 854.51 695.373 854.17 693.967 853.49C692.562 852.81 691.463 851.824 690.669 850.532C689.899 849.217 689.513 847.665 689.513 845.874C689.513 844.083 689.899 842.542 690.669 841.25C691.463 839.935 692.562 838.927 693.967 838.224C695.395 837.521 697.027 837.17 698.863 837.17C701.357 837.17 703.351 837.657 704.847 838.632V841.454C703.374 840.434 701.493 839.924 699.203 839.924C697.345 839.924 695.837 840.434 694.681 841.454C693.548 842.451 692.981 843.925 692.981 845.874C692.981 847.823 693.548 849.297 694.681 850.294C695.815 851.291 697.299 851.79 699.135 851.79C701.425 851.79 703.397 851.246 705.051 850.158V852.946C704.258 853.49 703.351 853.887 702.331 854.136C701.334 854.385 700.155 854.51 698.795 854.51ZM710.793 834.484C710.226 834.484 709.75 834.291 709.365 833.906C708.98 833.521 708.787 833.045 708.787 832.478C708.787 831.911 708.98 831.435 709.365 831.05C709.75 830.665 710.226 830.472 710.793 830.472C711.382 830.472 711.87 830.665 712.255 831.05C712.663 831.435 712.867 831.911 712.867 832.478C712.867 833.045 712.663 833.521 712.255 833.906C711.87 834.291 711.382 834.484 710.793 834.484ZM709.059 837.68H712.561V854H709.059V837.68ZM717.287 837.68H720.619V840.026C721.39 839.051 722.33 838.337 723.441 837.884C724.574 837.408 725.753 837.17 726.977 837.17C729.153 837.17 730.774 837.748 731.839 838.904C732.904 840.06 733.437 841.613 733.437 843.562V854H730.003V843.902C730.003 841.25 728.734 839.924 726.195 839.924C725.107 839.924 724.087 840.185 723.135 840.706C722.206 841.205 721.401 841.975 720.721 843.018V854H717.287V837.68ZM746.65 854.51C743.635 854.51 741.267 853.762 739.544 852.266C737.844 850.747 736.994 848.617 736.994 845.874C736.994 843.199 737.753 841.08 739.272 839.516C740.813 837.952 743.001 837.17 745.834 837.17C747.715 837.17 749.313 837.533 750.628 838.258C751.943 838.961 752.929 839.947 753.586 841.216C754.266 842.463 754.606 843.891 754.606 845.5V847.2H740.258C740.371 848.741 741.017 849.897 742.196 850.668C743.397 851.416 745.018 851.79 747.058 851.79C748.101 851.79 749.155 851.699 750.22 851.518C751.285 851.314 752.226 851.053 753.042 850.736V853.49C752.317 853.785 751.353 854.023 750.152 854.204C748.973 854.408 747.806 854.51 746.65 854.51ZM751.376 844.786C751.331 843.245 750.821 842.055 749.846 841.216C748.894 840.355 747.534 839.924 745.766 839.924C744.043 839.924 742.706 840.366 741.754 841.25C740.802 842.134 740.303 843.313 740.258 844.786H751.376ZM758.359 837.68H761.691V840.604C762.371 839.607 763.323 838.87 764.547 838.394C765.794 837.918 767.233 837.68 768.865 837.68V840.366C767.12 840.366 765.624 840.649 764.377 841.216C763.131 841.783 762.269 842.678 761.793 843.902V854H758.359V837.68ZM776.26 854.51C774.288 854.51 772.701 854.011 771.5 853.014C770.321 851.994 769.732 850.623 769.732 848.9C769.732 847.087 770.299 845.693 771.432 844.718C772.588 843.721 774.22 843.222 776.328 843.222C778.572 843.222 780.476 843.675 782.04 844.582V843.732C782.04 842.44 781.643 841.488 780.85 840.876C780.079 840.241 778.855 839.924 777.178 839.924C776.181 839.924 775.206 840.026 774.254 840.23C773.325 840.411 772.486 840.672 771.738 841.012V838.224C772.418 837.907 773.302 837.657 774.39 837.476C775.478 837.272 776.532 837.17 777.552 837.17C780.249 837.17 782.244 837.771 783.536 838.972C784.851 840.151 785.508 841.794 785.508 843.902V854H782.278V852.164C781.575 852.935 780.737 853.524 779.762 853.932C778.81 854.317 777.643 854.51 776.26 854.51ZM777.11 851.892C778.198 851.892 779.184 851.677 780.068 851.246C780.952 850.815 781.609 850.215 782.04 849.444V847.234C780.567 846.282 778.923 845.806 777.11 845.806C775.795 845.806 774.809 846.067 774.152 846.588C773.517 847.087 773.2 847.857 773.2 848.9C773.2 850.895 774.503 851.892 777.11 851.892ZM795.196 854.51C793.542 854.51 792.261 854.034 791.354 853.082C790.47 852.13 790.028 850.781 790.028 849.036V840.332H787.546V837.68H790.028V832.784H793.496V837.68H797.508V840.332H793.496V848.798C793.496 849.886 793.7 850.657 794.108 851.11C794.539 851.563 795.31 851.79 796.42 851.79C797.078 851.79 797.735 851.643 798.392 851.348V854.068C797.531 854.363 796.466 854.51 795.196 854.51ZM803.629 834.484C803.062 834.484 802.586 834.291 802.201 833.906C801.816 833.521 801.623 833.045 801.623 832.478C801.623 831.911 801.816 831.435 802.201 831.05C802.586 830.665 803.062 830.472 803.629 830.472C804.218 830.472 804.706 830.665 805.091 831.05C805.499 831.435 805.703 831.911 805.703 832.478C805.703 833.045 805.499 833.521 805.091 833.906C804.706 834.291 804.218 834.484 803.629 834.484ZM801.895 837.68H805.397V854H801.895V837.68ZM818.725 854.51C816.889 854.51 815.268 854.17 813.863 853.49C812.48 852.787 811.392 851.79 810.599 850.498C809.828 849.183 809.443 847.642 809.443 845.874C809.443 844.129 809.828 842.599 810.599 841.284C811.37 839.969 812.458 838.961 813.863 838.258C815.268 837.533 816.889 837.17 818.725 837.17C820.561 837.17 822.182 837.533 823.587 838.258C824.992 838.961 826.08 839.969 826.851 841.284C827.644 842.599 828.041 844.129 828.041 845.874C828.041 847.642 827.644 849.183 826.851 850.498C826.08 851.79 824.992 852.787 823.587 853.49C822.182 854.17 820.561 854.51 818.725 854.51ZM818.725 851.79C820.493 851.79 821.898 851.246 822.941 850.158C823.984 849.07 824.505 847.642 824.505 845.874C824.505 844.038 823.984 842.587 822.941 841.522C821.898 840.457 820.493 839.924 818.725 839.924C816.957 839.924 815.552 840.457 814.509 841.522C813.466 842.587 812.945 844.038 812.945 845.874C812.945 847.642 813.466 849.07 814.509 850.158C815.552 851.246 816.957 851.79 818.725 851.79ZM831.772 837.68H835.104V840.026C835.874 839.051 836.815 838.337 837.926 837.884C839.059 837.408 840.238 837.17 841.462 837.17C843.638 837.17 845.258 837.748 846.324 838.904C847.389 840.06 847.922 841.613 847.922 843.562V854H844.488V843.902C844.488 841.25 843.218 839.924 840.68 839.924C839.592 839.924 838.572 840.185 837.62 840.706C836.69 841.205 835.886 841.975 835.206 843.018V854H831.772V837.68ZM850.968 859.916C852.691 857.717 853.983 855.383 854.844 852.912C855.706 850.441 856.136 847.744 856.136 844.82C856.136 841.896 855.706 839.199 854.844 836.728C853.983 834.257 852.691 831.923 850.968 829.724H854.606C856.238 831.719 857.485 833.997 858.346 836.558C859.208 839.097 859.638 841.851 859.638 844.82C859.638 847.812 859.208 850.577 858.346 853.116C857.485 855.655 856.238 857.921 854.606 859.916H850.968ZM875.965 835.81H879.433V843.834L888.239 835.81H892.285L887.321 840.332C889.18 840.808 890.472 841.567 891.197 842.61C891.945 843.653 892.319 845.047 892.319 846.792V854H888.851V846.996C888.851 845.636 888.568 844.605 888.001 843.902C887.457 843.199 886.505 842.701 885.145 842.406L879.433 847.608V854H875.965V835.81ZM903.006 854.51C901.759 854.51 900.49 854.363 899.198 854.068C897.906 853.796 896.897 853.388 896.172 852.844V850.056C897.147 850.645 898.212 851.099 899.368 851.416C900.547 851.711 901.669 851.858 902.734 851.858C904.23 851.858 905.307 851.688 905.964 851.348C906.621 850.985 906.95 850.373 906.95 849.512C906.95 848.923 906.791 848.447 906.474 848.084C906.157 847.721 905.669 847.404 905.012 847.132C904.377 846.86 903.369 846.52 901.986 846.112C899.991 845.5 898.507 844.786 897.532 843.97C896.557 843.131 896.07 841.975 896.07 840.502C896.07 838.825 896.716 837.544 898.008 836.66C899.3 835.753 901.068 835.3 903.312 835.3C904.468 835.3 905.579 835.436 906.644 835.708C907.732 835.957 908.627 836.297 909.33 836.728V839.584C908.559 839.108 907.675 838.734 906.678 838.462C905.681 838.19 904.661 838.054 903.618 838.054C900.898 838.054 899.538 838.87 899.538 840.502C899.538 841.114 899.719 841.601 900.082 841.964C900.467 842.327 900.966 842.633 901.578 842.882C902.213 843.109 903.267 843.437 904.74 843.868C906.191 844.299 907.324 844.763 908.14 845.262C908.956 845.761 909.534 846.35 909.874 847.03C910.214 847.71 910.384 848.549 910.384 849.546C910.384 851.042 909.772 852.243 908.548 853.15C907.324 854.057 905.477 854.51 903.006 854.51ZM895.007 830.846H901.841V827.14H904.391V830.846H907.145V827.14H909.661V833.124H895.007V830.846ZM920.847 854.51C919.442 854.51 918.082 854.34 916.767 854C915.453 853.683 914.342 853.229 913.435 852.64V843.596H920.983V846.384H916.903V850.906C917.878 851.495 919.193 851.79 920.847 851.79C923.023 851.79 924.678 851.189 925.811 849.988C926.967 848.787 927.545 847.041 927.545 844.752C927.545 842.463 926.956 840.774 925.777 839.686C924.621 838.598 922.717 838.054 920.065 838.054C918.864 838.054 917.685 838.179 916.529 838.428C915.373 838.655 914.399 839.029 913.605 839.55V836.796C914.489 836.297 915.532 835.923 916.733 835.674C917.935 835.425 919.227 835.3 920.609 835.3C924.009 835.3 926.605 836.127 928.395 837.782C930.186 839.437 931.081 841.76 931.081 844.752C931.081 847.767 930.186 850.147 928.395 851.892C926.627 853.637 924.111 854.51 920.847 854.51ZM934.834 839.516C934.834 838.315 935.151 837.397 935.786 836.762C936.421 836.127 937.327 835.81 938.506 835.81H941.192V838.734H939.968C939.356 838.734 938.914 838.87 938.642 839.142C938.393 839.391 938.268 839.833 938.268 840.468V848.934L942.824 841.522H944.32L948.876 848.934V835.81H952.31V854H949.182L943.572 844.854L937.962 854H934.834V839.516ZM948.929 827.446H952.363V833.124H948.929V827.446ZM963.107 842.236C963.107 840.785 962.812 839.731 962.223 839.074C961.634 838.394 960.591 838.054 959.095 838.054C957.644 838.054 956.284 838.371 955.015 839.006V836.286C955.559 836.014 956.262 835.787 957.123 835.606C958.007 835.402 958.88 835.3 959.741 835.3C962.03 835.3 963.742 835.923 964.875 837.17C966.008 838.394 966.575 840.162 966.575 842.474V854H963.107V842.236ZM978.03 854.51C975.809 854.51 974.075 853.887 972.828 852.64C971.604 851.393 970.992 849.784 970.992 847.812V835.81H974.46V847.676C974.46 849.036 974.834 850.067 975.582 850.77C976.353 851.45 977.475 851.79 978.948 851.79C981.283 851.79 983.119 850.747 984.456 848.662V835.81H987.924V854H984.558V851.552C982.858 853.524 980.682 854.51 978.03 854.51ZM998.598 854.51C997.351 854.51 996.082 854.363 994.79 854.068C993.498 853.796 992.489 853.388 991.764 852.844V850.056C992.739 850.645 993.804 851.099 994.96 851.416C996.139 851.711 997.261 851.858 998.326 851.858C999.822 851.858 1000.9 851.688 1001.56 851.348C1002.21 850.985 1002.54 850.373 1002.54 849.512C1002.54 848.923 1002.38 848.447 1002.07 848.084C1001.75 847.721 1001.26 847.404 1000.6 847.132C999.969 846.86 998.961 846.52 997.578 846.112C995.583 845.5 994.099 844.786 993.124 843.97C992.149 843.131 991.662 841.975 991.662 840.502C991.662 838.825 992.308 837.544 993.6 836.66C994.892 835.753 996.66 835.3 998.904 835.3C1000.06 835.3 1001.17 835.436 1002.24 835.708C1003.32 835.957 1004.22 836.297 1004.92 836.728V839.584C1004.15 839.108 1003.27 838.734 1002.27 838.462C1001.27 838.19 1000.25 838.054 999.21 838.054C996.49 838.054 995.13 838.87 995.13 840.502C995.13 841.114 995.311 841.601 995.674 841.964C996.059 842.327 996.558 842.633 997.17 842.882C997.805 843.109 998.859 843.437 1000.33 843.868C1001.78 844.299 1002.92 844.763 1003.73 845.262C1004.55 845.761 1005.13 846.35 1005.47 847.03C1005.81 847.71 1005.98 848.549 1005.98 849.546C1005.98 851.042 1005.36 852.243 1004.14 853.15C1002.92 854.057 1001.07 854.51 998.598 854.51ZM1011.75 842.95C1010.75 842.95 1010.05 842.723 1009.64 842.27C1009.23 841.817 1009.03 841.125 1009.03 840.196V838.258H1012.16V839.55C1012.16 839.913 1012.23 840.173 1012.39 840.332C1012.55 840.468 1012.84 840.536 1013.24 840.536H1017.22V842.95H1011.75ZM1011.75 852.232C1010.75 852.232 1010.05 852.005 1009.64 851.552C1009.23 851.099 1009.03 850.407 1009.03 849.478V847.54H1012.16V848.832C1012.16 849.195 1012.23 849.455 1012.39 849.614C1012.55 849.75 1012.84 849.818 1013.24 849.818H1017.22V852.232H1011.75ZM1029.7 854.51C1027.93 854.51 1026.39 854.193 1025.08 853.558C1023.76 852.923 1022.74 852.039 1022.02 850.906C1021.31 849.75 1020.96 848.435 1020.96 846.962V835.81H1024.43V846.894C1024.43 848.413 1024.87 849.614 1025.76 850.498C1026.66 851.359 1027.98 851.79 1029.7 851.79C1031.4 851.79 1032.69 851.359 1033.58 850.498C1034.48 849.614 1034.94 848.413 1034.94 846.894V835.81H1038.4V846.962C1038.4 848.435 1038.04 849.75 1037.32 850.906C1036.61 852.039 1035.61 852.923 1034.29 853.558C1032.98 854.193 1031.45 854.51 1029.7 854.51ZM1051.55 854.51C1049.78 854.51 1048.24 854.193 1046.92 853.558C1045.61 852.923 1044.59 852.039 1043.86 850.906C1043.16 849.75 1042.81 848.435 1042.81 846.962V835.81H1046.28V846.894C1046.28 848.413 1046.72 849.614 1047.6 850.498C1048.51 851.359 1049.83 851.79 1051.55 851.79C1053.25 851.79 1054.54 851.359 1055.42 850.498C1056.33 849.614 1056.78 848.413 1056.78 846.894V835.81H1060.25V846.962C1060.25 848.435 1059.89 849.75 1059.16 850.906C1058.46 852.039 1057.45 852.923 1056.14 853.558C1054.82 854.193 1053.29 854.51 1051.55 854.51ZM1074.28 854.51C1073.08 854.51 1071.9 854.272 1070.74 853.796C1069.61 853.297 1068.6 852.549 1067.72 851.552V854H1064.39V846.792C1064.39 846.021 1064.58 845.296 1064.96 844.616C1065.35 843.936 1065.92 843.109 1066.66 842.134C1067.12 841.59 1067.46 841.137 1067.68 840.774C1067.91 840.389 1068.02 840.06 1068.02 839.788V839.686C1067.57 839.935 1067.03 840.06 1066.39 840.06C1065.62 840.06 1065.02 839.845 1064.59 839.414C1064.18 838.961 1063.98 838.303 1063.98 837.442V835.81H1066.46V837C1066.46 837.363 1066.54 837.635 1066.7 837.816C1066.88 837.975 1067.16 838.054 1067.55 838.054C1068 838.054 1068.38 837.907 1068.67 837.612V835.81H1071.36V838.972C1071.36 839.675 1071.19 840.343 1070.85 840.978C1070.53 841.613 1070.06 842.372 1069.45 843.256C1068.89 844.072 1068.48 844.729 1068.23 845.228C1067.98 845.704 1067.85 846.203 1067.85 846.724V848.662C1069.19 850.747 1071.03 851.79 1073.36 851.79C1076.35 851.79 1077.85 850.419 1077.85 847.676V835.81H1081.32V847.812C1081.32 849.784 1080.69 851.393 1079.45 852.64C1078.2 853.887 1076.48 854.51 1074.28 854.51ZM1077.96 827.446H1081.39V833.124H1077.96V827.446ZM1092.13 842.236C1092.13 840.785 1091.84 839.731 1091.25 839.074C1090.66 838.394 1089.62 838.054 1088.12 838.054C1086.67 838.054 1085.31 838.371 1084.04 839.006V836.286C1084.59 836.014 1085.29 835.787 1086.15 835.606C1087.03 835.402 1087.91 835.3 1088.77 835.3C1091.06 835.3 1092.77 835.923 1093.9 837.17C1095.04 838.394 1095.6 840.162 1095.6 842.474V854H1092.13V842.236ZM1103.42 854C1102.31 854 1101.46 853.694 1100.87 853.082C1100.3 852.447 1100.02 851.563 1100.02 850.43V835.81H1103.49V849.478C1103.49 850.09 1103.61 850.521 1103.86 850.77C1104.11 850.997 1104.54 851.11 1105.15 851.11H1106.38V854H1103.42ZM1117.7 854.51C1116.09 854.51 1114.67 854.227 1113.45 853.66C1112.22 853.093 1111.27 852.3 1110.59 851.28C1109.93 850.237 1109.6 849.047 1109.6 847.71V846.554C1109.6 845.783 1109.77 845.069 1110.11 844.412C1110.45 843.732 1110.92 842.995 1111.51 842.202C1111.94 841.613 1112.24 841.137 1112.43 840.774C1112.63 840.411 1112.73 840.071 1112.73 839.754C1112.73 839.323 1112.62 839.017 1112.39 838.836C1112.19 838.655 1111.84 838.564 1111.34 838.564H1109.43V835.81H1113C1114 835.81 1114.78 836.105 1115.35 836.694C1115.94 837.261 1116.23 838.02 1116.23 838.972C1116.23 839.629 1116.1 840.241 1115.83 840.808C1115.55 841.352 1115.15 842.021 1114.6 842.814C1114.06 843.63 1113.66 844.287 1113.41 844.786C1113.18 845.285 1113.07 845.829 1113.07 846.418V847.676C1113.07 848.968 1113.48 849.977 1114.3 850.702C1115.11 851.427 1116.24 851.79 1117.7 851.79C1119.24 851.79 1120.44 851.371 1121.3 850.532C1122.16 849.693 1122.59 848.458 1122.59 846.826C1122.59 845.194 1122.25 843.97 1121.57 843.154C1120.89 842.338 1119.89 841.93 1118.58 841.93V840.06L1122.22 835.3H1125.96L1122.12 840.366C1123.5 840.887 1124.5 841.692 1125.11 842.78C1125.74 843.845 1126.06 845.194 1126.06 846.826C1126.06 848.39 1125.71 849.75 1125.01 850.906C1124.33 852.062 1123.35 852.957 1122.08 853.592C1120.81 854.204 1119.35 854.51 1117.7 854.51ZM1110.86 830.846H1117.69V827.14H1120.24V830.846H1123V827.14H1125.51V833.124H1110.86V830.846ZM1119.87 823.08C1119.87 822.808 1119.83 822.627 1119.73 822.536C1119.64 822.423 1119.45 822.366 1119.16 822.366H1117.73V820.054H1120.18C1121.49 820.054 1122.15 820.632 1122.15 821.788V822.876H1127.89V825.018H1119.87V823.08ZM1136.7 854.51C1135.3 854.51 1133.94 854.34 1132.62 854C1131.31 853.683 1130.2 853.229 1129.29 852.64V843.596H1136.84V846.384H1132.76V850.906C1133.73 851.495 1135.05 851.79 1136.7 851.79C1138.88 851.79 1140.53 851.189 1141.66 849.988C1142.82 848.787 1143.4 847.041 1143.4 844.752C1143.4 842.463 1142.81 840.774 1141.63 839.686C1140.47 838.598 1138.57 838.054 1135.92 838.054C1134.72 838.054 1133.54 838.179 1132.38 838.428C1131.23 838.655 1130.25 839.029 1129.46 839.55V836.796C1130.34 836.297 1131.39 835.923 1132.59 835.674C1133.79 835.425 1135.08 835.3 1136.46 835.3C1139.86 835.3 1142.46 836.127 1144.25 837.782C1146.04 839.437 1146.93 841.76 1146.93 844.752C1146.93 847.767 1146.04 850.147 1144.25 851.892C1142.48 853.637 1139.96 854.51 1136.7 854.51Z" fill="black"/>
<defs>
<filter id="filter0_d_35_1352" x="215.979" y="111.587" width="1008.04" height="358.042" filterUnits="userSpaceOnUse" color-interpolation-filters="sRGB">
<feFlood flood-opacity="0" result="BackgroundImageFix"/>
<feColorMatrix in="SourceAlpha" type="matrix" values="0 0 0 0 0 0 0 0 0 0 0 0 0 0 0 0 0 0 127 0" result="hardAlpha"/>
<feOffset dy="29.6084"/>
<feGaussianBlur stdDeviation="37.0104"/>
<feComposite in2="hardAlpha" operator="out"/>
<feColorMatrix type="matrix" values="0 0 0 0 0 0 0 0 0 0 0 0 0 0 0 0 0 0 0.15 0"/>
<feBlend mode="normal" in2="BackgroundImageFix" result="effect1_dropShadow_35_1352"/>
<feBlend mode="normal" in="SourceGraphic" in2="effect1_dropShadow_35_1352" result="shape"/>
</filter>
<linearGradient id="paint0_linear_35_1352" x1="11" y1="30.5" x2="1429" y2="30.5" gradientUnits="userSpaceOnUse">
<stop stop-color="#66A865"/>
<stop offset="1" stop-color="#8EC5DD"/>
</linearGradient>
</defs>
</svg>
