<svg width="125" height="146" viewBox="0 0 125 146" fill="none" xmlns="http://www.w3.org/2000/svg">
<path d="M5.32263 8.63055H119.677V8.63055C119.677 11.0138 117.745 12.9458 115.362 12.9458H9.6379C7.25464 12.9458 5.32263 11.0138 5.32263 8.63055V8.63055Z" fill="#2FB0D0"/>
<rect x="0.288147" width="124.424" height="8.63054" rx="4.31527" fill="#61C8E1"/>
<path d="M10.3571 12.9458H114.643L100.978 137.729C100.726 143.977 98.5035 145.712 95.2241 146H62.5H28.697C23.6187 145.156 22.2813 143.186 21.8645 137.729L10.3571 12.9458Z" fill="#0093B7"/>
<rect x="66.5446" y="20.1379" width="11.0325" height="117.816" rx="5.51623" transform="rotate(0.737482 66.5446 20.1379)" fill="#61C8E1"/>
<rect width="11.0324" height="114.71" rx="5.51621" transform="matrix(0.999922 0.0125318 -0.0132196 0.999913 66.5446 23.0148)" fill="#7BD8EF"/>
<rect width="11.0325" height="117.816" rx="5.51623" transform="matrix(-0.999917 0.0128711 0.0128711 0.999917 55.9108 20.1379)" fill="#61C8E1"/>
<rect width="11.0324" height="114.71" rx="5.51621" transform="matrix(-0.999922 0.0125318 0.0132196 0.999913 55.9108 23.0148)" fill="#7BD8EF"/>
<rect x="88.2332" y="20.1379" width="11.0325" height="117.816" rx="5.51623" transform="rotate(2.547 88.2332 20.1379)" fill="#61C8E1"/>
<rect width="11.0319" height="114.716" rx="5.51595" transform="matrix(0.999063 0.0432695 -0.04564 0.998958 88.2332 23.0148)" fill="#7BD8EF"/>
<rect width="11.0325" height="117.816" rx="5.51623" transform="matrix(-0.999012 0.044439 0.044439 0.999012 35.0437 20.1379)" fill="#61C8E1"/>
<rect width="11.0319" height="114.716" rx="5.51595" transform="matrix(-0.999063 0.0432695 0.04564 0.998958 35.0437 23.0148)" fill="#7BD8EF"/>
<rect x="27.6182" y="73.3596" width="70.4828" height="27.33" rx="13.665" fill="#FEFDFD" fill-opacity="0.8"/>
<path d="M37.646 92.798V85.4448C37.646 84.8579 37.7438 84.3976 37.9394 84.0639C38.1465 83.7302 38.4285 83.5001 38.7852 83.3735C39.1419 83.2354 39.5505 83.1663 40.0107 83.1663C40.333 83.1663 40.6206 83.2009 40.8738 83.2699C41.127 83.3275 41.3341 83.3965 41.4952 83.477L41.15 85.1686C41.0579 85.1456 40.9659 85.1284 40.8738 85.1169C40.7817 85.1053 40.7069 85.0996 40.6494 85.0996C40.4308 85.0996 40.2754 85.1571 40.1834 85.2722C40.1028 85.3873 40.0625 85.5541 40.0625 85.7728V87.3781C40.0625 87.6657 40.051 88.011 40.028 88.4137C40.005 88.805 39.9647 89.2998 39.9072 89.8982H39.9935C40.2236 89.3573 40.425 88.9258 40.5976 88.6036C40.7817 88.2699 40.9428 87.9764 41.0809 87.7233L41.7196 86.5668H42.6862L43.3249 87.7233C43.486 87.9995 43.6241 88.2526 43.7391 88.4828C43.8542 88.7014 43.9635 88.92 44.0671 89.1387C44.1707 89.3573 44.2857 89.6105 44.4123 89.8982H44.4986C44.4411 89.2998 44.4008 88.805 44.3778 88.4137C44.3548 88.011 44.3433 87.6657 44.3433 87.3781V83.339H46.7598V92.798H44.2915L42.2374 89.0351H42.1684L40.1143 92.798H37.646ZM41.5576 82.0444V81.1813C41.7187 81.1353 41.8971 81.072 42.0927 80.9915C42.2884 80.9109 42.461 80.8016 42.6106 80.6635C42.7602 80.5254 42.835 80.3528 42.835 80.1457C42.835 79.9846 42.7889 79.858 42.6969 79.7659C42.6048 79.6739 42.4897 79.6278 42.3516 79.6278C42.2596 79.6278 42.1618 79.6451 42.0582 79.6796C41.9546 79.7141 41.8626 79.7487 41.782 79.7832L41.4541 78.6267C41.6842 78.4311 41.9719 78.3045 42.3171 78.2469C42.6508 78.1779 42.9328 78.1434 43.1629 78.1434C43.6807 78.1434 44.0893 78.2642 44.3885 78.5059C44.6761 78.7475 44.82 79.1042 44.82 79.576C44.82 79.8292 44.7567 80.0651 44.6301 80.2837C44.492 80.5024 44.2849 80.6808 44.0087 80.8188L43.9397 80.3701H47.202V82.0444H41.5576ZM51.8284 92.798V86.5495C51.8284 86.0662 51.7133 85.7152 51.4832 85.4966C51.2645 85.278 50.902 85.1686 50.3957 85.1686C50.016 85.1686 49.665 85.2204 49.3428 85.324C49.0321 85.4276 48.7387 85.5541 48.4625 85.7037V83.6324C48.7156 83.5173 49.0724 83.4023 49.5327 83.2872C49.993 83.1721 50.5338 83.1146 51.1552 83.1146C51.7881 83.1146 52.3462 83.2066 52.8295 83.3907C53.3243 83.5749 53.7098 83.8856 53.986 84.3228C54.2737 84.7486 54.4175 85.3355 54.4175 86.0835V92.798H51.8284ZM59.4849 92.9706C58.9671 92.9706 58.5298 92.8901 58.173 92.729C57.8163 92.5679 57.5459 92.3262 57.3618 92.004C57.1777 91.6703 57.0856 91.256 57.0856 90.7612V84.3746C57.0856 84.0754 57.1029 83.828 57.1374 83.6324C57.1834 83.4368 57.264 83.2527 57.379 83.08C57.4941 82.8959 57.661 82.6773 57.8796 82.4241C58.1098 82.1595 58.2996 81.9293 58.4492 81.7337C58.5988 81.5381 58.6736 81.3137 58.6736 81.0605C58.6736 80.7958 58.5758 80.5887 58.3802 80.4391C58.1961 80.278 57.9026 80.1974 57.4999 80.1974C57.1892 80.1974 56.913 80.2377 56.6713 80.3183C56.4297 80.3988 56.211 80.5024 56.0154 80.629V78.713C56.1765 78.6209 56.4642 78.5174 56.8785 78.4023C57.3042 78.2757 57.8163 78.2124 58.4147 78.2124C59.3238 78.2124 60.043 78.4023 60.5723 78.782C61.1017 79.1618 61.3663 79.7314 61.3663 80.4909C61.3663 80.9512 61.2743 81.3539 61.0902 81.6992C60.9176 82.0444 60.7334 82.3493 60.5378 82.614C60.3537 82.8672 60.1926 83.08 60.0545 83.2527C59.9279 83.4138 59.8301 83.5806 59.7611 83.7532C59.7035 83.9258 59.6748 84.156 59.6748 84.4437V90.4505C59.6748 90.6692 59.7208 90.8303 59.8128 90.9338C59.9164 91.0374 60.066 91.0892 60.2616 91.0892C60.3537 91.0892 60.4515 91.0777 60.5551 91.0547C60.6702 91.0317 60.7737 91.0029 60.8658 90.9684L61.1074 92.6254C60.8888 92.7405 60.6414 92.8268 60.3652 92.8843C60.089 92.9419 59.7956 92.9706 59.4849 92.9706ZM66.1415 93.0224C64.8296 93.0224 63.8342 92.7347 63.1553 92.1594C62.4879 91.5725 62.1542 90.7325 62.1542 89.6393V88.9661C62.1542 88.4943 62.2059 88.103 62.3095 87.7923C62.4246 87.4816 62.5742 87.1997 62.7583 86.9465C62.9424 86.6934 63.092 86.469 63.2071 86.2733C63.3337 86.0662 63.397 85.8533 63.397 85.6347C63.397 85.4276 63.3452 85.2837 63.2416 85.2032C63.1495 85.1111 63.023 85.0651 62.8619 85.0651C62.7468 85.0651 62.626 85.0823 62.4994 85.1169C62.3843 85.1514 62.252 85.2032 62.1024 85.2722L61.6881 83.6497C62.0103 83.477 62.3555 83.362 62.7238 83.3044C63.1035 83.2354 63.4372 83.2009 63.7249 83.2009C64.2312 83.2009 64.634 83.2814 64.9332 83.4425C65.2439 83.6036 65.4683 83.8338 65.6064 84.133C65.7445 84.4322 65.8135 84.7889 65.8135 85.2032C65.8135 85.5599 65.7617 85.8763 65.6582 86.1525C65.5546 86.4172 65.4223 86.6934 65.2611 86.981C65.1116 87.2457 64.9792 87.4931 64.8641 87.7233C64.7606 87.9534 64.7088 88.2871 64.7088 88.7244V89.3803C64.7088 89.7601 64.7606 90.0708 64.8641 90.3124C64.9792 90.5541 65.1461 90.7325 65.3647 90.8475C65.5834 90.9511 65.8423 91.0029 66.1415 91.0029C66.6363 91.0029 66.9873 90.8705 67.1944 90.6059C67.413 90.3297 67.5224 89.9615 67.5224 89.5012V87.8268C67.5224 87.4816 67.4418 87.2112 67.2807 87.0156C67.1311 86.8084 66.8722 86.7049 66.5039 86.7049H66.4176V85.3412H66.5212C66.8779 85.3412 67.1426 85.2434 67.3152 85.0478C67.4878 84.8522 67.5971 84.6048 67.6432 84.3056C67.7007 83.9949 67.7295 83.6727 67.7295 83.339H70.3014C70.3014 84.0409 70.2093 84.622 70.0252 85.0823C69.8411 85.5426 69.5189 85.8533 69.0586 86.0144V86.0835C69.3348 86.164 69.5477 86.2906 69.6972 86.4632C69.8468 86.6243 69.9504 86.8199 70.0079 87.0501C70.0655 87.2802 70.0943 87.5334 70.0943 87.8096V89.5702C70.0943 90.7094 69.7605 91.5725 69.0931 92.1594C68.4257 92.7347 67.4418 93.0224 66.1415 93.0224ZM65.1062 82.0444V81.1813C65.2673 81.1353 65.4457 81.072 65.6413 80.9915C65.8369 80.9109 66.0095 80.8016 66.1591 80.6635C66.3087 80.5254 66.3835 80.3528 66.3835 80.1457C66.3835 79.9846 66.3375 79.858 66.2454 79.7659C66.1534 79.6739 66.0383 79.6278 65.9002 79.6278C65.8082 79.6278 65.7103 79.6451 65.6068 79.6796C65.5032 79.7141 65.4112 79.7487 65.3306 79.7832L65.0026 78.6267C65.2328 78.4311 65.5205 78.3045 65.8657 78.2469C66.1994 78.1779 66.4813 78.1434 66.7115 78.1434C67.2293 78.1434 67.6378 78.2642 67.937 78.5059C68.2247 78.7475 68.3686 79.1042 68.3686 79.576C68.3686 79.8292 68.3053 80.0651 68.1787 80.2837C68.0406 80.5024 67.8335 80.6808 67.5573 80.8188L67.4882 80.3701H70.7506V82.0444H65.1062ZM76.4918 93.0224C75.1569 93.0224 74.1558 92.7232 73.4883 92.1249C72.8209 91.5265 72.4872 90.6807 72.4872 89.5875V89.0179C72.4872 88.477 72.5793 88.0167 72.7634 87.637C72.9475 87.2572 73.2179 86.866 73.5747 86.4632C73.6897 86.3366 73.8106 86.1928 73.9371 86.0317C74.0752 85.8706 74.15 85.7152 74.1615 85.5656L74.1097 85.5484C73.9947 85.6059 73.8738 85.6519 73.7473 85.6865C73.6322 85.721 73.5056 85.7383 73.3675 85.7383C72.9417 85.7383 72.5908 85.5829 72.3146 85.2722C72.0499 84.9615 71.9176 84.5242 71.9176 83.9604V83.339H73.7645C73.7645 83.6612 73.8048 83.8913 73.8854 84.0294C73.9659 84.1675 74.0925 84.2365 74.2651 84.2365C74.3572 84.2365 74.4607 84.2193 74.5758 84.1848C74.6909 84.1387 74.8002 84.0754 74.9038 83.9949L75.1799 83.339H76.4573V84.4955C76.4573 84.8637 76.44 85.1686 76.4055 85.4103C76.3825 85.6519 76.3249 85.8706 76.2329 86.0662C76.1523 86.2618 76.0257 86.4862 75.8531 86.7394C75.715 86.9465 75.5827 87.1364 75.4561 87.309C75.341 87.4816 75.249 87.6715 75.1799 87.8786C75.1109 88.0858 75.0764 88.3562 75.0764 88.6899V89.3803C75.0764 89.7601 75.1282 90.0708 75.2317 90.3124C75.3468 90.5541 75.5079 90.7325 75.715 90.8475C75.9337 90.9511 76.1926 91.0029 76.4918 91.0029C76.9981 91.0029 77.3663 90.8705 77.5965 90.6059C77.8266 90.3297 77.9417 89.9615 77.9417 89.5012V87.8268C77.9417 87.4816 77.8669 87.2112 77.7173 87.0156C77.5677 86.8084 77.3261 86.7049 76.9923 86.7049H76.9406V85.3412H77.0096C77.3548 85.3412 77.608 85.2434 77.7691 85.0478C77.9302 84.8522 78.0338 84.6048 78.0798 84.3056C78.1258 83.9949 78.1488 83.6727 78.1488 83.339H80.7035C80.7035 84.0409 80.6114 84.6163 80.4273 85.0651C80.2547 85.5139 79.9325 85.8303 79.4607 86.0144V86.0835C79.8519 86.1985 80.1224 86.4114 80.272 86.7221C80.4216 87.0213 80.4963 87.4068 80.4963 87.8786V89.5702C80.4963 90.6979 80.1569 91.5552 79.4779 92.1421C78.8105 92.729 77.8151 93.0224 76.4918 93.0224ZM78.9589 82.4069C78.303 82.4069 77.7794 82.2573 77.3881 81.9581C76.9969 81.6589 76.8013 81.2389 76.8013 80.698C76.8013 80.1572 76.9969 79.7371 77.3881 79.438C77.7794 79.1388 78.303 78.9892 78.9589 78.9892C79.6148 78.9892 80.1442 79.1388 80.5469 79.438C80.9382 79.7371 81.1338 80.1572 81.1338 80.698C81.1338 81.2389 80.9382 81.6589 80.5469 81.9581C80.1442 82.2573 79.6148 82.4069 78.9589 82.4069ZM78.9589 81.4057C79.2121 81.4057 79.4077 81.3424 79.5458 81.2158C79.6839 81.0893 79.7529 80.9167 79.7529 80.698C79.7529 80.4794 79.6839 80.3068 79.5458 80.1802C79.4077 80.0536 79.2121 79.9903 78.9589 79.9903C78.7172 79.9903 78.5274 80.0536 78.3893 80.1802C78.2512 80.3068 78.1821 80.4794 78.1821 80.698C78.1821 80.9167 78.2512 81.0893 78.3893 81.2158C78.5274 81.3424 78.7172 81.4057 78.9589 81.4057ZM76.9519 78.1089V77.4011C77.067 77.3666 77.2108 77.3148 77.3834 77.2458C77.5445 77.1768 77.6884 77.0847 77.8149 76.9696C77.9415 76.8545 78.0048 76.7107 78.0048 76.5381C78.0048 76.4115 77.9703 76.3137 77.9013 76.2447C77.8207 76.1641 77.7229 76.1238 77.6078 76.1238C77.5273 76.1238 77.441 76.1411 77.3489 76.1756C77.2453 76.1986 77.1648 76.2389 77.1072 76.2964L76.7965 75.2953C77.0037 75.1342 77.2626 75.0306 77.5733 74.9846C77.8725 74.9271 78.1314 74.8983 78.35 74.8983C78.7873 74.8983 79.144 74.9903 79.4202 75.1745C79.6849 75.3471 79.8172 75.6348 79.8172 76.0375C79.8172 76.2101 79.7827 76.3885 79.7137 76.5726C79.6331 76.7567 79.4778 76.9063 79.2476 77.0214L79.1268 76.6589H81.6987V78.1089H76.9519ZM85.356 92.798V86.5495C85.356 86.0662 85.2409 85.7152 85.0108 85.4966C84.7922 85.278 84.4297 85.1686 83.9233 85.1686C83.5436 85.1686 83.1926 85.2204 82.8704 85.324C82.5597 85.4276 82.2663 85.5541 81.9901 85.7037V83.6324C82.2433 83.5173 82.6 83.4023 83.0603 83.2872C83.5206 83.1721 84.0614 83.1146 84.6828 83.1146C85.3157 83.1146 85.8738 83.2066 86.3572 83.3907C86.852 83.5749 87.2375 83.8856 87.5137 84.3228C87.8013 84.7486 87.9452 85.3355 87.9452 86.0835V92.798H85.356Z" fill="black"/>
</svg>
