<svg width="132" height="138" viewBox="0 0 132 138" fill="none" xmlns="http://www.w3.org/2000/svg">
<path d="M0 0H132C132 0 127 116.5 127 122.5C127 128.5 125 130.5 122.5 134C120 137.5 107 137 107 137H25.5C18.0085 136.711 13.8729 136.518 10 134.5C6.73951 131.217 5.72326 129.25 5.5 125.5L0 0Z" fill="#6CCC82"/>
<rect width="132" height="5" fill="#5AA36B"/>
<rect x="23" y="9" width="12" height="114" rx="6" fill="#30613B"/>
<rect x="73" y="9" width="12" height="114" rx="6" fill="#30613B"/>
<rect x="47" y="9" width="12" height="114" rx="6" fill="#30613B"/>
<rect x="97" y="9" width="12" height="114" rx="6" fill="#30613B"/>
<rect x="23" y="12" width="12" height="111" rx="6" fill="#5AA36B"/>
<rect x="73" y="12" width="12" height="111" rx="6" fill="#5AA36B"/>
<rect x="47" y="12" width="12" height="111" rx="6" fill="#5AA36B"/>
<rect x="97" y="12" width="12" height="111" rx="6" fill="#5AA36B"/>
<rect x="17" y="36" width="98" height="49" rx="24.5" fill="#FEFDFD" fill-opacity="0.8"/>
<path d="M45.7216 58V47.04H47.9216L48.3216 48.76H48.4816C48.7083 48.2133 49.1016 47.76 49.6616 47.4C50.2216 47.0267 50.9483 46.84 51.8416 46.84C52.695 46.84 53.4016 46.9933 53.9616 47.3C54.5216 47.5933 54.9416 48.0467 55.2216 48.66C55.515 49.26 55.6616 50.02 55.6616 50.94V58H52.6616V51.54C52.6616 50.7933 52.5083 50.26 52.2016 49.94C51.9083 49.6067 51.475 49.44 50.9016 49.44C50.435 49.44 50.035 49.5667 49.7016 49.82C49.3816 50.0733 49.135 50.4467 48.9616 50.94C48.8016 51.42 48.7216 52.0267 48.7216 52.76V58H45.7216ZM52.2988 45.52C51.6722 45.52 51.1788 45.4267 50.8188 45.24C50.4588 45.0533 50.2055 44.82 50.0588 44.54C49.8988 44.2467 49.8188 43.94 49.8188 43.62C49.8188 43.3933 49.8522 43.1533 49.9188 42.9C49.9855 42.6333 50.0855 42.3867 50.2188 42.16L52.3988 42.44C52.3722 42.5333 52.3522 42.6333 52.3388 42.74C52.3122 42.8333 52.2988 42.92 52.2988 43C52.2988 43.1867 52.3588 43.3333 52.4788 43.44C52.5855 43.5333 52.7722 43.58 53.0388 43.58H57.3388V45.52H52.2988ZM52.8927 40.98V37.26H55.4927V40.98H52.8927ZM61.3727 58.26C60.6927 58.26 60.0527 58.18 59.4527 58.02C58.8527 57.8733 58.2927 57.66 57.7727 57.38L58.5727 55.2C58.8661 55.3733 59.2194 55.5267 59.6327 55.66C60.0461 55.7933 60.4527 55.86 60.8527 55.86C61.5994 55.86 62.1927 55.58 62.6327 55.02C63.0727 54.4467 63.2927 53.5933 63.2927 52.46C63.2927 51.3933 63.0727 50.58 62.6327 50.02C62.1927 49.46 61.5061 49.18 60.5727 49.18C60.1327 49.18 59.6794 49.2467 59.2127 49.38C58.7461 49.5 58.3594 49.6533 58.0527 49.84V47.38C58.4661 47.1933 58.9327 47.0467 59.4527 46.94C59.9727 46.8333 60.5261 46.78 61.1127 46.78C62.3394 46.78 63.3394 47.0067 64.1127 47.46C64.8861 47.9133 65.4527 48.5667 65.8127 49.42C66.1727 50.26 66.3527 51.2733 66.3527 52.46C66.3527 54.3533 65.9194 55.7933 65.0527 56.78C64.1861 57.7667 62.9594 58.26 61.3727 58.26ZM69.4262 49.04V46.12C69.4262 45.6133 69.4728 45.2067 69.5662 44.9C69.6595 44.58 69.7862 44.32 69.9462 44.12C70.1062 43.92 70.2728 43.7533 70.4462 43.62L70.4262 43.54H67.3262L67.8862 41.38H74.2462V43.54C73.7528 43.54 73.3262 43.7 72.9662 44.02C72.6062 44.34 72.4262 44.9267 72.4262 45.78V49.04H69.4262ZM72.2062 58.2C71.6062 58.2 71.0995 58.1067 70.6862 57.92C70.2728 57.7333 69.9595 57.4533 69.7462 57.08C69.5328 56.6933 69.4262 56.2133 69.4262 55.64V47.04H72.4262V55.28C72.4262 55.5333 72.4795 55.72 72.5862 55.84C72.7062 55.96 72.8862 56.02 73.1262 56.02C73.2328 56.02 73.3462 56.0067 73.4662 55.98C73.5862 55.9533 73.6995 55.92 73.8062 55.88L74.0862 57.8C73.8328 57.9333 73.5462 58.0333 73.2262 58.1C72.9062 58.1667 72.5662 58.2 72.2062 58.2ZM80.463 58.26C78.7297 58.26 77.4697 57.86 76.683 57.06C75.9097 56.2467 75.523 55.0733 75.523 53.54V47.04H78.523V53.7C78.523 54.4067 78.6764 54.9467 78.983 55.32C79.303 55.68 79.7964 55.86 80.463 55.86C81.1297 55.86 81.6164 55.68 81.923 55.32C82.243 54.9467 82.403 54.4067 82.403 53.7V43.1H85.403V53.54C85.403 55.0733 85.0097 56.2467 84.223 57.06C83.4497 57.86 82.1964 58.26 80.463 58.26ZM29.7777 69.04V66.12C29.7777 65.6133 29.8244 65.2067 29.9177 64.9C30.0111 64.58 30.1377 64.32 30.2977 64.12C30.4577 63.92 30.6244 63.7533 30.7977 63.62L30.7777 63.54H27.6777L28.2377 61.38H34.5977V63.54C34.1044 63.54 33.6777 63.7 33.3177 64.02C32.9577 64.34 32.7777 64.9267 32.7777 65.78V69.04H29.7777ZM32.5577 78.2C31.9577 78.2 31.4511 78.1067 31.0377 77.92C30.6244 77.7333 30.3111 77.4533 30.0977 77.08C29.8844 76.6933 29.7777 76.2133 29.7777 75.64V67.04H32.7777V75.28C32.7777 75.5333 32.8311 75.72 32.9377 75.84C33.0577 75.96 33.2377 76.02 33.4777 76.02C33.5844 76.02 33.6977 76.0067 33.8177 75.98C33.9377 75.9533 34.0511 75.92 34.1577 75.88L34.4377 77.8C34.1844 77.9333 33.8977 78.0333 33.5777 78.1C33.2577 78.1667 32.9177 78.2 32.5577 78.2ZM42.4713 78.2C41.5247 78.2 40.758 78.02 40.1713 77.66C39.598 77.3 39.1913 76.84 38.9513 76.28H38.7913L38.4713 78H36.1913V67.04H39.1913V72.28C39.1913 73.04 39.278 73.6667 39.4513 74.16C39.6247 74.64 39.878 75 40.2113 75.24C40.5447 75.48 40.9447 75.6 41.4113 75.6C41.9713 75.6 42.398 75.4333 42.6913 75.1C42.9847 74.7667 43.1313 74.2333 43.1313 73.5V67.04H46.1313V74.16C46.1313 75.0267 45.9913 75.76 45.7113 76.36C45.4447 76.96 45.038 77.42 44.4913 77.74C43.9447 78.0467 43.2713 78.2 42.4713 78.2ZM43.3545 65.52V60.98H46.1145V65.52H43.3545ZM53.121 78.2C51.9343 78.2 51.0077 77.96 50.341 77.48C49.6877 76.9867 49.2277 76.3067 48.961 75.44C48.7077 74.56 48.581 73.54 48.581 72.38C48.581 71.0867 48.7077 70.0333 48.961 69.22C49.2143 68.4067 49.5943 67.8067 50.101 67.42C50.621 67.0333 51.2543 66.84 52.001 66.84C52.4677 66.84 52.8743 66.9333 53.221 67.12C53.581 67.2933 53.8677 67.62 54.081 68.1H54.161C54.3477 67.6067 54.6543 67.2733 55.081 67.1C55.5077 66.9267 55.9677 66.84 56.461 66.84C57.381 66.84 58.0677 67.0867 58.521 67.58C58.9877 68.0733 59.221 68.7933 59.221 69.74V78H56.221V70.3C56.221 69.8867 56.1543 69.6067 56.021 69.46C55.8877 69.3133 55.7077 69.24 55.481 69.24C55.2277 69.24 55.0343 69.3133 54.901 69.46C54.781 69.6067 54.701 69.8533 54.661 70.2H53.481C53.4277 69.8133 53.3277 69.56 53.181 69.44C53.0343 69.3067 52.861 69.24 52.661 69.24C52.3277 69.24 52.0677 69.48 51.881 69.96C51.7077 70.44 51.621 71.2533 51.621 72.4C51.621 73.1467 51.6743 73.7867 51.781 74.32C51.901 74.84 52.101 75.24 52.381 75.52C52.661 75.7867 53.061 75.92 53.581 75.92C53.741 75.92 53.8877 75.9133 54.021 75.9C54.1543 75.8733 54.2677 75.84 54.361 75.8L54.661 77.94C54.4477 78.0333 54.2143 78.1 53.961 78.14C53.7077 78.18 53.4277 78.2 53.121 78.2ZM49.594 65.52V64.26L51.614 63.42H58.754V65.52H49.594ZM65.967 78.2C64.887 78.2 64.027 77.9667 63.387 77.5C62.747 77.02 62.287 76.3667 62.007 75.54C61.727 74.7 61.587 73.74 61.587 72.66C61.587 71.5 61.7136 70.54 61.967 69.78C62.2336 69.0067 62.607 68.4067 63.087 67.98C63.567 67.54 64.1336 67.2333 64.787 67.06C65.4536 66.8733 66.1803 66.78 66.967 66.78C68.167 66.78 69.127 66.9467 69.847 67.28C70.567 67.6133 71.087 68.0867 71.407 68.7C71.7403 69.3133 71.907 70.0333 71.907 70.86V78H68.907V71.1C68.907 70.4733 68.7536 70 68.447 69.68C68.1536 69.3467 67.6603 69.18 66.967 69.18C66.5003 69.18 66.087 69.28 65.727 69.48C65.3803 69.6667 65.107 70.0067 64.907 70.5C64.7203 70.9933 64.627 71.7 64.627 72.62C64.627 73.2467 64.687 73.8 64.807 74.28C64.927 74.76 65.1203 75.1333 65.387 75.4C65.667 75.6667 66.0403 75.8 66.507 75.8C66.6536 75.8 66.7936 75.7933 66.927 75.78C67.0736 75.7533 67.2003 75.7267 67.307 75.7L67.587 77.94C67.3736 78.0333 67.1136 78.1 66.807 78.14C66.5136 78.18 66.2336 78.2 65.967 78.2ZM77.7827 78.2C77.1827 78.2 76.6761 78.1067 76.2627 77.92C75.8494 77.7333 75.5361 77.4533 75.3227 77.08C75.1094 76.6933 75.0027 76.2133 75.0027 75.64V67.04H78.0027V75.28C78.0027 75.5333 78.0561 75.72 78.1627 75.84C78.2827 75.96 78.4627 76.02 78.7027 76.02C78.8094 76.02 78.9227 76.0067 79.0427 75.98C79.1627 75.9533 79.2761 75.92 79.3827 75.88L79.6627 77.8C79.4094 77.9333 79.1227 78.0333 78.8027 78.1C78.4827 78.1667 78.1427 78.2 77.7827 78.2ZM85.5541 78.26C84.0341 78.26 82.8808 77.9267 82.0941 77.26C81.3208 76.58 80.9341 75.6067 80.9341 74.34V73.56C80.9341 73.0133 80.9941 72.56 81.1141 72.2C81.2475 71.84 81.4208 71.5133 81.6341 71.22C81.8475 70.9267 82.0208 70.6667 82.1541 70.44C82.3008 70.2 82.3741 69.9533 82.3741 69.7C82.3741 69.46 82.3141 69.2933 82.1941 69.2C82.0875 69.0933 81.9408 69.04 81.7541 69.04C81.6208 69.04 81.4808 69.06 81.3341 69.1C81.2008 69.14 81.0475 69.2 80.8741 69.28L80.3941 67.4C80.7675 67.2 81.1675 67.0667 81.5941 67C82.0341 66.92 82.4208 66.88 82.7541 66.88C83.3408 66.88 83.8075 66.9733 84.1541 67.16C84.5141 67.3467 84.7741 67.6133 84.9341 67.96C85.0941 68.3067 85.1741 68.72 85.1741 69.2C85.1741 69.6133 85.1141 69.98 84.9941 70.3C84.8741 70.6067 84.7208 70.9267 84.5341 71.26C84.3608 71.5667 84.2075 71.8533 84.0741 72.12C83.9541 72.3867 83.8941 72.7733 83.8941 73.28V74.04C83.8941 74.48 83.9541 74.84 84.0741 75.12C84.2075 75.4 84.4008 75.6067 84.6541 75.74C84.9075 75.86 85.2075 75.92 85.5541 75.92C86.1275 75.92 86.5341 75.7667 86.7741 75.46C87.0275 75.14 87.1541 74.7133 87.1541 74.18V72.24C87.1541 71.84 87.0608 71.5267 86.8741 71.3C86.7008 71.06 86.4008 70.94 85.9741 70.94H85.8741V69.36H85.9941C86.4075 69.36 86.7141 69.2467 86.9141 69.02C87.1141 68.7933 87.2408 68.5067 87.2941 68.16C87.3608 67.8 87.3941 67.4267 87.3941 67.04H90.3741C90.3741 67.8533 90.2675 68.5267 90.0541 69.06C89.8408 69.5933 89.4675 69.9533 88.9341 70.14V70.22C89.2541 70.3133 89.5008 70.46 89.6741 70.66C89.8475 70.8467 89.9675 71.0733 90.0341 71.34C90.1008 71.6067 90.1341 71.9 90.1341 72.22V74.26C90.1341 75.58 89.7475 76.58 88.9741 77.26C88.2008 77.9267 87.0608 78.26 85.5541 78.26ZM81.2546 65.52V64.26L83.2746 63.42H90.4146V65.52H81.2546ZM85.4546 64.3V62.04H87.3546V64.3H85.4546ZM88.5346 64.3V62.04H90.4146V64.3H88.5346ZM85.658 60.98V60.16C85.7914 60.12 85.958 60.06 86.158 59.98C86.3447 59.9 86.5114 59.7933 86.658 59.66C86.8047 59.5267 86.878 59.36 86.878 59.16C86.878 59.0133 86.838 58.9 86.758 58.82C86.6647 58.7267 86.5514 58.68 86.418 58.68C86.3247 58.68 86.2247 58.7 86.118 58.74C85.998 58.7667 85.9047 58.8133 85.838 58.88L85.478 57.72C85.718 57.5333 86.018 57.4133 86.378 57.36C86.7247 57.2933 87.0247 57.26 87.278 57.26C87.7847 57.26 88.198 57.3667 88.518 57.58C88.8247 57.78 88.978 58.1133 88.978 58.58C88.978 58.78 88.938 58.9867 88.858 59.2C88.7647 59.4133 88.5847 59.5867 88.318 59.72L88.178 59.3H91.158V60.98H85.658ZM97.2268 78.26C95.6001 78.26 94.3935 77.8667 93.6068 77.08C92.8201 76.28 92.4268 75.1 92.4268 73.54C92.4268 73.2733 92.4335 72.9533 92.4468 72.58C92.4735 72.1933 92.5068 71.8533 92.5468 71.56H97.3468V73.46H95.3668V73.74C95.3668 74.2733 95.4335 74.7133 95.5668 75.06C95.7001 75.3933 95.9001 75.64 96.1668 75.8C96.4468 75.96 96.7935 76.04 97.2068 76.04C97.6601 76.04 98.0401 75.94 98.3468 75.74C98.6668 75.54 98.9068 75.2 99.0668 74.72C99.2401 74.24 99.3268 73.58 99.3268 72.74C99.3268 71.9533 99.2335 71.3 99.0468 70.78C98.8735 70.2467 98.5735 69.8467 98.1468 69.58C97.7335 69.3133 97.1601 69.18 96.4268 69.18C96.0268 69.18 95.6135 69.2267 95.1868 69.32C94.7601 69.4 94.3535 69.5067 93.9668 69.64C93.5935 69.7733 93.2668 69.92 92.9868 70.08V67.58C93.2801 67.42 93.6401 67.28 94.0668 67.16C94.5068 67.04 94.9801 66.9467 95.4868 66.88C95.9935 66.8133 96.4935 66.78 96.9868 66.78C98.2801 66.78 99.3201 67.02 100.107 67.5C100.907 67.9667 101.487 68.6333 101.847 69.5C102.22 70.3667 102.407 71.3933 102.407 72.58C102.407 73.7933 102.227 74.8267 101.867 75.68C101.52 76.52 100.967 77.16 100.207 77.6C99.4468 78.04 98.4535 78.26 97.2268 78.26Z" fill="black"/>
</svg>
