<svg width="132" height="138" viewBox="0 0 132 138" fill="none" xmlns="http://www.w3.org/2000/svg">
<path d="M0 0.5H132C132 0.5 127 117 127 123C127 129 125 131 122.5 134.5C120 138 107 137.5 107 137.5H25.5C18.0085 137.211 13.8729 137.018 10 135C6.73951 131.717 5.72326 129.75 5.5 126L0 0.5Z" fill="#CA3636"/>
<rect y="0.5" width="132" height="5" fill="#EC8B8B"/>
<rect x="23" y="9.5" width="12" height="114" rx="6" fill="#811D1D"/>
<rect x="73" y="9.5" width="12" height="114" rx="6" fill="#811D1D"/>
<rect x="47" y="9.5" width="12" height="114" rx="6" fill="#811D1D"/>
<rect x="97" y="9.5" width="12" height="114" rx="6" fill="#811D1D"/>
<rect x="23" y="12.5" width="12" height="111" rx="6" fill="#EC8B8B"/>
<rect x="73" y="12.5" width="12" height="111" rx="6" fill="#EC8B8B"/>
<rect x="47" y="12.5" width="12" height="111" rx="6" fill="#EC8B8B"/>
<rect x="97" y="12.5" width="12" height="111" rx="6" fill="#EC8B8B"/>
<rect x="17" y="32.5" width="98" height="50" rx="25" fill="#FEFDFD" fill-opacity="0.8"/>
<path d="M25.0585 64.7C23.8718 64.7 22.9452 64.46 22.2785 63.98C21.6252 63.4867 21.1652 62.8067 20.8985 61.94C20.6452 61.06 20.5185 60.04 20.5185 58.88C20.5185 57.5867 20.6452 56.5333 20.8985 55.72C21.1518 54.9067 21.5318 54.3067 22.0385 53.92C22.5585 53.5333 23.1918 53.34 23.9385 53.34C24.4052 53.34 24.8118 53.4333 25.1585 53.62C25.5185 53.7933 25.8052 54.12 26.0185 54.6H26.0985C26.2852 54.1067 26.5918 53.7733 27.0185 53.6C27.4452 53.4267 27.9052 53.34 28.3985 53.34C29.3185 53.34 30.0052 53.5867 30.4585 54.08C30.9252 54.5733 31.1585 55.2933 31.1585 56.24V64.5H28.1585V56.8C28.1585 56.3867 28.0918 56.1067 27.9585 55.96C27.8252 55.8133 27.6452 55.74 27.4185 55.74C27.1652 55.74 26.9718 55.8133 26.8385 55.96C26.7185 56.1067 26.6385 56.3533 26.5985 56.7H25.4185C25.3652 56.3133 25.2652 56.06 25.1185 55.94C24.9718 55.8067 24.7985 55.74 24.5985 55.74C24.2652 55.74 24.0052 55.98 23.8185 56.46C23.6452 56.94 23.5585 57.7533 23.5585 58.9C23.5585 59.6467 23.6118 60.2867 23.7185 60.82C23.8385 61.34 24.0385 61.74 24.3185 62.02C24.5985 62.2867 24.9985 62.42 25.5185 62.42C25.6785 62.42 25.8252 62.4133 25.9585 62.4C26.0918 62.3733 26.2052 62.34 26.2985 62.3L26.5985 64.44C26.3852 64.5333 26.1518 64.6 25.8985 64.64C25.6452 64.68 25.3652 64.7 25.0585 64.7ZM21.5315 52.02V50.76L23.5515 49.92H30.6915V52.02H21.5315ZM37.9045 64.7C36.8245 64.7 35.9645 64.4667 35.3245 64C34.6845 63.52 34.2245 62.8667 33.9445 62.04C33.6645 61.2 33.5245 60.24 33.5245 59.16C33.5245 58 33.6511 57.04 33.9045 56.28C34.1711 55.5067 34.5445 54.9067 35.0245 54.48C35.5045 54.04 36.0711 53.7333 36.7245 53.56C37.3911 53.3733 38.1178 53.28 38.9045 53.28C40.1045 53.28 41.0645 53.4467 41.7845 53.78C42.5045 54.1133 43.0245 54.5867 43.3445 55.2C43.6778 55.8133 43.8445 56.5333 43.8445 57.36V64.5H40.8445V57.6C40.8445 56.9733 40.6911 56.5 40.3845 56.18C40.0911 55.8467 39.5978 55.68 38.9045 55.68C38.4378 55.68 38.0245 55.78 37.6645 55.98C37.3178 56.1667 37.0445 56.5067 36.8445 57C36.6578 57.4933 36.5645 58.2 36.5645 59.12C36.5645 59.7467 36.6245 60.3 36.7445 60.78C36.8645 61.26 37.0578 61.6333 37.3245 61.9C37.6045 62.1667 37.9778 62.3 38.4445 62.3C38.5911 62.3 38.7311 62.2933 38.8645 62.28C39.0111 62.2533 39.1378 62.2267 39.2445 62.2L39.5245 64.44C39.3111 64.5333 39.0511 64.6 38.7445 64.64C38.4511 64.68 38.1711 64.7 37.9045 64.7ZM49.7202 64.7C49.1202 64.7 48.6136 64.6067 48.2002 64.42C47.7869 64.2333 47.4736 63.9533 47.2602 63.58C47.0469 63.1933 46.9402 62.7133 46.9402 62.14V53.54H49.9402V61.78C49.9402 62.0333 49.9936 62.22 50.1002 62.34C50.2202 62.46 50.4002 62.52 50.6402 62.52C50.7469 62.52 50.8602 62.5067 50.9802 62.48C51.1002 62.4533 51.2136 62.42 51.3202 62.38L51.6002 64.3C51.3469 64.4333 51.0602 64.5333 50.7402 64.6C50.4202 64.6667 50.0802 64.7 49.7202 64.7ZM57.4916 64.76C55.9716 64.76 54.8183 64.4267 54.0316 63.76C53.2583 63.08 52.8716 62.1067 52.8716 60.84V60.06C52.8716 59.5133 52.9316 59.06 53.0516 58.7C53.185 58.34 53.3583 58.0133 53.5716 57.72C53.785 57.4267 53.9583 57.1667 54.0916 56.94C54.2383 56.7 54.3116 56.4533 54.3116 56.2C54.3116 55.96 54.2516 55.7933 54.1316 55.7C54.025 55.5933 53.8783 55.54 53.6916 55.54C53.5583 55.54 53.4183 55.56 53.2716 55.6C53.1383 55.64 52.985 55.7 52.8116 55.78L52.3316 53.9C52.705 53.7 53.105 53.5667 53.5316 53.5C53.9716 53.42 54.3583 53.38 54.6916 53.38C55.2783 53.38 55.745 53.4733 56.0916 53.66C56.4516 53.8467 56.7116 54.1133 56.8716 54.46C57.0316 54.8067 57.1116 55.22 57.1116 55.7C57.1116 56.1133 57.0516 56.48 56.9316 56.8C56.8116 57.1067 56.6583 57.4267 56.4716 57.76C56.2983 58.0667 56.145 58.3533 56.0116 58.62C55.8916 58.8867 55.8316 59.2733 55.8316 59.78V60.54C55.8316 60.98 55.8916 61.34 56.0116 61.62C56.145 61.9 56.3383 62.1067 56.5916 62.24C56.845 62.36 57.145 62.42 57.4916 62.42C58.065 62.42 58.4716 62.2667 58.7116 61.96C58.965 61.64 59.0916 61.2133 59.0916 60.68V58.74C59.0916 58.34 58.9983 58.0267 58.8116 57.8C58.6383 57.56 58.3383 57.44 57.9116 57.44H57.8116V55.86H57.9316C58.345 55.86 58.6516 55.7467 58.8516 55.52C59.0516 55.2933 59.1783 55.0067 59.2316 54.66C59.2983 54.3 59.3316 53.9267 59.3316 53.54H62.3116C62.3116 54.3533 62.205 55.0267 61.9916 55.56C61.7783 56.0933 61.405 56.4533 60.8716 56.64V56.72C61.1916 56.8133 61.4383 56.96 61.6116 57.16C61.785 57.3467 61.905 57.5733 61.9716 57.84C62.0383 58.1067 62.0716 58.4 62.0716 58.72V60.76C62.0716 62.08 61.685 63.08 60.9116 63.76C60.1383 64.4267 58.9983 64.76 57.4916 64.76ZM53.1921 52.02V50.76L55.2121 49.92H62.3521V52.02H53.1921ZM57.3921 50.8V48.54H59.2921V50.8H57.3921ZM60.4721 50.8V48.54H62.3521V50.8H60.4721ZM57.5955 47.48V46.66C57.7289 46.62 57.8955 46.56 58.0955 46.48C58.2822 46.4 58.4489 46.2933 58.5955 46.16C58.7422 46.0267 58.8155 45.86 58.8155 45.66C58.8155 45.5133 58.7755 45.4 58.6955 45.32C58.6022 45.2267 58.4889 45.18 58.3555 45.18C58.2622 45.18 58.1622 45.2 58.0555 45.24C57.9355 45.2667 57.8422 45.3133 57.7755 45.38L57.4155 44.22C57.6555 44.0333 57.9555 43.9133 58.3155 43.86C58.6622 43.7933 58.9622 43.76 59.2155 43.76C59.7222 43.76 60.1355 43.8667 60.4555 44.08C60.7622 44.28 60.9155 44.6133 60.9155 45.08C60.9155 45.28 60.8755 45.4867 60.7955 45.7C60.7022 45.9133 60.5222 46.0867 60.2555 46.22L60.1155 45.8H63.0955V47.48H57.5955ZM69.1643 64.76C67.5376 64.76 66.331 64.3667 65.5443 63.58C64.7576 62.78 64.3643 61.6 64.3643 60.04C64.3643 59.7733 64.371 59.4533 64.3843 59.08C64.411 58.6933 64.4443 58.3533 64.4843 58.06H69.2843V59.96H67.3043V60.24C67.3043 60.7733 67.371 61.2133 67.5043 61.56C67.6376 61.8933 67.8376 62.14 68.1043 62.3C68.3843 62.46 68.731 62.54 69.1443 62.54C69.5976 62.54 69.9776 62.44 70.2843 62.24C70.6043 62.04 70.8443 61.7 71.0043 61.22C71.1776 60.74 71.2643 60.08 71.2643 59.24C71.2643 58.4533 71.171 57.8 70.9843 57.28C70.811 56.7467 70.511 56.3467 70.0843 56.08C69.671 55.8133 69.0976 55.68 68.3643 55.68C67.9643 55.68 67.551 55.7267 67.1243 55.82C66.6976 55.9 66.291 56.0067 65.9043 56.14C65.531 56.2733 65.2043 56.42 64.9243 56.58V54.08C65.2176 53.92 65.5776 53.78 66.0043 53.66C66.4443 53.54 66.9176 53.4467 67.4243 53.38C67.931 53.3133 68.431 53.28 68.9243 53.28C70.2176 53.28 71.2576 53.52 72.0443 54C72.8443 54.4667 73.4243 55.1333 73.7843 56C74.1576 56.8667 74.3443 57.8933 74.3443 59.08C74.3443 60.2933 74.1643 61.3267 73.8043 62.18C73.4576 63.02 72.9043 63.66 72.1443 64.1C71.3843 64.54 70.391 64.76 69.1643 64.76ZM81.5998 64.76C79.8664 64.76 78.6064 64.36 77.8198 63.56C77.0464 62.7467 76.6598 61.5733 76.6598 60.04V53.54H79.6598V60.2C79.6598 60.9067 79.8131 61.4467 80.1198 61.82C80.4398 62.18 80.9331 62.36 81.5998 62.36C82.2664 62.36 82.7531 62.18 83.0598 61.82C83.3798 61.4467 83.5398 60.9067 83.5398 60.2V49.6H86.5398V60.04C86.5398 61.5733 86.1464 62.7467 85.3598 63.56C84.5864 64.36 83.3331 64.76 81.5998 64.76ZM89.2551 64.5V61.16C89.2551 60.32 89.4217 59.6733 89.7551 59.22C90.0884 58.7667 90.5617 58.4467 91.1751 58.26L91.1951 58.18L89.0551 57.4V56.88C89.0551 56.2267 89.2484 55.6267 89.6351 55.08C90.0217 54.5333 90.5884 54.1 91.3351 53.78C92.0951 53.4467 93.0151 53.28 94.0951 53.28C95.1084 53.28 95.9817 53.44 96.7151 53.76C97.4484 54.0667 98.0151 54.5333 98.4151 55.16C98.8284 55.7733 99.0351 56.5533 99.0351 57.5V64.5H96.0351V57.68C96.0351 57.0133 95.8551 56.5133 95.4951 56.18C95.1484 55.8467 94.6551 55.68 94.0151 55.68C93.4017 55.68 92.9417 55.8133 92.6351 56.08C92.3284 56.3333 92.1617 56.6467 92.1351 57.02L93.9151 57.84L93.6951 59.14C93.2151 59.1667 92.8551 59.34 92.6151 59.66C92.3751 59.98 92.2551 60.4133 92.2551 60.96V64.5H89.2551ZM106.016 64.7C104.829 64.7 103.902 64.46 103.236 63.98C102.582 63.4867 102.122 62.8067 101.856 61.94C101.602 61.06 101.476 60.04 101.476 58.88C101.476 57.5867 101.602 56.5333 101.856 55.72C102.109 54.9067 102.489 54.3067 102.996 53.92C103.516 53.5333 104.149 53.34 104.896 53.34C105.362 53.34 105.769 53.4333 106.116 53.62C106.476 53.7933 106.762 54.12 106.976 54.6H107.056C107.242 54.1067 107.549 53.7733 107.976 53.6C108.402 53.4267 108.862 53.34 109.356 53.34C110.276 53.34 110.962 53.5867 111.416 54.08C111.882 54.5733 112.116 55.2933 112.116 56.24V64.5H109.116V56.8C109.116 56.3867 109.049 56.1067 108.916 55.96C108.782 55.8133 108.602 55.74 108.376 55.74C108.122 55.74 107.929 55.8133 107.796 55.96C107.676 56.1067 107.596 56.3533 107.556 56.7H106.376C106.322 56.3133 106.222 56.06 106.076 55.94C105.929 55.8067 105.756 55.74 105.556 55.74C105.222 55.74 104.962 55.98 104.776 56.46C104.602 56.94 104.516 57.7533 104.516 58.9C104.516 59.6467 104.569 60.2867 104.676 60.82C104.796 61.34 104.996 61.74 105.276 62.02C105.556 62.2867 105.956 62.42 106.476 62.42C106.636 62.42 106.782 62.4133 106.916 62.4C107.049 62.3733 107.162 62.34 107.256 62.3L107.556 64.44C107.342 64.5333 107.109 64.6 106.856 64.64C106.602 64.68 106.322 64.7 106.016 64.7ZM102.489 52.02V50.76L104.509 49.92H111.649V52.02H102.489Z" fill="black"/>
</svg>
