<svg width="1440" height="1024" viewBox="0 0 1440 1024" fill="none" xmlns="http://www.w3.org/2000/svg">
<g clip-path="url(#clip0_135_3761)">
<rect width="1440" height="1024" fill="#FBEAD7"/>
<path d="M0 933H1440V1024H0V933Z" fill="#9B856F"/>
<rect x="7" width="137" height="52" rx="1" fill="#D3BBA4"/>
<rect x="7" y="268" width="137" height="52" rx="1" fill="#D3BBA4"/>
<rect x="7" y="536" width="137" height="52" rx="1" fill="#D3BBA4"/>
<rect x="7" y="134" width="137" height="52" rx="1" fill="#D3BBA4"/>
<rect x="7" y="402" width="137" height="52" rx="1" fill="#D3BBA4"/>
<rect x="7" y="670" width="137" height="52" rx="1" fill="#D3BBA4"/>
<rect x="7" y="804" width="137" height="52" rx="1" fill="#D3BBA4"/>
<rect x="7" y="67" width="57" height="52" rx="1" fill="#D3BBA4"/>
<rect x="7" y="335" width="57" height="52" rx="1" fill="#D3BBA4"/>
<rect x="7" y="603" width="57" height="52" rx="1" fill="#D3BBA4"/>
<rect x="7" y="201" width="57" height="52" rx="1" fill="#D3BBA4"/>
<rect x="7" y="469" width="57" height="52" rx="1" fill="#D3BBA4"/>
<rect x="7" y="737" width="57" height="52" rx="1" fill="#D3BBA4"/>
<rect x="7" y="869" width="57" height="52" rx="1" fill="#D3BBA4"/>
<rect x="164" width="146" height="52" rx="1" fill="#D3BBA4"/>
<rect x="159" y="268" width="146" height="52" rx="1" fill="#D3BBA4"/>
<rect x="167" y="536" width="146" height="52" rx="1" fill="#D3BBA4"/>
<rect x="161" y="134" width="146" height="52" rx="1" fill="#D3BBA4"/>
<rect x="156" y="402" width="146" height="52" rx="1" fill="#D3BBA4"/>
<rect x="164" y="670" width="146" height="52" rx="1" fill="#D3BBA4"/>
<rect x="164" y="804" width="146" height="52" rx="1" fill="#D3BBA4"/>
<rect x="79" y="67" width="146" height="52" rx="1" fill="#D3BBA4"/>
<rect x="74" y="335" width="146" height="52" rx="1" fill="#D3BBA4"/>
<rect x="82" y="603" width="146" height="52" rx="1" fill="#D3BBA4"/>
<rect x="76" y="201" width="146" height="52" rx="1" fill="#D3BBA4"/>
<rect x="71" y="469" width="146" height="52" rx="1" fill="#D3BBA4"/>
<rect x="79" y="737" width="146" height="52" rx="1" fill="#D3BBA4"/>
<rect x="79" y="869" width="146" height="52" rx="1" fill="#D3BBA4"/>
<rect x="328" width="146" height="52" rx="1" fill="#D3BBA4"/>
<rect x="323" y="268" width="146" height="52" rx="1" fill="#D3BBA4"/>
<rect x="331" y="536" width="146" height="52" rx="1" fill="#D3BBA4"/>
<rect x="325" y="134" width="146" height="52" rx="1" fill="#D3BBA4"/>
<rect x="320" y="402" width="146" height="52" rx="1" fill="#D3BBA4"/>
<rect x="328" y="670" width="146" height="52" rx="1" fill="#D3BBA4"/>
<rect x="328" y="804" width="146" height="52" rx="1" fill="#D3BBA4"/>
<rect x="243" y="67" width="146" height="52" rx="1" fill="#D3BBA4"/>
<rect x="238" y="335" width="146" height="52" rx="1" fill="#D3BBA4"/>
<rect x="246" y="603" width="146" height="52" rx="1" fill="#D3BBA4"/>
<rect x="240" y="201" width="146" height="52" rx="1" fill="#D3BBA4"/>
<rect x="235" y="469" width="146" height="52" rx="1" fill="#D3BBA4"/>
<rect x="243" y="737" width="146" height="52" rx="1" fill="#D3BBA4"/>
<rect x="243" y="869" width="146" height="52" rx="1" fill="#D3BBA4"/>
<rect x="492" width="146" height="52" rx="1" fill="#D3BBA4"/>
<rect x="487" y="268" width="146" height="52" rx="1" fill="#D3BBA4"/>
<rect x="495" y="536" width="146" height="52" rx="1" fill="#D3BBA4"/>
<rect x="489" y="134" width="146" height="52" rx="1" fill="#D3BBA4"/>
<rect x="484" y="402" width="146" height="52" rx="1" fill="#D3BBA4"/>
<rect x="492" y="670" width="146" height="52" rx="1" fill="#D3BBA4"/>
<rect x="492" y="804" width="146" height="52" rx="1" fill="#D3BBA4"/>
<rect x="407" y="67" width="146" height="52" rx="1" fill="#D3BBA4"/>
<rect x="402" y="335" width="146" height="52" rx="1" fill="#D3BBA4"/>
<rect x="410" y="603" width="146" height="52" rx="1" fill="#D3BBA4"/>
<rect x="404" y="201" width="146" height="52" rx="1" fill="#D3BBA4"/>
<rect x="399" y="469" width="146" height="52" rx="1" fill="#D3BBA4"/>
<rect x="407" y="737" width="146" height="52" rx="1" fill="#D3BBA4"/>
<rect x="407" y="869" width="146" height="52" rx="1" fill="#D3BBA4"/>
<rect x="656" width="146" height="52" rx="1" fill="#D3BBA4"/>
<rect x="651" y="268" width="146" height="52" rx="1" fill="#D3BBA4"/>
<rect x="659" y="536" width="146" height="52" rx="1" fill="#D3BBA4"/>
<rect x="653" y="134" width="146" height="52" rx="1" fill="#D3BBA4"/>
<rect x="648" y="402" width="146" height="52" rx="1" fill="#D3BBA4"/>
<rect x="656" y="670" width="146" height="52" rx="1" fill="#D3BBA4"/>
<rect x="656" y="804" width="146" height="52" rx="1" fill="#D3BBA4"/>
<rect x="571" y="67" width="146" height="52" rx="1" fill="#D3BBA4"/>
<rect x="566" y="335" width="146" height="52" rx="1" fill="#D3BBA4"/>
<rect x="574" y="603" width="146" height="52" rx="1" fill="#D3BBA4"/>
<rect x="568" y="201" width="146" height="52" rx="1" fill="#D3BBA4"/>
<rect x="563" y="469" width="146" height="52" rx="1" fill="#D3BBA4"/>
<rect x="571" y="737" width="146" height="52" rx="1" fill="#D3BBA4"/>
<rect x="571" y="869" width="146" height="52" rx="1" fill="#D3BBA4"/>
<rect x="820" width="146" height="52" rx="1" fill="#D3BBA4"/>
<rect x="815" y="268" width="146" height="52" rx="1" fill="#D3BBA4"/>
<rect x="823" y="536" width="146" height="52" rx="1" fill="#D3BBA4"/>
<rect x="817" y="134" width="146" height="52" rx="1" fill="#D3BBA4"/>
<rect x="812" y="402" width="146" height="52" rx="1" fill="#D3BBA4"/>
<rect x="820" y="670" width="146" height="52" rx="1" fill="#D3BBA4"/>
<rect x="820" y="804" width="146" height="52" rx="1" fill="#D3BBA4"/>
<rect x="735" y="67" width="146" height="52" rx="1" fill="#D3BBA4"/>
<rect x="730" y="335" width="146" height="52" rx="1" fill="#D3BBA4"/>
<rect x="738" y="603" width="146" height="52" rx="1" fill="#D3BBA4"/>
<rect x="732" y="201" width="146" height="52" rx="1" fill="#D3BBA4"/>
<rect x="727" y="469" width="146" height="52" rx="1" fill="#D3BBA4"/>
<rect x="735" y="737" width="146" height="52" rx="1" fill="#D3BBA4"/>
<rect x="735" y="869" width="146" height="52" rx="1" fill="#D3BBA4"/>
<rect x="984" width="146" height="52" rx="1" fill="#D3BBA4"/>
<rect x="979" y="268" width="146" height="52" rx="1" fill="#D3BBA4"/>
<rect x="987" y="536" width="146" height="52" rx="1" fill="#D3BBA4"/>
<rect x="981" y="134" width="146" height="52" rx="1" fill="#D3BBA4"/>
<rect x="976" y="402" width="146" height="52" rx="1" fill="#D3BBA4"/>
<rect x="984" y="670" width="146" height="52" rx="1" fill="#D3BBA4"/>
<rect x="984" y="804" width="146" height="52" rx="1" fill="#D3BBA4"/>
<rect x="899" y="67" width="146" height="52" rx="1" fill="#D3BBA4"/>
<rect x="894" y="335" width="146" height="52" rx="1" fill="#D3BBA4"/>
<rect x="902" y="603" width="146" height="52" rx="1" fill="#D3BBA4"/>
<rect x="896" y="201" width="146" height="52" rx="1" fill="#D3BBA4"/>
<rect x="891" y="469" width="146" height="52" rx="1" fill="#D3BBA4"/>
<rect x="899" y="737" width="146" height="52" rx="1" fill="#D3BBA4"/>
<rect x="899" y="869" width="146" height="52" rx="1" fill="#D3BBA4"/>
<rect x="1148" width="146" height="52" rx="1" fill="#D3BBA4"/>
<rect x="1143" y="268" width="146" height="52" rx="1" fill="#D3BBA4"/>
<rect x="1151" y="536" width="146" height="52" rx="1" fill="#D3BBA4"/>
<rect x="1145" y="134" width="146" height="52" rx="1" fill="#D3BBA4"/>
<rect x="1140" y="402" width="146" height="52" rx="1" fill="#D3BBA4"/>
<rect x="1148" y="670" width="146" height="52" rx="1" fill="#D3BBA4"/>
<rect x="1148" y="804" width="146" height="52" rx="1" fill="#D3BBA4"/>
<rect x="1063" y="67" width="146" height="52" rx="1" fill="#D3BBA4"/>
<rect x="1058" y="335" width="146" height="52" rx="1" fill="#D3BBA4"/>
<rect x="1066" y="603" width="146" height="52" rx="1" fill="#D3BBA4"/>
<rect x="1060" y="201" width="146" height="52" rx="1" fill="#D3BBA4"/>
<rect x="1055" y="469" width="146" height="52" rx="1" fill="#D3BBA4"/>
<rect x="1063" y="737" width="146" height="52" rx="1" fill="#D3BBA4"/>
<rect x="1063" y="869" width="146" height="52" rx="1" fill="#D3BBA4"/>
<rect x="1308" width="124" height="52" rx="1" fill="#D3BBA4"/>
<rect x="1299" y="268" width="133" height="52" rx="1" fill="#D3BBA4"/>
<rect x="1311" y="536" width="121" height="52" rx="1" fill="#D3BBA4"/>
<rect x="1305" y="134" width="127" height="52" rx="1" fill="#D3BBA4"/>
<rect x="1300" y="402" width="132" height="52" rx="1" fill="#D3BBA4"/>
<rect x="1308" y="670" width="124" height="52" rx="1" fill="#D3BBA4"/>
<rect x="1308" y="804" width="124" height="52" rx="1" fill="#D3BBA4"/>
<rect x="1227" y="67" width="146" height="52" rx="1" fill="#D3BBA4"/>
<rect x="1222" y="335" width="146" height="52" rx="1" fill="#D3BBA4"/>
<rect x="1230" y="603" width="146" height="52" rx="1" fill="#D3BBA4"/>
<rect x="1224" y="201" width="146" height="52" rx="1" fill="#D3BBA4"/>
<rect x="1219" y="469" width="149" height="52" rx="1" fill="#D3BBA4"/>
<rect x="1227" y="737" width="146" height="52" rx="1" fill="#D3BBA4"/>
<rect x="1227" y="869" width="146" height="52" rx="1" fill="#D3BBA4"/>
<rect x="1383" y="869" width="49" height="52" rx="1" fill="#D3BBA4"/>
<rect x="1383" y="735" width="49" height="52" rx="1" fill="#D3BBA4"/>
<rect x="1383" y="601" width="49" height="52" rx="1" fill="#D3BBA4"/>
<rect x="1383" y="469" width="49" height="52" rx="1" fill="#D3BBA4"/>
<rect x="1383" y="335" width="49" height="52" rx="1" fill="#D3BBA4"/>
<rect x="1383" y="201" width="49" height="52" rx="1" fill="#D3BBA4"/>
<rect x="1383" y="67" width="49" height="52" rx="1" fill="#D3BBA4"/>
</g>
<defs>
<clipPath id="clip0_135_3761">
<rect width="1440" height="1024" fill="white"/>
</clipPath>
</defs>
</svg>
