<svg width="311" height="323" viewBox="0 0 311 323" fill="none" xmlns="http://www.w3.org/2000/svg">
<path d="M0.172119 0H310.697C310.697 0 298.934 274.061 298.934 288.176C298.934 302.291 294.229 306.996 288.348 315.229C282.467 323.463 251.885 322.287 251.885 322.287H60.1598C42.5364 321.607 32.8075 321.153 23.6967 316.406C16.0265 308.682 13.6358 304.055 13.1106 295.234L0.172119 0Z" fill="#6CCC82"/>
<rect x="0.172119" width="310.525" height="11.7623" fill="#5AA36B"/>
<rect x="54.2787" y="21.1719" width="28.2295" height="268.18" rx="14.1148" fill="#30613B"/>
<rect x="171.902" y="21.1719" width="28.2295" height="268.18" rx="14.1148" fill="#30613B"/>
<rect x="110.738" y="21.1719" width="28.2295" height="268.18" rx="14.1148" fill="#30613B"/>
<rect x="228.361" y="21.1719" width="28.2295" height="268.18" rx="14.1148" fill="#30613B"/>
<rect x="54.2787" y="28.2295" width="28.2295" height="261.123" rx="14.1148" fill="#5AA36B"/>
<rect x="171.902" y="28.2295" width="28.2295" height="261.123" rx="14.1148" fill="#5AA36B"/>
<rect x="110.738" y="28.2295" width="28.2295" height="261.123" rx="14.1148" fill="#5AA36B"/>
<rect x="228.361" y="28.2295" width="28.2295" height="261.123" rx="14.1148" fill="#5AA36B"/>
<rect x="40.1639" y="84.6885" width="230.541" height="115.27" rx="57.6352" fill="#FEFDFD" fill-opacity="0.8"/>
<path d="M107.73 135.451V109.668H112.906L113.847 113.714H114.223C114.756 112.428 115.682 111.362 116.999 110.515C118.316 109.637 120.026 109.198 122.127 109.198C124.135 109.198 125.797 109.558 127.115 110.28C128.432 110.97 129.42 112.036 130.079 113.479C130.769 114.891 131.114 116.679 131.114 118.843V135.451H124.056V120.254C124.056 118.498 123.696 117.243 122.974 116.49C122.284 115.706 121.265 115.314 119.916 115.314C118.818 115.314 117.877 115.612 117.093 116.208C116.34 116.804 115.76 117.682 115.352 118.843C114.976 119.972 114.788 121.399 114.788 123.124V135.451H107.73ZM123.203 106.092C121.729 106.092 120.568 105.873 119.721 105.434C118.874 104.995 118.278 104.446 117.933 103.787C117.557 103.097 117.369 102.376 117.369 101.623C117.369 101.09 117.447 100.525 117.604 99.929C117.761 99.3017 117.996 98.7214 118.31 98.1882L123.438 98.8469C123.375 99.0665 123.328 99.3017 123.297 99.5526C123.234 99.7722 123.203 99.9761 123.203 100.164C123.203 100.603 123.344 100.948 123.626 101.199C123.877 101.419 124.316 101.529 124.944 101.529H135.059V106.092H123.203ZM124.6 97.4123V88.6612H130.716V97.4123H124.6ZM144.549 136.063C142.949 136.063 141.444 135.875 140.032 135.498C138.621 135.153 137.303 134.651 136.08 133.993L137.962 128.864C138.652 129.272 139.483 129.633 140.456 129.946C141.428 130.26 142.385 130.417 143.326 130.417C145.082 130.417 146.478 129.758 147.513 128.441C148.548 127.092 149.066 125.085 149.066 122.419C149.066 119.909 148.548 117.996 147.513 116.679C146.478 115.361 144.863 114.702 142.667 114.702C141.632 114.702 140.565 114.859 139.468 115.173C138.37 115.455 137.46 115.816 136.739 116.255V110.468C137.711 110.029 138.809 109.684 140.032 109.433C141.255 109.182 142.557 109.057 143.937 109.057C146.823 109.057 149.175 109.59 150.995 110.656C152.814 111.723 154.147 113.26 154.994 115.267C155.841 117.243 156.264 119.627 156.264 122.419C156.264 126.873 155.245 130.26 153.206 132.581C151.167 134.902 148.281 136.063 144.549 136.063ZM163.494 114.373V107.504C163.494 106.312 163.604 105.355 163.824 104.634C164.043 103.881 164.341 103.27 164.718 102.799C165.094 102.329 165.486 101.936 165.894 101.623L165.847 101.435H158.554L159.872 96.3533H174.833V101.435C173.673 101.435 172.669 101.811 171.822 102.564C170.975 103.317 170.552 104.697 170.552 106.704V114.373H163.494ZM170.034 135.922C168.623 135.922 167.431 135.702 166.458 135.263C165.486 134.824 164.749 134.165 164.247 133.287C163.745 132.377 163.494 131.248 163.494 129.899V109.668H170.552V129.052C170.552 129.648 170.677 130.088 170.928 130.37C171.21 130.652 171.634 130.793 172.198 130.793C172.449 130.793 172.716 130.762 172.998 130.699C173.281 130.636 173.547 130.558 173.798 130.464L174.457 134.981C173.861 135.294 173.186 135.53 172.434 135.686C171.681 135.843 170.881 135.922 170.034 135.922ZM189.458 136.063C185.381 136.063 182.416 135.122 180.566 133.24C178.747 131.327 177.837 128.566 177.837 124.959V109.668H184.894V125.336C184.894 126.998 185.255 128.268 185.976 129.147C186.729 129.993 187.89 130.417 189.458 130.417C191.026 130.417 192.171 129.993 192.893 129.147C193.645 128.268 194.022 126.998 194.022 125.336V100.4H201.079V124.959C201.079 128.566 200.154 131.327 198.303 133.24C196.484 135.122 193.536 136.063 189.458 136.063ZM70.223 161.373V154.504C70.223 153.312 70.3328 152.355 70.5523 151.634C70.7719 150.881 71.0699 150.27 71.4463 149.799C71.8227 149.329 72.2147 148.936 72.6225 148.623L72.5755 148.435H65.2828L66.6002 143.353H81.5618V148.435C80.4013 148.435 79.3976 148.811 78.5507 149.564C77.7038 150.317 77.2804 151.697 77.2804 153.704V161.373H70.223ZM76.7628 182.922C75.3514 182.922 74.1594 182.702 73.1871 182.263C72.2147 181.824 71.4776 181.165 70.9758 180.287C70.4739 179.377 70.223 178.248 70.223 176.899V156.668H77.2804V176.052C77.2804 176.648 77.4058 177.088 77.6568 177.37C77.9391 177.652 78.3625 177.793 78.9271 177.793C79.178 177.793 79.4446 177.762 79.7269 177.699C80.0092 177.636 80.2758 177.558 80.5268 177.464L81.1855 181.981C80.5895 182.294 79.9151 182.53 79.1623 182.686C78.4096 182.843 77.6097 182.922 76.7628 182.922ZM100.084 182.922C97.8572 182.922 96.0536 182.498 94.6735 181.651C93.3248 180.804 92.3681 179.722 91.8035 178.405H91.4271L90.6743 182.451H85.3107V156.668H92.3681V168.995C92.3681 170.783 92.572 172.257 92.9797 173.418C93.3875 174.547 93.9834 175.394 94.7676 175.958C95.5517 176.523 96.4927 176.805 97.5905 176.805C98.9079 176.805 99.9116 176.413 100.602 175.629C101.292 174.845 101.637 173.59 101.637 171.865V156.668H108.694V173.418C108.694 175.457 108.365 177.182 107.706 178.593C107.079 180.005 106.122 181.087 104.836 181.84C103.55 182.561 101.966 182.922 100.084 182.922ZM102.162 153.092V142.412H108.654V153.092H102.162ZM125.137 182.922C122.346 182.922 120.166 182.357 118.597 181.228C117.06 180.067 115.978 178.468 115.351 176.429C114.755 174.359 114.457 171.959 114.457 169.23C114.457 166.188 114.755 163.71 115.351 161.797C115.947 159.883 116.841 158.472 118.033 157.562C119.256 156.653 120.746 156.198 122.502 156.198C123.6 156.198 124.557 156.417 125.372 156.856C126.219 157.264 126.894 158.033 127.395 159.162H127.584C128.023 158.001 128.744 157.217 129.748 156.809C130.752 156.402 131.834 156.198 132.994 156.198C135.159 156.198 136.774 156.778 137.84 157.939C138.938 159.099 139.487 160.793 139.487 163.02V182.451H132.43V164.337C132.43 163.365 132.273 162.706 131.959 162.361C131.646 162.016 131.222 161.844 130.689 161.844C130.093 161.844 129.638 162.016 129.324 162.361C129.042 162.706 128.854 163.286 128.76 164.102H125.984C125.859 163.192 125.623 162.596 125.278 162.314C124.933 162 124.525 161.844 124.055 161.844C123.271 161.844 122.659 162.408 122.22 163.537C121.812 164.667 121.608 166.58 121.608 169.277C121.608 171.034 121.734 172.539 121.985 173.794C122.267 175.017 122.738 175.958 123.396 176.617C124.055 177.244 124.996 177.558 126.219 177.558C126.596 177.558 126.941 177.542 127.254 177.511C127.568 177.448 127.835 177.37 128.054 177.276L128.76 182.31C128.258 182.53 127.709 182.686 127.113 182.781C126.517 182.875 125.859 182.922 125.137 182.922ZM116.84 153.092V150.128L121.592 148.152H138.388V153.092H116.84ZM155.357 182.922C152.816 182.922 150.793 182.373 149.287 181.275C147.782 180.146 146.7 178.609 146.041 176.664C145.382 174.688 145.053 172.43 145.053 169.889C145.053 167.16 145.351 164.902 145.947 163.114C146.574 161.295 147.452 159.883 148.582 158.88C149.711 157.844 151.044 157.123 152.581 156.715C154.149 156.276 155.859 156.057 157.709 156.057C160.532 156.057 162.79 156.449 164.484 157.233C166.178 158.017 167.401 159.13 168.154 160.573C168.938 162.016 169.33 163.71 169.33 165.655V182.451H162.273V166.219C162.273 164.745 161.912 163.631 161.191 162.879C160.501 162.095 159.34 161.702 157.709 161.702C156.611 161.702 155.639 161.938 154.792 162.408C153.977 162.847 153.334 163.647 152.863 164.808C152.424 165.968 152.204 167.631 152.204 169.795C152.204 171.269 152.346 172.571 152.628 173.7C152.91 174.829 153.365 175.707 153.992 176.335C154.651 176.962 155.529 177.276 156.627 177.276C156.972 177.276 157.301 177.26 157.615 177.229C157.96 177.166 158.258 177.103 158.509 177.041L159.168 182.31C158.666 182.53 158.054 182.686 157.333 182.781C156.643 182.875 155.984 182.922 155.357 182.922ZM183.153 182.922C181.741 182.922 180.549 182.702 179.577 182.263C178.605 181.824 177.868 181.165 177.366 180.287C176.864 179.377 176.613 178.248 176.613 176.899V156.668H183.67V176.052C183.67 176.648 183.796 177.088 184.047 177.37C184.329 177.652 184.752 177.793 185.317 177.793C185.568 177.793 185.835 177.762 186.117 177.699C186.399 177.636 186.666 177.558 186.917 177.464L187.575 181.981C186.979 182.294 186.305 182.53 185.552 182.686C184.8 182.843 184 182.922 183.153 182.922ZM201.435 183.063C197.859 183.063 195.146 182.279 193.295 180.71C191.476 179.111 190.566 176.821 190.566 173.841V172.006C190.566 170.72 190.707 169.654 190.99 168.807C191.303 167.96 191.711 167.192 192.213 166.501C192.715 165.811 193.123 165.2 193.436 164.667C193.781 164.102 193.954 163.522 193.954 162.926C193.954 162.361 193.813 161.969 193.53 161.75C193.28 161.499 192.934 161.373 192.495 161.373C192.182 161.373 191.852 161.42 191.507 161.514C191.194 161.608 190.833 161.75 190.425 161.938L189.296 157.515C190.174 157.045 191.115 156.731 192.119 156.574C193.154 156.386 194.064 156.292 194.848 156.292C196.228 156.292 197.326 156.511 198.141 156.951C198.988 157.39 199.6 158.017 199.976 158.832C200.353 159.648 200.541 160.62 200.541 161.75C200.541 162.722 200.4 163.584 200.117 164.337C199.835 165.059 199.474 165.811 199.035 166.596C198.627 167.317 198.267 167.991 197.953 168.619C197.671 169.246 197.53 170.156 197.53 171.348V173.135C197.53 174.171 197.671 175.017 197.953 175.676C198.267 176.335 198.722 176.821 199.317 177.135C199.913 177.417 200.619 177.558 201.435 177.558C202.783 177.558 203.74 177.197 204.305 176.476C204.901 175.723 205.199 174.719 205.199 173.465V168.901C205.199 167.96 204.979 167.223 204.54 166.69C204.132 166.125 203.426 165.843 202.423 165.843H202.187V162.126H202.47C203.442 162.126 204.164 161.859 204.634 161.326C205.105 160.793 205.403 160.118 205.528 159.303C205.685 158.456 205.763 157.578 205.763 156.668H212.774C212.774 158.582 212.523 160.166 212.021 161.42C211.519 162.675 210.641 163.522 209.386 163.961V164.149C210.139 164.369 210.719 164.714 211.127 165.184C211.535 165.623 211.817 166.156 211.974 166.784C212.131 167.411 212.209 168.101 212.209 168.854V173.653C212.209 176.758 211.299 179.111 209.48 180.71C207.661 182.279 204.979 183.063 201.435 183.063ZM191.32 153.092V150.128L196.072 148.152H212.869V153.092H191.32ZM201.201 150.222V144.906H205.67V150.222H201.201ZM208.446 150.222V144.906H212.869V150.222H208.446ZM201.679 142.412V140.483C201.993 140.389 202.385 140.248 202.855 140.06C203.294 139.872 203.687 139.621 204.032 139.307C204.377 138.993 204.549 138.601 204.549 138.131C204.549 137.786 204.455 137.519 204.267 137.331C204.047 137.111 203.781 137.002 203.467 137.002C203.247 137.002 203.012 137.049 202.761 137.143C202.479 137.206 202.259 137.315 202.103 137.472L201.256 134.743C201.82 134.304 202.526 134.022 203.373 133.896C204.188 133.74 204.894 133.661 205.49 133.661C206.682 133.661 207.654 133.912 208.407 134.414C209.129 134.884 209.489 135.669 209.489 136.766C209.489 137.237 209.395 137.723 209.207 138.225C208.987 138.727 208.564 139.135 207.937 139.448L207.607 138.46H214.618V142.412H201.679ZM228.894 183.063C225.067 183.063 222.229 182.138 220.378 180.287C218.528 178.405 217.602 175.629 217.602 171.959C217.602 171.332 217.618 170.579 217.649 169.701C217.712 168.791 217.791 167.991 217.885 167.301H229.176V171.771H224.519V172.43C224.519 173.684 224.675 174.719 224.989 175.535C225.303 176.319 225.773 176.899 226.401 177.276C227.059 177.652 227.875 177.84 228.847 177.84C229.914 177.84 230.807 177.605 231.529 177.135C232.282 176.664 232.846 175.864 233.223 174.735C233.63 173.606 233.834 172.053 233.834 170.077C233.834 168.227 233.615 166.69 233.176 165.466C232.768 164.212 232.062 163.271 231.058 162.643C230.086 162.016 228.737 161.702 227.012 161.702C226.071 161.702 225.099 161.812 224.095 162.032C223.091 162.22 222.135 162.471 221.225 162.785C220.347 163.098 219.578 163.443 218.92 163.82V157.939C219.61 157.562 220.457 157.233 221.46 156.951C222.495 156.668 223.609 156.449 224.801 156.292C225.993 156.135 227.169 156.057 228.33 156.057C231.372 156.057 233.819 156.621 235.669 157.75C237.551 158.848 238.916 160.416 239.763 162.455C240.641 164.494 241.08 166.909 241.08 169.701C241.08 172.555 240.656 174.986 239.81 176.993C238.994 178.97 237.692 180.475 235.904 181.51C234.117 182.545 231.78 183.063 228.894 183.063Z" fill="black"/>
</svg>
