<svg width="407" height="478" viewBox="0 0 407 478" fill="none" xmlns="http://www.w3.org/2000/svg">
<path d="M16.4673 28.2295H390.508V28.2295C390.508 36.0249 384.189 42.3442 376.394 42.3442H30.582C22.7867 42.3442 16.4673 36.0249 16.4673 28.2295V28.2295Z" fill="#2FB0D0"/>
<rect width="406.975" height="28.2295" rx="14.1148" fill="#61C8E1"/>
<path d="M32.9346 42.3447H374.041L329.344 450.496C328.519 470.932 321.251 476.607 310.525 477.55H203.488H92.9223C76.3117 474.789 71.9373 468.345 70.5739 450.496L32.9346 42.3447Z" fill="#0093B7"/>
<rect x="216.717" y="65.8691" width="36.0859" height="385.364" rx="18.043" transform="rotate(0.737482 216.717 65.8691)" fill="#61C8E1"/>
<rect width="36.0858" height="375.204" rx="18.0429" transform="matrix(0.999922 0.0125318 -0.0132196 0.999913 216.717 75.2783)" fill="#7BD8EF"/>
<rect width="36.0859" height="385.364" rx="18.043" transform="matrix(-0.999917 0.0128711 0.0128711 0.999917 181.936 65.8691)" fill="#61C8E1"/>
<rect width="36.0858" height="375.204" rx="18.0429" transform="matrix(-0.999922 0.0125318 0.0132196 0.999913 181.936 75.2783)" fill="#7BD8EF"/>
<rect x="287.658" y="65.8691" width="36.0859" height="385.364" rx="18.043" transform="rotate(2.547 287.658 65.8691)" fill="#61C8E1"/>
<rect width="36.0841" height="375.223" rx="18.042" transform="matrix(0.999063 0.0432695 -0.04564 0.998958 287.658 75.2783)" fill="#7BD8EF"/>
<rect width="36.0859" height="385.364" rx="18.043" transform="matrix(-0.999012 0.044439 0.044439 0.999012 113.681 65.8691)" fill="#61C8E1"/>
<rect width="36.0841" height="375.223" rx="18.042" transform="matrix(-0.999063 0.0432695 0.04564 0.998958 113.681 75.2783)" fill="#7BD8EF"/>
<rect x="89.3936" y="239.951" width="230.541" height="89.3934" rx="44.6967" fill="#FEFDFD" fill-opacity="0.8"/>
<path d="M123.015 301.655V277.604C123.015 275.684 123.335 274.179 123.975 273.087C124.652 271.995 125.574 271.243 126.741 270.829C127.908 270.377 129.244 270.151 130.75 270.151C131.804 270.151 132.745 270.264 133.573 270.49C134.401 270.678 135.078 270.904 135.605 271.167L134.476 276.7C134.175 276.625 133.874 276.569 133.573 276.531C133.272 276.493 133.027 276.475 132.839 276.475C132.124 276.475 131.615 276.663 131.314 277.039C131.051 277.416 130.919 277.961 130.919 278.676V283.927C130.919 284.868 130.882 285.997 130.806 287.315C130.731 288.594 130.599 290.213 130.411 292.17H130.693C131.446 290.401 132.105 288.99 132.669 287.936C133.272 286.844 133.799 285.884 134.25 285.056L136.339 281.274H139.501L141.59 285.056C142.117 285.96 142.569 286.788 142.945 287.541C143.321 288.256 143.679 288.971 144.018 289.686C144.356 290.401 144.733 291.229 145.147 292.17H145.429C145.241 290.213 145.109 288.594 145.034 287.315C144.959 285.997 144.921 284.868 144.921 283.927V270.716H152.825V301.655H144.752L138.033 289.347H137.807L131.089 301.655H123.015ZM135.809 266.481V263.658C136.336 263.508 136.92 263.301 137.56 263.037C138.2 262.774 138.764 262.416 139.253 261.965C139.743 261.513 139.987 260.948 139.987 260.271C139.987 259.744 139.837 259.33 139.536 259.029C139.235 258.728 138.858 258.577 138.407 258.577C138.105 258.577 137.786 258.634 137.447 258.746C137.108 258.859 136.807 258.972 136.543 259.085L135.471 255.302C136.223 254.663 137.164 254.249 138.294 254.06C139.385 253.834 140.307 253.722 141.06 253.722C142.754 253.722 144.09 254.117 145.069 254.907C146.01 255.698 146.48 256.864 146.48 258.408C146.48 259.236 146.273 260.007 145.859 260.722C145.407 261.438 144.73 262.021 143.827 262.473L143.601 261.005H154.272V266.481H135.809ZM169.404 301.655V281.217C169.404 279.636 169.028 278.488 168.275 277.773C167.56 277.058 166.374 276.7 164.718 276.7C163.476 276.7 162.328 276.87 161.274 277.209C160.258 277.547 159.298 277.961 158.394 278.451V271.676C159.222 271.299 160.389 270.923 161.895 270.546C163.4 270.17 165.169 269.982 167.202 269.982C169.272 269.982 171.098 270.283 172.679 270.885C174.297 271.487 175.558 272.504 176.461 273.934C177.402 275.327 177.873 277.246 177.873 279.693V301.655H169.404ZM194.447 302.22C192.754 302.22 191.323 301.956 190.157 301.429C188.99 300.902 188.105 300.112 187.503 299.058C186.901 297.967 186.6 296.612 186.6 294.993V274.103C186.6 273.125 186.656 272.315 186.769 271.676C186.92 271.036 187.183 270.433 187.559 269.869C187.936 269.267 188.482 268.551 189.197 267.723C189.95 266.858 190.571 266.105 191.06 265.465C191.549 264.825 191.794 264.091 191.794 263.263C191.794 262.397 191.474 261.72 190.834 261.231C190.232 260.704 189.272 260.44 187.955 260.44C186.938 260.44 186.035 260.572 185.245 260.835C184.454 261.099 183.739 261.438 183.099 261.852V255.585C183.626 255.284 184.567 254.945 185.922 254.568C187.315 254.154 188.99 253.947 190.947 253.947C193.92 253.947 196.273 254.568 198.004 255.811C199.736 257.053 200.601 258.916 200.601 261.4C200.601 262.906 200.3 264.223 199.698 265.352C199.134 266.481 198.531 267.479 197.891 268.344C197.289 269.173 196.762 269.869 196.311 270.433C195.897 270.96 195.577 271.506 195.351 272.071C195.163 272.635 195.068 273.388 195.068 274.329V293.977C195.068 294.692 195.219 295.219 195.52 295.558C195.859 295.896 196.348 296.066 196.988 296.066C197.289 296.066 197.609 296.028 197.948 295.953C198.324 295.878 198.663 295.784 198.964 295.671L199.755 301.091C199.039 301.467 198.23 301.749 197.327 301.938C196.424 302.126 195.464 302.22 194.447 302.22ZM216.22 302.389C211.929 302.389 208.674 301.448 206.453 299.566C204.27 297.647 203.178 294.899 203.178 291.323V289.121C203.178 287.578 203.348 286.298 203.686 285.282C204.063 284.266 204.552 283.344 205.154 282.516C205.757 281.688 206.246 280.954 206.622 280.314C207.036 279.636 207.243 278.94 207.243 278.225C207.243 277.547 207.074 277.077 206.735 276.813C206.434 276.512 206.02 276.362 205.493 276.362C205.117 276.362 204.722 276.418 204.307 276.531C203.931 276.644 203.498 276.813 203.009 277.039L201.654 271.732C202.708 271.167 203.837 270.791 205.041 270.603C206.284 270.377 207.375 270.264 208.316 270.264C209.972 270.264 211.29 270.528 212.268 271.054C213.284 271.581 214.018 272.334 214.47 273.313C214.922 274.291 215.148 275.458 215.148 276.813C215.148 277.98 214.978 279.015 214.639 279.919C214.301 280.784 213.868 281.688 213.341 282.629C212.852 283.494 212.419 284.304 212.042 285.056C211.704 285.809 211.534 286.901 211.534 288.331V290.476C211.534 291.718 211.704 292.735 212.042 293.525C212.419 294.316 212.965 294.899 213.68 295.275C214.395 295.614 215.242 295.784 216.22 295.784C217.839 295.784 218.987 295.351 219.664 294.485C220.379 293.582 220.737 292.377 220.737 290.872V285.395C220.737 284.266 220.474 283.381 219.947 282.742C219.457 282.064 218.61 281.725 217.406 281.725H217.124V277.265H217.462C218.629 277.265 219.495 276.945 220.06 276.305C220.624 275.665 220.982 274.856 221.132 273.877C221.32 272.861 221.415 271.807 221.415 270.716H229.827C229.827 273.012 229.526 274.913 228.924 276.418C228.321 277.924 227.267 278.94 225.762 279.467V279.693C226.665 279.956 227.362 280.37 227.851 280.935C228.34 281.462 228.679 282.102 228.867 282.854C229.055 283.607 229.149 284.435 229.149 285.339V291.097C229.149 294.824 228.058 297.647 225.875 299.566C223.692 301.448 220.474 302.389 216.22 302.389ZM212.834 266.481V263.658C213.361 263.508 213.944 263.301 214.584 263.037C215.224 262.774 215.789 262.416 216.278 261.965C216.767 261.513 217.012 260.948 217.012 260.271C217.012 259.744 216.862 259.33 216.56 259.029C216.259 258.728 215.883 258.577 215.431 258.577C215.13 258.577 214.81 258.634 214.471 258.746C214.133 258.859 213.832 258.972 213.568 259.085L212.495 255.302C213.248 254.663 214.189 254.249 215.318 254.06C216.41 253.834 217.332 253.722 218.085 253.722C219.779 253.722 221.115 254.117 222.093 254.907C223.034 255.698 223.505 256.864 223.505 258.408C223.505 259.236 223.298 260.007 222.884 260.722C222.432 261.438 221.755 262.021 220.851 262.473L220.625 261.005H231.296V266.481H212.834ZM250.075 302.389C245.709 302.389 242.434 301.411 240.251 299.453C238.068 297.496 236.977 294.73 236.977 291.154V289.291C236.977 287.522 237.278 286.016 237.88 284.774C238.482 283.532 239.367 282.252 240.533 280.935C240.91 280.521 241.305 280.05 241.719 279.523C242.171 278.996 242.415 278.488 242.453 277.999L242.284 277.942C241.907 278.131 241.512 278.281 241.098 278.394C240.722 278.507 240.308 278.564 239.856 278.564C238.463 278.564 237.315 278.055 236.412 277.039C235.546 276.023 235.113 274.593 235.113 272.748V270.716H241.154C241.154 271.77 241.286 272.522 241.55 272.974C241.813 273.426 242.227 273.652 242.792 273.652C243.093 273.652 243.432 273.595 243.808 273.482C244.184 273.332 244.542 273.125 244.881 272.861L245.784 270.716H249.962V274.498C249.962 275.703 249.906 276.7 249.793 277.491C249.717 278.281 249.529 278.996 249.228 279.636C248.965 280.276 248.551 281.01 247.986 281.838C247.534 282.516 247.102 283.137 246.687 283.701C246.311 284.266 246.01 284.887 245.784 285.564C245.558 286.242 245.445 287.126 245.445 288.218V290.476C245.445 291.718 245.615 292.735 245.954 293.525C246.33 294.316 246.857 294.899 247.534 295.275C248.25 295.614 249.096 295.784 250.075 295.784C251.731 295.784 252.936 295.351 253.688 294.485C254.441 293.582 254.818 292.377 254.818 290.872V285.395C254.818 284.266 254.573 283.381 254.084 282.742C253.594 282.064 252.804 281.725 251.712 281.725H251.543V277.265H251.769C252.898 277.265 253.726 276.945 254.253 276.305C254.78 275.665 255.119 274.856 255.269 273.877C255.42 272.861 255.495 271.807 255.495 270.716H263.851C263.851 273.012 263.55 274.894 262.948 276.362C262.383 277.83 261.329 278.865 259.786 279.467V279.693C261.066 280.069 261.95 280.765 262.44 281.782C262.929 282.76 263.174 284.021 263.174 285.564V291.097C263.174 294.786 262.063 297.59 259.842 299.51C257.659 301.429 254.404 302.389 250.075 302.389ZM258.145 267.667C255.999 267.667 254.287 267.178 253.007 266.199C251.727 265.22 251.087 263.847 251.087 262.078C251.087 260.308 251.727 258.935 253.007 257.956C254.287 256.977 255.999 256.488 258.145 256.488C260.29 256.488 262.022 256.977 263.339 257.956C264.619 258.935 265.259 260.308 265.259 262.078C265.259 263.847 264.619 265.22 263.339 266.199C262.022 267.178 260.29 267.667 258.145 267.667ZM258.145 264.392C258.973 264.392 259.613 264.185 260.064 263.771C260.516 263.357 260.742 262.793 260.742 262.078C260.742 261.362 260.516 260.798 260.064 260.384C259.613 259.97 258.973 259.763 258.145 259.763C257.354 259.763 256.733 259.97 256.282 260.384C255.83 260.798 255.604 261.362 255.604 262.078C255.604 262.793 255.83 263.357 256.282 263.771C256.733 264.185 257.354 264.392 258.145 264.392ZM251.58 253.609V251.294C251.956 251.181 252.427 251.012 252.991 250.786C253.518 250.56 253.989 250.259 254.403 249.882C254.817 249.506 255.024 249.035 255.024 248.471C255.024 248.057 254.911 247.737 254.685 247.511C254.422 247.248 254.102 247.116 253.725 247.116C253.462 247.116 253.18 247.172 252.879 247.285C252.54 247.361 252.276 247.492 252.088 247.68L251.072 244.406C251.749 243.879 252.596 243.54 253.613 243.39C254.591 243.201 255.438 243.107 256.153 243.107C257.583 243.107 258.75 243.408 259.654 244.011C260.519 244.575 260.952 245.516 260.952 246.834C260.952 247.398 260.839 247.982 260.613 248.584C260.35 249.186 259.842 249.675 259.089 250.052L258.694 248.866H267.106V253.609H251.58ZM279.069 301.655V281.217C279.069 279.636 278.693 278.488 277.94 277.773C277.225 277.058 276.039 276.7 274.383 276.7C273.141 276.7 271.993 276.87 270.939 277.209C269.923 277.547 268.963 277.961 268.059 278.451V271.676C268.887 271.299 270.054 270.923 271.56 270.546C273.065 270.17 274.834 269.982 276.867 269.982C278.937 269.982 280.763 270.283 282.344 270.885C283.962 271.487 285.223 272.504 286.126 273.934C287.067 275.327 287.538 277.246 287.538 279.693V301.655H279.069Z" fill="black"/>
</svg>
