<svg width="173" height="203" viewBox="0 0 173 203" fill="none" xmlns="http://www.w3.org/2000/svg">
<path d="M7 12H166C166 15.3137 163.314 18 160 18H13C9.68629 18 7 15.3137 7 12Z" fill="#2FB0D0"/>
<rect width="173" height="12" rx="6" fill="#61C8E1"/>
<path d="M14 18H159L140 191.5C139.649 200.187 136.56 202.599 132 203H86.5H39.5C32.4391 201.827 30.5796 199.087 30 191.5L14 18Z" fill="#0093B7"/>
<rect x="92.1237" y="28" width="15.3397" height="163.813" rx="7.66983" transform="rotate(0.737482 92.1237 28)" fill="#61C8E1"/>
<rect width="15.3396" height="159.495" rx="7.6698" transform="matrix(0.999922 0.0125318 -0.0132196 0.999913 92.1237 32)" fill="#7BD8EF"/>
<rect width="15.3397" height="163.813" rx="7.66983" transform="matrix(-0.999917 0.0128711 0.0128711 0.999917 77.3384 28)" fill="#61C8E1"/>
<rect width="15.3396" height="159.495" rx="7.6698" transform="matrix(-0.999922 0.0125318 0.0132196 0.999913 77.3384 32)" fill="#7BD8EF"/>
<rect x="122.28" y="28" width="15.3397" height="163.813" rx="7.66983" transform="rotate(2.547 122.28 28)" fill="#61C8E1"/>
<rect width="15.3389" height="159.503" rx="7.66944" transform="matrix(0.999063 0.0432695 -0.04564 0.998958 122.28 32)" fill="#7BD8EF"/>
<rect width="15.3397" height="163.813" rx="7.66983" transform="matrix(-0.999012 0.044439 0.044439 0.999012 48.3245 28)" fill="#61C8E1"/>
<rect width="15.3389" height="159.503" rx="7.66944" transform="matrix(-0.999063 0.0432695 0.04564 0.998958 48.3245 32)" fill="#7BD8EF"/>
<rect x="38" y="102" width="98" height="38" rx="19" fill="#FEFDFD" fill-opacity="0.8"/>
<path d="M52.0969 128V117.776C52.0969 116.96 52.2329 116.32 52.5049 115.856C52.7929 115.392 53.1849 115.072 53.6809 114.896C54.1769 114.704 54.7449 114.608 55.3849 114.608C55.8329 114.608 56.2329 114.656 56.5849 114.752C56.9369 114.832 57.2249 114.928 57.4489 115.04L56.9689 117.392C56.8409 117.36 56.7129 117.336 56.5849 117.32C56.4569 117.304 56.3529 117.296 56.2729 117.296C55.9689 117.296 55.7529 117.376 55.6249 117.536C55.5129 117.696 55.4569 117.928 55.4569 118.232V120.464C55.4569 120.864 55.4409 121.344 55.4089 121.904C55.3769 122.448 55.3209 123.136 55.2409 123.968H55.3609C55.6809 123.216 55.9609 122.616 56.2009 122.168C56.4569 121.704 56.6809 121.296 56.8729 120.944L57.7609 119.336H59.1049L59.9929 120.944C60.2169 121.328 60.4089 121.68 60.5689 122C60.7289 122.304 60.8809 122.608 61.0249 122.912C61.1689 123.216 61.3289 123.568 61.5049 123.968H61.6249C61.5449 123.136 61.4889 122.448 61.4569 121.904C61.4249 121.344 61.4089 120.864 61.4089 120.464V114.848H64.7689V128H61.3369L58.4809 122.768H58.3849L55.5289 128H52.0969ZM57.5357 113.048V111.848C57.7597 111.784 58.0077 111.696 58.2797 111.584C58.5517 111.472 58.7917 111.32 58.9997 111.128C59.2077 110.936 59.3117 110.696 59.3117 110.408C59.3117 110.184 59.2477 110.008 59.1197 109.88C58.9917 109.752 58.8317 109.688 58.6397 109.688C58.5117 109.688 58.3757 109.712 58.2317 109.76C58.0877 109.808 57.9597 109.856 57.8477 109.904L57.3917 108.296C57.7117 108.024 58.1117 107.848 58.5917 107.768C59.0557 107.672 59.4477 107.624 59.7677 107.624C60.4877 107.624 61.0557 107.792 61.4717 108.128C61.8717 108.464 62.0717 108.96 62.0717 109.616C62.0717 109.968 61.9837 110.296 61.8077 110.6C61.6157 110.904 61.3277 111.152 60.9437 111.344L60.8477 110.72H65.3837V113.048H57.5357ZM71.8163 128V119.312C71.8163 118.64 71.6563 118.152 71.3363 117.848C71.0323 117.544 70.5283 117.392 69.8242 117.392C69.2963 117.392 68.8083 117.464 68.3603 117.608C67.9283 117.752 67.5203 117.928 67.1363 118.136V115.256C67.4883 115.096 67.9843 114.936 68.6243 114.776C69.2643 114.616 70.0163 114.536 70.8803 114.536C71.7603 114.536 72.5363 114.664 73.2083 114.92C73.8963 115.176 74.4323 115.608 74.8163 116.216C75.2163 116.808 75.4163 117.624 75.4163 118.664V128H71.8163ZM82.4619 128.24C81.7419 128.24 81.1339 128.128 80.6379 127.904C80.1419 127.68 79.7659 127.344 79.5099 126.896C79.2539 126.432 79.1259 125.856 79.1259 125.168V116.288C79.1259 115.872 79.1499 115.528 79.1979 115.256C79.2619 114.984 79.3739 114.728 79.5339 114.488C79.6939 114.232 79.9259 113.928 80.2299 113.576C80.5499 113.208 80.8139 112.888 81.0219 112.616C81.2299 112.344 81.3339 112.032 81.3339 111.68C81.3339 111.312 81.1979 111.024 80.9259 110.816C80.6699 110.592 80.2619 110.48 79.7019 110.48C79.2699 110.48 78.8859 110.536 78.5499 110.648C78.2139 110.76 77.9099 110.904 77.6379 111.08V108.416C77.8619 108.288 78.2619 108.144 78.8379 107.984C79.4299 107.808 80.1419 107.72 80.9739 107.72C82.2379 107.72 83.2379 107.984 83.9739 108.512C84.7099 109.04 85.0779 109.832 85.0779 110.888C85.0779 111.528 84.9499 112.088 84.6939 112.568C84.4539 113.048 84.1979 113.472 83.9259 113.84C83.6699 114.192 83.4459 114.488 83.2539 114.728C83.0779 114.952 82.9419 115.184 82.8459 115.424C82.7659 115.664 82.7259 115.984 82.7259 116.384V124.736C82.7259 125.04 82.7899 125.264 82.9179 125.408C83.0619 125.552 83.2699 125.624 83.5419 125.624C83.6699 125.624 83.8059 125.608 83.9499 125.576C84.1099 125.544 84.2539 125.504 84.3819 125.456L84.7179 127.76C84.4139 127.92 84.0699 128.04 83.6859 128.12C83.3019 128.2 82.8939 128.24 82.4619 128.24ZM91.7173 128.312C89.8933 128.312 88.5093 127.912 87.5653 127.112C86.6373 126.296 86.1733 125.128 86.1733 123.608V122.672C86.1733 122.016 86.2453 121.472 86.3893 121.04C86.5493 120.608 86.7573 120.216 87.0133 119.864C87.2693 119.512 87.4773 119.2 87.6373 118.928C87.8133 118.64 87.9013 118.344 87.9013 118.04C87.9013 117.752 87.8293 117.552 87.6853 117.44C87.5573 117.312 87.3813 117.248 87.1573 117.248C86.9973 117.248 86.8293 117.272 86.6533 117.32C86.4933 117.368 86.3093 117.44 86.1013 117.536L85.5253 115.28C85.9733 115.04 86.4533 114.88 86.9653 114.8C87.4933 114.704 87.9573 114.656 88.3573 114.656C89.0613 114.656 89.6213 114.768 90.0373 114.992C90.4693 115.216 90.7813 115.536 90.9733 115.952C91.1653 116.368 91.2613 116.864 91.2613 117.44C91.2613 117.936 91.1893 118.376 91.0453 118.76C90.9013 119.128 90.7173 119.512 90.4933 119.912C90.2853 120.28 90.1013 120.624 89.9413 120.944C89.7973 121.264 89.7253 121.728 89.7253 122.336V123.248C89.7253 123.776 89.7973 124.208 89.9413 124.544C90.1013 124.88 90.3333 125.128 90.6373 125.288C90.9413 125.432 91.3013 125.504 91.7173 125.504C92.4053 125.504 92.8933 125.32 93.1813 124.952C93.4853 124.568 93.6373 124.056 93.6373 123.416V121.088C93.6373 120.608 93.5253 120.232 93.3013 119.96C93.0933 119.672 92.7333 119.528 92.2213 119.528H92.1013V117.632H92.2453C92.7413 117.632 93.1093 117.496 93.3493 117.224C93.5893 116.952 93.7413 116.608 93.8053 116.192C93.8853 115.76 93.9253 115.312 93.9253 114.848H97.5013C97.5013 115.824 97.3733 116.632 97.1173 117.272C96.8613 117.912 96.4133 118.344 95.7733 118.568V118.664C96.1573 118.776 96.4533 118.952 96.6613 119.192C96.8693 119.416 97.0133 119.688 97.0933 120.008C97.1733 120.328 97.2133 120.68 97.2133 121.064V123.512C97.2133 125.096 96.7493 126.296 95.8213 127.112C94.8933 127.912 93.5253 128.312 91.7173 128.312ZM90.2779 113.048V111.848C90.5019 111.784 90.7499 111.696 91.0219 111.584C91.2939 111.472 91.5339 111.32 91.7419 111.128C91.9499 110.936 92.0539 110.696 92.0539 110.408C92.0539 110.184 91.9899 110.008 91.8619 109.88C91.7339 109.752 91.5739 109.688 91.3819 109.688C91.2539 109.688 91.1179 109.712 90.9739 109.76C90.8299 109.808 90.7019 109.856 90.5899 109.904L90.1339 108.296C90.4539 108.024 90.8539 107.848 91.3339 107.768C91.7979 107.672 92.1899 107.624 92.5099 107.624C93.2299 107.624 93.7979 107.792 94.2139 108.128C94.6139 108.464 94.8139 108.96 94.8139 109.616C94.8139 109.968 94.7259 110.296 94.5499 110.6C94.3579 110.904 94.0699 111.152 93.6859 111.344L93.5899 110.72H98.1259V113.048H90.2779ZM106.109 128.312C104.253 128.312 102.861 127.896 101.933 127.064C101.005 126.232 100.541 125.056 100.541 123.536V122.744C100.541 121.992 100.669 121.352 100.925 120.824C101.181 120.296 101.557 119.752 102.053 119.192C102.213 119.016 102.381 118.816 102.557 118.592C102.749 118.368 102.853 118.152 102.869 117.944L102.797 117.92C102.637 118 102.469 118.064 102.293 118.112C102.133 118.16 101.957 118.184 101.765 118.184C101.173 118.184 100.685 117.968 100.301 117.536C99.9325 117.104 99.7485 116.496 99.7485 115.712V114.848H102.317C102.317 115.296 102.373 115.616 102.485 115.808C102.597 116 102.773 116.096 103.013 116.096C103.141 116.096 103.285 116.072 103.445 116.024C103.605 115.96 103.757 115.872 103.901 115.76L104.285 114.848H106.061V116.456C106.061 116.968 106.037 117.392 105.989 117.728C105.957 118.064 105.877 118.368 105.749 118.64C105.637 118.912 105.461 119.224 105.221 119.576C105.029 119.864 104.845 120.128 104.669 120.368C104.509 120.608 104.381 120.872 104.285 121.16C104.189 121.448 104.141 121.824 104.141 122.288V123.248C104.141 123.776 104.213 124.208 104.357 124.544C104.517 124.88 104.741 125.128 105.029 125.288C105.333 125.432 105.693 125.504 106.109 125.504C106.813 125.504 107.325 125.32 107.645 124.952C107.965 124.568 108.125 124.056 108.125 123.416V121.088C108.125 120.608 108.021 120.232 107.813 119.96C107.605 119.672 107.269 119.528 106.805 119.528H106.733V117.632H106.829C107.309 117.632 107.661 117.496 107.885 117.224C108.109 116.952 108.253 116.608 108.317 116.192C108.381 115.76 108.413 115.312 108.413 114.848H111.965C111.965 115.824 111.837 116.624 111.581 117.248C111.341 117.872 110.893 118.312 110.237 118.568V118.664C110.781 118.824 111.157 119.12 111.365 119.552C111.573 119.968 111.677 120.504 111.677 121.16V123.512C111.677 125.08 111.205 126.272 110.261 127.088C109.333 127.904 107.949 128.312 106.109 128.312ZM109.539 113.552C108.627 113.552 107.899 113.344 107.355 112.928C106.811 112.512 106.539 111.928 106.539 111.176C106.539 110.424 106.811 109.84 107.355 109.424C107.899 109.008 108.627 108.8 109.539 108.8C110.451 108.8 111.187 109.008 111.747 109.424C112.291 109.84 112.563 110.424 112.563 111.176C112.563 111.928 112.291 112.512 111.747 112.928C111.187 113.344 110.451 113.552 109.539 113.552ZM109.539 112.16C109.891 112.16 110.163 112.072 110.355 111.896C110.547 111.72 110.643 111.48 110.643 111.176C110.643 110.872 110.547 110.632 110.355 110.456C110.163 110.28 109.891 110.192 109.539 110.192C109.203 110.192 108.939 110.28 108.747 110.456C108.555 110.632 108.459 110.872 108.459 111.176C108.459 111.48 108.555 111.72 108.747 111.896C108.939 112.072 109.203 112.16 109.539 112.16ZM106.748 107.576V106.592C106.908 106.544 107.108 106.472 107.348 106.376C107.572 106.28 107.772 106.152 107.948 105.992C108.124 105.832 108.212 105.632 108.212 105.392C108.212 105.216 108.164 105.08 108.068 104.984C107.956 104.872 107.82 104.816 107.66 104.816C107.548 104.816 107.428 104.84 107.3 104.888C107.156 104.92 107.044 104.976 106.964 105.056L106.532 103.664C106.82 103.44 107.18 103.296 107.612 103.232C108.028 103.152 108.388 103.112 108.692 103.112C109.3 103.112 109.796 103.24 110.18 103.496C110.548 103.736 110.732 104.136 110.732 104.696C110.732 104.936 110.684 105.184 110.588 105.44C110.476 105.696 110.26 105.904 109.94 106.064L109.772 105.56H113.348V107.576H106.748ZM118.433 128V119.312C118.433 118.64 118.273 118.152 117.953 117.848C117.649 117.544 117.145 117.392 116.441 117.392C115.913 117.392 115.425 117.464 114.977 117.608C114.545 117.752 114.137 117.928 113.753 118.136V115.256C114.105 115.096 114.601 114.936 115.241 114.776C115.881 114.616 116.633 114.536 117.497 114.536C118.377 114.536 119.153 114.664 119.825 114.92C120.513 115.176 121.049 115.608 121.433 116.216C121.833 116.808 122.033 117.624 122.033 118.664V128H118.433Z" fill="black"/>
</svg>
