<svg width="311" height="323" viewBox="0 0 311 323" fill="none" xmlns="http://www.w3.org/2000/svg">
<path d="M0.172119 0H310.697C310.697 0 298.934 274.061 298.934 288.176C298.934 302.291 294.229 306.996 288.348 315.229C282.467 323.463 251.885 322.287 251.885 322.287H60.1598C42.5364 321.607 32.8075 321.153 23.6967 316.406C16.0265 308.682 13.6358 304.055 13.1106 295.234L0.172119 0Z" fill="#CA3636"/>
<rect x="0.172119" width="310.525" height="11.7623" fill="#EC8B8B"/>
<rect x="54.2787" y="21.1719" width="28.2295" height="268.18" rx="14.1148" fill="#811D1D"/>
<rect x="171.902" y="21.1719" width="28.2295" height="268.18" rx="14.1148" fill="#811D1D"/>
<rect x="110.738" y="21.1719" width="28.2295" height="268.18" rx="14.1148" fill="#811D1D"/>
<rect x="228.361" y="21.1719" width="28.2295" height="268.18" rx="14.1148" fill="#811D1D"/>
<rect x="54.2787" y="28.2295" width="28.2295" height="261.123" rx="14.1148" fill="#EC8B8B"/>
<rect x="171.902" y="28.2295" width="28.2295" height="261.123" rx="14.1148" fill="#EC8B8B"/>
<rect x="110.738" y="28.2295" width="28.2295" height="261.123" rx="14.1148" fill="#EC8B8B"/>
<rect x="228.361" y="28.2295" width="28.2295" height="261.123" rx="14.1148" fill="#EC8B8B"/>
<rect x="40.1639" y="75.2783" width="230.541" height="117.623" rx="58.8115" fill="#FEFDFD" fill-opacity="0.8"/>
<path d="M58.3795 150.978C55.5879 150.978 53.408 150.414 51.8397 149.285C50.3027 148.124 49.2206 146.524 48.5933 144.486C47.9973 142.415 47.6993 140.016 47.6993 137.287C47.6993 134.244 47.9973 131.767 48.5933 129.853C49.1892 127.94 50.0832 126.528 51.2751 125.619C52.4984 124.709 53.9882 124.254 55.7448 124.254C56.8426 124.254 57.7992 124.474 58.6148 124.913C59.4616 125.321 60.136 126.089 60.6379 127.218H60.8261C61.2652 126.058 61.9866 125.274 62.9903 124.866C63.994 124.458 65.0762 124.254 66.2367 124.254C68.401 124.254 70.0163 124.835 71.0828 125.995C72.1806 127.156 72.7295 128.85 72.7295 131.077V150.508H65.6721V132.394C65.6721 131.422 65.5153 130.763 65.2016 130.418C64.888 130.073 64.4645 129.9 63.9313 129.9C63.3354 129.9 62.8805 130.073 62.5669 130.418C62.2846 130.763 62.0964 131.343 62.0023 132.159H59.2264C59.1009 131.249 58.8657 130.653 58.5207 130.371C58.1756 130.057 57.7679 129.9 57.2974 129.9C56.5132 129.9 55.9016 130.465 55.4625 131.594C55.0547 132.723 54.8508 134.637 54.8508 137.334C54.8508 139.091 54.9763 140.596 55.2272 141.851C55.5095 143.074 55.98 144.015 56.6387 144.674C57.2974 145.301 58.2384 145.615 59.4616 145.615C59.838 145.615 60.1831 145.599 60.4967 145.568C60.8104 145.505 61.077 145.427 61.2966 145.332L62.0023 150.367C61.5004 150.586 60.9515 150.743 60.3556 150.837C59.7596 150.931 59.1009 150.978 58.3795 150.978ZM50.0823 121.149V118.185L54.8343 116.209H71.6308V121.149H50.0823ZM88.599 150.978C86.0584 150.978 84.0353 150.429 82.5297 149.332C81.0241 148.202 79.942 146.665 79.2833 144.721C78.6246 142.745 78.2953 140.486 78.2953 137.946C78.2953 135.217 78.5933 132.958 79.1892 131.171C79.8165 129.351 80.6948 127.94 81.824 126.936C82.9531 125.901 84.2862 125.18 85.8231 124.772C87.3915 124.333 89.1009 124.113 90.9515 124.113C93.7745 124.113 96.0328 124.505 97.7266 125.289C99.4204 126.074 100.644 127.187 101.396 128.63C102.181 130.073 102.573 131.767 102.573 133.711V150.508H95.5153V134.276C95.5153 132.802 95.1546 131.688 94.4331 130.935C93.7431 130.151 92.5825 129.759 90.9515 129.759C89.8537 129.759 88.8813 129.994 88.0345 130.465C87.2189 130.904 86.5759 131.704 86.1054 132.864C85.6663 134.025 85.4468 135.687 85.4468 137.852C85.4468 139.326 85.5879 140.627 85.8702 141.757C86.1525 142.886 86.6073 143.764 87.2346 144.391C87.8933 145.019 88.7716 145.332 89.8694 145.332C90.2144 145.332 90.5437 145.317 90.8574 145.285C91.2024 145.223 91.5004 145.16 91.7513 145.097L92.41 150.367C91.9082 150.586 91.2965 150.743 90.5751 150.837C89.8851 150.931 89.2264 150.978 88.599 150.978ZM116.395 150.978C114.984 150.978 113.792 150.759 112.819 150.32C111.847 149.88 111.11 149.222 110.608 148.344C110.106 147.434 109.855 146.305 109.855 144.956V124.725H116.913V144.109C116.913 144.705 117.038 145.144 117.289 145.427C117.571 145.709 117.995 145.85 118.559 145.85C118.81 145.85 119.077 145.819 119.359 145.756C119.642 145.693 119.908 145.615 120.159 145.521L120.818 150.037C120.222 150.351 119.547 150.586 118.795 150.743C118.042 150.9 117.242 150.978 116.395 150.978ZM134.677 151.119C131.101 151.119 128.388 150.335 126.538 148.767C124.718 147.167 123.809 144.878 123.809 141.898V140.063C123.809 138.777 123.95 137.71 124.232 136.864C124.546 136.017 124.954 135.248 125.455 134.558C125.957 133.868 126.365 133.256 126.679 132.723C127.024 132.159 127.196 131.578 127.196 130.982C127.196 130.418 127.055 130.026 126.773 129.806C126.522 129.555 126.177 129.43 125.738 129.43C125.424 129.43 125.095 129.477 124.75 129.571C124.436 129.665 124.075 129.806 123.668 129.994L122.538 125.572C123.417 125.101 124.358 124.788 125.361 124.631C126.396 124.443 127.306 124.348 128.09 124.348C129.47 124.348 130.568 124.568 131.384 125.007C132.231 125.446 132.842 126.074 133.219 126.889C133.595 127.705 133.783 128.677 133.783 129.806C133.783 130.779 133.642 131.641 133.36 132.394C133.077 133.115 132.717 133.868 132.278 134.652C131.87 135.374 131.509 136.048 131.195 136.675C130.913 137.303 130.772 138.212 130.772 139.404V141.192C130.772 142.227 130.913 143.074 131.195 143.733C131.509 144.391 131.964 144.878 132.56 145.191C133.156 145.474 133.862 145.615 134.677 145.615C136.026 145.615 136.983 145.254 137.547 144.533C138.143 143.78 138.441 142.776 138.441 141.521V136.958C138.441 136.017 138.221 135.28 137.782 134.746C137.375 134.182 136.669 133.899 135.665 133.899H135.43V130.183H135.712C136.685 130.183 137.406 129.916 137.876 129.383C138.347 128.85 138.645 128.175 138.77 127.36C138.927 126.513 139.006 125.634 139.006 124.725H146.016C146.016 126.638 145.765 128.222 145.263 129.477C144.761 130.731 143.883 131.578 142.628 132.017V132.206C143.381 132.425 143.961 132.77 144.369 133.241C144.777 133.68 145.059 134.213 145.216 134.84C145.373 135.468 145.451 136.158 145.451 136.911V141.71C145.451 144.815 144.542 147.167 142.723 148.767C140.903 150.335 138.221 151.119 134.677 151.119ZM124.563 122.149V119.185L129.315 117.209H146.111V122.149H124.563ZM134.443 119.279V113.963H138.913V119.279H134.443ZM141.689 119.279V113.963H146.111V119.279H141.689ZM134.922 111.469V109.54C135.235 109.446 135.627 109.305 136.098 109.117C136.537 108.928 136.929 108.677 137.274 108.364C137.619 108.05 137.792 107.658 137.792 107.187C137.792 106.842 137.697 106.576 137.509 106.388C137.29 106.168 137.023 106.058 136.709 106.058C136.49 106.058 136.255 106.105 136.004 106.199C135.721 106.262 135.502 106.372 135.345 106.529L134.498 103.8C135.063 103.361 135.768 103.079 136.615 102.953C137.431 102.796 138.137 102.718 138.733 102.718C139.924 102.718 140.897 102.969 141.65 103.471C142.371 103.941 142.732 104.725 142.732 105.823C142.732 106.294 142.638 106.78 142.449 107.282C142.23 107.783 141.806 108.191 141.179 108.505L140.85 107.517H147.86V111.469H134.922ZM162.137 151.119C158.31 151.119 155.471 150.194 153.621 148.344C151.77 146.462 150.845 143.686 150.845 140.016C150.845 139.389 150.86 138.636 150.892 137.757C150.955 136.848 151.033 136.048 151.127 135.358H162.419V139.828H157.761V140.486C157.761 141.741 157.918 142.776 158.231 143.592C158.545 144.376 159.016 144.956 159.643 145.332C160.302 145.709 161.117 145.897 162.089 145.897C163.156 145.897 164.05 145.662 164.771 145.191C165.524 144.721 166.089 143.921 166.465 142.792C166.873 141.663 167.077 140.11 167.077 138.134C167.077 136.283 166.857 134.746 166.418 133.523C166.01 132.268 165.305 131.327 164.301 130.7C163.328 130.073 161.98 129.759 160.255 129.759C159.314 129.759 158.341 129.869 157.338 130.088C156.334 130.277 155.377 130.528 154.468 130.841C153.589 131.155 152.821 131.5 152.162 131.876V125.995C152.852 125.619 153.699 125.289 154.703 125.007C155.738 124.725 156.851 124.505 158.043 124.348C159.235 124.192 160.411 124.113 161.572 124.113C164.614 124.113 167.061 124.678 168.912 125.807C170.794 126.905 172.158 128.473 173.005 130.512C173.883 132.551 174.322 134.966 174.322 137.757C174.322 140.612 173.899 143.043 173.052 145.05C172.236 147.026 170.935 148.532 169.147 149.567C167.359 150.602 165.022 151.119 162.137 151.119ZM191.39 151.119C187.313 151.119 184.349 150.178 182.498 148.297C180.679 146.383 179.769 143.623 179.769 140.016V124.725H186.827V140.392C186.827 142.055 187.187 143.325 187.909 144.203C188.662 145.05 189.822 145.474 191.39 145.474C192.959 145.474 194.104 145.05 194.825 144.203C195.578 143.325 195.954 142.055 195.954 140.392V115.456H203.012V140.016C203.012 143.623 202.086 146.383 200.236 148.297C198.416 150.178 195.468 151.119 191.39 151.119ZM209.399 150.508V142.651C209.399 140.675 209.791 139.153 210.576 138.087C211.36 137.02 212.473 136.268 213.916 135.828L213.963 135.64L208.929 133.805V132.582C208.929 131.045 209.384 129.634 210.293 128.348C211.203 127.062 212.536 126.042 214.292 125.289C216.08 124.505 218.245 124.113 220.785 124.113C223.169 124.113 225.223 124.49 226.949 125.242C228.674 125.964 230.007 127.062 230.948 128.536C231.92 129.979 232.406 131.814 232.406 134.041V150.508H225.349V134.464C225.349 132.896 224.926 131.72 224.079 130.935C223.263 130.151 222.103 129.759 220.597 129.759C219.154 129.759 218.072 130.073 217.351 130.7C216.629 131.296 216.237 132.033 216.174 132.911L220.362 134.84L219.844 137.899C218.715 137.961 217.868 138.369 217.304 139.122C216.739 139.875 216.457 140.894 216.457 142.18V150.508H209.399ZM248.828 150.978C246.036 150.978 243.856 150.414 242.288 149.285C240.751 148.124 239.669 146.524 239.041 144.486C238.445 142.415 238.147 140.016 238.147 137.287C238.147 134.244 238.445 131.767 239.041 129.853C239.637 127.94 240.531 126.528 241.723 125.619C242.946 124.709 244.436 124.254 246.193 124.254C247.291 124.254 248.247 124.474 249.063 124.913C249.91 125.321 250.584 126.089 251.086 127.218H251.274C251.713 126.058 252.435 125.274 253.438 124.866C254.442 124.458 255.524 124.254 256.685 124.254C258.849 124.254 260.464 124.835 261.531 125.995C262.629 127.156 263.178 128.85 263.178 131.077V150.508H256.12V132.394C256.12 131.422 255.963 130.763 255.65 130.418C255.336 130.073 254.913 129.9 254.379 129.9C253.783 129.9 253.329 130.073 253.015 130.418C252.733 130.763 252.544 131.343 252.45 132.159H249.674C249.549 131.249 249.314 130.653 248.969 130.371C248.624 130.057 248.216 129.9 247.745 129.9C246.961 129.9 246.35 130.465 245.911 131.594C245.503 132.723 245.299 134.637 245.299 137.334C245.299 139.091 245.424 140.596 245.675 141.851C245.958 143.074 246.428 144.015 247.087 144.674C247.745 145.301 248.686 145.615 249.91 145.615C250.286 145.615 250.631 145.599 250.945 145.568C251.258 145.505 251.525 145.427 251.745 145.332L252.45 150.367C251.949 150.586 251.4 150.743 250.804 150.837C250.208 150.931 249.549 150.978 248.828 150.978ZM240.53 121.149V118.185L245.282 116.209H262.079V121.149H240.53Z" fill="black"/>
</svg>
