<svg width="264" height="53" viewBox="0 0 264 53" fill="none" xmlns="http://www.w3.org/2000/svg">
<path d="M189 4C201.703 4 212 14.2975 212 27C212 39.7025 201.703 50 189 50H43V4H189Z" fill="#FBFBFB" stroke="black" stroke-width="6"/>
<path d="M116 14H186.5C193.404 14 199 19.5964 199 26.5C199 33.4036 193.404 39 186.5 39H116V14Z" fill="#90E1F6"/>
<mask id="path-3-inside-1_113_2729" fill="white">
<path d="M8 0C11.2922 0 14.1181 6.58745 15.3457 16H46V37H15.3457C14.1181 46.4126 11.2922 53 8 53C3.58172 53 0 41.1355 0 26.5C0 11.8645 3.58172 0 8 0Z"/>
</mask>
<path d="M8 0C11.2922 0 14.1181 6.58745 15.3457 16H46V37H15.3457C14.1181 46.4126 11.2922 53 8 53C3.58172 53 0 41.1355 0 26.5C0 11.8645 3.58172 0 8 0Z" fill="#D9D9D9"/>
<path d="M15.3457 16L9.39609 16.7759L10.0774 22H15.3457V16ZM46 16H52V10H46V16ZM46 37V43H52V37H46ZM15.3457 37V31H10.0774L9.39609 36.2241L15.3457 37ZM8 0V6C6.66945 6 6.01268 5.30833 6.07236 5.36941C6.14627 5.44506 6.49849 5.87312 6.97621 6.93396C7.91774 9.02473 8.82424 12.3912 9.39609 16.7759L15.3457 16L21.2953 15.2241C20.6396 10.1962 19.5193 5.56271 17.9179 2.00663C17.1242 0.244032 16.0759 -1.56305 14.6557 -3.01669C13.2212 -4.48489 10.9766 -6 8 -6V0ZM15.3457 16V22H46V16V10H15.3457V16ZM46 16H40V37H46H52V16H46ZM46 37V31H15.3457V37V43H46V37ZM15.3457 37L9.39609 36.2241C8.82424 40.6088 7.91774 43.9753 6.97621 46.066C6.49849 47.1269 6.14627 47.5549 6.07236 47.6306C6.01268 47.6917 6.66945 47 8 47V53V59C10.9766 59 13.2212 57.4849 14.6557 56.0167C16.0759 54.563 17.1242 52.756 17.9179 50.9934C19.5193 47.4373 20.6396 42.8038 21.2953 37.7759L15.3457 37ZM8 53V47C9.78704 47 10.301 48.1762 9.7697 47.4318C9.34517 46.837 8.71613 45.5879 8.08711 43.5043C6.85192 39.4127 6 33.3993 6 26.5H0H-6C-6 34.2363 -5.06106 41.4728 -3.40082 46.9724C-2.58213 49.6843 -1.4873 52.316 0.0023792 54.4032C1.38529 56.3407 4.00382 59 8 59V53ZM0 26.5H6C6 19.6007 6.85192 13.5873 8.08711 9.4957C8.71613 7.41206 9.34517 6.16297 9.7697 5.56817C10.301 4.82378 9.78704 6 8 6V0V-6C4.00382 -6 1.38529 -3.34072 0.0023792 -1.40316C-1.4873 0.683982 -2.58213 3.31572 -3.40082 6.02764C-5.06106 11.5272 -6 18.7638 -6 26.5H0Z" fill="black" mask="url(#path-3-inside-1_113_2729)"/>
<path d="M261 30C262.657 30 264 28.6569 264 27C264 25.3432 262.657 24 261 24L261 30ZM213 27L213 30L261 30L261 27L261 24L213 24L213 27Z" fill="black"/>
<path d="M48.5 21C48.5 22.6569 49.8431 24 51.5 24C53.1569 24 54.5 22.6569 54.5 21H48.5ZM51.5 2H48.5V21H51.5H54.5V2L51.5 2Z" fill="black"/>
<path d="M59 37C59 38.6569 60.3431 40 62 40C63.6569 40 65 38.6569 65 37H59ZM62 2H59V37H62H65V2L62 2Z" fill="black"/>
<path d="M79 37C79 38.6569 80.3431 40 82 40C83.6569 40 85 38.6569 85 37H79ZM82 2H79V37H82H85V2L82 2Z" fill="black"/>
<path d="M99 37C99 38.6569 100.343 40 102 40C103.657 40 105 38.6569 105 37H99ZM102 2H99V37H102H105V2L102 2Z" fill="black"/>
<path d="M69 21C69 22.6569 70.3431 24 72 24C73.6569 24 75 22.6569 75 21H69ZM72 2H69V21H72H75V2L72 2Z" fill="black"/>
<path d="M89 21C89 22.6569 90.3431 24 92 24C93.6569 24 95 22.6569 95 21H89ZM92 2H89V21H92H95V2L92 2Z" fill="black"/>
</svg>
