<svg width="162" height="177" viewBox="0 0 162 177" fill="none" xmlns="http://www.w3.org/2000/svg">
<g id="head_cap_cloth">
<path id="Vector 63" d="M8.40004 64.0032C6.94683 70.0951 7.68195 73.1173 8.40004 78.6581L121.2 6.87885C119.004 3.06955 115.396 1.62852 109.5 0C100.826 0.708954 95.7616 2.22862 86.4 6.87885C58.4498 19.2473 43.0984 28.5354 16.5 50.8437C10.5574 56.1536 9.72132 58.9773 8.40004 64.0032Z" fill="#4E955F"/>
<path id="Vector 62" d="M106.8 95.1076L37.8 137.278C22.4246 115.017 14.0287 102.493 8.40002 78.3591C15.0859 67.8758 17.1 61.9096 29.7 52.9372C42.3 43.9648 66.9 26.9172 73.2 23.6273C79.5 20.3375 100.952 9.67937 120 5.08435C137.936 18.1647 147.639 27.9097 162 50.2455L161.287 50.891C142.766 67.6596 132.164 77.2588 106.8 95.1076Z" fill="#7BD8A5"/>
<path id="Ellipse 131" d="M25.0144 148.065C13.6804 151.775 3.48674 151.729 2.24619 147.963C1.00564 144.197 9.18797 138.136 20.5219 134.425C31.8559 130.715 42.0495 130.761 43.2901 134.527C44.5306 138.293 36.3483 144.355 25.0144 148.065ZM21.409 137.119C14.5512 139.364 9.60025 143.031 10.3509 145.31C11.1015 147.589 17.2694 147.616 24.1273 145.371C30.9851 143.127 35.936 139.459 35.1854 137.18C34.4348 134.901 28.2669 134.874 21.409 137.119Z" fill="#7BD8A5"/>
<path id="Ellipse 130" d="M44.3561 155.932C41.8888 167.567 36.7348 176.335 32.8443 175.515C28.9539 174.696 27.8001 164.598 30.2674 152.963C32.7347 141.327 37.8887 132.559 41.7791 133.379C45.6696 134.199 46.8233 144.296 44.3561 155.932ZM33.0494 153.549C31.5565 160.589 32.2546 166.699 34.6086 167.195C36.9627 167.691 40.0812 162.386 41.5741 155.346C43.0669 148.305 42.3688 142.196 40.0148 141.7C37.6608 141.203 34.5423 146.509 33.0494 153.549Z" fill="#A7EBB8"/>
<g id="Linked Path Group">
<path id="[Copy] reusable" d="M81.1707 102.736C80.7805 102.997 80.4078 103.092 80.0527 103.021C79.6917 102.942 79.3808 102.707 79.12 102.317L74.426 95.2927C74.1593 94.8936 74.0613 94.5165 74.1319 94.1614C74.2113 93.8004 74.4462 93.4895 74.8364 93.2287L78.1089 91.0418C79.1731 90.3305 80.1683 90.0439 81.0944 90.1819C82.0235 90.3051 82.7962 90.8279 83.4126 91.7502C83.8097 92.3444 84.0234 92.9521 84.0537 93.5734C84.0869 94.1798 83.9352 94.7687 83.5986 95.34C83.2649 95.8966 82.7389 96.4149 82.0206 96.895L81.967 96.5844L82.6055 96.1577C82.9868 95.9028 83.3861 95.7707 83.8032 95.7614C84.2144 95.7432 84.642 95.8551 85.086 96.0972L86.5513 96.8499C86.8651 97.0123 87.1005 97.2206 87.2576 97.4749C87.4087 97.7202 87.4445 97.985 87.365 98.2691C87.2884 98.5384 87.0771 98.7886 86.7313 99.0197C86.3854 99.2509 86.0542 99.3696 85.7376 99.3759C85.43 99.3762 85.0911 99.2819 84.7211 99.093L82.0259 97.6804C81.7891 97.5565 81.5627 97.5153 81.3468 97.5569C81.1338 97.5838 80.9209 97.6684 80.7081 97.8106L79.9764 98.2996L81.5677 100.681C81.8285 101.071 81.931 101.445 81.8752 101.803C81.8135 102.152 81.5786 102.463 81.1707 102.736ZM78.8207 96.5702L80.4436 95.4856C80.9137 95.1715 81.2106 94.8383 81.3345 94.4861C81.4583 94.1339 81.3899 93.7627 81.1291 93.3725C80.8801 93.0001 80.5693 92.8037 80.1965 92.7834C79.8178 92.7542 79.3934 92.8967 78.9234 93.2108L77.3005 94.2954L78.8207 96.5702Z" fill="#2A985B"/>
<path id="[Copy] reusable_2" d="M90.9832 95.9937C90.5677 96.2742 90.1778 96.383 89.8135 96.3201C89.4521 96.2423 89.1342 96.0001 88.8596 95.5934L84.2487 88.7643C83.9741 88.3576 83.8713 87.9766 83.9402 87.6212C84.012 87.251 84.2557 86.9256 84.6711 86.645L89.1664 83.6099C89.4847 83.395 89.7771 83.3134 90.0437 83.3651C90.3102 83.4168 90.545 83.5929 90.7479 83.8935C90.9568 84.2029 91.0384 84.4953 90.9927 84.7707C90.941 85.0373 90.7561 85.278 90.4378 85.4929L87.0033 87.8118L88.2031 89.5887L91.3458 87.4668C91.6552 87.2579 91.9432 87.1793 92.2098 87.2309C92.4852 87.2767 92.7273 87.4542 92.9362 87.7636C93.1451 88.073 93.2193 88.364 93.1588 88.6366C93.1071 88.9031 92.9266 89.1409 92.6172 89.3498L89.4744 91.4717L90.7726 93.3944L94.2071 91.0756C94.5254 90.8607 94.8207 90.7835 95.0933 90.844C95.3598 90.8957 95.5946 91.0719 95.7975 91.3724C96.0064 91.6818 96.0851 91.9698 96.0334 92.2364C95.9817 92.5029 95.7967 92.7437 95.4785 92.9585L90.9832 95.9937Z" fill="#2A985B"/>
<path id="[Copy] reusable_3" d="M103.168 87.9177C102.492 88.3843 101.837 88.7129 101.204 88.9036C100.565 89.0854 99.9474 89.1294 99.3512 89.0355C98.7638 88.9354 98.2022 88.6945 97.6664 88.3125C97.1333 87.9158 96.6335 87.3794 96.167 86.7034L93.2496 82.4764C92.9709 82.0726 92.8673 81.697 92.9386 81.3497C93.0039 80.9936 93.2296 80.6822 93.6159 80.4156C94.011 80.143 94.3821 80.0423 94.7295 80.1137C95.0795 80.1702 95.3939 80.4003 95.6726 80.8042L98.6081 85.0575C99.0747 85.7335 99.5753 86.1396 100.11 86.276C100.645 86.4124 101.198 86.2837 101.768 85.8898C102.33 85.5021 102.642 85.034 102.704 84.4856C102.766 83.9372 102.564 83.3251 102.098 82.6491L99.1622 78.3958C98.8835 77.9919 98.7754 77.6194 98.838 77.2781C98.9032 76.922 99.129 76.6107 99.5153 76.3441C99.9015 76.0775 100.268 75.9799 100.616 76.0512C100.957 76.1137 101.267 76.3469 101.546 76.7508L104.463 80.9778C105.087 81.882 105.453 82.7504 105.561 83.5831C105.672 84.4009 105.526 85.1754 105.124 85.9068C104.715 86.6294 104.063 87.2997 103.168 87.9177Z" fill="#2A985B"/>
<path id="[Copy] reusable_4" d="M113.327 80.7955C112.98 81.0436 112.597 81.2781 112.178 81.499C111.773 81.7223 111.368 81.9072 110.961 82.0537C110.555 82.2001 110.17 82.3044 109.808 82.3665C109.493 82.4212 109.223 82.3915 108.997 82.2775C108.765 82.1549 108.588 81.9801 108.465 81.7532C108.342 81.5263 108.286 81.2914 108.296 81.0483C108.299 80.7966 108.382 80.5734 108.545 80.3787C108.701 80.1753 108.945 80.04 109.277 79.9729C109.719 79.8934 110.179 79.7482 110.657 79.5372C111.136 79.3263 111.557 79.0905 111.922 78.83C112.495 78.4206 112.841 78.0615 112.961 77.7527C113.084 77.4291 113.064 77.1544 112.903 76.9288C112.761 76.7292 112.563 76.6276 112.312 76.624C112.069 76.6141 111.712 76.7116 111.242 76.9163L109.487 77.6795C108.53 78.1015 107.692 78.2412 106.974 78.0989C106.256 77.9565 105.652 77.5426 105.162 76.8571C104.839 76.4058 104.639 75.9328 104.561 75.4381C104.485 74.9285 104.523 74.4226 104.676 73.9203C104.837 73.4119 105.102 72.9208 105.471 72.447C105.843 71.9583 106.32 71.5062 106.901 71.0906C107.352 70.768 107.845 70.4944 108.379 70.2698C108.916 70.0303 109.425 69.8894 109.906 69.8471C110.18 69.8086 110.426 69.8494 110.643 69.9696C110.86 70.0898 111.031 70.2559 111.156 70.4679C111.275 70.6712 111.327 70.89 111.311 71.1244C111.304 71.3526 111.219 71.564 111.056 71.7587C110.896 71.9386 110.642 72.0683 110.292 72.1477C109.96 72.2148 109.614 72.3371 109.256 72.5145C108.9 72.6771 108.575 72.8638 108.28 73.0747C107.959 73.3042 107.713 73.5386 107.544 73.778C107.368 74.0087 107.268 74.2369 107.246 74.4626C107.233 74.6821 107.291 74.8829 107.421 75.0651C107.552 75.2474 107.737 75.3508 107.977 75.3756C108.221 75.3854 108.577 75.2879 109.047 75.0832L110.789 74.3293C111.761 73.9098 112.605 73.7595 113.319 73.8783C114.033 73.9971 114.629 74.3906 115.107 75.0588C115.429 75.51 115.63 75.983 115.708 76.4777C115.786 76.9724 115.749 77.4709 115.597 77.9732C115.438 78.4667 115.17 78.9535 114.792 79.4335C114.414 79.9135 113.926 80.3675 113.327 80.7955Z" fill="#2A985B"/>
<path id="[Copy] reusable_5" d="M119.344 76.4243C119.079 76.6224 118.812 76.7288 118.543 76.7435C118.268 76.7497 118.029 76.662 117.827 76.4805C117.618 76.2904 117.471 76.014 117.386 75.6513L115.436 66.3983C115.34 65.9503 115.346 65.5663 115.453 65.2464C115.568 64.9201 115.771 64.6482 116.062 64.4309C116.352 64.2136 116.661 64.1018 116.99 64.0957C117.327 64.0832 117.701 64.1828 118.113 64.3943L126.442 68.8722C126.783 69.0432 127.015 69.2557 127.139 69.5097C127.271 69.7572 127.292 70.0079 127.202 70.2617C127.121 70.5091 126.952 70.7287 126.696 70.9205C126.354 71.1762 126.032 71.2975 125.729 71.2844C125.435 71.2649 125.087 71.1387 124.686 70.9059L122.777 69.7969L124.162 69.779L118.885 73.7294L119.306 72.3954L119.832 74.5399C119.934 74.9965 119.961 75.3624 119.914 75.6376C119.867 75.9127 119.677 76.175 119.344 76.4243ZM117.963 67.0246L119.133 71.6849L118.315 71.3385L122.042 68.5483L122.144 69.4316L117.989 67.0054L117.963 67.0246Z" fill="#2A985B"/>
<path id="[Copy] reusable_6" d="M130.762 67.5894C130.369 67.9 129.988 68.0374 129.62 68.0017C129.254 67.9509 128.919 67.733 128.615 67.3478L123.51 60.8797C123.206 60.4946 123.075 60.1222 123.117 59.7627C123.162 59.3881 123.38 59.0456 123.774 58.735L126.838 56.3163C127.475 55.814 128.091 55.4841 128.687 55.3264C129.284 55.1538 129.836 55.1466 130.341 55.3048C130.846 55.4631 131.281 55.7725 131.644 56.233C132.054 56.7521 132.253 57.3148 132.243 57.9211C132.24 58.5209 132.037 59.0892 131.632 59.6263L131.473 59.4254C132.162 59.0584 132.818 58.9345 133.442 59.0535C134.075 59.166 134.622 59.5152 135.085 60.1014C135.699 60.88 135.904 61.7168 135.7 62.6117C135.498 63.4917 134.915 64.3116 133.952 65.0716L130.762 67.5894ZM130.429 65.1008L132.3 63.6239C132.727 63.2868 132.974 62.9628 133.041 62.6517C133.11 62.3256 133.016 61.9993 132.758 61.6728C132.5 61.3462 132.208 61.1827 131.881 61.1822C131.563 61.1752 131.191 61.3401 130.764 61.6771L128.892 63.1541L130.429 65.1008ZM127.554 61.4586L129.199 60.1601C129.618 59.8296 129.864 59.5131 129.938 59.2104C130.02 58.901 129.939 58.5915 129.694 58.2817C129.45 57.9719 129.171 57.8251 128.857 57.8414C128.546 57.8427 128.181 58.0085 127.762 58.3389L126.117 59.6375L127.554 61.4586Z" fill="#2A985B"/>
<path id="[Copy] reusable_7" d="M139.911 60.2837C139.549 60.5818 139.183 60.7167 138.815 60.6884C138.448 60.645 138.115 60.4421 137.817 60.0796L132.532 53.6537C132.227 53.283 132.092 52.9175 132.127 52.5571C132.162 52.1968 132.361 51.8676 132.724 51.5695C133.094 51.2646 133.456 51.133 133.808 51.1749C134.168 51.21 134.501 51.413 134.806 51.7837L139.481 57.4681L142.496 54.9883C142.809 54.7308 143.116 54.6167 143.416 54.646C143.718 54.6602 143.994 54.8198 144.245 55.1246C144.495 55.4294 144.602 55.7353 144.565 56.0424C144.535 56.3427 144.364 56.6215 144.051 56.879L139.911 60.2837Z" fill="#2A985B"/>
<path id="[Copy] reusable_8" d="M147.553 53.9454C147.171 54.2701 146.796 54.4213 146.427 54.399C146.059 54.3616 145.716 54.156 145.398 53.7822L140.062 47.504C139.744 47.1302 139.599 46.7629 139.629 46.402C139.659 46.0261 139.865 45.6758 140.247 45.3511L144.38 41.8381C144.673 41.5893 144.954 41.476 145.225 41.4979C145.495 41.5198 145.748 41.6689 145.983 41.9453C146.225 42.2297 146.338 42.5113 146.323 42.7901C146.301 43.0607 146.144 43.3204 145.852 43.5691L142.694 46.2531L144.083 47.8866L146.972 45.4306C147.256 45.1888 147.534 45.0789 147.805 45.1008C148.083 45.1158 148.344 45.2656 148.585 45.55C148.827 45.8345 148.933 46.1155 148.903 46.393C148.881 46.6637 148.728 46.9199 148.443 47.1617L145.554 49.6177L147.057 51.3853L150.214 48.7013C150.507 48.4526 150.792 48.3433 151.07 48.3733C151.34 48.3953 151.593 48.5444 151.828 48.8207C152.07 49.1052 152.18 49.3827 152.158 49.6534C152.136 49.924 151.978 50.1837 151.686 50.4324L147.553 53.9454Z" fill="#2A985B"/>
</g>
</g>
</svg>
