<svg width="104" height="153" viewBox="0 0 104 153" fill="none" xmlns="http://www.w3.org/2000/svg">
<g id="juice">
<path id="Rectangle 370" d="M0 43L47.5 31L72 42L24 54L0 43Z" fill="#F67272"/>
<path id="Rectangle 373" d="M13 49L60.5 37L72 42L24.5 54.5L13 49Z" fill="#D46666"/>
<path id="Rectangle 372" d="M0 136.5V43L24.5 54.2422V153L0 136.5Z" fill="#BF5353"/>
<path id="Rectangle 371" d="M24 54L72 42V138L24.5 153L24 54Z" fill="#E24646"/>
<path id="Rectangle 374" d="M0 43L13.5 49L13 62L0 43Z" fill="#D46666"/>
<path id="Rectangle 375" d="M24 54L13.5 49L13 62L24 54Z" fill="#E24646"/>
<path id="Vector 65" d="M100 8L73.5 4C67.6079 4.0043 65.0633 5.40916 63 12.5L57 39.5" stroke="#A0D2DB" stroke-width="8" stroke-linecap="round"/>
</g>
</svg>
