<svg width="234" height="363" viewBox="0 0 234 363" fill="none" xmlns="http://www.w3.org/2000/svg">
<g id="surgical_gown_recycle">
<g id="surgical gown 3">
<g id="surgical gown 3_2">
<path id="Rectangle 31" d="M1.82115 160.968C-0.554721 176.891 -0.658824 186.042 1.82115 202.853V209.834C12.682 215.549 19.4315 216.983 32.3292 217.225L35.2151 208.191C42.8645 205.17 53.216 98.6247 55.6566 85.4118C51.9973 114.744 41.7705 233.091 40.5747 266.912L38.5133 351.502C68.7771 359.379 86.1207 361.935 117.257 363C149.766 361.784 166.964 359.188 196.001 351.502L193.527 266.912L180.987 85.4118C182.674 99.0202 192.434 207.024 198.887 208.191L202.597 217.225C215.545 216.487 222.192 214.973 232.693 209.834V199.568C234.647 184.494 234.211 176.042 232.693 160.968C223.161 101.776 215.034 68.6916 196.001 9.85521C178.959 3.75859 169.39 1.83968 152.3 0.410645L132.511 2.87445H116.433H99.5295L80.565 0.410645C62.1429 0.784881 53.1381 3.18659 38.5133 9.85521C20.2693 68.095 11.28 100.993 1.82115 160.968Z" fill="#C1E0E6"/>
<path id="Rectangle 32" d="M1.64905 202.442C4.72701 204.095 6.38927 205.115 9.89448 206.138C13.1827 207.377 14.7892 207.864 17.7276 208.191L26.3853 209.012C30.798 209.385 32.5006 208.98 35.4553 208.191L34.6308 209.834C33.8258 212.72 33.3744 214.339 32.5694 217.225H26.3853L23.0872 216.814C20.3495 216.641 18.7487 216.418 15.6663 215.583C12.9169 214.718 11.5423 214.139 9.06993 213.119C6.08191 212.167 4.49817 211.296 1.64905 209.834V202.442Z" fill="#52ACBD"/>
<path id="Rectangle 33" d="M232.521 202.442C229.443 204.095 227.781 205.115 224.276 206.138C220.987 207.377 219.381 207.864 216.443 208.191L207.785 209.012C203.372 209.385 201.67 208.98 198.715 208.191L199.539 209.834C200.344 212.72 200.796 214.339 201.601 217.225H207.785L211.083 216.814C213.821 216.641 215.421 216.418 218.504 215.583C221.253 214.718 222.628 214.139 225.1 213.119C228.088 212.167 229.672 211.296 232.521 209.834V202.442Z" fill="#52ACBD"/>
<path id="Rectangle 35" d="M82.4207 2.4638C89.4294 3.6957 93.3218 4.50849 100.561 4.9276C107.806 4.80011 111.868 4.76788 119.113 4.9276C126.024 4.98961 129.932 4.48979 136.841 4.10633C144.323 3.12704 148.135 2.74892 154.98 2.05316C155.833 3.49642 155.789 4.71623 154.98 6.1595C149.007 10.5958 145.95 12.1803 137.253 14.7828C129.832 15.6041 125.793 17.0616 118.701 16.836C111.609 16.6103 107.628 16.3378 100.561 15.6041C92.3429 13.3248 88.775 11.049 82.4207 6.98076C81.154 4.86501 81.6018 4.00035 82.4207 2.4638Z" fill="#395E65"/>
<path id="Rectangle 34" d="M82.4543 0.410634C89.463 1.64253 93.3554 2.45533 100.594 2.87443C107.839 2.74695 111.901 2.71472 119.146 2.87443C126.058 2.93645 129.965 2.43663 136.874 2.05317C144.356 1.07387 148.168 0.695756 155.014 0C155.867 1.44326 155.823 2.66307 155.014 4.10634C149.041 8.54265 145.983 10.1271 137.286 12.7296C129.866 13.5509 125.826 15.0085 118.734 14.7828C111.642 14.5571 107.661 14.2846 100.594 13.5509C92.3765 11.2717 88.8086 8.99586 82.4543 4.9276C81.1875 2.81185 81.6353 1.94718 82.4543 0.410634Z" fill="#87A7AD"/>
</g>
</g>
<g id="Linked Path Group">
<path id="[Copy] recyclable" d="M63.6351 349.354C63.1709 349.285 62.831 349.105 62.6156 348.814C62.4016 348.513 62.3293 348.13 62.3984 347.665L63.6433 339.31C63.714 338.835 63.8948 338.49 64.1857 338.274C64.4872 338.06 64.8701 337.988 65.3343 338.057L69.2273 338.637C70.4933 338.826 71.4229 339.282 72.0159 340.007C72.621 340.723 72.8419 341.629 72.6784 342.726C72.5731 343.433 72.3229 344.027 71.9278 344.507C71.5449 344.979 71.0367 345.313 70.4035 345.51C69.7824 345.697 69.0445 345.728 68.1899 345.6L68.359 345.334L69.1186 345.447C69.5723 345.515 69.9567 345.686 70.2718 345.959C70.5885 346.222 70.8299 346.592 70.996 347.07L71.5751 348.612C71.6983 348.943 71.7327 349.256 71.6781 349.549C71.6251 349.833 71.4737 350.053 71.2239 350.21C70.9861 350.358 70.6615 350.401 70.2501 350.34C69.8386 350.278 69.5136 350.144 69.275 349.936C69.0469 349.729 68.8594 349.431 68.7124 349.043L67.666 346.186C67.574 345.935 67.434 345.752 67.2461 345.638C67.0704 345.514 66.8559 345.434 66.6027 345.396L65.7323 345.267L65.3103 348.099C65.2411 348.563 65.0656 348.909 64.7836 349.137C64.5032 349.354 64.1204 349.426 63.6351 349.354ZM66.0388 343.209L67.9695 343.497C68.5286 343.58 68.9724 343.533 69.3009 343.356C69.6293 343.178 69.828 342.857 69.8972 342.393C69.9632 341.95 69.865 341.595 69.6026 341.33C69.3418 341.054 68.9318 340.874 68.3726 340.791L66.442 340.503L66.0388 343.209Z" fill="#2B91A1"/>
<path id="[Copy] recyclable_2" d="M75.2485 350.885C74.7512 350.821 74.3865 350.646 74.1544 350.358C73.9341 350.061 73.855 349.67 73.9171 349.183L74.9592 341.009C75.0212 340.522 75.1954 340.168 75.4817 339.946C75.78 339.716 76.1777 339.632 76.675 339.695L82.0555 340.381C82.4364 340.43 82.71 340.562 82.8761 340.776C83.0423 340.991 83.1025 341.278 83.0566 341.638C83.0094 342.008 82.8777 342.282 82.6617 342.459C82.4469 342.625 82.1491 342.684 81.7682 342.635L77.6574 342.111L77.3863 344.238L81.1479 344.717C81.5182 344.765 81.7865 344.896 81.9526 345.11C82.1294 345.326 82.1942 345.62 82.147 345.99C82.0997 346.36 81.9635 346.628 81.7382 346.793C81.5234 346.959 81.2309 347.018 80.8605 346.971L77.099 346.492L76.8056 348.793L80.9163 349.317C81.2972 349.366 81.5701 349.503 81.7349 349.728C81.9011 349.943 81.9613 350.23 81.9154 350.59C81.8682 350.96 81.7372 351.228 81.5225 351.394C81.3077 351.561 81.0099 351.619 80.629 351.571L75.2485 350.885Z" fill="#2B91A1"/>
<path id="[Copy] recyclable_3" d="M90.9517 352.872C89.7097 352.749 88.6666 352.404 87.8222 351.839C86.9778 351.273 86.3598 350.531 85.9683 349.613C85.5874 348.697 85.4547 347.654 85.5702 346.487C85.6563 345.616 85.8673 344.839 86.203 344.154C86.5494 343.47 87.0025 342.898 87.5624 342.439C88.133 341.981 88.7976 341.656 89.5563 341.463C90.3266 341.26 91.1735 341.205 92.097 341.296C92.5853 341.345 93.0837 341.453 93.5923 341.621C94.1126 341.78 94.5633 341.99 94.9446 342.253C95.2261 342.442 95.4131 342.664 95.5057 342.92C95.5983 343.175 95.6108 343.429 95.5431 343.679C95.4861 343.931 95.3733 344.15 95.2047 344.337C95.0361 344.524 94.8314 344.643 94.5905 344.694C94.3507 344.735 94.0996 344.672 93.8373 344.507C93.5336 344.327 93.2262 344.184 92.9151 344.078C92.6156 343.963 92.2961 343.888 91.9564 343.855C91.2983 343.79 90.7337 343.862 90.2627 344.073C89.8033 344.274 89.4385 344.603 89.1684 345.058C88.8982 345.514 88.7284 346.092 88.6591 346.792C88.5898 347.493 88.6424 348.098 88.817 348.609C88.9927 349.109 89.2855 349.507 89.6955 349.805C90.1172 350.093 90.6571 350.27 91.3152 350.335C91.5912 350.362 91.8915 350.36 92.2163 350.328C92.5421 350.285 92.8662 350.205 93.1888 350.086C93.5209 349.98 93.8058 349.971 94.0437 350.058C94.2921 350.147 94.4812 350.295 94.6109 350.501C94.7512 350.707 94.83 350.94 94.8473 351.199C94.8656 351.448 94.8043 351.688 94.6633 351.921C94.533 352.154 94.3225 352.332 94.0319 352.453C93.6383 352.639 93.1592 352.769 92.5946 352.841C92.0407 352.915 91.493 352.925 90.9517 352.872Z" fill="#2B91A1"/>
<path id="[Copy] recyclable_4" d="M101.229 353.662C100.76 353.632 100.406 353.482 100.167 353.21C99.9283 352.928 99.8245 352.542 99.8556 352.052L100.133 347.677L100.637 349.328L97.2996 343.81C97.1348 343.543 97.0728 343.256 97.1137 342.948C97.1658 342.631 97.3104 342.373 97.5475 342.174C97.7959 341.965 98.1329 341.875 98.5588 341.902C98.8568 341.92 99.1236 342.012 99.359 342.177C99.595 342.331 99.8087 342.585 100 342.939L102.027 346.37L101.452 346.333L103.897 343.17C104.142 342.843 104.386 342.618 104.629 342.495C104.872 342.371 105.154 342.319 105.473 342.34C105.877 342.365 106.185 342.486 106.396 342.703C106.607 342.919 106.707 343.182 106.699 343.491C106.7 343.801 106.585 344.109 106.351 344.415L102.378 349.438L103.071 347.863L102.794 352.238C102.73 353.249 102.208 353.724 101.229 353.662Z" fill="#2B91A1"/>
<path id="[Copy] recyclable_5" d="M113.943 354.217C112.696 354.191 111.629 353.929 110.743 353.43C109.857 352.931 109.184 352.24 108.722 351.355C108.271 350.471 108.058 349.442 108.083 348.269C108.101 347.395 108.251 346.603 108.533 345.894C108.825 345.185 109.232 344.58 109.755 344.079C110.288 343.578 110.925 343.202 111.667 342.951C112.419 342.689 113.259 342.568 114.187 342.588C114.678 342.598 115.183 342.667 115.703 342.796C116.234 342.913 116.7 343.089 117.1 343.321C117.396 343.487 117.599 343.694 117.711 343.942C117.824 344.19 117.856 344.441 117.808 344.696C117.77 344.951 117.675 345.179 117.521 345.378C117.368 345.578 117.173 345.712 116.937 345.782C116.701 345.841 116.446 345.799 116.171 345.654C115.854 345.498 115.537 345.379 115.219 345.298C114.911 345.206 114.587 345.157 114.245 345.15C113.584 345.136 113.027 345.252 112.574 345.499C112.131 345.735 111.793 346.09 111.559 346.566C111.325 347.041 111.201 347.63 111.186 348.334C111.171 349.038 111.271 349.638 111.484 350.133C111.698 350.617 112.021 350.992 112.453 351.257C112.896 351.512 113.448 351.646 114.109 351.66C114.386 351.666 114.685 351.64 115.007 351.583C115.328 351.515 115.645 351.41 115.958 351.267C116.28 351.135 116.564 351.103 116.808 351.173C117.062 351.242 117.262 351.374 117.408 351.569C117.564 351.765 117.66 351.991 117.697 352.247C117.735 352.494 117.692 352.738 117.57 352.981C117.458 353.224 117.262 353.417 116.982 353.561C116.604 353.777 116.136 353.943 115.579 354.059C115.032 354.176 114.487 354.229 113.943 354.217Z" fill="#2B91A1"/>
<path id="[Copy] recyclable_6" d="M121.845 354.061C121.376 354.073 121.005 353.954 120.732 353.704C120.469 353.444 120.332 353.079 120.321 352.61L120.118 344.292C120.106 343.813 120.225 343.442 120.474 343.179C120.724 342.917 121.083 342.78 121.553 342.769C122.033 342.757 122.398 342.876 122.65 343.126C122.912 343.376 123.049 343.741 123.061 344.22L123.241 351.578L127.143 351.483C127.549 351.473 127.861 351.572 128.079 351.78C128.308 351.977 128.427 352.273 128.437 352.667C128.447 353.062 128.342 353.369 128.123 353.587C127.915 353.806 127.609 353.92 127.203 353.93L121.845 354.061Z" fill="#2B91A1"/>
<path id="[Copy] recyclable_7" d="M131.106 353.927C130.776 353.95 130.494 353.896 130.26 353.763C130.025 353.62 129.871 353.417 129.799 353.155C129.726 352.882 129.751 352.57 129.875 352.219L133.23 343.378C133.392 342.949 133.604 342.629 133.867 342.417C134.14 342.205 134.458 342.086 134.819 342.06C135.181 342.034 135.502 342.107 135.782 342.279C136.072 342.45 136.333 342.736 136.566 343.136L141.158 351.403C141.353 351.731 141.434 352.035 141.4 352.316C141.378 352.595 141.26 352.818 141.048 352.983C140.846 353.147 140.585 353.241 140.266 353.264C139.84 353.295 139.504 353.223 139.256 353.048C139.018 352.873 138.794 352.579 138.582 352.166L137.574 350.202L138.75 350.935L132.175 351.411L133.249 350.515L132.534 352.604C132.373 353.043 132.199 353.366 132.011 353.572C131.822 353.778 131.521 353.897 131.106 353.927ZM135.019 345.27L133.488 349.824L132.986 349.09L137.63 348.754L137.238 349.553L135.051 345.267L135.019 345.27Z" fill="#2B91A1"/>
<path id="[Copy] recyclable_8" d="M145.728 352.551C145.23 352.611 144.833 352.531 144.538 352.308C144.252 352.074 144.079 351.714 144.02 351.227L143.03 343.047C142.971 342.559 143.053 342.173 143.276 341.889C143.509 341.592 143.874 341.413 144.372 341.353L148.248 340.884C149.052 340.786 149.75 340.825 150.341 341.001C150.941 341.165 151.415 341.446 151.764 341.844C152.114 342.242 152.323 342.733 152.394 343.315C152.473 343.972 152.351 344.556 152.026 345.068C151.712 345.579 151.242 345.958 150.616 346.206L150.586 345.951C151.365 345.997 151.99 346.233 152.46 346.659C152.942 347.084 153.227 347.668 153.317 348.409C153.436 349.394 153.176 350.215 152.535 350.873C151.904 351.519 150.98 351.915 149.762 352.063L145.728 352.551ZM146.739 350.253L149.106 349.966C149.646 349.901 150.025 349.753 150.244 349.522C150.473 349.28 150.562 348.952 150.512 348.539C150.462 348.126 150.298 347.834 150.019 347.664C149.751 347.492 149.347 347.439 148.807 347.504L146.441 347.791L146.739 350.253ZM146.181 345.647L148.262 345.395C148.791 345.331 149.166 345.189 149.387 344.968C149.618 344.747 149.71 344.44 149.662 344.049C149.615 343.657 149.453 343.386 149.177 343.237C148.911 343.076 148.512 343.027 147.983 343.092L145.902 343.343L146.181 345.647Z" fill="#2B91A1"/>
<path id="[Copy] recyclable_9" d="M157.678 350.98C157.214 351.052 156.831 350.982 156.528 350.771C156.234 350.547 156.051 350.203 155.978 349.739L154.695 341.519C154.621 341.045 154.69 340.661 154.904 340.369C155.117 340.076 155.456 339.894 155.919 339.821C156.394 339.747 156.772 339.818 157.054 340.033C157.346 340.246 157.529 340.59 157.603 341.065L158.739 348.336L162.596 347.734C162.997 347.672 163.319 347.729 163.562 347.907C163.815 348.073 163.972 348.351 164.033 348.741C164.093 349.131 164.03 349.448 163.841 349.694C163.663 349.937 163.374 350.09 162.974 350.153L157.678 350.98Z" fill="#2B91A1"/>
<path id="[Copy] recyclable_10" d="M167.283 349.415C166.79 349.505 166.39 349.448 166.081 349.244C165.782 349.028 165.588 348.678 165.5 348.195L164.022 340.089C163.934 339.606 163.993 339.216 164.199 338.918C164.413 338.608 164.767 338.408 165.26 338.318L170.596 337.345C170.974 337.277 171.275 337.319 171.498 337.474C171.721 337.628 171.865 337.884 171.931 338.241C171.997 338.608 171.955 338.908 171.802 339.142C171.648 339.366 171.382 339.512 171.004 339.581L166.927 340.324L167.312 342.433L171.042 341.753C171.409 341.686 171.705 341.73 171.928 341.884C172.162 342.037 172.312 342.297 172.379 342.664C172.446 343.031 172.397 343.327 172.232 343.553C172.078 343.776 171.817 343.921 171.45 343.988L167.719 344.668L168.135 346.951L172.212 346.207C172.59 346.138 172.891 346.186 173.117 346.351C173.34 346.506 173.484 346.761 173.549 347.118C173.616 347.486 173.572 347.781 173.418 348.004C173.263 348.228 172.997 348.374 172.619 348.442L167.283 349.415Z" fill="#2B91A1"/>
</g>
</g>
</svg>
