<svg width="234" height="363" viewBox="0 0 234 363" fill="none" xmlns="http://www.w3.org/2000/svg">
<g id="surgical_gown_cloth">
<g id="surgical gown 1">
<g id="surgical gown 2">
<path id="Rectangle 31" d="M1.82115 160.968C-0.554721 176.891 -0.658824 186.042 1.82115 202.853V209.834C12.682 215.549 19.4315 216.983 32.3292 217.225L35.2151 208.191C42.8645 205.17 53.216 98.6247 55.6566 85.4118C51.9973 114.744 41.7705 233.091 40.5747 266.912L38.5133 351.502C68.7771 359.379 86.1207 361.935 117.257 363C149.766 361.784 166.964 359.188 196.001 351.502L193.527 266.912L180.987 85.4118C182.674 99.0202 192.434 207.024 198.887 208.191L202.597 217.225C215.545 216.487 222.192 214.973 232.693 209.834V199.568C234.647 184.494 234.211 176.042 232.693 160.968C223.161 101.776 215.034 68.6916 196.001 9.85521C178.959 3.75859 169.39 1.83968 152.3 0.410645L132.511 2.87445H116.433H99.5295L80.565 0.410645C62.1429 0.784881 53.1381 3.18659 38.5133 9.85521C20.2693 68.095 11.28 100.993 1.82115 160.968Z" fill="#7BD8A5"/>
<path id="Rectangle 32" d="M1.64911 202.442C4.72707 204.095 6.38933 205.115 9.89454 206.138C13.1828 207.377 14.7892 207.864 17.7277 208.191L26.3854 209.012C30.7981 209.385 32.5006 208.98 35.4554 208.191L34.6308 209.834C33.8258 212.72 33.3745 214.339 32.5695 217.225H26.3854L23.0872 216.814C20.3496 216.641 18.7488 216.418 15.6663 215.583C12.917 214.718 11.5424 214.139 9.07 213.119C6.08198 212.167 4.49823 211.296 1.64911 209.834V202.442Z" fill="#4F955F"/>
<path id="Rectangle 33" d="M232.521 202.442C229.443 204.095 227.781 205.115 224.276 206.138C220.987 207.377 219.381 207.864 216.443 208.191L207.785 209.012C203.372 209.385 201.67 208.98 198.715 208.191L199.539 209.834C200.344 212.72 200.796 214.339 201.601 217.225H207.785L211.083 216.814C213.821 216.641 215.421 216.418 218.504 215.583C221.253 214.718 222.628 214.139 225.1 213.119C228.088 212.167 229.672 211.296 232.521 209.834V202.442Z" fill="#4F955F"/>
<path id="Rectangle 35" d="M82.4207 2.4638C89.4294 3.6957 93.3218 4.50849 100.561 4.9276C107.806 4.80011 111.868 4.76788 119.113 4.9276C126.024 4.98961 129.932 4.48979 136.841 4.10633C144.323 3.12704 148.135 2.74892 154.98 2.05316C155.833 3.49642 155.789 4.71623 154.98 6.1595C149.007 10.5958 145.95 12.1803 137.253 14.7828C129.832 15.6041 125.793 17.0616 118.701 16.836C111.609 16.6103 107.628 16.3378 100.561 15.6041C92.3429 13.3248 88.775 11.049 82.4207 6.98076C81.154 4.86501 81.6018 4.00035 82.4207 2.4638Z" fill="#428B53"/>
<path id="Rectangle 34" d="M82.4542 0.410634C89.4629 1.64253 93.3553 2.45533 100.594 2.87443C107.839 2.74695 111.901 2.71472 119.146 2.87443C126.058 2.93645 129.965 2.43663 136.874 2.05317C144.356 1.07387 148.168 0.695756 155.014 0C155.867 1.44326 155.823 2.66307 155.014 4.10634C149.041 8.54265 145.983 10.1271 137.286 12.7296C129.866 13.5509 125.826 15.0085 118.734 14.7828C111.642 14.5571 107.661 14.2846 100.594 13.5509C92.3764 11.2717 88.8085 8.99586 82.4542 4.9276C81.1875 2.81185 81.6353 1.94718 82.4542 0.410634Z" fill="#70C784"/>
</g>
</g>
<g id="Linked Path Group">
<path id="[Copy] reusable" d="M73.7924 351.773C73.3277 351.707 72.9867 351.529 72.7694 351.24C72.5536 350.939 72.4789 350.557 72.5451 350.092L73.7374 341.729C73.8051 341.254 73.9838 340.907 74.2734 340.69C74.5735 340.474 74.9559 340.4 75.4205 340.466L79.3171 341.021C80.5843 341.202 81.5167 341.653 82.1143 342.374C82.7239 343.085 82.9504 343.991 82.7939 345.089C82.693 345.796 82.4465 346.391 82.0545 346.874C81.6745 347.348 81.1685 347.685 80.5365 347.886C79.9165 348.078 79.1789 348.113 78.3235 347.991L78.4909 347.724L79.2512 347.832C79.7053 347.897 80.0908 348.065 80.4076 348.336C80.726 348.597 80.9697 348.966 81.1388 349.443L81.7276 350.981C81.8529 351.312 81.8892 351.624 81.8364 351.918C81.7852 352.202 81.6352 352.423 81.3864 352.581C81.1496 352.73 80.8252 352.776 80.4134 352.717C80.0016 352.658 79.6757 352.526 79.4358 352.319C79.2064 352.114 79.017 351.818 78.8676 351.43L77.8033 348.579C77.7097 348.329 77.5686 348.147 77.38 348.034C77.2034 347.912 76.9885 347.833 76.735 347.797L75.8638 347.673L75.4596 350.508C75.3934 350.972 75.22 351.32 74.9395 351.549C74.6605 351.768 74.2781 351.842 73.7924 351.773ZM76.1574 345.613L78.0899 345.889C78.6495 345.969 79.093 345.919 79.4203 345.739C79.7476 345.56 79.9444 345.237 80.0106 344.773C80.0738 344.329 79.9734 343.976 79.7094 343.712C79.4468 343.437 79.0357 343.26 78.476 343.18L76.5435 342.905L76.1574 345.613Z" fill="#2A985B"/>
<path id="[Copy] reusable_2" d="M85.5729 353.234C85.0748 353.178 84.7075 353.008 84.4712 352.724C84.2466 352.43 84.1618 352.04 84.2168 351.552L85.1393 343.364C85.1943 342.876 85.3633 342.52 85.6463 342.294C85.9412 342.059 86.3377 341.969 86.8359 342.025L92.2258 342.633C92.6073 342.676 92.8828 342.803 93.0521 343.016C93.2214 343.228 93.2857 343.514 93.2451 343.875C93.2033 344.246 93.0757 344.521 92.8622 344.701C92.6499 344.87 92.353 344.933 91.9714 344.89L87.8534 344.426L87.6134 346.557L91.3815 346.981C91.7525 347.023 92.0227 347.15 92.192 347.363C92.3719 347.576 92.4409 347.868 92.3991 348.239C92.3573 348.61 92.225 348.88 92.0021 349.048C91.7898 349.217 91.4982 349.281 91.1272 349.239L87.359 348.815L87.0993 351.12L91.2172 351.584C91.5988 351.627 91.8736 351.76 92.0417 351.983C92.211 352.195 92.2754 352.481 92.2348 352.842C92.193 353.213 92.0659 353.483 91.8536 353.652C91.6414 353.821 91.3444 353.885 90.9628 353.842L85.5729 353.234Z" fill="#2A985B"/>
<path id="[Copy] reusable_3" d="M100.372 354.849C99.5528 354.791 98.8363 354.64 98.2226 354.393C97.6097 354.137 97.0997 353.786 96.6924 353.34C96.2958 352.895 96.0074 352.357 95.8271 351.724C95.6582 351.081 95.6024 350.35 95.6597 349.531L96.0182 344.407C96.0524 343.918 96.2058 343.56 96.4783 343.333C96.7515 343.095 97.1222 342.993 97.5904 343.026C98.0693 343.059 98.4221 343.212 98.649 343.485C98.8872 343.747 98.9892 344.123 98.955 344.613L98.5943 349.768C98.537 350.587 98.6747 351.217 99.0075 351.658C99.3402 352.098 99.8524 352.342 100.544 352.391C101.225 352.438 101.761 352.267 102.152 351.878C102.543 351.488 102.767 350.883 102.824 350.064L103.185 344.909C103.219 344.419 103.367 344.061 103.629 343.833C103.902 343.596 104.273 343.493 104.741 343.526C105.209 343.559 105.557 343.711 105.784 343.984C106.011 344.246 106.108 344.621 106.074 345.111L105.715 350.234C105.638 351.33 105.383 352.237 104.947 352.955C104.524 353.663 103.926 354.178 103.155 354.498C102.385 354.808 101.457 354.925 100.372 354.849Z" fill="#2A985B"/>
<path id="[Copy] reusable_4" d="M113.154 355.432C112.727 355.424 112.28 355.384 111.812 355.312C111.354 355.25 110.918 355.157 110.505 355.032C110.091 354.907 109.72 354.762 109.392 354.596C109.107 354.452 108.908 354.267 108.794 354.041C108.681 353.804 108.643 353.558 108.68 353.302C108.716 353.047 108.811 352.825 108.964 352.636C109.117 352.436 109.317 352.306 109.563 352.246C109.81 352.176 110.086 352.213 110.393 352.357C110.795 352.557 111.251 352.714 111.761 352.83C112.271 352.946 112.75 353.008 113.198 353.016C113.901 353.029 114.394 352.947 114.674 352.771C114.966 352.584 115.114 352.352 115.119 352.075C115.123 351.83 115.026 351.631 114.826 351.478C114.637 351.325 114.292 351.191 113.793 351.075L111.928 350.641C110.909 350.409 110.153 350.022 109.661 349.48C109.17 348.937 108.931 348.245 108.947 347.402C108.957 346.848 109.078 346.349 109.31 345.905C109.553 345.45 109.885 345.067 110.307 344.755C110.739 344.442 111.245 344.206 111.824 344.046C112.414 343.875 113.066 343.796 113.781 343.809C114.335 343.82 114.894 343.894 115.457 344.032C116.031 344.16 116.523 344.35 116.935 344.603C117.178 344.735 117.351 344.914 117.453 345.14C117.556 345.366 117.594 345.602 117.568 345.846C117.543 346.081 117.454 346.287 117.301 346.466C117.159 346.645 116.965 346.764 116.719 346.823C116.483 346.872 116.201 346.825 115.873 346.68C115.566 346.536 115.216 346.428 114.823 346.357C114.44 346.275 114.067 346.231 113.705 346.224C113.31 346.217 112.973 346.259 112.694 346.35C112.416 346.43 112.2 346.555 112.048 346.722C111.906 346.891 111.833 347.087 111.829 347.311C111.825 347.535 111.912 347.728 112.09 347.891C112.28 348.044 112.624 348.179 113.123 348.294L114.972 348.728C116.002 348.971 116.769 349.353 117.271 349.874C117.774 350.395 118.018 351.066 118.003 351.887C117.993 352.442 117.872 352.941 117.64 353.385C117.408 353.829 117.081 354.207 116.659 354.519C116.237 354.821 115.732 355.052 115.142 355.212C114.552 355.372 113.89 355.445 113.154 355.432Z" fill="#2A985B"/>
<path id="[Copy] reusable_5" d="M120.578 355.46C120.248 355.472 119.968 355.408 119.739 355.267C119.509 355.115 119.363 354.907 119.299 354.643C119.236 354.367 119.273 354.057 119.409 353.71L123.077 344.994C123.253 344.571 123.477 344.259 123.747 344.057C124.028 343.854 124.349 343.746 124.712 343.733C125.074 343.72 125.392 343.804 125.665 343.986C125.95 344.168 126.201 344.463 126.418 344.871L130.714 353.296C130.897 353.631 130.967 353.938 130.924 354.217C130.891 354.495 130.766 354.713 130.547 354.871C130.34 355.028 130.076 355.112 129.756 355.124C129.33 355.14 128.996 355.056 128.754 354.873C128.523 354.689 128.309 354.387 128.113 353.967L127.175 351.968L128.324 352.743L121.736 352.984L122.842 352.127L122.053 354.19C121.876 354.623 121.691 354.939 121.495 355.139C121.3 355.338 120.994 355.445 120.578 355.46ZM124.797 346.948L123.105 351.445L122.629 350.694L127.282 350.524L126.862 351.307L124.829 346.947L124.797 346.948Z" fill="#2A985B"/>
<path id="[Copy] reusable_6" d="M134.991 354.601C134.492 354.647 134.098 354.554 133.809 354.323C133.53 354.081 133.368 353.715 133.324 353.227L132.579 345.02C132.534 344.532 132.628 344.148 132.86 343.87C133.101 343.58 133.472 343.413 133.971 343.368L137.859 343.014C138.666 342.941 139.362 343.001 139.948 343.194C140.542 343.376 141.008 343.671 141.345 344.079C141.682 344.488 141.877 344.984 141.931 345.569C141.99 346.227 141.85 346.808 141.51 347.31C141.181 347.811 140.7 348.176 140.067 348.405L140.044 348.15C140.822 348.218 141.439 348.473 141.897 348.913C142.365 349.353 142.633 349.944 142.701 350.688C142.791 351.676 142.506 352.489 141.846 353.127C141.196 353.754 140.26 354.123 139.039 354.234L134.991 354.601ZM136.071 352.334L138.445 352.119C138.987 352.07 139.37 351.933 139.596 351.709C139.832 351.473 139.931 351.148 139.894 350.734C139.856 350.32 139.7 350.023 139.427 349.845C139.164 349.665 138.762 349.6 138.22 349.649L135.846 349.865L136.071 352.334ZM135.651 347.713L137.738 347.524C138.269 347.476 138.648 347.345 138.875 347.131C139.113 346.917 139.214 346.613 139.178 346.22C139.143 345.827 138.989 345.552 138.718 345.394C138.456 345.225 138.059 345.165 137.528 345.213L135.441 345.403L135.651 347.713Z" fill="#2A985B"/>
<path id="[Copy] reusable_7" d="M147.132 353.355C146.667 353.416 146.286 353.336 145.988 353.117C145.7 352.886 145.525 352.537 145.465 352.072L144.39 343.822C144.328 343.346 144.408 342.964 144.629 342.677C144.849 342.39 145.193 342.217 145.658 342.156C146.134 342.094 146.51 342.174 146.786 342.396C147.073 342.617 147.248 342.965 147.31 343.441L148.26 350.74L152.131 350.236C152.533 350.183 152.854 350.249 153.093 350.433C153.341 350.605 153.491 350.887 153.542 351.278C153.593 351.67 153.521 351.986 153.326 352.226C153.142 352.465 152.85 352.611 152.448 352.663L147.132 353.355Z" fill="#2A985B"/>
<path id="[Copy] reusable_8" d="M157.015 351.99C156.52 352.069 156.12 352.003 155.817 351.792C155.522 351.569 155.336 351.215 155.259 350.731L153.963 342.593C153.886 342.109 153.954 341.72 154.166 341.427C154.388 341.122 154.746 340.93 155.241 340.851L160.597 339.998C160.977 339.937 161.276 339.987 161.496 340.146C161.716 340.306 161.854 340.565 161.911 340.923C161.97 341.291 161.92 341.591 161.763 341.821C161.603 342.041 161.334 342.181 160.955 342.242L156.862 342.893L157.199 345.011L160.944 344.414C161.313 344.356 161.607 344.406 161.827 344.565C162.057 344.723 162.202 344.986 162.261 345.355C162.319 345.724 162.264 346.019 162.094 346.24C161.934 346.46 161.67 346.599 161.302 346.658L157.557 347.254L157.922 349.545L162.014 348.894C162.393 348.833 162.694 348.888 162.915 349.058C163.135 349.218 163.273 349.476 163.33 349.834C163.389 350.203 163.339 350.497 163.179 350.717C163.02 350.937 162.751 351.077 162.371 351.137L157.015 351.99Z" fill="#2A985B"/>
</g>
</g>
</svg>
