<svg width="323" height="306" viewBox="0 0 323 306" fill="none" xmlns="http://www.w3.org/2000/svg">
<rect width="86.6416" height="169.124" fill="#92D3E0"/>
<rect x="236.358" width="86.6416" height="169.124" fill="#92D3E0"/>
<rect x="86.6416" width="149.717" height="305.672" fill="#86CEDB"/>
<rect x="132.388" y="128.923" width="57.53" height="112.288" fill="#4EA1B1"/>
<rect x="151.796" y="153.182" width="19.4077" height="30.4979" rx="3.46567" fill="white"/>
<rect x="156.648" y="197.543" width="9.70386" height="18.7146" rx="1.38627" fill="white"/>
<path d="M108.857 25.144C108.388 25.144 108.025 25.016 107.769 24.76C107.513 24.4933 107.385 24.1253 107.385 23.656V15.208C107.385 14.728 107.513 14.36 107.769 14.104C108.036 13.848 108.404 13.72 108.873 13.72H112.809C114.089 13.72 115.076 14.0347 115.769 14.664C116.473 15.2827 116.825 16.1467 116.825 17.256C116.825 17.9707 116.665 18.5947 116.345 19.128C116.036 19.6507 115.582 20.056 114.985 20.344C114.398 20.6213 113.673 20.76 112.809 20.76L112.937 20.472H113.705C114.164 20.472 114.569 20.584 114.921 20.808C115.273 21.0213 115.566 21.352 115.801 21.8L116.601 23.24C116.772 23.5493 116.852 23.8533 116.841 24.152C116.83 24.44 116.713 24.68 116.489 24.872C116.276 25.0533 115.961 25.144 115.545 25.144C115.129 25.144 114.788 25.0587 114.521 24.888C114.265 24.7173 114.036 24.4507 113.833 24.088L112.377 21.416C112.249 21.1813 112.084 21.0213 111.881 20.936C111.689 20.84 111.465 20.792 111.209 20.792H110.329V23.656C110.329 24.1253 110.206 24.4933 109.961 24.76C109.716 25.016 109.348 25.144 108.857 25.144ZM110.329 18.712H112.281C112.846 18.712 113.278 18.6 113.577 18.376C113.876 18.152 114.025 17.8053 114.025 17.336C114.025 16.888 113.876 16.552 113.577 16.328C113.278 16.0933 112.846 15.976 112.281 15.976H110.329V18.712ZM120.538 25C120.036 25 119.652 24.872 119.386 24.616C119.13 24.3493 119.002 23.9707 119.002 23.48V15.24C119.002 14.7493 119.13 14.376 119.386 14.12C119.652 13.8533 120.036 13.72 120.538 13.72H125.962C126.346 13.72 126.634 13.816 126.826 14.008C127.018 14.2 127.114 14.4773 127.114 14.84C127.114 15.2133 127.018 15.5013 126.826 15.704C126.634 15.896 126.346 15.992 125.962 15.992H121.818V18.136H125.61C125.983 18.136 126.266 18.232 126.458 18.424C126.66 18.616 126.762 18.8987 126.762 19.272C126.762 19.6453 126.66 19.928 126.458 20.12C126.266 20.312 125.983 20.408 125.61 20.408H121.818V22.728H125.962C126.346 22.728 126.634 22.8293 126.826 23.032C127.018 23.224 127.114 23.5013 127.114 23.864C127.114 24.2373 127.018 24.52 126.826 24.712C126.634 24.904 126.346 25 125.962 25H120.538ZM134.877 25.176C133.629 25.176 132.557 24.936 131.661 24.456C130.765 23.976 130.077 23.2987 129.597 22.424C129.128 21.5493 128.893 20.5253 128.893 19.352C128.893 18.4773 129.027 17.6827 129.293 16.968C129.571 16.2533 129.965 15.64 130.477 15.128C131 14.616 131.629 14.2267 132.365 13.96C133.112 13.6827 133.949 13.544 134.877 13.544C135.368 13.544 135.875 13.6027 136.397 13.72C136.931 13.8267 137.4 13.992 137.805 14.216C138.104 14.376 138.312 14.5787 138.429 14.824C138.547 15.0693 138.584 15.32 138.541 15.576C138.509 15.832 138.419 16.0613 138.269 16.264C138.12 16.4667 137.928 16.6053 137.693 16.68C137.459 16.744 137.203 16.7067 136.925 16.568C136.605 16.4187 136.285 16.3067 135.965 16.232C135.656 16.1467 135.331 16.104 134.989 16.104C134.328 16.104 133.773 16.232 133.325 16.488C132.888 16.7333 132.557 17.096 132.333 17.576C132.109 18.056 131.997 18.648 131.997 19.352C131.997 20.056 132.109 20.6533 132.333 21.144C132.557 21.624 132.888 21.992 133.325 22.248C133.773 22.4933 134.328 22.616 134.989 22.616C135.267 22.616 135.565 22.584 135.885 22.52C136.205 22.4453 136.52 22.3333 136.829 22.184C137.149 22.0453 137.432 22.008 137.677 22.072C137.933 22.136 138.136 22.264 138.285 22.456C138.445 22.648 138.547 22.872 138.589 23.128C138.632 23.3733 138.595 23.6187 138.477 23.864C138.371 24.1093 138.179 24.3067 137.901 24.456C137.528 24.68 137.064 24.856 136.509 24.984C135.965 25.112 135.421 25.176 134.877 25.176ZM144.457 25.144C143.988 25.144 143.625 25.016 143.369 24.76C143.113 24.4933 142.985 24.1147 142.985 23.624V19.24L143.593 20.856L139.913 15.56C139.732 15.304 139.652 15.0213 139.673 14.712C139.705 14.392 139.833 14.1253 140.057 13.912C140.292 13.688 140.623 13.576 141.049 13.576C141.348 13.576 141.62 13.6507 141.865 13.8C142.111 13.9387 142.34 14.1787 142.553 14.52L144.793 17.816H144.217L146.457 14.504C146.681 14.1627 146.911 13.9227 147.145 13.784C147.38 13.6453 147.657 13.576 147.977 13.576C148.383 13.576 148.697 13.6773 148.921 13.88C149.145 14.0827 149.263 14.3387 149.273 14.648C149.295 14.9573 149.199 15.272 148.985 15.592L145.337 20.856L145.929 19.24V23.624C145.929 24.6373 145.439 25.144 144.457 25.144ZM156.002 25.176C154.754 25.176 153.682 24.936 152.786 24.456C151.89 23.976 151.202 23.2987 150.722 22.424C150.252 21.5493 150.018 20.5253 150.018 19.352C150.018 18.4773 150.151 17.6827 150.418 16.968C150.695 16.2533 151.09 15.64 151.602 15.128C152.124 14.616 152.754 14.2267 153.49 13.96C154.236 13.6827 155.074 13.544 156.002 13.544C156.492 13.544 156.999 13.6027 157.522 13.72C158.055 13.8267 158.524 13.992 158.93 14.216C159.228 14.376 159.436 14.5787 159.554 14.824C159.671 15.0693 159.708 15.32 159.666 15.576C159.634 15.832 159.543 16.0613 159.394 16.264C159.244 16.4667 159.052 16.6053 158.818 16.68C158.583 16.744 158.327 16.7067 158.05 16.568C157.73 16.4187 157.41 16.3067 157.09 16.232C156.78 16.1467 156.455 16.104 156.114 16.104C155.452 16.104 154.898 16.232 154.45 16.488C154.012 16.7333 153.682 17.096 153.458 17.576C153.234 18.056 153.122 18.648 153.122 19.352C153.122 20.056 153.234 20.6533 153.458 21.144C153.682 21.624 154.012 21.992 154.45 22.248C154.898 22.4933 155.452 22.616 156.114 22.616C156.391 22.616 156.69 22.584 157.01 22.52C157.33 22.4453 157.644 22.3333 157.954 22.184C158.274 22.0453 158.556 22.008 158.802 22.072C159.058 22.136 159.26 22.264 159.41 22.456C159.57 22.648 159.671 22.872 159.714 23.128C159.756 23.3733 159.719 23.6187 159.602 23.864C159.495 24.1093 159.303 24.3067 159.026 24.456C158.652 24.68 158.188 24.856 157.634 24.984C157.09 25.112 156.546 25.176 156.002 25.176ZM163.129 25C162.66 25 162.292 24.872 162.025 24.616C161.769 24.3493 161.641 23.9813 161.641 23.512V15.192C161.641 14.712 161.769 14.344 162.025 14.088C162.281 13.832 162.644 13.704 163.113 13.704C163.593 13.704 163.956 13.832 164.201 14.088C164.457 14.344 164.585 14.712 164.585 15.192V22.552H168.489C168.895 22.552 169.204 22.6587 169.417 22.872C169.641 23.0747 169.753 23.3733 169.753 23.768C169.753 24.1627 169.641 24.4667 169.417 24.68C169.204 24.8933 168.895 25 168.489 25H163.129ZM171.708 25.144C171.377 25.144 171.1 25.0693 170.876 24.92C170.652 24.76 170.513 24.5467 170.46 24.28C170.407 24.0027 170.455 23.6933 170.604 23.352L174.588 14.776C174.78 14.36 175.015 14.056 175.292 13.864C175.58 13.672 175.905 13.576 176.268 13.576C176.631 13.576 176.945 13.672 177.212 13.864C177.489 14.056 177.729 14.36 177.932 14.776L181.916 23.352C182.087 23.6933 182.145 24.0027 182.092 24.28C182.049 24.5573 181.916 24.7707 181.692 24.92C181.479 25.0693 181.212 25.144 180.892 25.144C180.465 25.144 180.135 25.048 179.9 24.856C179.676 24.664 179.473 24.3547 179.292 23.928L178.428 21.896L179.548 22.712H172.956L174.092 21.896L173.228 23.928C173.036 24.3547 172.839 24.664 172.636 24.856C172.433 25.048 172.124 25.144 171.708 25.144ZM176.236 16.792L174.38 21.224L173.932 20.456H178.588L178.14 21.224L176.268 16.792H176.236ZM185.239 25C184.738 25 184.354 24.872 184.087 24.616C183.831 24.3493 183.703 23.9707 183.703 23.48V15.24C183.703 14.7493 183.831 14.376 184.087 14.12C184.354 13.8533 184.738 13.72 185.239 13.72H189.143C189.954 13.72 190.642 13.8427 191.207 14.088C191.783 14.3227 192.22 14.6587 192.519 15.096C192.818 15.5333 192.967 16.0453 192.967 16.632C192.967 17.2933 192.775 17.8587 192.391 18.328C192.018 18.7973 191.506 19.1173 190.855 19.288V19.032C191.623 19.1707 192.215 19.48 192.631 19.96C193.058 20.44 193.271 21.0533 193.271 21.8C193.271 22.792 192.914 23.576 192.199 24.152C191.495 24.7173 190.53 25 189.303 25H185.239ZM186.519 22.84H188.903C189.447 22.84 189.842 22.7387 190.087 22.536C190.343 22.3227 190.471 22.008 190.471 21.592C190.471 21.176 190.343 20.8667 190.087 20.664C189.842 20.4613 189.447 20.36 188.903 20.36H186.519V22.84ZM186.519 18.2H188.615C189.148 18.2 189.538 18.104 189.783 17.912C190.039 17.72 190.167 17.4267 190.167 17.032C190.167 16.6373 190.039 16.3493 189.783 16.168C189.538 15.976 189.148 15.88 188.615 15.88H186.519V18.2ZM196.745 25C196.276 25 195.908 24.872 195.641 24.616C195.385 24.3493 195.257 23.9813 195.257 23.512V15.192C195.257 14.712 195.385 14.344 195.641 14.088C195.897 13.832 196.26 13.704 196.729 13.704C197.209 13.704 197.572 13.832 197.817 14.088C198.073 14.344 198.201 14.712 198.201 15.192V22.552H202.105C202.511 22.552 202.82 22.6587 203.033 22.872C203.257 23.0747 203.369 23.3733 203.369 23.768C203.369 24.1627 203.257 24.4667 203.033 24.68C202.82 24.8933 202.511 25 202.105 25H196.745ZM206.473 25C205.971 25 205.587 24.872 205.321 24.616C205.065 24.3493 204.937 23.9707 204.937 23.48V15.24C204.937 14.7493 205.065 14.376 205.321 14.12C205.587 13.8533 205.971 13.72 206.473 13.72H211.897C212.281 13.72 212.569 13.816 212.761 14.008C212.953 14.2 213.049 14.4773 213.049 14.84C213.049 15.2133 212.953 15.5013 212.761 15.704C212.569 15.896 212.281 15.992 211.897 15.992H207.753V18.136H211.545C211.918 18.136 212.201 18.232 212.393 18.424C212.595 18.616 212.697 18.8987 212.697 19.272C212.697 19.6453 212.595 19.928 212.393 20.12C212.201 20.312 211.918 20.408 211.545 20.408H207.753V22.728H211.897C212.281 22.728 212.569 22.8293 212.761 23.032C212.953 23.224 213.049 23.5013 213.049 23.864C213.049 24.2373 212.953 24.52 212.761 24.712C212.569 24.904 212.281 25 211.897 25H206.473ZM130.122 41.144C129.652 41.144 129.29 41.016 129.034 40.76C128.778 40.4933 128.65 40.1253 128.65 39.656V32.12H126.138C125.743 32.12 125.439 32.0187 125.226 31.816C125.023 31.6027 124.922 31.304 124.922 30.92C124.922 30.5253 125.023 30.2267 125.226 30.024C125.439 29.8213 125.743 29.72 126.138 29.72H134.106C134.5 29.72 134.799 29.8213 135.002 30.024C135.215 30.2267 135.322 30.5253 135.322 30.92C135.322 31.304 135.215 31.6027 135.002 31.816C134.799 32.0187 134.5 32.12 134.106 32.12H131.594V39.656C131.594 40.1253 131.471 40.4933 131.226 40.76C130.98 41.016 130.612 41.144 130.122 41.144ZM136.789 37.816C136.469 37.816 136.203 37.7093 135.989 37.496C135.776 37.2827 135.669 37.016 135.669 36.696C135.669 36.376 135.776 36.1147 135.989 35.912C136.203 35.6987 136.469 35.592 136.789 35.592H139.957C140.277 35.592 140.544 35.6987 140.757 35.912C140.971 36.1147 141.077 36.376 141.077 36.696C141.077 37.016 140.971 37.2827 140.757 37.496C140.544 37.7093 140.277 37.816 139.957 37.816H136.789ZM144.81 41C144.309 41 143.925 40.872 143.658 40.616C143.402 40.3493 143.274 39.9707 143.274 39.48V31.24C143.274 30.7493 143.402 30.376 143.658 30.12C143.925 29.8533 144.309 29.72 144.81 29.72H147.946C149.909 29.72 151.424 30.2107 152.49 31.192C153.568 32.1733 154.106 33.56 154.106 35.352C154.106 36.248 153.968 37.048 153.69 37.752C153.413 38.4453 153.013 39.0373 152.49 39.528C151.968 40.008 151.322 40.376 150.554 40.632C149.797 40.8773 148.928 41 147.946 41H144.81ZM146.218 38.616H147.754C148.32 38.616 148.805 38.5467 149.21 38.408C149.626 38.2693 149.968 38.0667 150.234 37.8C150.512 37.5333 150.714 37.1973 150.842 36.792C150.981 36.3867 151.05 35.9067 151.05 35.352C151.05 34.2427 150.778 33.4267 150.234 32.904C149.69 32.3707 148.864 32.104 147.754 32.104H146.218V38.616ZM157.644 41.144C157.175 41.144 156.812 41.016 156.556 40.76C156.3 40.4933 156.172 40.1253 156.172 39.656V31.208C156.172 30.728 156.3 30.36 156.556 30.104C156.823 29.848 157.191 29.72 157.66 29.72H161.596C162.876 29.72 163.863 30.0347 164.556 30.664C165.26 31.2827 165.612 32.1467 165.612 33.256C165.612 33.9707 165.452 34.5947 165.132 35.128C164.823 35.6507 164.37 36.056 163.772 36.344C163.186 36.6213 162.46 36.76 161.596 36.76L161.724 36.472H162.492C162.951 36.472 163.356 36.584 163.708 36.808C164.06 37.0213 164.354 37.352 164.588 37.8L165.388 39.24C165.559 39.5493 165.639 39.8533 165.628 40.152C165.618 40.44 165.5 40.68 165.276 40.872C165.063 41.0533 164.748 41.144 164.332 41.144C163.916 41.144 163.575 41.0587 163.308 40.888C163.052 40.7173 162.823 40.4507 162.62 40.088L161.164 37.416C161.036 37.1813 160.871 37.0213 160.668 36.936C160.476 36.84 160.252 36.792 159.996 36.792H159.116V39.656C159.116 40.1253 158.994 40.4933 158.748 40.76C158.503 41.016 158.135 41.144 157.644 41.144ZM159.116 34.712H161.068C161.634 34.712 162.066 34.6 162.364 34.376C162.663 34.152 162.812 33.8053 162.812 33.336C162.812 32.888 162.663 32.552 162.364 32.328C162.066 32.0933 161.634 31.976 161.068 31.976H159.116V34.712ZM168.099 41.144C167.768 41.144 167.491 41.0693 167.267 40.92C167.043 40.76 166.904 40.5467 166.851 40.28C166.797 40.0027 166.845 39.6933 166.995 39.352L170.979 30.776C171.171 30.36 171.405 30.056 171.683 29.864C171.971 29.672 172.296 29.576 172.659 29.576C173.021 29.576 173.336 29.672 173.603 29.864C173.88 30.056 174.12 30.36 174.323 30.776L178.307 39.352C178.477 39.6933 178.536 40.0027 178.483 40.28C178.44 40.5573 178.307 40.7707 178.083 40.92C177.869 41.0693 177.603 41.144 177.283 41.144C176.856 41.144 176.525 41.048 176.291 40.856C176.067 40.664 175.864 40.3547 175.683 39.928L174.819 37.896L175.939 38.712H169.347L170.483 37.896L169.619 39.928C169.427 40.3547 169.229 40.664 169.027 40.856C168.824 41.048 168.515 41.144 168.099 41.144ZM172.627 32.792L170.771 37.224L170.323 36.456H174.979L174.531 37.224L172.659 32.792H172.627ZM181.566 41.144C181.096 41.144 180.734 41.016 180.478 40.76C180.222 40.4933 180.094 40.1253 180.094 39.656V31.208C180.094 30.728 180.222 30.36 180.478 30.104C180.744 29.848 181.112 29.72 181.582 29.72H185.518C186.798 29.72 187.784 30.0507 188.478 30.712C189.182 31.3627 189.534 32.264 189.534 33.416C189.534 34.568 189.182 35.4747 188.478 36.136C187.784 36.7867 186.798 37.112 185.518 37.112H183.038V39.656C183.038 40.1253 182.915 40.4933 182.67 40.76C182.424 41.016 182.056 41.144 181.566 41.144ZM183.038 34.856H185.006C185.56 34.856 185.987 34.7387 186.286 34.504C186.584 34.2587 186.734 33.896 186.734 33.416C186.734 32.9253 186.584 32.5627 186.286 32.328C185.987 32.0933 185.56 31.976 185.006 31.976H183.038V34.856ZM192.762 41C192.261 41 191.877 40.872 191.61 40.616C191.354 40.3493 191.226 39.9707 191.226 39.48V31.24C191.226 30.7493 191.354 30.376 191.61 30.12C191.877 29.8533 192.261 29.72 192.762 29.72H198.186C198.57 29.72 198.858 29.816 199.05 30.008C199.242 30.2 199.338 30.4773 199.338 30.84C199.338 31.2133 199.242 31.5013 199.05 31.704C198.858 31.896 198.57 31.992 198.186 31.992H194.042V34.136H197.834C198.208 34.136 198.49 34.232 198.682 34.424C198.885 34.616 198.986 34.8987 198.986 35.272C198.986 35.6453 198.885 35.928 198.682 36.12C198.49 36.312 198.208 36.408 197.834 36.408H194.042V38.728H198.186C198.57 38.728 198.858 38.8293 199.05 39.032C199.242 39.224 199.338 39.5013 199.338 39.864C199.338 40.2373 199.242 40.52 199.05 40.712C198.858 40.904 198.57 41 198.186 41H192.762Z" fill="#217D8D"/>
</svg>
