<svg width="468" height="482" viewBox="0 0 468 482" fill="none" xmlns="http://www.w3.org/2000/svg">
<rect x="254.141" y="62.832" width="180.903" height="184.355" rx="69.0469" fill="#60CE8A"/>
<path d="M435.044 181.593C435.044 219.726 404.13 250.639 365.997 250.64H323.188C285.054 250.64 254.141 219.726 254.141 181.593V138.094H435.044V181.593Z" fill="#439D65"/>
<path d="M396.723 121.868V121.868C401.673 131.768 403.546 142.923 402.102 153.897L401.805 156.159C401.181 160.902 400.017 165.558 398.338 170.037L396.723 174.344" stroke="#398F5A" stroke-width="13.8094" stroke-linecap="round"/>
<path d="M381.532 141.546C396.476 143.996 404.679 147.012 418.127 163.296C436.674 188.004 441.458 202.305 445.401 228.2L450.234 259.271" stroke="#E88379" stroke-width="34.5235" stroke-linecap="round"/>
<path d="M286.801 229.038L306.572 241.806C307.574 242.453 308.147 243.522 308.071 244.713C305.824 280.105 304.772 403.38 307.779 446.712C307.947 449.132 310.823 450.741 313.241 450.544C321.941 449.835 336.335 453.924 341.517 459.501C341.733 459.732 341.899 460.006 342.023 460.297C348.339 475.069 341.727 481.741 331.422 481.741C311.93 481.741 300.369 483.323 286.731 478.667C285.762 478.336 285.025 477.543 284.731 476.562L281.897 467.117C281.806 466.813 281.76 466.496 281.76 466.178V447.365V231.784C281.76 229.195 284.626 227.634 286.801 229.038Z" fill="#E88279"/>
<path d="M238.644 229.038L218.873 241.806C217.871 242.453 217.298 243.522 217.373 244.713C219.621 280.105 220.673 403.38 217.666 446.712C217.498 449.132 214.621 450.741 212.204 450.544C203.504 449.835 189.11 453.924 183.927 459.501C183.712 459.732 183.546 460.006 183.422 460.297C177.106 475.069 183.717 481.741 194.023 481.741C213.515 481.741 225.076 483.323 238.714 478.667C239.683 478.336 240.42 477.543 240.714 476.562L243.547 467.117C243.639 466.813 243.685 466.496 243.685 466.178V447.365V231.784C243.685 229.195 240.819 227.634 238.644 229.038Z" fill="#E88279"/>
<path d="M138.832 143.963C133.742 148.822 129.57 152.572 123.419 156.908C111.068 165.613 95.3849 168.65 80.7025 165.077C76.5068 164.057 71.8861 162.778 66.3528 161.09C61.51 159.613 56.8442 157.561 52.5742 154.84C36.6577 144.699 27.9867 135.262 18 114.272" stroke="#E88379" stroke-width="34.5235" stroke-linecap="round"/>
<path d="M247.901 7.18026C254.105 -2.39342 268.676 -2.39342 274.88 7.18026L289.769 30.1275C293.848 36.4209 302.087 38.9799 309.255 36.182L335.399 25.9834C346.308 21.7293 358.091 29.9158 357.237 41.151L355.175 68.0852C354.602 75.4705 359.689 82.1655 367.211 83.9369L394.636 90.3775C406.073 93.0663 410.578 106.311 402.975 114.923L384.752 135.543C379.756 141.203 379.756 149.487 384.752 155.147L402.975 175.768C410.578 184.379 406.073 197.624 394.636 200.313L367.211 206.753C359.689 208.525 354.602 215.22 355.175 222.605L357.237 249.539C358.091 260.776 346.308 268.961 335.399 264.709L309.255 254.508C302.087 251.71 293.848 254.272 289.769 260.567L274.88 283.513C268.676 293.079 254.105 293.079 247.901 283.513L233.012 260.567C228.933 254.272 220.694 251.71 213.527 254.508L187.383 264.709C176.473 268.961 164.691 260.776 165.545 249.539L167.607 222.605C168.179 215.22 163.092 208.525 155.57 206.753L128.146 200.313C116.709 197.624 112.203 184.379 119.806 175.768L138.029 155.147C143.025 149.487 143.025 141.203 138.029 135.543L119.806 114.923C112.203 106.311 116.709 93.0663 128.146 90.3775L155.57 83.9369C163.092 82.1655 168.179 75.4705 167.607 68.0852L165.545 41.151C164.691 29.9158 176.473 21.7293 187.383 25.9834L213.527 36.182C220.694 38.9799 228.933 36.4209 233.012 30.1275L247.901 7.18026Z" fill="#FF9B92"/>
<path d="M243.439 103.915C242.095 110.226 239.78 112.894 233.427 116.343" stroke="#4C1F1B" stroke-width="6.90469" stroke-linecap="round"/>
<path d="M133.999 126.701L139.748 136.199C141.198 138.596 142.238 141.219 142.822 143.959V143.959C143.604 147.627 143.555 151.425 142.676 155.071V155.071C142.187 157.104 141.445 159.068 140.469 160.917L139.838 162.112C138.255 165.109 136.255 167.868 133.898 170.304L130.201 174.125L121.57 184.01" stroke="#398F5A" stroke-width="13.8094" stroke-linecap="round"/>
<path d="M398.794 116.689C396.614 117.366 394.506 118.823 391.992 120.576C388.871 122.753 386.148 125.19 383.519 127.941V127.941C380.484 131.117 377.071 134.587 376.877 138.977C376.835 139.92 376.807 141.082 376.766 142.582C376.761 143.125 376.762 143.634 376.771 144.116C376.878 150.139 380.491 155.329 383.931 160.274C389.797 168.706 393.502 175.206 400.52 182.975" stroke="#398F5A" stroke-width="17.2617" stroke-linecap="round"/>
<circle cx="226.867" cy="78.3682" r="10.0118" fill="#4C1F1B"/>
<circle cx="295.914" cy="78.3682" r="10.0118" fill="#4C1F1B"/>
<path d="M241.022 111.511C264.062 122.152 273.715 122.268 285.557 111.511" stroke="#4C1F1B" stroke-width="6.90469" stroke-linecap="round"/>
</svg>
