<svg width="559" height="631" viewBox="0 0 559 631" fill="none" xmlns="http://www.w3.org/2000/svg">
<rect width="12.6706" height="381.728" rx="6.33529" transform="matrix(0.996062 0.0886557 -0.080432 0.99676 87.3271 154.933)" fill="#8C541B"/>
<path d="M180.676 169.408C174.402 186.539 148.532 228.08 134.955 247.551C131.035 253.173 125.939 257.884 119.906 261.135C102.137 270.71 90.1788 271.024 71.0796 268.393" stroke="#E2892F" stroke-width="40.3849" stroke-linecap="round"/>
<path d="M224.738 410.195L204.278 420.131C202.502 420.994 201.449 422.853 201.603 424.822C204.031 456.018 205.136 546.216 201.982 583.333C201.71 586.533 198.232 588.569 195.035 588.259C187.005 587.481 176.098 589.568 170.554 593.957C170.162 594.268 169.843 594.661 169.602 595.1C162.534 607.975 166.885 624.463 174.779 626.9C195.171 633.196 209.839 628.812 225.355 624.423C226.775 624.021 227.93 622.984 228.476 621.614L231.202 614.78C231.424 614.223 231.539 613.627 231.539 613.027V597.353V414.453C231.539 410.958 227.881 408.669 224.738 410.195Z" fill="#E28930"/>
<path d="M282.001 410.654L302.46 420.59C304.237 421.453 305.289 423.312 305.136 425.281C302.708 456.477 301.603 546.675 304.757 583.792C305.028 586.992 308.507 589.028 311.704 588.718C319.733 587.94 330.641 590.027 336.184 594.416C336.577 594.727 336.896 595.12 337.137 595.559C344.204 608.434 339.853 624.922 331.96 627.359C311.568 633.655 296.9 629.271 281.384 624.882C279.964 624.48 278.809 623.443 278.262 622.073L275.537 615.239C275.314 614.682 275.2 614.086 275.2 613.486V597.812V414.912C275.2 411.417 278.857 409.128 282.001 410.654Z" fill="#E28930"/>
<path d="M338.255 137.798C338.255 141.116 338.255 142.778 338.082 144.174C336.758 155.063 327.968 163.644 316.813 164.937C315.384 165.105 313.681 165.105 310.282 165.105H197.101C193.7 165.105 192 165.105 190.571 164.937C179.417 163.644 170.623 155.063 169.297 144.174C169.127 142.778 169.127 141.116 169.127 137.798V82.5527C169.127 36.9586 206.988 0 253.691 0C300.396 0 338.255 36.9586 338.255 82.5527V137.798Z" fill="#FFA040"/>
<path d="M329.314 154.933L369.632 182.394C373.053 184.724 376.289 187.313 379.312 190.138L399.918 209.395C403.707 212.937 407.147 216.835 410.189 221.037L419.384 233.735C424.584 240.916 428.309 249.057 430.343 257.687V257.687C431.531 262.73 432.131 267.894 432.131 273.075V280.913" stroke="#E2892F" stroke-width="40.3849" stroke-linecap="round"/>
<path d="M245.868 345.861L249.23 129.894H338.611L376.997 345.861H245.868Z" fill="#FFA040"/>
<path d="M253.318 345.861V129.894H168.575L130.384 345.861H253.318Z" fill="#FFA040"/>
<path d="M376.998 345.861C376.998 361.274 373.808 376.537 367.612 390.778C361.415 405.018 352.332 417.957 340.882 428.856C329.432 439.755 315.839 448.401 300.879 454.3C285.918 460.198 269.884 463.234 253.691 463.234C237.498 463.234 221.464 460.198 206.504 454.3C191.544 448.401 177.95 439.755 166.5 428.856C155.05 417.957 145.968 405.018 139.771 390.778C133.574 376.537 130.385 361.274 130.385 345.861L253.691 345.861H376.998Z" fill="#FFA040"/>
<path d="M9.83621 531.964C16.5571 514.673 23.2146 506.141 40.8486 491.249C41.1525 490.993 41.5012 490.778 41.8674 490.622C49.8587 487.218 54.6224 484.891 71.3728 485.534C85.882 486.949 90.697 492.588 97.8571 498.275C98.1115 498.477 98.3465 498.711 98.548 498.966C109.844 513.26 117.48 520.923 122.629 542.954C125.803 571.674 121.536 586.52 117.08 609.445C116.722 611.286 115.142 612.643 113.268 612.701C72.8313 613.94 48.4905 611.853 6.69782 602.301C4.92388 601.896 3.62107 600.342 3.53759 598.524C2.33366 572.305 2.83113 557.081 9.83621 531.964Z" fill="#E9B379"/>
<mask id="mask0_190_4315" style="mask-type:alpha" maskUnits="userSpaceOnUse" x="3" y="485" width="121" height="129">
<path d="M9.83621 531.964C16.5571 514.673 23.2146 506.141 40.8486 491.249C41.1525 490.993 41.5012 490.778 41.8674 490.622C49.8587 487.218 54.6224 484.891 71.3728 485.534C85.882 486.949 90.697 492.588 97.8571 498.275C98.1115 498.477 98.3465 498.711 98.548 498.966C109.844 513.26 117.48 520.923 122.629 542.954C125.803 571.674 121.536 586.52 117.08 609.445C116.722 611.286 115.142 612.643 113.268 612.701C72.8313 613.94 48.4905 611.853 6.69782 602.301C4.92388 601.896 3.62107 600.342 3.53759 598.524C2.33366 572.305 2.83113 557.081 9.83621 531.964Z" fill="#E9B379"/>
</mask>
<g mask="url(#mask0_190_4315)">
<rect width="127.856" height="17.2983" transform="matrix(0.995286 0.0969786 -0.087995 0.996121 3.28418 516.846)" fill="#B06D30"/>
<path d="M28.0828 607.606L30.1123 584.631M59.8961 610.706L61.9256 587.731M91.7094 613.805L93.739 590.831" stroke="#B06D30" stroke-width="4.03849" stroke-linecap="round"/>
</g>
<path d="M359.061 474.841C368.425 449.978 374.074 436.085 389.417 411.926C396.271 402.564 401.831 395.299 406.728 389.414C418.896 374.792 440.275 376.126 453.927 389.374C479.879 414.56 519.465 455.105 531.779 479.335C550.621 516.41 580.066 584.656 535.967 611.906C495.983 636.612 444.939 637.744 375.229 612.953C361.444 608.05 351.896 595.486 350.348 580.938C346.693 546.6 345.567 512.093 359.061 474.841Z" fill="#505353"/>
<path d="M400.101 333.143C404.657 356.588 404.69 373.687 399.021 395.503C397.647 400.792 401.518 406.111 406.982 406.111H466.882C470.132 406.111 472.972 404.111 474.551 401.269C477.134 396.62 480.621 392.923 488.154 387.549C488.543 387.272 488.921 386.952 489.255 386.612C503.133 372.475 507.19 364.598 509.619 355.208C510.773 350.745 507.615 346.346 503.043 345.759C485.492 343.508 473.244 343.534 454.503 346.472C452.645 346.763 450.734 346.42 449.108 345.475L412.399 324.128C406.236 320.544 398.741 326.145 400.101 333.143Z" fill="#505353"/>
<mask id="mask1_190_4315" style="mask-type:alpha" maskUnits="userSpaceOnUse" x="398" y="322" width="114" height="84">
<path d="M400.161 333.015C404.759 356.193 404.8 373.117 399.099 394.668C397.696 399.971 401.569 405.328 407.054 405.328H467.911C471.139 405.328 473.963 403.354 475.555 400.546C478.173 395.927 481.705 392.258 489.35 386.921C489.739 386.649 490.119 386.334 490.456 385.999C504.455 372.042 508.589 364.239 511.053 354.982C512.245 350.505 509.066 346.076 504.469 345.498C486.639 343.257 474.216 343.284 455.165 346.213C453.341 346.494 451.467 346.163 449.863 345.25L412.39 323.92C406.208 320.402 398.777 326.038 400.161 333.015Z" fill="#505353"/>
</mask>
<g mask="url(#mask1_190_4315)">
<path d="M401.532 383.48C426.52 393.986 447.84 401.103 483.025 395.826C479.558 399.513 482.673 404.247 476.038 408.52C452.478 409.532 422.969 406.498 397.807 398.739C395.62 395.339 401.961 387.9 401.532 383.48Z" fill="#86A3A3"/>
</g>
<ellipse cx="232.917" cy="66.3618" rx="9.68564" ry="10.1723" fill="#2D1C0B"/>
<ellipse cx="273.504" cy="66.3618" rx="9.68564" ry="10.1723" fill="#2D1C0B"/>
<path d="M237.067 94.9414H269.353V107.862C269.353 116.778 262.126 124.005 253.21 124.005V124.005C244.295 124.005 237.067 116.778 237.067 107.862V94.9414Z" fill="#2D1C0B"/>
<ellipse cx="253.21" cy="116.275" rx="10.0892" ry="5.25621" fill="#E42F2F"/>
</svg>
